<?xml version="1.0" standalone="no"?>
<!DOCTYPE svg PUBLIC "-//W3C//DTD SVG 20010904//EN"
 "http://www.w3.org/TR/2001/REC-SVG-20010904/DTD/svg10.dtd">
<svg version="1.0" xmlns="http://www.w3.org/2000/svg"
 width="1872.000000pt" height="672.000000pt" viewBox="0 0 1872.000000 672.000000"
 preserveAspectRatio="xMidYMid meet">

<g transform="translate(0.000000,672.000000) scale(0.100000,-0.100000)"
fill="#000000" stroke="none">
<path d="M8180 6323 c-1853 -51 -3531 -378 -4575 -893 -333 -165 -542 -306
-731 -494 -118 -118 -196 -225 -250 -340 -179 -389 -20 -791 456 -1153 392
-297 1032 -573 1797 -773 l122 -32 117 -475 c65 -261 123 -477 129 -479 6 -3
508 131 1115 296 661 181 1112 299 1124 295 47 -13 547 -35 941 -41 2489 -39
4803 439 5838 1203 120 89 316 282 376 371 336 497 137 1001 -572 1448 -133
84 -504 268 -683 338 -1074 421 -2466 666 -4119 726 -240 9 -824 10 -1085 3z
m1355 -63 c1463 -79 2674 -291 3627 -636 587 -212 1004 -449 1283 -729 213
-212 300 -392 300 -620 0 -158 -43 -284 -148 -440 -60 -88 -246 -271 -371
-363 -1016 -750 -3326 -1225 -5781 -1189 -452 7 -825 22 -924 38 l-65 10
-1088 -297 c-599 -163 -1091 -294 -1093 -292 -3 2 -58 218 -122 479 l-118 474
-40 2 c-55 2 -398 99 -648 183 -288 97 -476 174 -722 295 -333 165 -529 298
-716 484 -297 297 -378 595 -245 902 51 119 119 212 251 344 395 394 1150 738
2171 986 897 218 1858 337 3099 383 175 7 1162 -3 1350 -14z"/>
<path d="M4870 5140 l0 -220 30 0 30 0 0 109 0 109 31 27 c39 32 78 30 96 -5
8 -15 13 -66 13 -132 l0 -108 25 0 25 0 0 131 0 131 -29 29 c-37 36 -84 39
-132 6 l-34 -23 3 83 3 83 -30 0 -31 0 0 -220z"/>
<path d="M7320 5145 l0 -214 38 -10 c90 -26 166 -4 204 58 30 48 32 160 3 208
-33 57 -98 69 -156 30 l-34 -23 4 83 3 83 -31 0 -31 0 0 -215z m186 24 c15
-17 19 -36 19 -91 0 -64 -2 -72 -28 -94 -27 -23 -68 -31 -101 -18 -13 5 -16
23 -16 89 0 82 0 84 33 109 39 31 68 33 93 5z"/>
<path d="M9960 5300 l0 -60 -46 0 c-54 0 -107 -23 -128 -55 -49 -75 -41 -202
15 -250 48 -39 114 -30 157 23 10 14 12 12 12 -11 0 -22 5 -27 25 -27 l25 0 0
220 0 220 -30 0 -30 0 0 -60z m-16 -116 c13 -5 16 -22 16 -84 0 -77 -1 -78
-35 -109 -42 -36 -65 -39 -91 -10 -15 17 -19 36 -19 91 0 64 2 72 28 94 27 23
68 31 101 18z"/>
<path d="M11880 5140 l0 -220 25 0 c23 0 24 2 27 82 l3 82 69 -82 c65 -77 71
-82 109 -82 l39 0 -75 83 -76 83 72 72 72 72 -35 0 c-30 0 -45 -10 -100 -65
-35 -36 -68 -65 -72 -65 -4 0 -8 59 -8 130 l0 130 -25 0 -25 0 0 -220z"/>
<path d="M4485 5288 c5 -45 25 -325 25 -352 0 -12 10 -16 38 -16 l38 0 29 93
28 92 30 -92 31 -93 37 0 c37 0 37 0 43 48 3 26 8 97 11 157 3 61 8 132 11
158 l6 49 -28 -4 -29 -3 -6 -110 c-4 -60 -7 -137 -8 -170 l-2 -60 -37 103
c-31 86 -40 102 -58 102 -18 0 -25 -14 -50 -97 l-29 -98 -7 50 c-4 28 -10 103
-14 168 l-6 117 -29 0 c-28 0 -28 -1 -24 -42z"/>
<path d="M6698 5323 c-14 -3 -18 -15 -18 -49 l0 -44 -45 0 c-41 0 -45 -2 -45
-25 0 -23 4 -25 45 -25 l45 0 0 -104 c0 -94 2 -108 23 -131 25 -29 82 -42 141
-31 30 6 36 11 36 32 0 23 -2 24 -40 18 -88 -14 -110 14 -110 142 l0 74 75 0
c73 0 75 1 75 25 0 24 -2 25 -75 25 l-75 0 0 50 c0 28 -3 49 -7 49 -5 -1 -16
-3 -25 -6z"/>
<path d="M12648 5323 c-14 -3 -18 -15 -18 -49 l0 -44 -45 0 c-41 0 -45 -2 -45
-25 0 -23 4 -25 45 -25 l45 0 0 -104 c0 -94 2 -108 23 -131 25 -29 82 -42 141
-31 30 6 36 11 36 32 0 23 -2 24 -40 18 -88 -14 -110 14 -110 142 l0 74 75 0
c73 0 75 1 75 25 0 24 -2 25 -75 25 l-75 0 0 50 c0 28 -3 49 -7 49 -5 -1 -16
-3 -25 -6z"/>
<path d="M6006 5215 c-34 -23 -36 -23 -36 -5 0 15 -7 20 -25 20 l-25 0 0 -155
0 -155 30 0 30 0 0 109 0 109 31 27 c39 32 78 30 96 -5 8 -15 13 -66 13 -132
l0 -108 25 0 25 0 0 125 c0 69 -5 135 -11 148 -23 51 -95 61 -153 22z"/>
<path d="M6319 5217 c-46 -30 -69 -80 -69 -147 0 -100 55 -160 146 -160 85 0
144 70 144 170 0 32 -7 69 -18 90 -33 68 -137 92 -203 47z m136 -53 c43 -46
35 -154 -14 -191 -17 -13 -60 -17 -86 -7 -39 15 -59 121 -34 178 23 50 96 61
134 20z"/>
<path d="M7750 5233 c-23 -9 -60 -45 -76 -75 -8 -15 -14 -55 -14 -90 0 -109
50 -158 162 -158 77 0 98 8 98 35 0 22 -3 23 -54 18 -30 -3 -66 -3 -80 1 -36
9 -66 41 -66 71 l0 25 111 0 112 0 -6 45 c-9 65 -33 104 -72 121 -34 14 -87
17 -115 7z m98 -60 c11 -10 23 -28 27 -40 6 -23 5 -23 -74 -23 -91 0 -101 11
-56 55 29 30 74 33 103 8z"/>
<path d="M8420 5231 c-18 -5 -26 -15 -28 -35 -3 -25 -1 -28 15 -21 34 14 110
17 132 6 14 -8 21 -21 21 -41 0 -29 -1 -30 -50 -30 -93 0 -150 -41 -150 -108
0 -24 9 -42 30 -64 28 -28 35 -30 81 -26 27 3 57 12 67 22 23 20 32 20 32 1 0
-9 9 -15 25 -15 l25 0 0 126 c0 69 -5 134 -10 145 -23 42 -114 61 -190 40z
m140 -201 c0 -52 -88 -91 -124 -54 -39 39 1 84 74 84 49 0 50 -1 50 -30z"/>
<path d="M9148 5219 c-71 -37 -101 -153 -61 -236 28 -60 123 -89 202 -62 23 8
31 17 31 36 0 21 -3 23 -22 16 -13 -4 -45 -8 -71 -8 -65 0 -97 34 -97 101 0
103 73 148 173 109 13 -6 17 -2 17 19 0 19 -7 29 -26 36 -40 16 -106 11 -146
-11z"/>
<path d="M9469 5217 c-46 -30 -69 -80 -69 -147 0 -100 55 -160 146 -160 85 0
144 70 144 170 0 32 -7 69 -18 90 -33 68 -137 92 -203 47z m136 -53 c43 -46
35 -154 -14 -191 -17 -13 -60 -17 -86 -7 -39 15 -59 121 -34 178 23 50 96 61
134 20z"/>
<path d="M10200 5233 c-23 -9 -60 -45 -76 -75 -8 -15 -14 -55 -14 -90 0 -109
50 -158 162 -158 77 0 98 8 98 35 0 22 -3 23 -54 18 -30 -3 -66 -3 -80 1 -36
9 -66 41 -66 71 l0 25 111 0 112 0 -6 45 c-9 65 -33 104 -72 121 -34 14 -87
17 -115 7z m98 -60 c11 -10 23 -28 27 -40 6 -23 5 -23 -74 -23 -91 0 -101 11
-56 55 29 30 74 33 103 8z"/>
<path d="M10926 5215 c-37 -25 -38 -25 -43 -5 -3 13 -14 20 -29 20 l-24 0 0
-155 0 -155 30 0 30 0 0 101 0 101 34 34 c52 52 106 43 106 -18 0 -25 4 -28
31 -28 31 0 32 0 26 42 -11 83 -88 113 -161 63z"/>
<path d="M11219 5217 c-46 -30 -69 -80 -69 -147 0 -100 55 -160 146 -160 85 0
144 70 144 170 0 32 -7 69 -18 90 -33 68 -137 92 -203 47z m136 -53 c43 -46
35 -154 -14 -191 -17 -13 -60 -17 -86 -7 -39 15 -59 121 -34 178 23 50 96 61
134 20z"/>
<path d="M11598 5219 c-71 -37 -101 -153 -61 -236 28 -60 123 -89 202 -62 23
8 31 17 31 36 0 21 -3 23 -22 16 -13 -4 -45 -8 -71 -8 -65 0 -97 34 -97 101 0
103 73 148 173 109 13 -6 17 -2 17 19 0 19 -7 29 -26 36 -40 16 -106 11 -146
-11z"/>
<path d="M12284 5224 c-32 -15 -54 -50 -54 -83 0 -32 33 -60 105 -88 74 -30
93 -55 59 -80 -21 -15 -85 -17 -132 -4 -30 9 -32 8 -32 -14 0 -13 5 -27 10
-30 22 -14 119 -17 154 -5 104 34 100 137 -6 170 -70 22 -98 39 -98 60 0 30
36 43 102 37 55 -5 58 -4 58 18 0 15 -7 25 -22 29 -41 11 -112 6 -144 -10z"/>
<path d="M12970 5231 c-18 -5 -26 -15 -28 -35 -3 -25 -1 -28 15 -21 34 14 110
17 132 6 14 -8 21 -21 21 -41 0 -29 -1 -30 -50 -30 -93 0 -150 -41 -150 -108
0 -24 9 -42 30 -64 28 -28 35 -30 81 -26 27 3 57 12 67 22 23 20 32 20 32 1 0
-9 9 -15 25 -15 l25 0 0 126 c0 69 -5 134 -10 145 -23 42 -114 61 -190 40z
m140 -201 c0 -52 -88 -91 -124 -54 -39 39 1 84 74 84 49 0 50 -1 50 -30z"/>
<path d="M13376 5215 c-37 -25 -38 -25 -43 -5 -3 13 -14 20 -29 20 l-24 0 0
-155 0 -155 30 0 30 0 0 101 0 101 34 34 c52 52 106 43 106 -18 0 -25 4 -28
31 -28 31 0 32 0 26 42 -11 83 -88 113 -161 63z"/>
<path d="M5193 5218 c3 -7 31 -75 62 -152 36 -88 54 -147 51 -161 -9 -35 -55
-75 -87 -75 -24 0 -29 -4 -29 -25 0 -21 5 -25 31 -25 46 0 94 27 122 68 13 20
54 114 90 207 61 159 65 170 46 173 -37 6 -45 -5 -83 -115 -21 -59 -41 -111
-45 -115 -4 -5 -27 46 -51 112 l-45 120 -34 0 c-22 0 -32 -4 -28 -12z"/>
<path d="M10500 5085 c0 -25 0 -25 95 -25 95 0 95 0 95 25 0 25 0 25 -95 25
-95 0 -95 0 -95 -25z"/>
<path d="M7409 4599 c-16 -30 3 -69 34 -69 29 0 47 17 47 45 0 45 -60 63 -81
24z"/>
<path d="M4710 4550 l0 -60 -46 0 c-54 0 -107 -23 -128 -55 -49 -75 -41 -202
15 -250 48 -39 114 -30 157 23 10 14 12 12 12 -11 0 -22 5 -27 25 -27 l25 0 0
220 0 220 -30 0 -30 0 0 -60z m-16 -116 c13 -5 16 -22 16 -84 0 -77 -1 -78
-35 -109 -42 -36 -65 -39 -91 -10 -15 17 -19 36 -19 91 0 64 2 72 28 94 27 23
68 31 101 18z"/>
<path d="M5570 4390 l0 -220 30 0 30 0 0 109 0 109 31 27 c39 32 78 30 96 -5
8 -15 13 -66 13 -132 l0 -108 25 0 25 0 0 131 0 131 -29 29 c-37 36 -84 39
-132 6 l-34 -23 3 83 3 83 -30 0 -31 0 0 -220z"/>
<path d="M10470 4390 l0 -220 30 0 30 0 0 109 0 109 31 27 c39 32 78 30 96 -5
8 -15 13 -66 13 -132 l0 -108 25 0 25 0 0 131 0 131 -29 29 c-37 36 -84 39
-132 6 l-34 -23 3 83 3 83 -30 0 -31 0 0 -220z"/>
<path d="M12230 4585 c0 -23 3 -25 50 -25 l50 0 0 -170 0 -170 -55 0 c-52 0
-55 -1 -55 -25 l0 -25 130 0 130 0 0 25 c0 23 -3 25 -50 25 l-50 0 0 195 0
195 -75 0 c-73 0 -75 -1 -75 -25z"/>
<path d="M12580 4585 c0 -23 3 -25 50 -25 l50 0 0 -170 0 -170 -55 0 c-52 0
-55 -1 -55 -25 l0 -25 130 0 130 0 0 25 c0 23 -3 25 -50 25 l-50 0 0 195 0
195 -75 0 c-73 0 -75 -1 -75 -25z"/>
<path d="M5298 4573 c-14 -3 -18 -15 -18 -49 l0 -44 -45 0 c-41 0 -45 -2 -45
-25 0 -23 4 -25 45 -25 l45 0 0 -104 c0 -94 2 -108 23 -131 25 -29 82 -42 141
-31 30 6 36 11 36 32 0 23 -2 24 -40 18 -88 -14 -110 14 -110 142 l0 74 75 0
c73 0 75 1 75 25 0 24 -2 25 -75 25 l-75 0 0 50 c0 28 -3 49 -7 49 -5 -1 -16
-3 -25 -6z"/>
<path d="M7748 4573 c-14 -3 -18 -15 -18 -49 l0 -44 -45 0 c-41 0 -45 -2 -45
-25 0 -23 4 -25 45 -25 l45 0 0 -104 c0 -94 2 -108 23 -131 25 -29 82 -42 141
-31 30 6 36 11 36 32 0 23 -2 24 -40 18 -88 -14 -110 14 -110 142 l0 74 75 0
c73 0 75 1 75 25 0 24 -2 25 -75 25 l-75 0 0 50 c0 28 -3 49 -7 49 -5 -1 -16
-3 -25 -6z"/>
<path d="M10198 4573 c-14 -3 -18 -15 -18 -49 l0 -44 -45 0 c-41 0 -45 -2 -45
-25 0 -23 4 -25 45 -25 l45 0 0 -104 c0 -94 2 -108 23 -131 25 -29 82 -42 141
-31 30 6 36 11 36 32 0 23 -2 24 -40 18 -88 -14 -110 14 -110 142 l0 74 75 0
c73 0 75 1 75 25 0 24 -2 25 -75 25 l-75 0 0 50 c0 28 -3 49 -7 49 -5 -1 -16
-3 -25 -6z"/>
<path d="M13348 4573 c-14 -3 -18 -15 -18 -49 l0 -44 -45 0 c-41 0 -45 -2 -45
-25 0 -23 4 -25 45 -25 l45 0 0 -104 c0 -94 2 -108 23 -131 25 -29 82 -42 141
-31 30 6 36 11 36 32 0 23 -2 24 -40 18 -88 -14 -110 14 -110 142 l0 74 75 0
c73 0 75 1 75 25 0 24 -2 25 -75 25 l-75 0 0 50 c0 28 -3 49 -7 49 -5 -1 -16
-3 -25 -6z"/>
<path d="M3870 4481 c-18 -5 -26 -15 -28 -35 -3 -25 -1 -28 15 -21 34 14 110
17 132 6 14 -8 21 -21 21 -41 0 -29 -1 -30 -50 -30 -93 0 -150 -41 -150 -108
0 -24 9 -42 30 -64 28 -28 35 -30 81 -26 27 3 57 12 67 22 23 20 32 20 32 1 0
-9 9 -15 25 -15 l25 0 0 126 c0 69 -5 134 -10 145 -23 42 -114 61 -190 40z
m140 -201 c0 -52 -88 -91 -124 -54 -39 39 1 84 74 84 49 0 50 -1 50 -30z"/>
<path d="M4256 4465 c-34 -23 -36 -23 -36 -5 0 15 -7 20 -25 20 l-25 0 0 -155
0 -155 30 0 30 0 0 109 0 109 31 27 c39 32 78 30 96 -5 8 -15 13 -66 13 -132
l0 -108 25 0 25 0 0 125 c0 69 -5 135 -11 148 -23 51 -95 61 -153 22z"/>
<path d="M6026 4465 c-37 -25 -38 -25 -43 -5 -3 13 -14 20 -29 20 l-24 0 0
-155 0 -155 30 0 30 0 0 101 0 101 34 34 c52 52 106 43 106 -18 0 -25 4 -28
31 -28 31 0 32 0 26 42 -11 83 -88 113 -161 63z"/>
<path d="M6319 4467 c-46 -30 -69 -80 -69 -147 0 -100 55 -160 146 -160 85 0
144 70 144 170 0 32 -7 69 -18 90 -33 68 -137 92 -203 47z m136 -53 c43 -46
35 -154 -14 -191 -17 -13 -60 -17 -86 -7 -39 15 -59 121 -34 178 23 50 96 61
134 20z"/>
<path d="M8419 4467 c-46 -30 -69 -80 -69 -147 0 -100 55 -160 146 -160 85 0
144 70 144 170 0 32 -7 69 -18 90 -33 68 -137 92 -203 47z m136 -53 c43 -46
35 -154 -14 -191 -17 -13 -60 -17 -86 -7 -39 15 -59 121 -34 178 23 50 96 61
134 20z"/>
<path d="M9150 4483 c-23 -9 -60 -45 -76 -75 -8 -15 -14 -55 -14 -90 0 -109
50 -158 162 -158 77 0 98 8 98 35 0 22 -3 23 -54 18 -30 -3 -66 -3 -80 1 -36
9 -66 41 -66 71 l0 25 111 0 112 0 -6 45 c-9 65 -33 104 -72 121 -34 14 -87
17 -115 7z m98 -60 c11 -10 23 -28 27 -40 6 -23 5 -23 -74 -23 -91 0 -101 11
-56 55 29 30 74 33 103 8z"/>
<path d="M9526 4465 c-37 -25 -38 -25 -43 -5 -3 13 -14 20 -29 20 l-24 0 0
-155 0 -155 30 0 30 0 0 101 0 101 34 34 c52 52 106 43 106 -18 0 -25 4 -28
31 -28 31 0 32 0 26 42 -11 83 -88 113 -161 63z"/>
<path d="M10900 4483 c-23 -9 -60 -45 -76 -75 -8 -15 -14 -55 -14 -90 0 -109
50 -158 162 -158 77 0 98 8 98 35 0 22 -3 23 -54 18 -30 -3 -66 -3 -80 1 -36
9 -66 41 -66 71 l0 25 111 0 112 0 -6 45 c-9 65 -33 104 -72 121 -34 14 -87
17 -115 7z m98 -60 c11 -10 23 -28 27 -40 6 -23 5 -23 -74 -23 -91 0 -101 11
-56 55 29 30 74 33 103 8z"/>
<path d="M11920 4481 c-18 -5 -26 -15 -28 -35 -3 -25 -1 -28 15 -21 34 14 110
17 132 6 14 -8 21 -21 21 -41 0 -29 -1 -30 -50 -30 -93 0 -150 -41 -150 -108
0 -24 9 -42 30 -64 28 -28 35 -30 81 -26 27 3 57 12 67 22 23 20 32 20 32 1 0
-9 9 -15 25 -15 l25 0 0 126 c0 69 -5 134 -10 145 -23 42 -114 61 -190 40z
m140 -201 c0 -52 -88 -91 -124 -54 -39 39 1 84 74 84 49 0 50 -1 50 -30z"/>
<path d="M13669 4467 c-46 -30 -69 -80 -69 -147 0 -100 55 -160 146 -160 85 0
144 70 144 170 0 32 -7 69 -18 90 -33 68 -137 92 -203 47z m136 -53 c43 -46
35 -154 -14 -191 -17 -13 -60 -17 -86 -7 -39 15 -59 121 -34 178 23 50 96 61
134 20z"/>
<path d="M6583 4458 c3 -13 13 -83 23 -156 l18 -133 35 3 c33 3 35 5 59 77
l25 75 27 -75 c26 -71 29 -74 62 -77 l35 -3 21 148 c12 81 22 152 22 156 0 5
-12 7 -27 5 -28 -3 -28 -4 -40 -108 -7 -58 -14 -112 -16 -120 -2 -8 -15 22
-31 68 -24 70 -31 82 -50 82 -19 0 -26 -11 -46 -75 -13 -41 -26 -75 -30 -75
-4 0 -13 52 -20 115 l-12 115 -30 0 c-26 0 -29 -3 -25 -22z"/>
<path d="M7330 4455 c0 -23 3 -25 50 -25 l50 0 0 -105 0 -105 -55 0 c-52 0
-55 -1 -55 -25 l0 -25 130 0 130 0 0 25 c0 23 -3 25 -50 25 l-50 0 0 130 0
130 -75 0 c-73 0 -75 -1 -75 -25z"/>
<path d="M8693 4468 c3 -7 30 -77 62 -155 l57 -143 33 0 34 0 59 153 c55 140
58 152 40 155 -11 2 -25 1 -32 -1 -7 -3 -32 -60 -56 -128 l-44 -122 -45 126
-46 127 -34 0 c-22 0 -32 -4 -28 -12z"/>
<path d="M11483 4458 c3 -13 13 -83 23 -156 l18 -133 35 3 c33 3 35 5 59 77
l25 75 27 -75 c26 -71 29 -74 62 -77 l35 -3 21 148 c12 81 22 152 22 156 0 5
-12 7 -27 5 -28 -3 -28 -4 -40 -108 -7 -58 -14 -112 -16 -120 -2 -8 -15 22
-31 68 -24 70 -31 82 -50 82 -19 0 -26 -11 -46 -75 -13 -41 -26 -75 -30 -75
-4 0 -13 52 -20 115 l-12 115 -30 0 c-26 0 -29 -3 -25 -22z"/>
<path d="M4170 3640 l0 -220 30 0 30 0 0 109 0 109 31 27 c39 32 78 30 96 -5
8 -15 13 -66 13 -132 l0 -108 25 0 25 0 0 131 0 131 -29 29 c-37 36 -84 39
-132 6 l-34 -23 3 83 3 83 -30 0 -31 0 0 -220z"/>
<path d="M7763 3748 c4 -62 7 -137 7 -165 0 -49 2 -53 23 -53 23 0 24 4 30 98
4 53 7 127 7 165 l0 67 -37 0 -36 0 6 -112z"/>
<path d="M3898 3823 c-14 -3 -18 -15 -18 -49 l0 -44 -45 0 c-41 0 -45 -2 -45
-25 0 -23 4 -25 45 -25 l45 0 0 -104 c0 -94 2 -108 23 -131 25 -29 82 -42 141
-31 30 6 36 11 36 32 0 23 -2 24 -40 18 -88 -14 -110 14 -110 142 l0 74 75 0
c73 0 75 1 75 25 0 24 -2 25 -75 25 l-75 0 0 50 c0 28 -3 49 -7 49 -5 -1 -16
-3 -25 -6z"/>
<path d="M5298 3823 c-14 -3 -18 -15 -18 -49 l0 -44 -45 0 c-41 0 -45 -2 -45
-25 0 -23 4 -25 45 -25 l45 0 0 -104 c0 -94 2 -108 23 -131 25 -29 82 -42 141
-31 30 6 36 11 36 32 0 23 -2 24 -40 18 -88 -14 -110 14 -110 142 l0 74 75 0
c73 0 75 1 75 25 0 24 -2 25 -75 25 l-75 0 0 50 c0 28 -3 49 -7 49 -5 -1 -16
-3 -25 -6z"/>
<path d="M6348 3823 c-14 -3 -18 -15 -18 -49 l0 -44 -45 0 c-41 0 -45 -2 -45
-25 0 -23 4 -25 45 -25 l45 0 0 -104 c0 -94 2 -108 23 -131 25 -29 82 -42 141
-31 30 6 36 11 36 32 0 23 -2 24 -40 18 -88 -14 -110 14 -110 142 l0 74 75 0
c73 0 75 1 75 25 0 24 -2 25 -75 25 l-75 0 0 50 c0 28 -3 49 -7 49 -5 -1 -16
-3 -25 -6z"/>
<path d="M4600 3733 c-23 -9 -60 -45 -76 -75 -8 -15 -14 -55 -14 -90 0 -109
50 -158 162 -158 77 0 98 8 98 35 0 22 -3 23 -54 18 -30 -3 -66 -3 -80 1 -36
9 -66 41 -66 71 l0 25 111 0 112 0 -6 45 c-9 65 -33 104 -72 121 -34 14 -87
17 -115 7z m98 -60 c11 -10 23 -28 27 -40 6 -23 5 -23 -74 -23 -91 0 -101 11
-56 55 29 30 74 33 103 8z"/>
<path d="M5650 3733 c-23 -9 -60 -45 -76 -75 -8 -15 -14 -55 -14 -90 0 -109
50 -158 162 -158 77 0 98 8 98 35 0 22 -3 23 -54 18 -30 -3 -66 -3 -80 1 -36
9 -66 41 -66 71 l0 25 111 0 112 0 -6 45 c-9 65 -33 104 -72 121 -34 14 -87
17 -115 7z m98 -60 c11 -10 23 -28 27 -40 6 -23 5 -23 -74 -23 -91 0 -101 11
-56 55 29 30 74 33 103 8z"/>
<path d="M5984 3724 c-32 -15 -54 -50 -54 -83 0 -32 33 -60 105 -88 74 -30 93
-55 59 -80 -21 -15 -85 -17 -132 -4 -30 9 -32 8 -32 -14 0 -13 5 -27 10 -30
22 -14 119 -17 154 -5 104 34 100 137 -6 170 -70 22 -98 39 -98 60 0 30 36 43
102 37 55 -5 58 -4 58 18 0 15 -7 25 -22 29 -41 11 -112 6 -144 -10z"/>
<path d="M6700 3733 c-23 -9 -60 -45 -76 -75 -8 -15 -14 -55 -14 -90 0 -109
50 -158 162 -158 77 0 98 8 98 35 0 22 -3 23 -54 18 -30 -3 -66 -3 -80 1 -36
9 -66 41 -66 71 l0 25 111 0 112 0 -6 45 c-9 65 -33 104 -72 121 -34 14 -87
17 -115 7z m98 -60 c11 -10 23 -28 27 -40 6 -23 5 -23 -74 -23 -91 0 -101 11
-56 55 29 30 74 33 103 8z"/>
<path d="M7076 3715 c-37 -25 -38 -25 -43 -5 -3 13 -14 20 -29 20 l-24 0 0
-155 0 -155 30 0 30 0 0 101 0 101 34 34 c52 52 106 43 106 -18 0 -25 4 -28
31 -28 31 0 32 0 26 42 -11 83 -88 113 -161 63z"/>
<path d="M7384 3724 c-32 -15 -54 -50 -54 -83 0 -32 33 -60 105 -88 74 -30 93
-55 59 -80 -21 -15 -85 -17 -132 -4 -30 9 -32 8 -32 -14 0 -13 5 -27 10 -30
22 -14 119 -17 154 -5 104 34 100 137 -6 170 -70 22 -98 39 -98 60 0 30 36 43
102 37 55 -5 58 -4 58 18 0 15 -7 25 -22 29 -41 11 -112 6 -144 -10z"/>
<path d="M7758 3465 c-8 -19 -8 -28 2 -40 32 -38 94 1 70 45 -16 29 -58 26
-72 -5z"/>
<path d="M3940 2370 c0 -13 -7 -20 -20 -20 -15 0 -20 -7 -20 -25 0 -20 -5 -25
-25 -25 -18 0 -25 -5 -25 -20 0 -19 -7 -20 -110 -20 l-110 0 0 -45 0 -45 45 0
c38 0 45 -3 45 -20 0 -18 -7 -20 -65 -20 -63 0 -65 -1 -65 -25 0 -23 -4 -25
-45 -25 l-45 0 0 -110 c0 -103 1 -110 20 -110 13 0 20 -7 20 -20 0 -17 7 -20
45 -20 l45 0 0 -45 c0 -38 -3 -45 -20 -45 -17 0 -20 -7 -20 -45 0 -41 -2 -45
-25 -45 -23 0 -25 -4 -25 -45 0 -38 -3 -45 -20 -45 -18 0 -20 -7 -20 -85 0
-78 -2 -85 -20 -85 -19 0 -20 -7 -20 -245 0 -238 1 -245 20 -245 17 0 20 -7
20 -45 0 -38 3 -45 20 -45 13 0 20 -7 20 -20 0 -17 7 -20 45 -20 38 0 45 -3
45 -20 0 -19 7 -20 110 -20 103 0 110 1 110 20 0 17 7 20 45 20 38 0 45 3 45
20 0 15 7 20 25 20 23 0 25 4 25 45 0 38 3 45 20 45 15 0 20 7 20 25 0 18 5
25 20 25 13 0 20 7 20 20 0 15 7 20 25 20 23 0 25 4 25 45 0 38 3 45 20 45 17
0 20 7 20 45 0 41 2 45 25 45 23 0 25 4 25 45 0 38 3 45 20 45 17 0 20 7 20
40 0 33 3 40 20 40 15 0 20 7 20 25 0 20 5 25 25 25 18 0 25 5 25 20 0 13 7
20 20 20 15 0 20 7 20 25 0 20 5 25 25 25 20 0 25 -5 25 -25 0 -18 5 -25 20
-25 13 0 20 -7 20 -20 0 -15 7 -20 25 -20 25 0 25 1 25 85 l0 85 -45 0 c-38 0
-45 -3 -45 -20 0 -18 -7 -20 -70 -20 -63 0 -70 -2 -70 -20 0 -13 -7 -20 -20
-20 -15 0 -20 -7 -20 -25 0 -18 -5 -25 -20 -25 -17 0 -20 -7 -20 -45 0 -41 -2
-45 -25 -45 -22 0 -25 -4 -25 -40 0 -33 -3 -40 -20 -40 -17 0 -20 -7 -20 -45
0 -41 -2 -45 -25 -45 -23 0 -25 -4 -25 -45 0 -38 -3 -45 -20 -45 -17 0 -20 -7
-20 -45 0 -38 -3 -45 -20 -45 -13 0 -20 -7 -20 -20 0 -15 -7 -20 -25 -20 -20
0 -25 -5 -25 -25 0 -18 -5 -25 -20 -25 -13 0 -20 -7 -20 -20 0 -17 -7 -20 -45
-20 -41 0 -45 -2 -45 -25 0 -25 -1 -25 -90 -25 -89 0 -90 0 -90 25 0 18 -5 25
-20 25 -13 0 -20 7 -20 20 0 15 -7 20 -25 20 l-25 0 0 110 c0 103 -1 110 -20
110 -18 0 -20 7 -20 70 0 63 2 70 20 70 17 0 20 7 20 40 0 36 3 40 25 40 24 0
25 2 25 70 0 63 2 70 20 70 18 0 20 7 20 65 0 63 1 65 25 65 24 0 25 2 25 65
l0 65 45 0 c38 0 45 3 45 20 0 17 7 20 40 20 36 0 40 3 40 25 0 20 5 25 25 25
24 0 25 2 25 65 0 63 -1 65 -25 65 -23 0 -25 4 -25 45 0 38 -3 45 -20 45 -17
0 -20 7 -20 45 0 38 3 45 20 45 13 0 20 7 20 20 0 15 7 20 25 20 23 0 25 4 25
45 0 38 3 45 20 45 13 0 20 7 20 20 0 17 7 20 45 20 41 0 45 2 45 25 0 23 4
25 45 25 41 0 45 -2 45 -25 0 -18 5 -25 20 -25 13 0 20 -7 20 -20 0 -15 7 -20
25 -20 l25 0 0 -110 0 -110 -25 0 c-20 0 -25 -5 -25 -25 0 -18 -5 -25 -20 -25
-13 0 -20 -7 -20 -20 0 -15 -7 -20 -25 -20 -18 0 -25 -5 -25 -20 0 -13 -7 -20
-20 -20 -19 0 -20 -7 -20 -90 0 -83 1 -90 20 -90 19 0 20 -7 20 -110 0 -103
-1 -110 -20 -110 -17 0 -20 -7 -20 -45 0 -38 -3 -45 -20 -45 -17 0 -20 -7 -20
-45 0 -41 -2 -45 -25 -45 -18 0 -25 -5 -25 -20 0 -13 -7 -20 -20 -20 -13 0
-20 -7 -20 -20 0 -18 -7 -20 -65 -20 -58 0 -65 2 -65 20 0 15 -7 20 -25 20
-23 0 -25 4 -25 45 0 41 2 45 25 45 23 0 25 4 25 45 0 38 3 45 20 45 18 0 20
7 20 65 0 58 2 65 20 65 13 0 20 7 20 20 0 17 -7 20 -40 20 -33 0 -40 -3 -40
-20 0 -15 -7 -20 -25 -20 -24 0 -25 -2 -25 -65 0 -58 -2 -65 -20 -65 -19 0
-20 -7 -20 -135 l0 -135 45 0 c38 0 45 -3 45 -20 0 -18 7 -20 65 -20 58 0 65
2 65 20 0 17 7 20 45 20 l45 0 0 45 c0 38 3 45 20 45 13 0 20 7 20 20 0 13 7
20 20 20 17 0 20 7 20 45 0 41 2 45 25 45 24 0 25 2 25 65 0 58 2 65 20 65 17
0 20 7 20 45 l0 45 90 0 c89 0 90 0 90 25 0 23 4 25 45 25 l45 0 0 40 c0 33 3
40 20 40 17 0 20 7 20 45 0 38 -3 45 -20 45 -15 0 -20 7 -20 25 0 23 4 25 45
25 38 0 45 3 45 20 0 15 -7 20 -25 20 -23 0 -25 4 -25 45 0 38 -3 45 -20 45
-13 0 -20 7 -20 20 0 15 -7 20 -25 20 -23 0 -25 -4 -25 -45 0 -41 2 -45 25
-45 23 0 25 -4 25 -40 0 -36 -2 -40 -25 -40 -18 0 -25 5 -25 20 0 13 -7 20
-20 20 -13 0 -20 7 -20 20 0 15 -7 20 -25 20 l-25 0 0 135 c0 128 -1 135 -20
135 -17 0 -20 7 -20 45 0 38 -3 45 -20 45 -13 0 -20 7 -20 20 0 19 -7 20 -135
20 -128 0 -135 -1 -135 -20z m-220 -355 c0 -20 5 -25 25 -25 18 0 25 -5 25
-20 0 -13 7 -20 20 -20 18 0 20 -7 20 -65 0 -58 -2 -65 -20 -65 -13 0 -20 7
-20 20 0 15 -7 20 -25 20 -20 0 -25 5 -25 25 0 20 5 25 25 25 18 0 25 5 25 20
0 15 -7 20 -25 20 -18 0 -25 5 -25 20 0 17 -7 20 -45 20 l-45 0 0 -40 c0 -36
3 -40 25 -40 20 0 25 -5 25 -25 0 -20 -5 -25 -25 -25 -20 0 -25 5 -25 25 0 23
-4 25 -45 25 -38 0 -45 3 -45 20 0 15 7 20 25 20 23 0 25 4 25 45 l0 45 65 0
c63 0 65 -1 65 -25z m570 -130 c0 -20 5 -25 25 -25 18 0 25 -5 25 -20 0 -13 7
-20 20 -20 15 0 20 -7 20 -25 0 -18 -5 -25 -20 -25 -13 0 -20 -7 -20 -20 0
-17 -7 -20 -45 -20 -38 0 -45 3 -45 20 0 13 7 20 20 20 17 0 20 7 20 45 l0 45
-65 0 -65 0 0 -45 c0 -38 -3 -45 -20 -45 -18 0 -20 7 -20 70 l0 70 85 0 c84 0
85 0 85 -25z"/>
</g>
</svg>
