<?xml version="1.0" standalone="no"?>
<!DOCTYPE svg PUBLIC "-//W3C//DTD SVG 20010904//EN"
 "http://www.w3.org/TR/2001/REC-SVG-20010904/DTD/svg10.dtd">
<svg version="1.0" xmlns="http://www.w3.org/2000/svg"
 width="1872.000000pt" height="1308.000000pt" viewBox="0 0 1872.000000 1308.000000"
 preserveAspectRatio="xMidYMid meet">

<g transform="translate(0.000000,1308.000000) scale(0.100000,-0.100000)"
fill="#000000" stroke="none">
<path d="M10785 12409 c-1307 -85 -2519 -548 -3269 -1248 -496 -463 -777 -974
-846 -1534 -13 -107 -14 -352 -1 -462 83 -706 537 -1374 1276 -1877 151 -103
335 -213 455 -273 41 -21 76 -39 78 -40 2 -1 42 -319 91 -705 98 -788 89 -747
165 -708 22 11 391 209 819 440 l778 420 152 -16 c285 -30 503 -38 872 -33
201 3 426 12 510 21 1048 104 1950 409 2679 906 344 234 673 559 881 870 393
588 490 1245 278 1884 -183 551 -601 1060 -1198 1461 -762 512 -1739 821
-2823 895 -173 11 -715 11 -897 -1z m895 -79 c1953 -134 3533 -1057 3950
-2309 154 -462 135 -946 -57 -1411 -181 -439 -550 -872 -1040 -1221 -318 -226
-793 -464 -1223 -610 -449 -154 -970 -261 -1505 -311 -217 -20 -1007 -17
-1200 5 -82 10 -184 20 -225 23 l-75 5 -785 -425 c-657 -355 -786 -422 -792
-408 -4 9 -43 314 -88 677 -45 363 -86 670 -91 683 -4 12 -16 22 -24 22 -37 0
-309 153 -505 283 -211 141 -352 256 -539 440 -377 373 -609 780 -708 1242
-26 122 -27 145 -27 380 0 235 1 258 27 380 39 183 96 346 181 520 280 571
811 1067 1531 1430 233 118 384 183 620 266 502 178 1100 299 1665 338 179 12
739 13 910 1z"/>
<path d="M10077 10137 c-13 -9 -18 -23 -15 -47 5 -59 78 -69 99 -13 18 49 -42
92 -84 60z"/>
<path d="M14037 10137 c-13 -9 -18 -23 -15 -47 5 -59 78 -69 99 -13 18 49 -42
92 -84 60z"/>
<path d="M7750 9865 l0 -275 35 0 35 0 0 128 0 129 35 36 c39 40 66 52 99 43
37 -9 46 -46 46 -196 l0 -140 35 0 35 0 0 150 c0 170 -10 209 -59 234 -56 29
-118 19 -168 -27 l-23 -20 0 106 0 107 -35 0 -35 0 0 -275z"/>
<path d="M10410 10115 c0 -24 3 -25 60 -25 l60 0 0 -220 0 -220 -65 0 -65 0 0
-30 0 -30 155 0 155 0 0 30 c0 30 -1 30 -55 30 l-55 0 0 245 0 245 -95 0 c-95
0 -95 0 -95 -25z"/>
<path d="M10850 10115 c0 -24 3 -25 60 -25 l60 0 0 -220 0 -220 -65 0 -65 0 0
-30 0 -30 155 0 155 0 0 30 c0 30 -1 30 -55 30 l-55 0 0 245 0 245 -95 0 c-95
0 -95 0 -95 -25z"/>
<path d="M12248 10098 c-26 -9 -28 -14 -28 -64 l0 -54 -55 0 c-54 0 -55 0 -55
-30 0 -30 1 -30 55 -30 l55 0 1 -112 c0 -177 26 -218 139 -226 85 -6 110 2
110 36 0 27 0 27 -71 27 -96 0 -99 5 -99 157 l0 118 85 0 85 0 0 30 0 30 -85
0 -85 0 0 65 c0 69 -2 72 -52 53z"/>
<path d="M13568 10098 c-26 -9 -28 -14 -28 -64 l0 -54 -55 0 c-54 0 -55 0 -55
-30 0 -30 1 -30 55 -30 l55 0 1 -112 c0 -177 26 -218 139 -226 85 -6 110 2
110 36 0 27 0 27 -71 27 -96 0 -99 5 -99 157 l0 118 85 0 85 0 0 30 0 30 -85
0 -85 0 0 65 c0 69 -2 72 -52 53z"/>
<path d="M7280 10070 l0 -30 75 0 75 0 0 -225 0 -225 40 0 40 0 0 225 0 225
75 0 75 0 0 30 0 30 -190 0 -190 0 0 -30z"/>
<path d="M8281 9972 c-79 -40 -118 -133 -100 -242 11 -68 32 -98 90 -128 37
-20 55 -23 114 -19 88 5 125 22 125 55 0 19 -4 23 -17 17 -10 -4 -49 -9 -88
-11 -59 -5 -75 -2 -103 15 -18 12 -37 33 -42 47 -21 54 -21 54 131 54 l142 0
-7 58 c-9 81 -34 123 -86 150 -53 26 -113 28 -159 4z m118 -46 c30 -16 51 -53
51 -91 0 -25 -1 -25 -100 -25 -111 0 -112 1 -86 64 25 61 78 81 135 52z"/>
<path d="M8713 9971 c-48 -22 -63 -45 -63 -98 0 -50 33 -83 115 -112 90 -32
105 -42 105 -67 0 -41 -40 -58 -123 -51 -40 3 -80 8 -89 12 -15 6 -18 2 -18
-24 0 -27 4 -31 43 -42 61 -16 167 -7 210 20 50 31 65 78 40 129 -15 31 -28
41 -78 60 -99 37 -130 55 -133 79 -5 36 38 57 106 50 31 -3 65 -8 75 -12 16
-7 18 -3 15 26 -2 26 -9 35 -28 40 -50 14 -134 9 -177 -10z"/>
<path d="M9161 9972 c-79 -40 -118 -133 -100 -242 11 -68 32 -98 90 -128 37
-20 55 -23 114 -19 88 5 125 22 125 55 0 19 -4 23 -17 17 -10 -4 -49 -9 -88
-11 -59 -5 -75 -2 -103 15 -18 12 -37 33 -42 47 -21 54 -21 54 131 54 l142 0
-7 58 c-9 81 -34 123 -86 150 -53 26 -113 28 -159 4z m118 -46 c30 -16 51 -53
51 -91 0 -25 -1 -25 -100 -25 -111 0 -112 1 -86 64 25 61 78 81 135 52z"/>
<path d="M11793 9971 c-48 -22 -63 -45 -63 -98 0 -50 33 -83 115 -112 90 -32
105 -42 105 -67 0 -41 -40 -58 -123 -51 -40 3 -80 8 -89 12 -15 6 -18 2 -18
-24 0 -27 4 -31 43 -42 61 -16 167 -7 210 20 50 31 65 78 40 129 -15 31 -28
41 -78 60 -99 37 -130 55 -133 79 -5 36 38 57 106 50 31 -3 65 -8 75 -12 16
-7 18 -3 15 26 -2 26 -9 35 -28 40 -50 14 -134 9 -177 -10z"/>
<path d="M12745 9972 c-16 -11 -36 -26 -44 -35 -20 -25 -31 -21 -31 13 0 27
-3 30 -30 30 l-30 0 0 -195 0 -195 35 0 35 0 0 129 0 128 45 42 c50 46 84 52
115 21 11 -11 20 -33 20 -50 0 -28 3 -30 35 -30 34 0 35 1 35 38 0 98 -101
155 -185 104z"/>
<path d="M13098 9974 c-43 -13 -48 -18 -48 -44 0 -17 1 -30 3 -30 1 0 24 7 51
15 104 31 161 12 173 -57 l6 -38 -74 0 c-90 0 -150 -24 -173 -69 -62 -120 67
-216 198 -146 44 23 46 24 46 5 0 -16 7 -20 35 -20 l35 0 0 148 c0 169 -11
205 -70 234 -42 22 -117 22 -182 2z m180 -241 c-2 -30 -10 -42 -37 -60 -87
-59 -158 -32 -137 50 8 33 40 46 114 46 l63 1 -3 -37z"/>
<path d="M14440 9974 c-78 -34 -110 -91 -110 -196 0 -94 26 -143 90 -175 117
-60 242 1 271 131 23 104 -20 210 -98 242 -42 18 -109 17 -153 -2z m142 -73
c30 -27 33 -34 36 -102 3 -65 1 -78 -20 -109 -29 -43 -65 -57 -114 -44 -50 12
-76 50 -82 117 -6 73 12 124 52 148 46 28 90 25 128 -10z"/>
<path d="M14925 9978 c-11 -6 -30 -20 -42 -31 l-23 -20 0 26 c0 24 -4 27 -35
27 l-35 0 0 -195 0 -195 35 0 35 0 0 127 c0 118 2 128 24 158 47 61 121 71
144 20 7 -16 12 -80 12 -165 l0 -140 35 0 35 0 0 150 c0 170 -10 209 -59 234
-35 18 -97 20 -126 4z"/>
<path d="M15313 9971 c-48 -22 -63 -45 -63 -98 0 -50 33 -83 115 -112 90 -32
105 -42 105 -67 0 -41 -40 -58 -123 -51 -40 3 -80 8 -89 12 -15 6 -18 2 -18
-24 0 -27 4 -31 43 -42 61 -16 167 -7 210 20 50 31 65 78 40 129 -15 31 -28
41 -78 60 -99 37 -130 55 -133 79 -5 36 38 57 106 50 31 -3 65 -8 75 -12 16
-7 18 -3 15 26 -2 26 -9 35 -28 40 -50 14 -134 9 -177 -10z"/>
<path d="M9970 9950 l0 -30 60 0 60 0 0 -135 0 -135 -65 0 -65 0 0 -30 0 -30
155 0 155 0 0 30 c0 30 -1 30 -55 30 l-55 0 0 165 0 165 -95 0 -95 0 0 -30z"/>
<path d="M11272 9818 c3 -177 10 -202 64 -226 52 -24 130 -9 163 32 16 19 31
12 31 -15 0 -14 7 -19 30 -19 l30 0 0 195 0 195 -35 0 -35 0 0 -131 0 -131
-39 -39 c-45 -45 -86 -52 -117 -18 -17 18 -19 40 -22 170 l-3 149 -36 0 -35 0
4 -162z"/>
<path d="M13930 9950 l0 -30 60 0 60 0 0 -135 0 -135 -65 0 -65 0 0 -30 0 -30
155 0 155 0 0 30 c0 30 -1 30 -55 30 l-55 0 0 165 0 165 -95 0 -95 0 0 -30z"/>
<path d="M11397 9197 c-13 -9 -18 -23 -15 -47 5 -59 78 -69 99 -13 18 49 -42
92 -84 60z"/>
<path d="M12277 9197 c-13 -9 -18 -23 -15 -47 5 -59 78 -69 99 -13 18 49 -42
92 -84 60z"/>
<path d="M13157 9197 c-13 -9 -18 -23 -15 -47 5 -59 78 -69 99 -13 18 49 -42
92 -84 60z"/>
<path d="M12688 9158 c-26 -9 -28 -14 -28 -64 l0 -54 -55 0 c-54 0 -55 0 -55
-30 0 -30 1 -30 55 -30 l55 0 1 -112 c0 -177 26 -218 139 -226 85 -6 110 2
110 36 0 27 0 27 -71 27 -96 0 -99 5 -99 157 l0 118 85 0 85 0 0 30 0 30 -85
0 -85 0 0 65 c0 69 -2 72 -52 53z"/>
<path d="M8657 8905 l-85 -255 38 0 c38 0 39 1 56 55 l18 55 107 0 106 0 15
-52 c14 -52 15 -53 55 -56 l41 -3 -82 253 -82 253 -51 3 -51 3 -85 -256z m176
52 c21 -67 38 -125 37 -129 0 -5 -38 -8 -84 -8 l-84 0 41 130 c22 72 43 130
46 130 3 0 23 -55 44 -123z"/>
<path d="M9225 9032 c-16 -11 -36 -26 -44 -35 -20 -25 -31 -21 -31 13 0 27 -3
30 -30 30 l-30 0 0 -195 0 -195 35 0 35 0 0 129 0 128 45 42 c50 46 84 52 115
21 11 -11 20 -33 20 -50 0 -28 3 -30 35 -30 34 0 35 1 35 38 0 98 -101 155
-185 104z"/>
<path d="M9601 9032 c-79 -40 -118 -133 -100 -242 11 -68 32 -98 90 -128 37
-20 55 -23 114 -19 88 5 125 22 125 55 0 19 -4 23 -17 17 -10 -4 -49 -9 -88
-11 -59 -5 -75 -2 -103 15 -18 12 -37 33 -42 47 -21 54 -21 54 131 54 l142 0
-7 58 c-9 81 -34 123 -86 150 -53 26 -113 28 -159 4z m118 -46 c30 -16 51 -53
51 -91 0 -25 -1 -25 -100 -25 -111 0 -112 1 -86 64 25 61 78 81 135 52z"/>
<path d="M10530 9039 c-14 -6 -35 -20 -47 -31 l-23 -21 0 26 c0 24 -4 27 -35
27 l-35 0 0 -275 0 -275 35 0 35 0 0 78 0 77 73 0 c63 0 79 4 114 27 59 39 78
85 78 188 0 98 -17 139 -68 170 -34 21 -87 25 -127 9z m87 -64 c14 -10 26 -35
34 -69 33 -147 -50 -250 -165 -206 -25 9 -26 11 -26 108 l0 99 45 42 c48 44
77 51 112 26z"/>
<path d="M10985 9032 c-16 -11 -36 -26 -44 -35 -20 -25 -31 -21 -31 13 0 27
-3 30 -30 30 l-30 0 0 -195 0 -195 35 0 35 0 0 129 0 128 45 42 c50 46 84 52
115 21 11 -11 20 -33 20 -50 0 -28 3 -30 35 -30 34 0 35 1 35 38 0 98 -101
155 -185 104z"/>
<path d="M11788 9038 c-8 -7 -22 -24 -32 -38 l-16 -24 0 32 c0 29 -3 32 -30
32 l-30 0 0 -195 0 -195 35 0 35 0 0 125 c0 107 3 132 20 166 23 44 47 59 61
38 5 -8 9 -85 9 -171 l0 -158 30 0 30 0 0 120 c0 125 13 175 54 209 31 26 36
2 36 -165 l0 -164 35 0 35 0 0 153 c0 163 -10 221 -40 237 -37 20 -67 11 -99
-27 -26 -32 -31 -34 -31 -17 0 44 -66 71 -102 42z"/>
<path d="M14001 9032 c-79 -40 -118 -133 -100 -242 11 -68 32 -98 90 -128 37
-20 55 -23 114 -19 88 5 125 22 125 55 0 19 -4 23 -17 17 -10 -4 -49 -9 -88
-11 -59 -5 -75 -2 -103 15 -18 12 -37 33 -42 47 -21 54 -21 54 131 54 l142 0
-7 58 c-9 81 -34 123 -86 150 -53 26 -113 28 -159 4z m118 -46 c30 -16 51 -53
51 -91 0 -25 -1 -25 -100 -25 -111 0 -112 1 -86 64 25 61 78 81 135 52z"/>
<path d="M11290 9010 l0 -30 60 0 60 0 0 -135 0 -135 -65 0 -65 0 0 -30 0 -30
155 0 155 0 0 30 c0 30 -1 30 -55 30 l-55 0 0 165 0 165 -95 0 -95 0 0 -30z"/>
<path d="M12170 9010 l0 -30 60 0 60 0 0 -135 0 -135 -65 0 -65 0 0 -30 0 -30
155 0 155 0 0 30 c0 30 -1 30 -55 30 l-55 0 0 165 0 165 -95 0 -95 0 0 -30z"/>
<path d="M13050 9010 l0 -30 60 0 60 0 0 -135 0 -135 -65 0 -65 0 0 -30 0 -30
155 0 155 0 0 30 c0 30 -1 30 -55 30 l-55 0 0 165 0 165 -95 0 -95 0 0 -30z"/>
<path d="M13440 9032 c0 -4 33 -91 74 -192 l74 -185 42 0 43 0 68 175 c92 233
87 210 42 210 l-38 0 -55 -155 c-30 -85 -58 -151 -61 -147 -3 4 -30 73 -60
155 l-53 147 -38 0 c-21 0 -38 -3 -38 -8z"/>
<path d="M3800 8890 c0 -5 -9 -10 -20 -10 -11 0 -20 -7 -20 -15 0 -9 -9 -15
-25 -15 -14 0 -25 -4 -25 -10 0 -5 -11 -10 -25 -10 -14 0 -25 5 -25 10 0 6
-52 10 -135 10 -83 0 -135 -4 -135 -10 0 -6 -68 -10 -185 -10 -158 0 -185 -2
-185 -15 0 -13 -21 -15 -125 -15 -77 0 -125 -4 -125 -10 0 -6 -27 -10 -60 -10
-47 0 -60 -3 -60 -15 0 -10 -11 -15 -35 -15 -19 0 -35 -4 -35 -10 0 -5 -16
-10 -35 -10 -24 0 -35 -5 -35 -15 0 -9 -9 -15 -25 -15 -14 0 -25 -4 -25 -10 0
-5 -11 -10 -25 -10 -16 0 -25 -6 -25 -15 0 -9 -9 -15 -25 -15 -14 0 -25 -4
-25 -10 0 -5 -11 -10 -25 -10 -14 0 -25 -4 -25 -10 0 -5 -11 -10 -25 -10 -14
0 -25 -5 -25 -11 0 -17 -27 -39 -49 -39 -12 0 -21 -6 -21 -15 0 -9 -9 -15 -25
-15 -14 0 -25 -4 -25 -10 0 -5 -11 -10 -25 -10 -16 0 -25 -6 -25 -15 0 -8 -7
-15 -15 -15 -8 0 -15 -4 -15 -10 0 -5 -11 -10 -25 -10 -14 0 -25 -5 -25 -11 0
-16 -26 -39 -45 -39 -19 0 -45 -23 -45 -39 0 -6 -5 -11 -11 -11 -14 0 -39 -25
-39 -39 0 -6 -11 -11 -25 -11 -14 0 -25 -4 -25 -10 0 -5 -7 -10 -15 -10 -8 0
-15 -6 -15 -13 0 -7 -9 -19 -20 -27 -11 -8 -20 -20 -20 -27 0 -7 -11 -13 -25
-13 -14 0 -25 -4 -25 -10 0 -5 -5 -10 -11 -10 -14 0 -39 -25 -39 -39 0 -6 -5
-11 -11 -11 -14 0 -39 -25 -39 -39 0 -6 -7 -11 -15 -11 -8 0 -15 -4 -15 -10 0
-5 -11 -10 -25 -10 -14 0 -25 -6 -25 -13 0 -7 -9 -19 -20 -27 -11 -8 -20 -20
-20 -27 0 -7 -5 -13 -11 -13 -14 0 -39 -25 -39 -39 0 -6 -5 -11 -11 -11 -17 0
-39 -27 -39 -49 0 -12 -6 -21 -15 -21 -9 0 -15 -9 -15 -25 0 -14 -4 -25 -10
-25 -5 0 -10 7 -10 15 0 8 -7 15 -15 15 -8 0 -15 -7 -15 -15 0 -8 -9 -15 -20
-15 -11 0 -20 -4 -20 -10 0 -5 -7 -10 -15 -10 -8 0 -15 -5 -15 -11 0 -14 -25
-39 -39 -39 -6 0 -11 -7 -11 -15 0 -9 -9 -15 -23 -15 -12 0 -29 -9 -37 -20 -8
-11 -20 -20 -27 -20 -7 0 -13 -5 -13 -11 0 -14 -25 -39 -39 -39 -6 0 -11 -11
-11 -25 0 -14 -4 -25 -10 -25 -5 0 -10 -7 -10 -15 0 -8 -4 -15 -10 -15 -5 0
-10 -11 -10 -25 0 -16 -6 -25 -15 -25 -9 0 -15 -9 -15 -25 0 -14 -4 -25 -10
-25 -5 0 -10 -20 -10 -45 0 -33 -4 -45 -15 -45 -8 0 -15 -5 -15 -11 0 -14 -25
-39 -39 -39 -6 0 -11 -5 -11 -11 0 -14 -25 -39 -39 -39 -6 0 -11 -9 -11 -21 0
-22 -22 -49 -39 -49 -6 0 -11 -11 -11 -25 0 -14 -4 -25 -10 -25 -5 0 -10 -7
-10 -15 0 -8 -4 -15 -10 -15 -5 0 -10 -11 -10 -25 0 -16 -6 -25 -15 -25 -9 0
-15 -9 -15 -25 0 -14 -4 -25 -10 -25 -5 0 -10 -9 -10 -20 0 -11 -7 -20 -15
-20 -9 0 -15 -9 -15 -25 0 -14 -4 -25 -10 -25 -5 0 -10 -18 -10 -40 0 -29 -4
-40 -15 -40 -11 0 -15 -12 -15 -50 0 -34 4 -50 13 -50 7 0 19 -9 27 -20 8 -11
25 -20 37 -20 14 0 23 -6 23 -15 0 -9 9 -15 25 -15 14 0 25 -4 25 -10 0 -5 16
-10 35 -10 24 0 35 -5 35 -15 0 -11 11 -15 40 -15 22 0 40 -4 40 -10 0 -5 23
-10 50 -10 38 0 50 -4 50 -15 0 -11 12 -15 45 -15 25 0 45 -4 45 -10 0 -6 28
-10 65 -10 51 0 65 -3 65 -15 0 -12 14 -15 70 -15 40 0 70 -4 70 -10 0 -6 40
-10 100 -10 60 0 100 -4 100 -10 0 -6 43 -10 110 -10 91 0 110 -3 110 -15 0
-13 24 -15 160 -15 100 0 160 -4 160 -10 0 -6 68 -10 185 -10 158 0 185 -2
185 -15 0 -9 9 -15 25 -15 24 0 25 -3 25 -60 0 -33 4 -60 10 -60 6 0 10 -11
10 -25 l0 -25 100 0 c82 0 100 3 100 15 0 11 12 15 45 15 25 0 45 5 45 10 0 6
11 10 25 10 22 0 25 -4 25 -35 0 -19 5 -35 11 -35 14 0 39 25 39 39 0 6 6 11
13 11 7 0 19 9 27 20 8 11 25 20 37 20 13 0 23 5 23 11 0 17 27 39 49 39 12 0
21 6 21 15 0 11 12 15 50 15 28 0 50 5 50 10 0 6 7 10 15 10 8 0 15 7 15 15 0
13 22 15 135 15 113 0 135 -2 135 -15 0 -11 12 -15 45 -15 25 0 45 -4 45 -10
0 -5 18 -10 40 -10 29 0 40 -4 40 -15 0 -9 9 -15 21 -15 26 0 49 -23 49 -49 0
-16 -6 -21 -25 -21 -14 0 -25 -4 -25 -10 0 -5 -16 -10 -35 -10 -24 0 -35 -5
-35 -15 0 -8 -7 -15 -15 -15 -8 0 -15 -4 -15 -10 0 -5 18 -10 40 -10 29 0 40
-4 40 -15 0 -13 32 -15 230 -15 147 0 230 -4 230 -10 0 -6 43 -10 110 -10 67
0 110 4 110 10 0 6 23 10 50 10 38 0 50 4 50 15 0 9 9 15 25 15 14 0 25 5 25
10 0 6 16 10 35 10 19 0 35 -4 35 -10 0 -5 18 -10 40 -10 29 0 40 -4 40 -15 0
-8 5 -15 10 -15 6 0 10 7 10 15 0 9 9 15 25 15 14 0 25 5 25 10 0 6 7 10 15
10 9 0 15 -9 15 -25 0 -18 5 -25 20 -25 15 0 20 7 20 25 0 14 -4 25 -10 25 -5
0 -10 11 -10 25 0 14 5 25 10 25 6 0 10 -4 10 -10 0 -5 11 -10 25 -10 16 0 25
-6 25 -15 0 -12 18 -15 100 -15 82 0 100 3 100 15 0 12 18 15 100 15 60 0 100
4 100 10 0 6 16 10 35 10 19 0 35 5 35 10 0 6 11 10 25 10 16 0 25 6 25 15 0
9 9 15 25 15 14 0 25 5 25 10 0 6 11 10 25 10 16 0 25 6 25 15 0 10 11 15 35
15 19 0 35 5 35 10 0 6 32 10 75 10 43 0 75 -4 75 -10 0 -5 11 -10 25 -10 14
0 25 -6 25 -13 0 -7 9 -19 20 -27 11 -8 20 -25 20 -37 0 -14 6 -23 15 -23 9 0
15 -9 15 -25 0 -14 5 -25 10 -25 6 0 10 -11 10 -25 0 -16 6 -25 15 -25 10 0
15 -11 15 -35 0 -19 5 -35 10 -35 6 0 10 -11 10 -25 0 -16 6 -25 15 -25 8 0
15 -7 15 -15 0 -8 5 -15 10 -15 6 0 10 -9 10 -20 0 -11 7 -20 15 -20 8 0 15
-7 15 -15 0 -8 5 -15 10 -15 6 0 10 -11 10 -25 0 -16 6 -25 15 -25 12 0 15
-13 15 -59 0 -38 5 -61 13 -65 10 -5 10 -7 0 -12 -7 -3 -13 -17 -13 -30 0 -15
-6 -24 -15 -24 -9 0 -15 -9 -15 -25 0 -14 -4 -25 -10 -25 -6 0 -10 -35 -10
-85 0 -50 4 -85 10 -85 6 0 10 -7 10 -15 0 -8 7 -15 15 -15 8 0 15 -4 15 -10
0 -5 9 -10 20 -10 11 0 20 -7 20 -15 0 -11 11 -15 40 -15 29 0 40 4 40 15 0 8
5 15 10 15 6 0 10 11 10 25 0 14 -4 25 -10 25 -5 0 -10 20 -10 45 0 33 -4 45
-15 45 -9 0 -15 9 -15 25 0 14 -4 25 -10 25 -6 0 -10 32 -10 75 0 43 4 75 10
75 6 0 10 43 10 110 l0 110 25 0 c14 0 25 5 25 10 0 6 7 10 15 10 8 0 15 7 15
15 0 8 5 15 10 15 15 0 12 39 -4 56 -8 8 -24 14 -35 14 -12 0 -21 6 -21 15 0
9 -9 15 -25 15 -16 0 -25 -6 -25 -15 0 -8 -7 -15 -15 -15 -10 0 -15 -11 -15
-35 0 -32 -2 -35 -31 -35 -35 0 -59 20 -59 49 0 12 -6 21 -15 21 -9 0 -15 9
-15 25 0 14 -4 25 -10 25 -5 0 -10 11 -10 25 0 20 5 25 25 25 16 0 25 6 25 15
0 8 5 15 10 15 6 0 10 9 10 20 0 11 7 20 15 20 8 0 15 7 15 15 0 12 13 15 60
15 33 0 60 4 60 10 0 6 68 10 185 10 158 0 185 2 185 15 0 13 27 15 180 15
113 0 180 4 180 10 0 6 43 10 110 10 91 0 110 3 110 15 0 12 15 15 75 15 43 0
75 4 75 10 0 6 16 10 35 10 24 0 35 5 35 15 0 11 11 15 38 15 26 0 42 6 52 20
8 11 20 20 27 20 7 0 13 7 13 15 0 9 9 15 25 15 14 0 25 5 25 10 0 6 16 10 35
10 24 0 35 5 35 15 0 9 9 15 21 15 22 0 49 22 49 39 0 6 7 11 15 11 10 0 15
11 15 35 0 24 -5 35 -15 35 -9 0 -15 9 -15 21 0 22 -22 49 -39 49 -6 0 -11 11
-11 25 0 14 -4 25 -10 25 -5 0 -10 11 -10 25 0 14 -4 25 -10 25 -5 0 -10 11
-10 25 0 16 -6 25 -15 25 -8 0 -15 7 -15 15 0 8 -4 15 -10 15 -5 0 -10 16 -10
35 0 19 -5 35 -11 35 -17 0 -39 27 -39 49 0 12 -6 21 -15 21 -9 0 -15 9 -15
25 0 14 -4 25 -10 25 -5 0 -10 7 -10 15 0 8 -7 15 -15 15 -8 0 -15 5 -15 10 0
6 11 10 25 10 22 0 25 4 25 35 0 19 -4 35 -10 35 -5 0 -10 7 -10 15 0 8 -5 15
-11 15 -17 0 -39 27 -39 49 0 12 -6 21 -15 21 -8 0 -15 7 -15 15 0 8 -4 15
-10 15 -5 0 -10 9 -10 20 0 11 -4 20 -10 20 -5 0 -10 7 -10 15 0 8 -5 15 -11
15 -21 0 -39 29 -39 64 0 35 -1 36 -36 36 -35 0 -64 18 -64 39 0 6 -5 11 -11
11 -14 0 -39 25 -39 39 0 6 -5 11 -10 11 -14 0 -60 46 -60 60 0 5 -11 10 -25
10 -14 0 -25 5 -25 10 0 6 -22 10 -50 10 -38 0 -50 4 -50 15 0 8 -5 15 -11 15
-11 0 -39 25 -39 35 0 10 -28 35 -39 35 -6 0 -11 7 -11 15 0 9 -9 15 -25 15
-14 0 -25 5 -25 10 0 6 -11 10 -25 10 -20 0 -25 5 -25 25 0 14 -4 25 -10 25
-5 0 -10 11 -10 25 0 16 -6 25 -15 25 -8 0 -15 5 -15 10 0 6 -11 10 -25 10
-16 0 -25 6 -25 15 0 8 -9 15 -20 15 -11 0 -20 5 -20 10 0 6 -11 10 -25 10
-16 0 -25 6 -25 15 0 9 -9 15 -25 15 -14 0 -25 5 -25 10 0 6 -7 10 -15 10 -8
0 -15 7 -15 15 0 8 -9 15 -20 15 -22 0 -70 41 -70 60 0 5 -7 10 -15 10 -8 0
-15 5 -15 10 0 6 -11 10 -25 10 -16 0 -25 6 -25 15 0 9 -9 15 -25 15 -14 0
-25 5 -25 10 0 6 -16 10 -35 10 -31 0 -35 3 -35 25 0 16 -6 25 -15 25 -8 0
-15 7 -15 15 0 11 -12 15 -45 15 -25 0 -45 5 -45 10 0 6 -35 10 -86 10 -61 0
-90 4 -100 14 -8 8 -14 17 -14 21 0 14 -30 35 -49 35 -12 0 -21 6 -21 15 0 8
-7 15 -15 15 -8 0 -15 5 -15 10 0 6 -11 10 -25 10 -16 0 -25 6 -25 15 0 9 -9
15 -25 15 -14 0 -25 5 -25 10 0 6 -9 10 -20 10 -11 0 -20 7 -20 15 0 11 -12
15 -50 15 -27 0 -50 5 -50 10 0 6 -11 10 -25 10 -14 0 -25 5 -25 10 0 6 -11
10 -25 10 -14 0 -25 -4 -25 -10 0 -5 -22 -10 -50 -10 -27 0 -50 5 -50 10 0 6
-11 10 -25 10 -14 0 -25 5 -25 11 0 21 -29 39 -64 39 -20 0 -36 -4 -36 -10 0
-6 -30 -10 -70 -10 -40 0 -70 4 -70 10 0 6 -7 10 -15 10 -8 0 -15 7 -15 15 0
10 -11 15 -35 15 -24 0 -35 -5 -35 -15 0 -9 -9 -15 -24 -15 -13 0 -27 -6 -30
-12 -5 -10 -7 -10 -12 0 -3 6 -12 12 -20 12 -8 0 -14 7 -14 15 0 9 9 15 25 15
14 0 25 5 25 10 0 6 -21 10 -46 10 -44 0 -74 -16 -74 -39 0 -7 -28 -11 -75
-11 -60 0 -75 3 -75 15 0 10 -11 15 -35 15 -19 0 -35 5 -35 10 0 6 -7 10 -15
10 -8 0 -15 7 -15 15 0 13 -21 15 -131 15 -130 0 -159 7 -159 39 0 6 -11 11
-25 11 -20 0 -25 -5 -25 -25 0 -22 -4 -25 -35 -25 -19 0 -35 5 -35 10 0 6 -7
10 -15 10 -8 0 -15 7 -15 15 0 12 -13 15 -60 15 -33 0 -60 4 -60 10 0 6 11 10
25 10 16 0 25 6 25 15 0 8 5 15 10 15 6 0 10 5 10 10 0 6 -22 10 -50 10 -27 0
-50 -4 -50 -10z m-140 -100 c0 -5 -11 -10 -25 -10 -14 0 -25 5 -25 10 0 6 11
10 25 10 14 0 25 -4 25 -10z m240 -75 c0 -8 -4 -15 -10 -15 -5 0 -10 7 -10 15
0 8 5 15 10 15 6 0 10 -7 10 -15z m1110 -120 c0 -11 -11 -15 -40 -15 -29 0
-40 4 -40 15 0 11 11 15 40 15 29 0 40 -4 40 -15z m170 -40 c0 -16 -6 -25 -15
-25 -9 0 -15 9 -15 25 0 16 6 25 15 25 9 0 15 -9 15 -25z m360 -60 c0 -8 7
-15 15 -15 9 0 15 -9 15 -25 0 -14 5 -25 10 -25 6 0 10 -4 10 -10 0 -5 -16
-10 -35 -10 -33 0 -35 2 -35 35 0 19 -4 35 -10 35 -5 0 -10 7 -10 15 0 8 9 15
20 15 11 0 20 -7 20 -15z m1300 -760 c0 -8 7 -15 15 -15 8 0 15 -4 15 -10 0
-5 -11 -10 -25 -10 -20 0 -25 5 -25 25 0 14 5 25 10 25 6 0 10 -7 10 -15z
m-1790 -1416 c0 -20 -29 -39 -59 -39 -17 0 -31 -4 -31 -10 0 -5 -11 -10 -25
-10 -18 0 -25 5 -25 20 0 11 5 20 10 20 6 0 10 7 10 15 0 12 13 15 60 15 36 0
60 -4 60 -11z"/>
<path d="M5270 8715 c0 -11 11 -15 40 -15 29 0 40 4 40 15 0 11 -11 15 -40 15
-29 0 -40 -4 -40 -15z"/>
<path d="M10970 6259 c-513 -37 -907 -294 -950 -620 -5 -43 -10 -536 -10
-1180 0 -1061 1 -1109 19 -1181 37 -145 114 -259 246 -363 87 -69 261 -156
380 -190 195 -56 157 -55 1750 -55 l1471 0 154 -97 c627 -392 630 -393 659
-379 14 8 192 118 396 245 366 228 370 231 425 231 30 0 79 3 108 6 l52 7 0
-42 0 -41 60 0 60 0 0 -30 0 -30 -90 0 -90 0 0 -30 0 -30 -60 0 -60 0 0 -145
0 -145 30 0 c27 0 30 -3 30 -30 l0 -30 60 0 60 0 0 -60 0 -60 -30 0 -30 0 0
-60 0 -60 -30 0 c-30 0 -30 -1 -30 -55 0 -54 0 -55 -30 -55 l-30 0 0 -120 0
-120 -25 0 -25 0 0 -325 0 -325 25 0 c24 0 25 -3 25 -55 0 -54 0 -55 30 -55
27 0 30 -3 30 -30 l0 -30 60 0 60 0 0 -30 0 -30 145 0 145 0 0 30 0 30 60 0
60 0 0 30 c0 27 3 30 30 30 30 0 30 1 30 55 0 54 0 55 30 55 27 0 30 3 30 30
0 27 3 30 30 30 27 0 30 3 30 30 0 27 3 30 30 30 l30 0 0 60 0 60 30 0 30 0 0
60 0 60 30 0 30 0 0 60 c0 57 1 60 25 60 24 0 25 3 25 55 0 54 0 55 30 55 27
0 30 3 30 30 0 27 3 30 30 30 27 0 30 3 30 30 0 27 3 30 30 30 27 0 30 3 30
30 0 27 3 30 30 30 27 0 30 -3 30 -30 0 -27 3 -30 30 -30 27 0 30 -3 30 -30 0
-27 3 -30 30 -30 l30 0 0 120 0 120 -60 0 -60 0 0 -30 0 -30 -90 0 -90 0 0
-30 c0 -27 -3 -30 -30 -30 -27 0 -30 -3 -30 -30 0 -25 -4 -30 -25 -30 -24 0
-25 -3 -25 -60 l0 -60 -30 0 c-30 0 -30 -1 -30 -55 0 -54 0 -55 -30 -55 l-30
0 0 -60 0 -60 -30 0 -30 0 0 -60 0 -60 -30 0 -30 0 0 -60 0 -60 -30 0 c-27 0
-30 -3 -30 -30 0 -27 -3 -30 -30 -30 -27 0 -30 -3 -30 -30 0 -27 -3 -30 -30
-30 -25 0 -30 -4 -30 -25 0 -24 -3 -25 -55 -25 -54 0 -55 0 -55 -30 l0 -30
-120 0 -120 0 0 30 c0 27 -3 30 -30 30 -25 0 -30 4 -30 25 0 21 -5 25 -30 25
l-30 0 0 150 0 150 -30 0 -30 0 0 90 0 90 30 0 c30 0 30 1 30 55 0 54 0 55 30
55 l30 0 0 90 0 90 30 0 30 0 0 90 0 90 30 0 30 0 0 85 0 85 60 0 60 0 0 30
c0 30 1 30 55 30 54 0 55 0 55 30 0 27 3 30 30 30 l30 0 0 90 0 90 -30 0 c-30
0 -30 1 -30 55 0 52 -1 55 -25 55 -24 0 -25 3 -25 60 0 57 1 60 25 60 21 0 25
5 25 30 0 27 3 30 30 30 l30 0 0 60 0 60 30 0 c27 0 30 3 30 30 l0 30 60 0 60
0 0 30 0 30 60 0 60 0 0 -30 c0 -27 3 -30 30 -30 27 0 30 -3 30 -30 0 -27 3
-30 30 -30 l30 0 0 -150 0 -150 -30 0 c-27 0 -30 -3 -30 -30 0 -27 -3 -30 -30
-30 -25 0 -30 -4 -30 -25 0 -21 -5 -25 -30 -25 -27 0 -30 -3 -30 -30 0 -27 -3
-30 -30 -30 l-30 0 0 -120 0 -120 30 0 30 0 0 -145 0 -145 -30 0 -30 0 0 -60
0 -60 -30 0 -30 0 0 -60 0 -60 -30 0 c-27 0 -30 -3 -30 -30 0 -27 -3 -30 -30
-30 -25 0 -30 -4 -30 -25 0 -25 -1 -25 -85 -25 -84 0 -85 0 -85 25 0 21 -5 25
-30 25 l-30 0 0 60 0 60 30 0 30 0 0 60 0 60 30 0 30 0 0 90 c0 89 0 90 25 90
20 0 25 5 25 25 0 24 -3 25 -55 25 -52 0 -55 -1 -55 -25 0 -21 -5 -25 -30 -25
l-30 0 0 -90 0 -90 -30 0 -30 0 0 -175 0 -175 60 0 60 0 0 -30 0 -30 85 0 85
0 0 30 0 30 60 0 60 0 0 55 c0 54 0 55 30 55 27 0 30 3 30 30 0 27 3 30 30 30
l30 0 0 60 0 60 30 0 30 0 0 90 0 90 30 0 c30 0 30 1 30 55 l0 55 115 0 115 0
0 30 0 30 60 0 60 0 0 60 0 60 30 0 30 0 0 60 0 60 -30 0 c-27 0 -30 3 -30 30
l0 30 60 0 60 0 0 30 c0 27 -3 30 -30 30 -30 0 -30 1 -30 55 0 54 0 55 -30 55
-27 0 -30 3 -30 30 0 27 -3 30 -30 30 l-30 0 0 -60 0 -60 30 0 c30 0 30 -1 30
-55 0 -54 0 -55 -30 -55 -27 0 -30 3 -30 30 0 27 -3 30 -30 30 -25 0 -30 4
-30 25 0 21 -5 25 -30 25 l-30 0 0 180 0 180 -30 0 -30 0 0 60 c0 57 -1 60
-25 60 -20 0 -25 5 -25 25 0 24 0 24 -116 27 l-115 3 50 39 c82 61 165 176
206 281 19 49 20 82 20 1270 l0 1220 -38 78 c-63 129 -187 247 -344 327 -173
89 -349 134 -585 150 -169 11 -4389 11 -4548 -1z m4725 -97 c339 -65 584 -214
679 -412 l31 -65 3 -1185 c3 -1304 6 -1231 -59 -1343 -39 -66 -127 -157 -203
-209 -169 -116 -433 -198 -642 -198 l-71 0 -379 -236 c-208 -130 -383 -237
-389 -237 -5 0 -179 106 -385 234 l-374 234 -1476 2 c-1001 2 -1501 6 -1555
13 -422 58 -738 294 -775 580 -12 95 -13 2117 0 2254 7 78 15 111 39 161 115
233 439 397 841 425 58 4 1118 7 2355 6 l2250 -2 110 -22z m265 -3422 c0 -18
-6 -20 -52 -19 l-53 1 50 18 c28 10 51 19 53 19 1 1 2 -8 2 -19z m-170 -350
c0 -27 3 -30 30 -30 25 0 30 -4 30 -25 0 -21 5 -25 30 -25 l30 0 0 -90 0 -90
-30 0 c-27 0 -30 3 -30 30 0 27 -3 30 -30 30 -27 0 -30 3 -30 30 0 27 3 30 30
30 27 0 30 3 30 30 0 27 -3 30 -30 30 -25 0 -30 4 -30 25 0 24 -3 25 -60 25
l-60 0 0 -55 c0 -54 0 -55 30 -55 27 0 30 -3 30 -30 0 -27 -3 -30 -30 -30 -27
0 -30 3 -30 30 l0 30 -60 0 -60 0 0 30 c0 27 3 30 30 30 30 0 30 1 30 55 l0
55 90 0 90 0 0 -30z m760 -170 c0 -27 3 -30 30 -30 27 0 30 -3 30 -30 0 -27 3
-30 30 -30 27 0 30 -3 30 -30 0 -27 -3 -30 -30 -30 -27 0 -30 -3 -30 -30 l0
-30 -60 0 -60 0 0 30 c0 27 3 30 30 30 l30 0 0 60 0 60 -85 0 -85 0 0 -60 0
-60 -30 0 -30 0 0 90 0 90 115 0 115 0 0 -30z"/>
<path d="M11752 5753 l3 -88 38 -3 37 -3 0 59 c0 33 3 74 6 91 l7 31 -47 0
-47 0 3 -87z"/>
<path d="M11288 5798 c-26 -9 -28 -14 -28 -64 l0 -54 -55 0 c-54 0 -55 0 -55
-30 0 -30 1 -30 55 -30 l55 0 1 -112 c0 -177 26 -218 139 -226 85 -6 110 2
110 36 0 27 0 27 -71 27 -96 0 -99 5 -99 157 l0 118 85 0 85 0 0 30 0 30 -85
0 -85 0 0 65 c0 69 -2 72 -52 53z"/>
<path d="M10760 5770 c0 -30 1 -30 55 -30 l55 0 0 -195 0 -195 -55 0 c-54 0
-55 0 -55 -30 l0 -30 155 0 155 0 0 30 0 30 -60 0 -60 0 0 195 0 195 60 0 60
0 0 30 0 30 -155 0 -155 0 0 -30z"/>
<path d="M12153 5671 c-48 -22 -63 -45 -63 -98 0 -50 33 -83 115 -112 90 -32
105 -42 105 -67 0 -41 -40 -58 -123 -51 -40 3 -80 8 -89 12 -15 6 -18 2 -18
-24 0 -27 4 -31 43 -42 61 -16 167 -7 210 20 50 31 65 78 40 129 -15 31 -28
41 -78 60 -99 37 -130 55 -133 79 -5 36 38 57 106 50 31 -3 65 -8 75 -12 16
-7 18 -3 15 26 -2 26 -9 35 -28 40 -50 14 -134 9 -177 -10z"/>
<path d="M13077 4897 c-13 -9 -18 -23 -15 -47 5 -59 78 -69 99 -13 18 49 -42
92 -84 60z"/>
<path d="M14397 4897 c-13 -9 -18 -23 -15 -47 5 -59 78 -69 99 -13 18 49 -42
92 -84 60z"/>
<path d="M12530 4875 c0 -24 3 -25 60 -25 l60 0 0 -220 0 -220 -65 0 -65 0 0
-30 0 -30 155 0 155 0 0 30 c0 30 -1 30 -55 30 l-55 0 0 245 0 245 -95 0 c-95
0 -95 0 -95 -25z"/>
<path d="M14830 4802 c0 -55 3 -147 7 -205 l6 -107 27 0 c26 0 27 2 34 77 3
42 6 134 6 205 l0 128 -40 0 -40 0 0 -98z"/>
<path d="M15270 4802 c0 -55 3 -147 7 -205 l6 -107 27 0 c26 0 27 2 34 77 3
42 6 134 6 205 l0 128 -40 0 -40 0 0 -98z"/>
<path d="M15710 4802 c0 -55 3 -147 7 -205 l6 -107 27 0 c26 0 27 2 34 77 3
42 6 134 6 205 l0 128 -40 0 -40 0 0 -98z"/>
<path d="M11725 4857 c-75 -30 -105 -66 -105 -129 0 -56 31 -93 107 -127 111
-51 137 -67 153 -95 13 -23 13 -29 0 -53 -25 -45 -55 -55 -150 -50 -47 3 -93
8 -102 12 -15 6 -18 1 -18 -28 0 -35 1 -36 46 -43 69 -10 184 0 228 21 47 23
76 67 76 118 0 67 -25 94 -130 144 -116 55 -130 67 -130 108 0 51 30 70 109
70 36 0 78 -3 94 -8 25 -7 27 -5 27 22 0 26 -5 31 -37 40 -49 14 -130 13 -168
-2z"/>
<path d="M12138 4734 c-43 -13 -48 -18 -48 -44 0 -17 1 -30 3 -30 1 0 24 7 51
15 104 31 161 12 173 -57 l6 -38 -74 0 c-90 0 -150 -24 -173 -69 -62 -120 67
-216 198 -146 44 23 46 24 46 5 0 -16 7 -20 35 -20 l35 0 0 148 c0 169 -11
205 -70 234 -42 22 -117 22 -182 2z m180 -241 c-2 -30 -10 -42 -37 -60 -87
-59 -158 -32 -137 50 8 33 40 46 114 46 l63 1 -3 -37z"/>
<path d="M13481 4732 c-79 -40 -118 -133 -100 -242 11 -68 32 -98 90 -128 37
-20 55 -23 114 -19 88 5 125 22 125 55 0 19 -4 23 -17 17 -10 -4 -49 -9 -88
-11 -59 -5 -75 -2 -103 15 -18 12 -37 33 -42 47 -21 54 -21 54 131 54 l142 0
-7 58 c-9 81 -34 123 -86 150 -53 26 -113 28 -159 4z m118 -46 c30 -16 51 -53
51 -91 0 -25 -1 -25 -100 -25 -111 0 -112 1 -86 64 25 61 78 81 135 52z"/>
<path d="M13985 4732 c-16 -11 -36 -26 -44 -35 -20 -25 -31 -21 -31 13 0 27
-3 30 -30 30 l-30 0 0 -195 0 -195 35 0 35 0 0 129 0 128 45 42 c50 46 84 52
115 21 11 -11 20 -33 20 -50 0 -28 3 -30 35 -30 34 0 35 1 35 38 0 98 -101
155 -185 104z"/>
<path d="M12970 4710 l0 -30 60 0 60 0 0 -135 0 -135 -65 0 -65 0 0 -30 0 -30
155 0 155 0 0 30 c0 30 -1 30 -55 30 l-55 0 0 165 0 165 -95 0 -95 0 0 -30z"/>
<path d="M14290 4710 l0 -30 60 0 60 0 0 -135 0 -135 -65 0 -65 0 0 -30 0 -30
155 0 155 0 0 30 c0 30 -1 30 -55 30 l-55 0 0 165 0 165 -95 0 -95 0 0 -30z"/>
<path d="M14838 4429 c-28 -16 -23 -67 7 -81 38 -17 75 3 75 41 0 43 -42 64
-82 40z"/>
<path d="M15278 4429 c-28 -16 -23 -67 7 -81 38 -17 75 3 75 41 0 43 -42 64
-82 40z"/>
<path d="M15718 4429 c-28 -16 -23 -67 7 -81 38 -17 75 3 75 41 0 43 -42 64
-82 40z"/>
<path d="M5080 6070 c0 -6 -35 -10 -85 -10 -69 0 -85 -3 -85 -15 0 -12 -14
-15 -65 -15 -37 0 -65 -4 -65 -10 0 -5 -16 -10 -35 -10 -19 0 -35 -4 -35 -10
0 -5 -11 -10 -25 -10 -20 0 -25 -5 -25 -25 0 -14 -4 -25 -10 -25 -5 0 -10 -22
-10 -50 0 -47 2 -50 25 -50 16 0 25 -6 25 -15 0 -9 9 -15 25 -15 18 0 25 -5
25 -20 0 -17 -7 -20 -50 -20 -38 0 -50 -4 -50 -15 0 -8 -5 -15 -11 -15 -17 0
-39 -27 -39 -49 0 -12 5 -21 10 -21 6 0 10 -11 10 -25 0 -14 -4 -25 -10 -25
-5 0 -10 -22 -10 -50 0 -27 5 -50 10 -50 6 0 10 -32 10 -75 0 -60 3 -75 15
-75 12 0 15 -13 15 -60 0 -33 4 -60 10 -60 6 0 10 -32 10 -75 0 -60 3 -75 15
-75 12 0 15 -13 15 -60 0 -33 4 -60 10 -60 6 0 10 -22 10 -50 0 -38 4 -50 15
-50 8 0 15 -4 15 -10 0 -15 60 -12 76 4 16 17 20 136 4 136 -6 0 -10 27 -10
60 0 47 -3 60 -15 60 -12 0 -15 13 -15 60 0 33 -4 60 -10 60 -6 0 -10 32 -10
75 0 43 -4 75 -10 75 -6 0 -10 27 -10 60 0 47 -3 60 -15 60 -8 0 -15 5 -15 10
0 6 7 10 15 10 9 0 15 9 15 25 0 14 5 25 10 25 6 0 10 5 10 11 0 14 25 39 39
39 6 0 11 5 11 11 0 21 29 39 64 39 25 0 36 4 36 15 0 13 27 15 180 15 153 0
180 -2 180 -15 0 -9 9 -15 25 -15 14 0 25 -4 25 -10 0 -5 7 -10 15 -10 8 0 15
-5 15 -11 0 -26 30 -39 95 -39 71 0 95 12 95 49 0 14 -6 21 -20 21 -17 0 -20
7 -20 40 l0 40 -50 0 c-27 0 -50 5 -50 10 0 6 -11 10 -25 10 -22 0 -25 4 -25
35 0 19 5 35 10 35 6 0 10 7 10 15 0 11 12 15 50 15 38 0 50 -4 50 -15 0 -8 7
-15 15 -15 8 0 15 -4 15 -10 0 -5 9 -10 20 -10 11 0 20 -7 20 -15 0 -8 7 -15
15 -15 8 0 15 -4 15 -10 0 -5 16 -10 35 -10 19 0 35 5 35 10 0 6 7 10 15 10 9
0 15 9 15 25 0 16 -6 25 -15 25 -8 0 -15 5 -15 11 0 14 -25 39 -39 39 -6 0
-11 5 -11 11 0 17 -27 39 -49 39 -12 0 -21 5 -21 11 0 21 -29 39 -64 39 -20 0
-36 5 -36 10 0 6 -16 10 -35 10 -24 0 -35 5 -35 15 0 11 -12 15 -50 15 -27 0
-50 5 -50 10 0 6 -35 10 -85 10 -50 0 -85 -4 -85 -10z"/>
<path d="M6260 6045 c0 -8 -5 -15 -11 -15 -23 0 -39 -30 -39 -74 0 -25 5 -46
10 -46 6 0 10 -22 10 -50 0 -38 4 -50 15 -50 8 0 15 -9 15 -20 0 -11 5 -20 10
-20 6 0 10 -11 10 -25 0 -14 5 -25 10 -25 6 0 10 -11 10 -25 0 -16 6 -25 15
-25 8 0 15 -7 15 -15 0 -8 5 -15 10 -15 6 0 10 -11 10 -25 0 -16 6 -25 15 -25
9 0 15 -9 15 -25 0 -14 5 -25 10 -25 6 0 10 -9 10 -20 0 -11 7 -20 15 -20 9 0
15 -9 15 -25 0 -14 5 -25 10 -25 6 0 10 -11 10 -25 0 -16 6 -25 15 -25 8 0 15
-7 15 -15 0 -8 5 -15 10 -15 6 0 10 -9 10 -21 0 -22 22 -49 39 -49 6 0 11 -9
11 -21 0 -22 22 -49 39 -49 6 0 11 -18 11 -40 0 -22 5 -40 10 -40 6 0 10 -20
10 -45 0 -41 2 -45 25 -45 24 0 25 3 25 60 0 33 -4 60 -10 60 -5 0 -10 23 -10
50 0 38 -4 50 -15 50 -11 0 -15 12 -15 45 0 25 -4 45 -10 45 -5 0 -10 18 -10
40 0 29 -4 40 -15 40 -10 0 -15 11 -15 35 0 19 -4 35 -10 35 -5 0 -10 11 -10
25 0 16 -6 25 -15 25 -10 0 -15 11 -15 35 0 19 -4 35 -10 35 -5 0 -10 11 -10
25 0 14 -4 25 -10 25 -5 0 -10 11 -10 25 0 16 -6 25 -15 25 -9 0 -15 9 -15 25
0 14 -4 25 -10 25 -5 0 -10 11 -10 25 0 16 -6 25 -15 25 -9 0 -15 9 -15 25 0
14 -4 25 -10 25 -5 0 -10 11 -10 25 0 14 -5 25 -11 25 -17 0 -39 27 -39 49 0
12 -5 21 -11 21 -6 0 -17 6 -25 14 -8 8 -14 19 -14 25 0 6 -4 11 -10 11 -5 0
-10 -7 -10 -15z"/>
<path d="M2900 5975 c0 -8 -7 -15 -15 -15 -9 0 -15 -9 -15 -25 0 -14 -4 -25
-10 -25 -6 0 -10 -38 -10 -95 0 -57 4 -95 10 -95 6 0 10 5 10 10 0 6 7 10 15
10 10 0 15 11 15 35 0 19 5 35 10 35 6 0 10 37 10 90 0 53 -4 90 -10 90 -5 0
-10 -7 -10 -15z"/>
<path d="M3800 5975 c0 -13 -26 -15 -170 -15 -107 0 -170 -4 -170 -10 0 -5
-16 -10 -35 -10 -24 0 -35 -5 -35 -15 0 -11 -11 -15 -40 -15 l-40 0 0 -46 c0
-47 -16 -74 -45 -74 -32 0 -45 -26 -45 -89 0 -48 -3 -61 -15 -61 -8 0 -15 -4
-15 -10 0 -5 7 -10 15 -10 8 0 15 -7 15 -15 0 -11 12 -15 45 -15 33 0 45 4 45
15 0 9 9 15 25 15 14 0 25 5 25 10 0 6 18 10 40 10 22 0 40 -4 40 -10 0 -5 11
-10 25 -10 16 0 25 -6 25 -15 0 -10 11 -15 35 -15 24 0 35 5 35 15 0 11 12 15
50 15 28 0 50 5 50 10 0 6 16 10 35 10 24 0 35 5 35 15 0 10 11 15 35 15 19 0
35 5 35 10 0 6 28 10 65 10 51 0 65 3 65 15 0 12 14 15 70 15 56 0 70 -3 70
-15 0 -11 12 -15 50 -15 28 0 50 -4 50 -10 0 -5 11 -10 25 -10 14 0 25 5 25
10 0 6 7 10 15 10 8 0 15 7 15 15 0 8 9 15 20 15 11 0 20 -7 20 -15 0 -8 5
-15 11 -15 14 0 39 -25 39 -39 0 -6 11 -11 25 -11 14 0 25 -4 25 -10 0 -15 19
-12 36 4 16 16 19 86 4 86 -5 0 -10 20 -10 45 0 33 -4 45 -15 45 -8 0 -15 5
-15 11 0 14 -25 39 -39 39 -6 0 -11 5 -11 11 0 17 -27 39 -49 39 -12 0 -21 6
-21 15 0 9 -9 15 -25 15 -14 0 -25 5 -25 10 0 6 -22 10 -50 10 -38 0 -50 4
-50 15 0 13 -24 15 -160 15 -136 0 -160 -2 -160 -15z"/>
<path d="M2480 5815 c0 -14 -4 -25 -10 -25 -5 0 -10 -11 -10 -25 0 -16 -6 -25
-15 -25 -10 0 -15 -11 -15 -35 0 -19 -4 -35 -10 -35 -5 0 -10 -22 -10 -50 0
-47 -2 -50 -25 -50 -23 0 -25 -3 -25 -50 0 -29 -5 -50 -11 -50 -13 0 -39 -25
-39 -38 0 -6 6 -13 13 -16 10 -5 10 -7 0 -12 -7 -3 -13 -17 -13 -30 0 -15 -6
-24 -15 -24 -9 0 -15 -9 -15 -25 0 -14 -4 -25 -10 -25 -5 0 -10 -11 -10 -25 0
-14 -4 -25 -10 -25 -5 0 -10 -11 -10 -25 0 -16 -6 -25 -15 -25 -10 0 -15 -11
-15 -35 0 -19 -4 -35 -10 -35 -5 0 -10 -11 -10 -25 0 -16 -6 -25 -15 -25 -10
0 -15 -11 -15 -35 0 -19 -4 -35 -10 -35 -5 0 -10 -18 -10 -40 0 -29 -4 -40
-15 -40 -11 0 -15 -12 -15 -50 0 -27 -4 -50 -10 -50 -5 0 -10 -20 -10 -45 0
-33 -4 -45 -15 -45 -12 0 -15 -14 -15 -65 0 -63 1 -65 25 -65 23 0 25 3 25 50
0 38 4 50 15 50 11 0 15 11 15 36 0 35 18 64 39 64 6 0 11 9 11 21 0 22 22 49
39 49 6 0 11 11 11 25 0 14 5 25 10 25 6 0 10 7 10 15 0 8 5 15 10 15 6 0 10
11 10 25 0 16 6 25 15 25 9 0 15 9 15 25 0 14 5 25 10 25 6 0 10 20 10 45 0
33 4 45 15 45 8 0 15 7 15 15 0 8 5 15 10 15 6 0 10 27 10 60 0 47 3 60 15 60
11 0 15 12 15 50 0 28 5 50 10 50 6 0 10 23 10 50 0 38 4 50 15 50 10 0 15 11
15 35 0 19 5 35 10 35 6 0 10 16 10 35 0 24 5 35 15 35 11 0 15 12 15 50 0 28
5 50 10 50 6 0 10 23 10 50 0 47 -2 50 -25 50 -20 0 -25 -5 -25 -25z"/>
<path d="M2630 5755 c0 -24 -5 -35 -15 -35 -11 0 -15 -12 -15 -50 0 -27 -4
-50 -10 -50 -6 0 -10 -32 -10 -75 0 -60 -3 -75 -15 -75 -12 0 -15 -15 -15 -75
0 -43 -4 -75 -10 -75 -6 0 -10 -38 -10 -95 0 -57 -4 -95 -10 -95 -6 0 -10 -35
-10 -85 0 -69 -3 -85 -15 -85 -11 0 -15 -12 -15 -50 0 -29 5 -50 11 -50 17 0
39 27 39 49 0 12 5 21 10 21 6 0 10 28 10 65 0 51 3 65 15 65 12 0 15 16 15
85 0 50 4 85 10 85 6 0 10 16 10 35 0 24 5 35 15 35 10 0 15 11 15 35 0 19 5
35 10 35 6 0 10 32 10 75 0 60 3 75 15 75 13 0 15 22 15 135 l0 135 -25 0
c-22 0 -25 -4 -25 -35z"/>
<path d="M5670 5695 c0 -22 4 -25 35 -25 19 0 35 5 35 10 0 6 -4 10 -10 10 -5
0 -10 7 -10 15 0 9 -9 15 -25 15 -20 0 -25 -5 -25 -25z"/>
<path d="M2813 5675 c-16 -18 -19 -425 -3 -425 6 0 10 -43 10 -110 l0 -110
-25 0 c-24 0 -25 -3 -25 -60 0 -47 3 -60 15 -60 9 0 15 -9 15 -25 0 -14 5 -25
10 -25 6 0 10 -11 10 -25 0 -16 6 -25 15 -25 11 0 15 -12 15 -50 0 -38 -4 -50
-15 -50 -8 0 -15 -4 -15 -10 0 -5 -11 -10 -25 -10 -16 0 -25 -6 -25 -15 0 -8
-4 -15 -10 -15 -5 0 -10 -11 -10 -25 0 -14 -4 -25 -10 -25 -5 0 -10 -16 -10
-35 0 -19 5 -35 10 -35 6 0 10 -16 10 -35 0 -33 2 -35 35 -35 19 0 35 5 35 10
0 6 7 10 15 10 9 0 15 9 15 25 0 14 5 25 10 25 6 0 10 11 10 25 0 14 5 25 11
25 14 0 39 25 39 39 0 7 24 11 60 11 l60 0 0 35 c0 19 -4 35 -10 35 -5 0 -10
18 -10 40 0 22 -4 40 -10 40 -5 0 -10 16 -10 35 0 24 -5 35 -15 35 -10 0 -15
11 -15 35 0 24 5 35 15 35 8 0 15 7 15 15 0 8 -7 15 -15 15 -9 0 -15 9 -15 25
0 14 -4 25 -10 25 -14 0 -12 47 3 54 10 5 10 7 0 12 -7 3 -13 21 -13 40 0 24
-5 34 -15 34 -13 0 -15 21 -15 125 0 77 -4 125 -10 125 -6 0 -10 43 -10 110 0
91 -3 110 -15 110 -9 0 -15 9 -15 21 0 21 -22 49 -37 49 -4 -1 -14 -7 -20 -15z"/>
<path d="M4370 5565 c0 -16 -6 -25 -15 -25 -10 0 -15 -11 -15 -35 0 -24 5 -35
15 -35 9 0 15 9 15 25 0 14 5 25 10 25 6 0 10 16 10 35 0 19 -4 35 -10 35 -5
0 -10 -11 -10 -25z"/>
<path d="M2010 5410 c0 -5 -9 -10 -20 -10 -11 0 -20 -7 -20 -15 0 -8 -5 -15
-11 -15 -17 0 -39 -27 -39 -49 0 -12 -6 -21 -15 -21 -10 0 -15 -11 -15 -35 0
-31 -3 -35 -25 -35 -16 0 -25 -6 -25 -15 0 -9 9 -15 25 -15 24 0 25 -3 25 -60
0 -57 1 -60 25 -60 20 0 25 5 25 25 0 14 5 25 11 25 21 0 39 29 39 64 0 20 5
36 10 36 6 0 10 11 10 25 0 14 5 25 11 25 17 0 39 27 39 49 0 12 6 21 15 21 8
0 15 5 15 10 0 6 -7 10 -15 10 -8 0 -15 5 -15 11 0 14 -25 39 -39 39 -6 0 -11
-4 -11 -10z"/>
<path d="M5990 5370 c0 -38 -4 -50 -15 -50 -10 0 -15 -10 -15 -31 0 -30 -19
-59 -39 -59 -6 0 -11 -7 -11 -15 0 -8 5 -15 11 -15 6 0 17 -6 25 -14 8 -8 14
-19 14 -25 0 -6 7 -11 15 -11 8 0 15 -4 15 -10 0 -5 5 -10 10 -10 6 0 10 16
10 35 0 31 3 35 25 35 23 0 25 3 25 50 0 38 -4 50 -15 50 -12 0 -15 13 -15 60
0 53 -2 60 -20 60 -17 0 -20 -7 -20 -50z"/>
<path d="M6110 5364 c0 -35 18 -64 39 -64 6 0 11 16 11 35 0 24 -5 35 -15 35
-8 0 -15 7 -15 15 0 8 -4 15 -10 15 -5 0 -10 -16 -10 -36z"/>
<path d="M5470 5290 c0 -6 -27 -10 -60 -10 -47 0 -60 -3 -60 -15 0 -11 -12
-15 -50 -15 -27 0 -50 -4 -50 -10 0 -5 -11 -10 -25 -10 -16 0 -25 -6 -25 -15
0 -8 -4 -15 -10 -15 -5 0 -10 -16 -10 -35 0 -19 5 -35 10 -35 6 0 10 -7 10
-15 0 -12 13 -15 60 -15 47 0 60 3 60 15 0 9 9 15 25 15 14 0 25 5 25 10 0 6
11 10 25 10 16 0 25 6 25 15 0 11 11 15 40 15 36 0 40 3 40 25 0 16 -6 25 -15
25 -8 0 -15 5 -15 10 0 6 9 10 21 10 22 0 49 -22 49 -39 0 -6 7 -11 15 -11 8
0 15 6 15 14 0 8 6 17 13 20 10 5 10 7 0 12 -7 3 -13 12 -13 20 0 8 -10 14
-25 14 -14 0 -25 5 -25 10 0 6 -11 10 -25 10 -14 0 -25 -4 -25 -10z"/>
<path d="M6180 5266 c0 -8 -6 -17 -12 -20 -10 -5 -10 -7 0 -12 6 -3 12 -17 12
-30 0 -15 6 -24 15 -24 11 0 15 -11 15 -40 0 -22 5 -40 10 -40 6 0 10 -16 10
-35 0 -24 5 -35 15 -35 9 0 15 -9 15 -25 0 -14 5 -25 10 -25 6 0 10 -16 10
-35 0 -19 5 -35 10 -35 6 0 10 -18 10 -40 0 -29 4 -40 15 -40 10 0 15 -11 15
-35 0 -19 5 -35 10 -35 6 0 10 -16 10 -35 0 -24 5 -35 15 -35 11 0 15 -11 15
-40 0 -22 5 -40 10 -40 6 0 10 -20 10 -45 0 -33 4 -45 15 -45 11 0 15 -11 15
-40 0 -22 5 -40 10 -40 6 0 10 -20 10 -45 0 -33 4 -45 15 -45 12 0 15 -14 15
-65 0 -37 4 -65 10 -65 6 0 10 -21 10 -46 0 -44 16 -74 39 -74 7 0 11 -36 11
-100 0 -60 4 -100 10 -100 6 0 10 -30 10 -70 0 -56 3 -70 15 -70 12 0 15 -15
15 -75 0 -43 4 -75 10 -75 6 0 10 -27 10 -60 0 -47 3 -60 15 -60 12 0 15 -13
15 -60 0 -33 4 -60 10 -60 6 0 10 -32 10 -75 0 -60 3 -75 15 -75 12 0 15 -18
15 -100 0 -60 4 -100 10 -100 6 0 10 -30 10 -70 0 -56 3 -70 15 -70 9 0 15 -9
15 -25 0 -14 5 -25 10 -25 6 0 10 -40 10 -100 0 -60 4 -100 10 -100 6 0 10
-43 10 -110 0 -91 3 -110 15 -110 13 0 15 -20 15 -120 0 -73 4 -120 10 -120 6
0 10 -37 10 -90 0 -73 3 -90 15 -90 11 0 15 -12 15 -45 0 -25 5 -45 10 -45 6
0 10 -22 10 -50 0 -38 4 -50 15 -50 13 0 15 -21 15 -125 0 -77 4 -125 10 -125
6 0 10 -35 10 -85 0 -69 3 -85 15 -85 11 0 15 -12 15 -50 0 -27 5 -50 10 -50
6 0 10 -52 10 -135 0 -83 4 -135 10 -135 6 0 10 -43 10 -110 0 -91 3 -110 15
-110 12 0 15 -14 15 -70 0 -40 4 -70 10 -70 6 0 10 -32 10 -75 0 -60 3 -75 15
-75 12 0 15 -16 15 -85 0 -50 4 -85 10 -85 6 0 10 -32 10 -75 0 -60 3 -75 15
-75 11 0 15 -12 15 -50 l0 -50 -195 0 c-167 0 -195 2 -195 15 0 9 -9 15 -25
15 -14 0 -25 5 -25 10 0 6 -7 10 -15 10 -12 0 -15 15 -15 75 0 43 -4 75 -10
75 -6 0 -10 85 -10 235 0 150 4 235 10 235 6 0 10 9 10 20 0 11 -4 20 -10 20
-5 0 -10 18 -10 40 0 29 -4 40 -15 40 -9 0 -15 9 -15 25 0 14 -4 25 -10 25 -5
0 -10 11 -10 25 0 16 -6 25 -15 25 -8 0 -15 5 -15 10 0 6 7 10 15 10 9 0 15 9
15 25 0 20 5 25 25 25 24 0 25 3 25 60 0 47 -3 60 -15 60 -11 0 -15 11 -15 40
0 22 -4 40 -10 40 -15 0 -12 67 3 74 10 5 10 7 0 12 -9 4 -13 28 -13 70 0 50
-3 64 -15 64 -13 0 -15 23 -15 145 0 90 -4 145 -10 145 -6 0 -10 32 -10 75 0
60 -3 75 -15 75 -12 0 -15 20 -15 120 0 73 -4 120 -10 120 -6 0 -10 57 -10
150 0 93 -4 150 -10 150 -6 0 -10 55 -10 145 0 122 -2 145 -15 145 -12 0 -15
20 -15 120 0 73 -4 120 -10 120 -6 0 -10 43 -10 110 0 91 -3 110 -15 110 -13
0 -15 22 -15 135 0 83 -4 135 -10 135 -6 0 -10 48 -10 125 0 104 -2 125 -15
125 -11 0 -15 12 -15 50 0 28 -4 50 -10 50 -6 0 -10 47 -10 120 0 100 -2 120
-15 120 -13 0 -15 21 -15 125 0 77 -4 125 -10 125 -6 0 -10 30 -10 70 0 40 -4
70 -10 70 -5 0 -10 23 -10 50 0 38 -4 50 -15 50 -12 0 -15 13 -15 60 0 33 -4
60 -10 60 -5 0 -10 23 -10 50 0 38 -4 50 -15 50 -11 0 -15 12 -15 50 0 28 -4
50 -10 50 -5 0 -10 23 -10 50 0 38 -4 50 -15 50 -10 0 -15 11 -15 35 0 19 -4
35 -10 35 -5 0 -10 7 -10 15 0 9 -9 15 -25 15 -16 0 -25 -6 -25 -15 0 -8 5
-15 10 -15 6 0 10 -22 10 -50 0 -38 4 -50 15 -50 12 0 15 -14 15 -70 0 -40 4
-70 10 -70 6 0 10 -32 10 -75 0 -60 3 -75 15 -75 12 0 15 -13 15 -60 0 -47 -3
-60 -15 -60 -8 0 -15 -7 -15 -15 0 -8 -4 -15 -10 -15 -5 0 -10 -16 -10 -35 0
-24 -5 -35 -15 -35 -12 0 -15 -13 -15 -60 0 -33 -4 -60 -10 -60 -5 0 -10 -18
-10 -40 0 -29 -4 -40 -15 -40 -10 0 -15 -11 -15 -35 0 -19 -4 -35 -10 -35 -5
0 -10 -11 -10 -25 0 -14 -4 -25 -10 -25 -5 0 -10 -11 -10 -25 0 -16 -6 -25
-15 -25 -10 0 -15 -11 -15 -35 0 -19 -4 -35 -10 -35 -5 0 -10 -11 -10 -25 0
-16 -6 -25 -15 -25 -10 0 -15 -11 -15 -35 0 -19 -4 -35 -10 -35 -5 0 -10 -11
-10 -25 0 -16 -6 -25 -15 -25 -8 0 -15 -5 -15 -11 0 -14 -25 -39 -39 -39 -6 0
-11 -11 -11 -25 0 -14 -4 -25 -10 -25 -5 0 -10 -11 -10 -25 0 -16 -6 -25 -15
-25 -9 0 -15 -9 -15 -23 0 -12 -9 -29 -20 -37 -11 -8 -20 -25 -20 -37 0 -14
-6 -23 -15 -23 -9 0 -15 -9 -15 -25 0 -14 -4 -25 -10 -25 -5 0 -10 -7 -10 -15
0 -8 -7 -15 -15 -15 -9 0 -15 -9 -15 -21 0 -19 -21 -49 -35 -49 -10 0 -35 -28
-35 -39 0 -6 -5 -11 -11 -11 -11 0 -39 -25 -39 -35 0 -10 -28 -35 -39 -35 -6
0 -11 -5 -11 -11 0 -14 -25 -39 -39 -39 -6 0 -11 -5 -11 -11 0 -17 -27 -39
-49 -39 -12 0 -21 -4 -21 -10 0 -5 -7 -10 -15 -10 -8 0 -15 -5 -15 -11 0 -17
-27 -39 -49 -39 -12 0 -21 -5 -21 -11 0 -14 -25 -39 -39 -39 -6 0 -11 -5 -11
-11 0 -14 -25 -39 -39 -39 -6 0 -11 -5 -11 -11 0 -14 -25 -39 -39 -39 -6 0
-11 -7 -11 -15 0 -10 -11 -15 -35 -15 -31 0 -35 3 -35 25 0 14 -4 25 -10 25
-5 0 -10 -4 -10 -10 0 -5 -7 -10 -15 -10 -11 0 -15 -12 -15 -50 0 -38 4 -50
15 -50 10 0 15 -11 15 -35 0 -28 4 -35 20 -35 17 0 20 -7 20 -50 0 -38 4 -50
15 -50 10 0 15 -11 15 -35 0 -19 5 -35 10 -35 6 0 10 -7 10 -15 0 -8 7 -15 15
-15 8 0 15 -4 15 -10 0 -5 11 -10 25 -10 22 0 25 4 25 35 0 24 -5 35 -15 35
-8 0 -15 7 -15 15 0 8 -4 15 -10 15 -5 0 -10 16 -10 35 0 31 3 35 25 35 14 0
25 5 25 10 0 6 11 10 25 10 14 0 25 6 25 13 0 7 9 19 20 27 11 8 20 20 20 27
0 7 5 13 11 13 14 0 39 25 39 39 0 6 6 11 13 11 7 0 19 9 27 20 8 11 20 20 27
20 7 0 13 5 13 11 0 14 25 39 39 39 6 0 11 5 11 11 0 14 25 39 39 39 6 0 11 6
11 13 0 7 9 19 20 27 11 8 20 25 20 37 0 14 6 23 15 23 8 0 15 5 15 11 0 14
25 39 39 39 6 0 11 9 11 21 0 22 22 49 39 49 6 0 11 11 11 25 0 14 5 25 10 25
6 0 10 7 10 15 0 8 7 15 15 15 9 0 15 9 15 25 0 14 5 25 10 25 6 0 10 9 10 20
0 11 5 20 10 20 6 0 10 11 10 25 0 16 6 25 15 25 9 0 15 9 15 25 0 14 5 25 10
25 6 0 10 11 10 25 0 16 6 25 15 25 9 0 15 9 15 25 0 14 5 25 10 25 6 0 10 11
10 25 0 14 5 25 11 25 17 0 39 27 39 49 0 12 6 21 15 21 8 0 15 7 15 15 0 8 5
15 10 15 6 0 10 -102 10 -285 0 -183 -4 -285 -10 -285 -5 0 -10 -20 -10 -45 0
-33 -4 -45 -15 -45 -13 0 -15 -23 -15 -150 0 -93 -4 -150 -10 -150 -5 0 -10
-22 -10 -50 0 -38 -4 -50 -15 -50 -10 0 -15 -11 -15 -35 0 -19 -4 -35 -10 -35
-5 0 -10 -16 -10 -35 0 -24 -5 -35 -15 -35 -9 0 -15 -9 -15 -25 0 -14 -4 -25
-10 -25 -5 0 -10 -7 -10 -15 0 -8 -5 -15 -11 -15 -20 0 -39 -29 -39 -59 0 -17
-4 -31 -10 -31 -5 0 -10 -11 -10 -25 0 -16 -6 -25 -15 -25 -8 0 -15 -5 -15
-11 0 -14 -25 -39 -39 -39 -6 0 -11 -5 -11 -11 0 -14 -25 -39 -39 -39 -6 0
-11 -7 -11 -15 0 -8 -4 -15 -10 -15 -5 0 -10 -4 -10 -10 0 -5 23 -10 50 -10
28 0 50 -4 50 -10 0 -5 -11 -10 -25 -10 -16 0 -25 -6 -25 -15 0 -9 -9 -15 -25
-15 -14 0 -25 -4 -25 -10 0 -5 -7 -10 -15 -10 -8 0 -15 -6 -15 -13 0 -7 -9
-19 -20 -27 -11 -8 -20 -20 -20 -27 0 -7 -5 -13 -11 -13 -17 0 -39 -27 -39
-49 0 -15 6 -21 21 -21 22 0 49 22 49 39 0 6 9 11 21 11 22 0 49 22 49 39 0 6
11 11 25 11 14 0 25 5 25 10 0 6 23 10 50 10 l50 0 0 -70 c0 -40 -4 -70 -10
-70 -5 0 -10 -11 -10 -25 0 -20 -5 -25 -25 -25 -24 0 -25 -2 -25 -65 0 -40 -4
-65 -11 -65 -17 0 -39 -27 -39 -49 0 -12 -5 -21 -11 -21 -14 0 -39 -25 -39
-39 0 -6 -7 -11 -15 -11 -10 0 -15 -11 -15 -35 0 -34 1 -35 40 -35 29 0 40 -4
40 -15 0 -9 -9 -15 -25 -15 -14 0 -25 -4 -25 -10 0 -5 -7 -10 -15 -10 -8 0
-15 -7 -15 -15 0 -8 -4 -15 -10 -15 -5 0 -10 -16 -10 -35 0 -19 5 -35 10 -35
6 0 10 -55 10 -145 0 -90 -4 -145 -10 -145 -5 0 -10 -11 -10 -25 0 -14 -4 -25
-10 -25 -5 0 -10 -7 -10 -15 0 -8 -5 -15 -11 -15 -17 0 -39 -27 -39 -49 0 -12
-6 -21 -15 -21 -12 0 -15 -19 -15 -110 l0 -110 -35 0 c-19 0 -35 -4 -35 -10 0
-5 -7 -10 -15 -10 -11 0 -15 -11 -15 -36 0 -35 -18 -64 -39 -64 -6 0 -11 -7
-11 -15 0 -8 7 -15 15 -15 8 0 15 -4 15 -10 0 -5 11 -10 25 -10 14 0 25 5 25
10 0 6 16 10 35 10 19 0 35 -4 35 -10 0 -5 -4 -10 -10 -10 -5 0 -10 -7 -10
-15 0 -8 -6 -15 -13 -15 -7 0 -19 -9 -27 -20 -8 -11 -20 -20 -27 -20 -7 0 -13
-6 -13 -14 0 -8 -6 -17 -12 -20 -10 -5 -10 -7 0 -12 6 -3 12 -12 12 -20 0 -9
12 -14 36 -14 19 0 42 -6 50 -14 16 -17 20 -136 4 -136 -5 0 -10 -20 -10 -45
0 -25 5 -45 10 -45 6 0 10 -11 10 -25 0 -14 -4 -25 -10 -25 -5 0 -10 -7 -10
-15 0 -9 -9 -15 -25 -15 -14 0 -25 -4 -25 -10 0 -5 -7 -10 -15 -10 -8 0 -15
-7 -15 -15 0 -12 -13 -15 -60 -15 -47 0 -60 3 -60 15 0 12 -17 15 -95 15 -78
0 -95 -3 -95 -15 0 -12 -18 -15 -100 -15 -60 0 -100 -4 -100 -10 0 -7 688 -10
2045 -10 1357 0 2045 3 2045 10 0 6 -47 10 -120 10 -100 0 -120 3 -120 15 0
12 -17 15 -96 15 -112 0 -124 7 -124 74 0 34 -4 46 -15 46 -9 0 -15 9 -15 21
0 22 -22 49 -39 49 -6 0 -11 7 -11 15 0 9 -9 15 -25 15 -14 0 -25 5 -25 10 0
6 -27 10 -60 10 -47 0 -60 3 -60 15 0 8 -4 15 -10 15 -5 0 -10 11 -10 25 0 20
-5 25 -25 25 -25 0 -25 -1 -25 -85 l0 -85 -40 0 c-39 0 -40 1 -40 35 0 19 -4
35 -10 35 -5 0 -10 23 -10 50 0 28 5 50 10 50 6 0 10 16 10 35 0 24 5 35 15
35 9 0 15 9 15 25 0 14 5 25 10 25 6 0 10 11 10 25 0 14 5 25 11 25 14 0 39
25 39 39 0 6 5 11 11 11 21 0 39 29 39 64 0 25 4 36 15 36 12 0 15 14 15 70 0
56 -3 70 -15 70 -12 0 -15 18 -15 100 0 60 -4 100 -10 100 -5 0 -10 23 -10 50
l0 50 -40 0 -40 0 0 60 c0 33 -4 60 -10 60 -5 0 -10 11 -10 25 0 14 5 25 10
25 6 0 10 16 10 35 0 19 -4 35 -10 35 -5 0 -10 7 -10 15 0 9 -9 15 -25 15 -14
0 -25 5 -25 10 0 6 -9 10 -21 10 -19 0 -49 21 -49 35 0 10 28 35 39 35 6 0 11
7 11 15 0 8 -5 15 -11 15 -14 0 -39 25 -39 39 0 6 -7 11 -15 11 -8 0 -15 5
-15 10 0 6 -11 10 -25 10 -16 0 -25 6 -25 15 0 12 -13 15 -60 15 -47 0 -60 -3
-60 -15 0 -8 -4 -15 -10 -15 -5 0 -10 -16 -10 -35 0 -19 5 -35 10 -35 6 0 10
-11 10 -25 0 -20 -5 -25 -25 -25 -16 0 -25 -6 -25 -15 0 -8 -4 -15 -10 -15 -5
0 -10 -16 -10 -35 0 -19 5 -35 10 -35 6 0 10 -11 10 -25 0 -16 6 -25 15 -25 8
0 15 -4 15 -10 0 -6 -28 -10 -65 -10 -63 0 -65 -1 -65 -25 0 -24 2 -25 75 -25
73 0 75 -1 75 -25 0 -14 -4 -25 -10 -25 -5 0 -10 5 -10 10 0 6 -7 10 -15 10
-8 0 -15 -4 -15 -10 0 -5 -21 -10 -46 -10 -44 0 -74 16 -74 39 0 6 -7 11 -15
11 -10 0 -15 11 -15 35 0 19 -4 35 -10 35 -5 0 -10 21 -10 46 0 44 -16 74 -39
74 -6 0 -11 11 -11 25 0 14 -4 25 -10 25 -5 0 -10 11 -10 25 0 16 -6 25 -15
25 -13 0 -15 22 -15 135 0 113 2 135 15 135 8 0 15 5 15 11 0 14 25 39 39 39
6 0 11 21 11 50 0 38 -4 50 -15 50 -8 0 -15 5 -15 10 0 6 -11 10 -25 10 -16 0
-25 6 -25 15 0 9 -9 15 -25 15 -14 0 -25 5 -25 10 0 6 7 10 15 10 8 0 15 7 15
15 0 9 9 15 25 15 20 0 25 5 25 25 0 22 -4 25 -36 25 -19 0 -42 6 -50 14 -16
17 -19 56 -4 56 6 0 10 16 10 35 0 19 -4 35 -10 35 -5 0 -10 7 -10 15 0 9 -9
15 -25 15 -14 0 -25 5 -25 10 0 6 -7 10 -15 10 -8 0 -15 6 -15 13 0 7 -9 19
-20 27 -11 8 -20 20 -20 27 0 7 -7 13 -15 13 -8 0 -15 9 -15 20 0 15 7 20 25
20 23 0 25 3 25 50 0 28 -4 50 -10 50 -5 0 -10 23 -10 50 0 36 -4 50 -14 50
-8 0 -16 -6 -19 -12 -2 -8 -8 -9 -13 -4 -5 5 -4 11 4 13 8 3 12 31 12 89 0 83
0 84 -25 84 -22 0 -25 4 -25 35 0 19 -4 35 -10 35 -5 0 -10 11 -10 25 0 20 -5
25 -25 25 -24 0 -25 -3 -25 -56 0 -54 14 -84 39 -84 6 0 11 -18 11 -40 0 -29
-4 -40 -15 -40 -8 0 -15 7 -15 15 0 9 -9 15 -21 15 -22 0 -49 22 -49 39 0 6
-5 11 -11 11 -17 0 -39 27 -39 49 0 12 5 21 10 21 6 0 10 -4 10 -10 0 -5 7
-10 15 -10 8 0 15 9 15 20 0 11 5 20 10 20 6 0 10 37 10 90 0 89 0 90 -25 90
-16 0 -25 -6 -25 -15 0 -8 -4 -15 -10 -15 -5 0 -10 -11 -10 -25 0 -14 -4 -25
-10 -25 -15 0 -12 70 4 86 9 9 35 14 70 14 53 0 56 1 56 25 0 14 -4 25 -10 25
-5 0 -10 16 -10 35 0 24 -5 35 -15 35 -11 0 -15 11 -15 40 0 22 -4 40 -10 40
-5 0 -10 16 -10 35 0 24 -5 35 -15 35 -10 0 -15 11 -15 35 0 19 -4 35 -10 35
-5 0 -10 18 -10 40 0 22 -4 40 -10 40 -5 0 -10 16 -10 35 0 24 -5 35 -15 35
-10 0 -15 11 -15 35 0 19 -4 35 -10 35 -5 0 -10 18 -10 40 0 29 -4 40 -15 40
-10 0 -15 11 -15 35 0 19 -4 35 -10 35 -5 0 -10 16 -10 35 0 24 -5 35 -15 35
-9 0 -15 9 -15 25 0 14 -4 25 -10 25 -5 0 -10 18 -10 40 0 29 -4 40 -15 40
-10 0 -15 11 -15 35 0 19 -4 35 -10 35 -5 0 -10 11 -10 25 0 14 -4 25 -10 25
-5 0 -10 16 -10 35 0 24 -5 35 -15 35 -9 0 -15 9 -15 25 0 14 -4 25 -10 25 -5
0 -10 18 -10 40 0 29 -4 40 -15 40 -8 0 -15 9 -15 20 0 11 -4 20 -10 20 -5 0
-10 11 -10 25 0 16 -6 25 -15 25 -11 0 -15 11 -15 40 0 22 -4 40 -10 40 -5 0
-10 11 -10 25 0 16 -6 25 -15 25 -8 0 -15 9 -15 20 0 11 -4 20 -10 20 -5 0
-10 11 -10 25 0 16 -6 25 -15 25 -9 0 -15 9 -15 25 0 14 -4 25 -10 25 -5 0
-10 11 -10 25 0 14 -4 25 -10 25 -5 0 -10 11 -10 25 0 16 -6 25 -15 25 -10 0
-15 11 -15 35 0 19 -4 35 -10 35 -5 0 -10 11 -10 25 0 16 -6 25 -15 25 -9 0
-15 9 -15 25 0 14 -4 25 -10 25 -5 0 -10 11 -10 25 0 16 -6 25 -15 25 -9 0
-15 9 -15 21 0 22 -22 49 -39 49 -6 0 -11 11 -11 25 0 14 -4 25 -10 25 -5 0
-10 11 -10 25 0 14 -4 25 -10 25 -5 0 -10 7 -10 15 0 8 -5 15 -11 15 -6 0 -17
6 -25 14 -8 8 -14 19 -14 25 0 6 -7 11 -15 11 -8 0 -15 -6 -15 -14z m540
-1571 c0 -8 7 -15 15 -15 8 0 15 -9 15 -20 0 -11 5 -20 10 -20 6 0 10 -11 10
-25 0 -20 -5 -25 -25 -25 -23 0 -25 4 -25 45 0 25 -4 45 -10 45 -5 0 -10 7
-10 15 0 8 5 15 10 15 6 0 10 -7 10 -15z m-540 -135 c0 -38 4 -50 15 -50 12 0
15 -13 15 -60 0 -33 4 -60 10 -60 6 0 10 -35 10 -85 0 -69 3 -85 15 -85 12 0
15 -16 15 -85 0 -50 4 -85 10 -85 6 0 10 -40 10 -100 0 -60 4 -100 10 -100 6
0 10 -38 10 -95 0 -78 3 -95 15 -95 13 0 15 -22 15 -135 0 -83 4 -135 10 -135
6 0 10 -43 10 -110 0 -67 -4 -110 -10 -110 -5 0 -10 5 -10 10 0 6 -7 10 -15
10 -12 0 -15 19 -15 110 0 67 -4 110 -10 110 -6 0 -10 27 -10 60 0 33 -4 60
-10 60 -6 0 -10 28 -10 65 0 51 -3 65 -15 65 -12 0 -15 17 -15 95 0 57 -4 95
-10 95 -6 0 -10 43 -10 110 0 91 -3 110 -15 110 -12 0 -15 16 -15 85 0 50 -4
85 -10 85 -6 0 -10 48 -10 125 0 104 -2 125 -15 125 -12 0 -15 13 -15 60 0 57
1 60 25 60 23 0 25 -3 25 -50z m660 -95 c0 -16 6 -25 15 -25 9 0 15 -9 15 -25
0 -14 5 -25 10 -25 6 0 10 -16 10 -35 0 -19 -4 -35 -10 -35 -5 0 -10 -7 -10
-15 0 -9 -9 -15 -25 -15 -16 0 -25 6 -25 15 0 8 5 15 10 15 15 0 12 39 -4 56
-8 8 -17 14 -21 14 -10 0 -35 28 -35 39 0 6 -11 11 -25 11 -20 0 -25 5 -25 25
0 24 3 25 60 25 57 0 60 -1 60 -25z m-1810 -575 c0 -5 -4 -10 -10 -10 -5 0
-10 5 -10 10 0 6 5 10 10 10 6 0 10 -4 10 -10z m640 -1535 c0 -20 -5 -25 -25
-25 -20 0 -25 5 -25 25 0 20 5 25 25 25 20 0 25 -5 25 -25z m2330 -780 c0 -16
-6 -25 -15 -25 -8 0 -15 -4 -15 -10 0 -5 -4 -10 -10 -10 -5 0 -10 9 -10 20 0
11 5 20 10 20 6 0 10 7 10 15 0 8 7 15 15 15 9 0 15 -9 15 -25z m220 -380 c0
-9 -9 -15 -25 -15 -14 0 -25 -4 -25 -10 0 -5 -11 -10 -25 -10 -16 0 -25 -6
-25 -15 0 -11 -11 -15 -40 -15 -36 0 -40 3 -40 25 0 23 4 25 40 25 29 0 40 4
40 15 0 11 12 15 50 15 38 0 50 -4 50 -15z"/>
<path d="M3410 5240 c0 -5 7 -10 15 -10 9 0 15 -9 15 -25 0 -14 5 -25 10 -25
6 0 10 -7 10 -15 0 -8 7 -15 15 -15 8 0 15 -4 15 -10 0 -5 20 -10 45 -10 33 0
45 -4 45 -15 0 -13 22 -15 135 -15 113 0 135 2 135 15 0 8 7 15 15 15 9 0 15
9 15 25 0 16 -6 25 -15 25 -8 0 -15 5 -15 10 0 6 -35 10 -85 10 -69 0 -85 3
-85 15 0 12 -17 15 -95 15 -57 0 -95 4 -95 10 0 6 -18 10 -40 10 -22 0 -40 -4
-40 -10z"/>
<path d="M1820 5105 c0 -16 -6 -25 -15 -25 -11 0 -15 -12 -15 -50 0 -38 4 -50
15 -50 8 0 15 -4 15 -10 0 -5 11 -10 25 -10 24 0 25 3 25 60 0 47 -3 60 -15
60 -9 0 -15 9 -15 25 0 14 -4 25 -10 25 -5 0 -10 -11 -10 -25z"/>
<path d="M5960 4925 c0 -113 2 -135 15 -135 11 0 15 -11 15 -40 0 -29 -4 -40
-15 -40 -12 0 -15 -14 -15 -70 0 -56 3 -70 15 -70 8 0 15 -7 15 -15 0 -8 5
-15 10 -15 6 0 10 93 10 260 l0 260 -25 0 -25 0 0 -135z"/>
<path d="M6700 4945 c0 -33 2 -35 35 -35 29 0 35 4 35 21 0 26 -23 49 -49 49
-17 0 -21 -6 -21 -35z"/>
<path d="M4370 4905 c0 -22 4 -25 35 -25 31 0 35 3 35 25 0 22 -4 25 -35 25
-31 0 -35 -3 -35 -25z"/>
<path d="M1750 4835 c0 -18 5 -25 20 -25 15 0 20 7 20 25 0 18 -5 25 -20 25
-15 0 -20 -7 -20 -25z"/>
<path d="M6970 4845 c0 -9 -9 -15 -25 -15 -14 0 -25 -4 -25 -10 0 -5 -5 -10
-11 -10 -23 0 -39 -30 -39 -74 0 -42 2 -46 25 -46 16 0 25 -6 25 -15 0 -9 9
-15 25 -15 20 0 25 5 25 25 0 16 -6 25 -15 25 -9 0 -15 9 -15 25 0 16 6 25 15
25 8 0 15 6 15 13 0 7 9 19 20 27 11 8 20 25 20 37 0 16 -6 23 -20 23 -11 0
-20 -7 -20 -15z"/>
<path d="M7140 4689 c0 -48 5 -75 14 -85 17 -16 56 -19 56 -4 0 6 7 10 15 10
9 0 15 9 15 25 0 16 -6 25 -15 25 -8 0 -15 7 -15 15 0 8 -4 15 -10 15 -5 0
-10 16 -10 35 0 31 -3 35 -25 35 -24 0 -25 -2 -25 -71z"/>
<path d="M4640 4700 c0 -5 -18 -10 -40 -10 -29 0 -40 -4 -40 -15 0 -12 -16
-15 -85 -15 -50 0 -85 -4 -85 -10 0 -6 -30 -10 -70 -10 -56 0 -70 -3 -70 -15
0 -12 -14 -15 -65 -15 -37 0 -65 -4 -65 -10 0 -5 -21 -10 -46 -10 -26 0 -51
-6 -60 -14 -16 -17 -19 -56 -4 -56 6 0 10 -7 10 -15 0 -12 17 -15 90 -15 53 0
90 -4 90 -10 0 -6 137 -10 390 -10 253 0 390 4 390 10 0 6 16 10 35 10 24 0
35 5 35 15 0 8 7 15 15 15 10 0 15 11 15 35 0 31 -3 35 -25 35 -14 0 -25 5
-25 10 0 6 -22 10 -50 10 -38 0 -50 4 -50 15 0 11 -12 15 -50 15 -27 0 -50 5
-50 10 0 6 -16 10 -35 10 -31 0 -35 3 -35 25 0 24 -3 25 -60 25 -33 0 -60 -4
-60 -10z"/>
<path d="M3010 4593 c-10 -12 -11 -18 -2 -21 7 -2 12 -10 12 -18 0 -8 5 -14
10 -14 6 0 10 7 10 15 0 8 7 15 15 15 8 0 15 9 15 20 0 25 -38 27 -60 3z"/>
<path d="M6940 4565 c0 -14 5 -25 11 -25 11 0 39 -25 39 -35 0 -10 28 -35 39
-35 6 0 11 -11 11 -25 0 -14 5 -25 10 -25 6 0 10 -7 10 -15 0 -8 7 -15 15 -15
8 0 15 -9 15 -20 0 -11 5 -20 10 -20 6 0 10 -11 10 -25 0 -16 6 -25 15 -25 8
0 15 -5 15 -11 0 -11 25 -39 35 -39 10 0 35 28 35 39 0 6 -4 11 -10 11 -6 0
-10 27 -10 60 0 47 -3 60 -15 60 -9 0 -15 9 -15 21 0 22 -22 49 -39 49 -6 0
-11 18 -11 40 0 36 -2 40 -25 40 -14 0 -25 5 -25 10 0 6 -27 10 -60 10 -57 0
-60 -1 -60 -25z"/>
<path d="M1983 4525 c-7 -8 -13 -23 -13 -35 0 -16 6 -20 35 -20 33 0 35 2 35
35 0 30 -3 35 -22 35 -13 -1 -29 -7 -35 -15z"/>
<path d="M5960 4509 c0 -14 -25 -39 -39 -39 -6 0 -11 -7 -11 -15 0 -8 -4 -15
-10 -15 -5 0 -10 -11 -10 -25 0 -16 -6 -25 -15 -25 -8 0 -15 -9 -15 -20 0 -11
-4 -20 -10 -20 -5 0 -10 -22 -10 -50 0 -38 -4 -50 -15 -50 -9 0 -15 -9 -15
-25 0 -14 -4 -25 -10 -25 -5 0 -10 -7 -10 -15 0 -8 -7 -15 -15 -15 -8 0 -15
-4 -15 -10 0 -5 -9 -10 -20 -10 -11 0 -20 -7 -20 -15 0 -8 -5 -15 -11 -15 -17
0 -39 -27 -39 -49 0 -16 -6 -21 -25 -21 -23 0 -25 -3 -25 -50 0 -29 -5 -50
-11 -50 -14 0 -39 -25 -39 -39 0 -6 -7 -11 -15 -11 -8 0 -15 -4 -15 -10 0 -5
-16 -10 -35 -10 -31 0 -35 -3 -35 -25 0 -24 -3 -25 -60 -25 -47 0 -60 3 -60
15 0 9 -9 15 -25 15 -14 0 -25 5 -25 10 0 6 -9 10 -21 10 -22 0 -49 22 -49 39
0 6 -11 11 -25 11 -14 0 -25 5 -25 10 0 6 -7 10 -15 10 -11 0 -15 11 -15 36 0
35 -18 64 -39 64 -6 0 -11 5 -11 11 0 16 -26 39 -45 39 -19 0 -45 23 -45 39 0
6 -11 11 -25 11 -14 0 -25 5 -25 10 0 6 -18 10 -40 10 -29 0 -40 4 -40 15 0
11 -12 15 -50 15 -27 0 -50 5 -50 10 0 6 -27 10 -60 10 -33 0 -60 -4 -60 -10
0 -6 -43 -10 -110 -10 -91 0 -110 -3 -110 -15 0 -12 -16 -15 -85 -15 -50 0
-85 -4 -85 -10 0 -6 -27 -10 -60 -10 -47 0 -60 -3 -60 -15 0 -11 -11 -15 -38
-15 -26 0 -42 -6 -52 -20 -8 -11 -25 -20 -37 -20 -13 0 -23 -5 -23 -11 0 -14
-25 -39 -39 -39 -6 0 -11 -5 -11 -11 0 -14 -25 -39 -39 -39 -6 0 -11 -7 -11
-15 0 -8 -4 -15 -10 -15 -5 0 -10 -11 -10 -25 0 -14 -6 -25 -13 -25 -7 0 -19
-9 -27 -20 -8 -11 -20 -20 -27 -20 -7 0 -13 -11 -13 -25 0 -14 -4 -25 -10 -25
-5 0 -10 -7 -10 -15 0 -10 11 -15 35 -15 24 0 35 5 35 15 0 9 9 15 25 15 14 0
25 5 25 10 0 6 7 10 15 10 8 0 15 5 15 11 0 16 26 39 45 39 19 0 45 23 45 39
0 6 11 11 25 11 14 0 25 5 25 10 0 6 11 10 25 10 16 0 25 6 25 15 0 11 11 15
40 15 22 0 40 5 40 10 0 6 20 10 45 10 33 0 45 4 45 15 0 12 17 15 90 15 53 0
90 4 90 10 0 6 20 10 45 10 33 0 45 4 45 15 0 9 9 15 25 15 14 0 25 5 25 10 0
6 11 10 25 10 14 0 25 -4 25 -10 0 -6 40 -10 100 -10 82 0 100 -3 100 -15 0
-8 -7 -15 -15 -15 -8 0 -15 -4 -15 -10 0 -5 7 -10 15 -10 8 0 15 -7 15 -15 0
-12 13 -15 60 -15 33 0 60 -4 60 -10 0 -5 7 -10 15 -10 8 0 15 -7 15 -15 0 -8
5 -15 10 -15 6 0 10 -9 10 -21 0 -22 22 -49 39 -49 6 0 11 -4 11 -10 0 -5 16
-10 35 -10 24 0 35 -5 35 -15 0 -11 12 -15 50 -15 28 0 50 -4 50 -10 0 -5 11
-10 25 -10 16 0 25 -6 25 -15 0 -9 9 -15 21 -15 11 0 27 -6 35 -14 16 -17 19
-56 4 -56 -5 0 -10 -11 -10 -25 0 -23 -3 -25 -50 -25 -27 0 -50 5 -50 10 0 6
-11 10 -25 10 -16 0 -25 6 -25 15 0 9 -9 15 -25 15 -14 0 -25 5 -25 10 0 6
-11 10 -25 10 -14 0 -25 5 -25 11 0 14 -25 39 -39 39 -6 0 -11 6 -11 13 0 7
-9 19 -20 27 -11 8 -20 20 -20 27 0 7 -11 13 -25 13 -14 0 -25 5 -25 10 0 6
-11 10 -25 10 -14 0 -25 5 -25 10 0 6 -18 10 -40 10 -29 0 -40 4 -40 15 0 13
-29 15 -205 15 -176 0 -205 -2 -205 -15 0 -12 -18 -15 -100 -15 -60 0 -100 -4
-100 -10 0 -5 -16 -10 -35 -10 -19 0 -35 -4 -35 -10 0 -5 -18 -10 -40 -10 -22
0 -40 -5 -40 -11 0 -17 -27 -39 -49 -39 -12 0 -21 -5 -21 -11 0 -14 -25 -39
-39 -39 -6 0 -11 -5 -11 -11 0 -14 -25 -39 -39 -39 -6 0 -11 -7 -11 -15 0 -9
-9 -15 -25 -15 -14 0 -25 -4 -25 -10 0 -5 -16 -10 -35 -10 -19 0 -35 5 -35 10
0 6 -16 10 -35 10 -31 0 -35 3 -35 25 0 14 5 25 10 25 6 0 10 11 10 25 0 16 6
25 15 25 8 0 15 7 15 15 0 8 -7 15 -15 15 -8 0 -15 5 -15 10 0 6 -16 10 -35
10 -19 0 -35 -4 -35 -10 0 -5 -7 -10 -15 -10 -8 0 -15 -7 -15 -15 0 -8 -4 -15
-10 -15 -5 0 -10 -11 -10 -25 0 -22 -4 -25 -40 -25 -26 0 -40 5 -40 13 0 7 -9
19 -20 27 -11 8 -20 20 -20 27 0 7 -5 13 -11 13 -14 0 -39 25 -39 39 0 6 -5
11 -11 11 -17 0 -39 27 -39 49 0 12 -6 21 -15 21 -9 0 -15 9 -15 21 0 31 -24
49 -64 49 l-36 0 0 50 c0 28 -4 50 -10 50 -5 0 -10 5 -10 10 0 6 11 10 25 10
20 0 25 5 25 25 0 16 -6 25 -15 25 -8 0 -15 7 -15 15 0 8 -9 15 -20 15 -11 0
-20 5 -20 10 0 6 -18 10 -40 10 -39 0 -40 1 -40 36 0 35 -18 64 -39 64 -6 0
-11 9 -11 21 0 22 -22 49 -39 49 -6 0 -11 5 -11 11 0 11 -24 39 -34 39 -3 0
-6 -27 -6 -60 0 -33 4 -60 10 -60 6 0 10 -22 10 -50 0 -27 5 -50 10 -50 6 0
10 -11 10 -25 0 -16 6 -25 15 -25 10 0 15 -11 15 -35 0 -19 5 -35 10 -35 6 0
10 -11 10 -25 0 -16 6 -25 15 -25 9 0 15 -9 15 -25 0 -14 5 -25 10 -25 6 0 10
-22 10 -50 0 -38 4 -50 15 -50 8 0 15 -4 15 -10 0 -5 11 -10 25 -10 22 0 25
-4 25 -35 0 -19 5 -35 10 -35 6 0 10 -11 10 -25 0 -14 5 -25 10 -25 6 0 10 -7
10 -15 0 -8 5 -15 11 -15 14 0 39 -25 39 -39 0 -6 6 -11 13 -11 7 0 19 -9 27
-20 8 -11 25 -20 37 -20 16 0 23 6 23 20 0 11 -4 20 -10 20 -5 0 -10 7 -10 15
0 8 -5 15 -11 15 -14 0 -39 25 -39 39 0 6 -7 11 -15 11 -9 0 -15 9 -15 21 0
22 -22 49 -39 49 -6 0 -11 11 -11 25 0 14 -4 25 -10 25 -5 0 -10 11 -10 25 0
14 5 25 10 25 6 0 10 -7 10 -15 0 -8 6 -15 13 -15 7 0 19 -9 27 -20 8 -11 20
-20 27 -20 7 0 13 -5 13 -11 0 -14 25 -39 39 -39 6 0 11 -11 11 -25 0 -14 5
-25 10 -25 6 0 10 -7 10 -15 0 -8 5 -15 11 -15 14 0 39 -25 39 -39 0 -6 5 -11
10 -11 14 0 60 -46 60 -60 0 -5 11 -10 25 -10 14 0 25 -4 25 -10 0 -5 7 -10
15 -10 8 0 15 -7 15 -15 0 -8 5 -15 10 -15 6 0 10 -11 10 -25 0 -14 5 -25 11
-25 14 0 39 -25 39 -39 0 -6 5 -11 11 -11 14 0 39 -25 39 -39 0 -6 10 -11 23
-11 12 0 29 -9 37 -20 8 -11 25 -20 37 -20 14 0 23 -6 23 -15 0 -9 9 -15 25
-15 14 0 25 -4 25 -10 0 -5 11 -10 25 -10 16 0 25 -6 25 -15 0 -10 11 -15 35
-15 l35 0 0 -50 c0 -34 4 -50 13 -50 7 0 19 -9 27 -20 10 -14 26 -20 52 -20
27 0 38 -4 38 -15 0 -10 11 -15 35 -15 31 0 35 -3 35 -25 0 -16 6 -25 15 -25
8 0 15 -4 15 -10 0 -5 9 -10 20 -10 11 0 20 -7 20 -15 0 -9 9 -15 25 -15 14 0
25 -4 25 -10 0 -5 23 -10 50 -10 38 0 50 -4 50 -15 0 -13 22 -15 135 -15 113
0 135 2 135 15 0 11 12 15 50 15 28 0 50 5 50 10 0 6 11 10 25 10 16 0 25 6
25 15 0 9 9 15 25 15 14 0 25 5 25 10 0 6 11 10 25 10 16 0 25 6 25 15 0 9 9
15 21 15 22 0 49 22 49 39 0 6 9 11 21 11 26 0 49 23 49 49 0 12 6 21 15 21 8
0 15 5 15 10 0 6 -7 10 -15 10 -8 0 -15 7 -15 15 0 11 -12 15 -45 15 -33 0
-45 -4 -45 -15 0 -9 -9 -15 -25 -15 -14 0 -25 -4 -25 -10 0 -5 -11 -10 -25
-10 -16 0 -25 -6 -25 -15 0 -12 -18 -15 -100 -15 -60 0 -100 -4 -100 -10 0 -6
-52 -10 -135 -10 -83 0 -135 4 -135 10 0 6 -11 10 -25 10 -16 0 -25 6 -25 15
0 8 -4 15 -10 15 -5 0 -10 -7 -10 -15 0 -8 -6 -15 -13 -15 -7 0 -19 -9 -27
-20 -23 -31 -40 -25 -40 15 l0 35 -60 0 c-47 0 -60 -3 -60 -15 0 -8 -4 -15
-10 -15 -5 0 -10 11 -10 25 0 16 -6 25 -15 25 -9 0 -15 9 -15 25 0 14 -4 25
-10 25 -5 0 -10 7 -10 15 0 8 -5 15 -11 15 -14 0 -39 25 -39 39 0 6 -7 11 -15
11 -8 0 -15 9 -15 20 0 11 -4 20 -10 20 -6 0 -10 32 -10 75 0 43 4 75 10 75 6
0 10 27 10 60 0 47 3 60 15 60 8 0 15 7 15 15 0 9 9 15 25 15 14 0 25 5 25 10
0 6 11 10 25 10 16 0 25 6 25 15 0 9 9 15 25 15 14 0 25 5 25 10 0 6 11 10 25
10 16 0 25 6 25 15 0 13 35 15 255 15 175 0 255 -3 255 -11 0 -14 -25 -39 -39
-39 -6 0 -11 -7 -11 -15 0 -10 11 -15 35 -15 19 0 35 -4 35 -10 0 -5 18 -10
40 -10 29 0 40 -4 40 -15 0 -10 11 -15 35 -15 19 0 35 -4 35 -10 0 -5 11 -10
25 -10 14 0 25 -4 25 -10 0 -5 7 -10 15 -10 8 0 15 -7 15 -15 0 -8 9 -15 20
-15 11 0 20 -4 20 -10 0 -5 7 -10 15 -10 8 0 15 -7 15 -15 0 -12 13 -15 60
-15 l60 0 0 -81 c0 -79 -11 -109 -39 -109 -7 0 -11 -25 -11 -65 0 -63 1 -65
25 -65 16 0 25 6 25 15 0 8 5 15 11 15 11 0 39 25 39 35 0 10 28 35 39 35 6 0
11 7 11 15 0 8 5 15 10 15 6 0 10 9 10 20 0 11 7 20 15 20 8 0 15 5 15 11 0
14 25 39 39 39 6 0 11 5 11 11 0 14 25 39 39 39 6 0 11 11 11 25 0 14 5 25 10
25 6 0 10 7 10 15 0 8 5 15 11 15 11 0 39 25 39 35 0 8 27 35 35 35 10 0 35
28 35 39 0 6 7 11 15 11 8 0 15 5 15 10 0 6 11 10 25 10 14 0 25 5 25 11 0 17
27 39 49 39 12 0 21 6 21 15 0 8 5 15 10 15 6 0 10 11 10 25 0 22 -4 25 -35
25 -19 0 -35 5 -35 10 0 6 5 10 11 10 17 0 39 27 39 49 0 12 5 21 10 21 6 0
10 7 10 15 0 8 5 15 11 15 17 0 39 27 39 49 0 12 6 21 15 21 8 0 15 7 15 15 0
8 5 15 10 15 6 0 10 9 10 20 0 11 7 20 15 20 9 0 15 9 15 25 0 14 5 25 10 25
6 0 10 7 10 15 0 8 7 15 15 15 10 0 15 11 15 35 0 19 5 35 10 35 6 0 10 11 10
25 0 16 6 25 15 25 9 0 15 9 15 25 0 14 5 25 10 25 6 0 10 27 10 60 0 33 -4
60 -10 60 -5 0 -10 7 -10 15 0 8 -7 15 -15 15 -8 0 -15 -5 -15 -11z m-1690
-1424 c0 -8 -4 -15 -10 -15 -5 0 -10 7 -10 15 0 8 5 15 10 15 6 0 10 -7 10
-15z m100 -25 c0 -5 -11 -10 -25 -10 -14 0 -25 5 -25 10 0 6 11 10 25 10 14 0
25 -4 25 -10z m290 0 c0 -5 -4 -10 -10 -10 -5 0 -10 5 -10 10 0 6 5 10 10 10
6 0 10 -4 10 -10z"/>
<path d="M2310 4465 c0 -16 -6 -25 -15 -25 -10 0 -15 -11 -15 -35 0 -19 -4
-35 -10 -35 -5 0 -10 -11 -10 -25 0 -14 -4 -25 -10 -25 -5 0 -10 -11 -10 -25
0 -16 -6 -25 -15 -25 -9 0 -15 -9 -15 -25 0 -14 -4 -25 -10 -25 -5 0 -10 -11
-10 -25 0 -16 -6 -25 -15 -25 -9 0 -15 -9 -15 -25 0 -14 -4 -25 -10 -25 -5 0
-10 -9 -10 -20 0 -11 -7 -20 -15 -20 -11 0 -15 -11 -15 -40 0 -22 -4 -40 -10
-40 -5 0 -10 -11 -10 -25 0 -16 -6 -25 -15 -25 -9 0 -15 -9 -15 -25 0 -14 -4
-25 -10 -25 -5 0 -10 -16 -10 -35 0 -24 -5 -35 -15 -35 -9 0 -15 -9 -15 -25 0
-14 -4 -25 -10 -25 -5 0 -10 -16 -10 -35 0 -19 -4 -35 -10 -35 -5 0 -10 -11
-10 -25 0 -16 -6 -25 -15 -25 -10 0 -15 -11 -15 -35 0 -19 -4 -35 -10 -35 -5
0 -10 -18 -10 -40 0 -29 -4 -40 -15 -40 -9 0 -15 -9 -15 -25 0 -14 -4 -25 -10
-25 -5 0 -10 -16 -10 -35 0 -24 -5 -35 -15 -35 -10 0 -15 -11 -15 -35 0 -19
-4 -35 -10 -35 -5 0 -10 -18 -10 -40 0 -29 -4 -40 -15 -40 -10 0 -15 -11 -15
-35 0 -19 -4 -35 -10 -35 -5 0 -10 -16 -10 -35 0 -19 -4 -35 -10 -35 -5 0 -10
-18 -10 -40 0 -29 -4 -40 -15 -40 -10 0 -15 -11 -15 -35 0 -19 -4 -35 -10 -35
-5 0 -10 -16 -10 -35 0 -24 -5 -35 -15 -35 -11 0 -15 -11 -15 -40 0 -22 -4
-40 -10 -40 -5 0 -10 -16 -10 -35 0 -24 -5 -35 -15 -35 -9 0 -15 -9 -15 -25 0
-24 3 -25 61 -25 39 0 65 -5 75 -14 16 -16 19 -86 4 -86 -5 0 -10 11 -10 25 0
16 -6 25 -15 25 -8 0 -15 7 -15 15 0 9 -9 15 -25 15 -25 0 -25 -1 -25 -90 0
-73 3 -90 15 -90 8 0 15 -9 15 -20 0 -11 5 -20 10 -20 6 0 10 5 10 10 0 6 7
10 15 10 9 0 15 -9 15 -25 0 -14 -5 -25 -11 -25 -14 0 -39 -25 -39 -39 0 -6
-7 -11 -15 -11 -8 0 -15 -4 -15 -10 0 -5 -11 -10 -25 -10 -16 0 -25 -6 -25
-15 0 -8 -4 -15 -10 -15 -5 0 -10 16 -10 36 0 35 18 64 39 64 7 0 11 24 11 60
0 57 -1 60 -25 60 -20 0 -25 -5 -25 -25 0 -16 -6 -25 -15 -25 -10 0 -15 -11
-15 -35 0 -31 -3 -35 -25 -35 -25 0 -25 -1 -25 -85 0 -50 -4 -85 -10 -85 -5 0
-10 -22 -10 -50 0 -27 -4 -50 -10 -50 -5 0 -10 -22 -10 -50 0 -43 3 -50 20
-50 28 0 26 -35 -5 -65 -13 -14 -29 -25 -35 -25 -5 0 -10 -5 -10 -11 0 -17
-27 -39 -49 -39 -12 0 -21 -6 -21 -15 0 -8 -7 -15 -15 -15 -10 0 -15 -11 -15
-35 0 -24 5 -35 15 -35 9 0 15 -9 15 -25 0 -16 -6 -25 -15 -25 -8 0 -15 -4
-15 -10 0 -5 -16 -10 -35 -10 -31 0 -35 -3 -35 -25 0 -20 5 -25 25 -25 16 0
25 -6 25 -15 0 -8 5 -15 10 -15 6 0 10 -4 10 -10 0 -5 -11 -10 -25 -10 -16 0
-25 -6 -25 -15 0 -8 -9 -15 -20 -15 -11 0 -20 -4 -20 -10 0 -5 -7 -10 -15 -10
-11 0 -15 -12 -15 -50 0 -29 5 -50 11 -50 14 0 39 -25 39 -39 0 -6 5 -11 10
-11 6 0 10 -52 10 -135 0 -83 -4 -135 -10 -135 -5 0 -10 -11 -10 -24 0 -13 -6
-27 -12 -30 -10 -5 -10 -7 0 -12 20 -9 14 -34 -9 -34 -39 0 -69 -59 -36 -74 9
-5 9 -7 0 -12 -7 -3 -13 -17 -13 -30 0 -15 -6 -24 -15 -24 -9 0 -15 -9 -15
-25 0 -14 -4 -25 -10 -25 -5 0 -10 -11 -10 -25 0 -24 -2 -25 -64 -25 -42 0
-66 4 -70 13 -5 9 -7 9 -12 0 -10 -22 -24 -14 -24 12 0 24 2 25 70 25 68 0 70
1 70 25 0 24 -3 25 -60 25 -33 0 -60 4 -60 10 0 6 5 10 10 10 6 0 10 11 10 25
0 16 6 25 15 25 10 0 15 11 15 35 0 24 -5 35 -15 35 -8 0 -15 7 -15 15 0 8 -9
15 -20 15 -15 0 -20 7 -20 25 0 14 5 25 10 25 6 0 10 16 10 35 0 19 -4 35 -10
35 -5 0 -10 7 -10 15 0 12 -14 15 -65 15 -51 0 -65 -3 -65 -15 0 -9 -9 -15
-21 -15 -22 0 -49 -22 -49 -39 0 -6 -5 -11 -11 -11 -11 0 -39 -25 -39 -35 0
-10 28 -35 39 -35 6 0 11 -7 11 -15 0 -8 -7 -15 -15 -15 -8 0 -15 -4 -15 -10
0 -5 -9 -10 -20 -10 -11 0 -20 -7 -20 -15 0 -9 -9 -15 -25 -15 -14 0 -25 -4
-25 -10 0 -5 -7 -10 -15 -10 -10 0 -15 -11 -15 -35 0 -24 5 -35 15 -35 9 0 15
-9 15 -25 0 -16 -6 -25 -15 -25 -12 0 -15 -13 -15 -60 l0 -60 -35 0 -35 0 0
-50 c0 -38 -4 -50 -15 -50 -12 0 -15 -18 -15 -100 0 -60 -4 -100 -10 -100 -6
0 -10 -32 -10 -75 0 -43 4 -75 10 -75 6 0 10 -16 10 -35 0 -19 5 -35 11 -35
14 0 39 -25 39 -39 0 -6 5 -11 11 -11 17 0 39 -27 39 -49 0 -12 6 -21 15 -21
9 0 15 -9 15 -25 l0 -25 1410 0 c933 0 1410 3 1410 10 0 6 -85 10 -235 10
l-235 0 0 25 0 25 625 0 c549 0 625 2 625 15 0 12 -18 15 -100 15 -60 0 -100
4 -100 10 0 6 -38 10 -95 10 -57 0 -95 -4 -95 -10 0 -6 -27 -10 -60 -10 -33 0
-60 4 -60 10 0 6 -7 10 -15 10 -8 0 -15 7 -15 15 0 9 -9 15 -21 15 -11 0 -27
6 -35 14 -16 17 -19 56 -4 56 6 0 10 23 10 50 0 28 -4 50 -10 50 -6 0 -10 27
-10 60 0 33 4 60 10 60 6 0 10 7 10 15 0 11 11 15 36 15 36 0 81 29 56 38 -6
2 -12 10 -12 18 0 8 -5 14 -11 14 -14 0 -39 25 -39 39 0 6 -5 11 -11 11 -14 0
-39 25 -39 39 0 6 16 11 35 11 24 0 35 -5 35 -15 0 -9 9 -15 25 -15 15 0 25 6
25 14 0 8 6 17 13 20 10 5 10 7 0 12 -7 3 -13 12 -13 20 0 8 -4 14 -10 14 -5
0 -10 16 -10 35 0 24 -5 35 -15 35 -8 0 -15 5 -15 10 0 6 -16 10 -35 10 l-35
0 0 110 c0 91 -3 110 -15 110 -9 0 -15 9 -15 25 0 14 -4 25 -10 25 -5 0 -10 7
-10 15 0 8 -5 15 -11 15 -17 0 -39 27 -39 49 0 12 -6 21 -15 21 -13 0 -15 23
-15 145 0 122 2 145 15 145 11 0 15 11 15 40 0 22 -5 40 -11 40 -14 0 -39 25
-39 39 0 6 -11 11 -25 11 -14 0 -25 5 -25 10 0 6 16 10 35 10 33 0 35 2 35 35
0 35 -35 85 -60 85 -5 0 -10 11 -10 25 0 14 -4 25 -10 25 -5 0 -10 7 -10 15 0
8 -7 15 -15 15 -12 0 -15 13 -15 60 0 57 -1 60 -25 60 -20 0 -25 5 -25 25 0
14 -4 25 -10 25 -6 0 -10 32 -10 75 l0 75 50 0 c38 0 50 -4 50 -15 0 -9 9 -15
21 -15 22 0 49 -22 49 -39 0 -6 9 -11 21 -11 22 0 49 -22 49 -39 0 -6 11 -11
25 -11 20 0 25 5 25 25 0 14 -4 25 -10 25 -5 0 -10 7 -10 15 0 8 -5 15 -11 15
-14 0 -39 25 -39 39 0 6 -6 11 -13 11 -7 0 -19 9 -27 20 -8 11 -25 20 -37 20
-14 0 -23 6 -23 15 0 9 -9 15 -25 15 -14 0 -25 5 -25 10 0 6 23 10 50 10 29 0
50 5 50 11 0 14 -25 39 -39 39 -6 0 -11 5 -11 11 0 14 -25 39 -39 39 -6 0 -11
5 -11 11 0 14 -25 39 -39 39 -6 0 -11 11 -11 25 0 14 -4 25 -10 25 -5 0 -10
16 -10 35 0 24 -5 35 -15 35 -8 0 -15 5 -15 11 0 14 -25 39 -39 39 -6 0 -11
11 -11 25 0 14 -4 25 -10 25 -5 0 -10 16 -10 35 0 19 -4 35 -10 35 -5 0 -10
18 -10 40 0 29 -4 40 -15 40 -11 0 -15 12 -15 50 0 28 -4 50 -10 50 -6 0 -10
47 -10 120 l0 120 -75 0 -75 0 0 85 c0 50 -4 85 -10 85 -5 0 -10 -11 -10 -25
0 -16 -6 -25 -15 -25 -10 0 -15 -11 -15 -35 0 -19 -4 -35 -10 -35 -5 0 -10
-11 -10 -25 0 -22 -4 -25 -40 -25 l-40 0 0 -100 0 -100 -25 0 c-18 0 -25 -5
-25 -20 0 -11 -4 -20 -10 -20 -5 0 -10 -18 -10 -40 0 -29 -4 -40 -15 -40 -12
0 -15 13 -15 60 0 47 3 60 15 60 12 0 15 18 15 100 l0 100 -75 0 -75 0 0 -35
c0 -19 -4 -35 -10 -35 -6 0 -10 -48 -10 -125 0 -104 -2 -125 -15 -125 -13 0
-15 -23 -15 -145 0 -90 -4 -145 -10 -145 -6 0 -10 -57 -10 -150 0 -100 -4
-150 -11 -150 -20 0 -39 -29 -39 -59 0 -17 -4 -31 -10 -31 -5 0 -10 -18 -10
-40 0 -29 -4 -40 -15 -40 -10 0 -15 -11 -15 -35 0 -19 -4 -35 -10 -35 -5 0
-10 -16 -10 -35 0 -24 -5 -35 -15 -35 -11 0 -15 -11 -15 -40 0 -22 -4 -40 -10
-40 -5 0 -10 -16 -10 -35 0 -24 -5 -35 -15 -35 -10 0 -15 -11 -15 -35 0 -19
-4 -35 -10 -35 -5 0 -10 -18 -10 -40 0 -29 -4 -40 -15 -40 -13 0 -15 71 -15
575 0 504 2 575 15 575 8 0 15 7 15 15 0 8 5 15 10 15 6 0 10 11 10 25 0 14 5
25 11 25 14 0 39 25 39 39 0 6 5 11 11 11 17 0 39 27 39 49 0 19 -6 21 -60 21
-47 0 -60 -3 -60 -15 0 -9 -9 -15 -25 -15 -22 0 -25 -4 -25 -35 0 -19 -5 -35
-11 -35 -17 0 -39 -27 -39 -49 0 -12 -4 -21 -10 -21 -6 0 -10 -27 -10 -60 0
-47 -3 -60 -15 -60 -8 0 -15 -7 -15 -15 0 -8 6 -15 14 -15 8 0 16 -6 18 -12 5
-15 38 13 38 31 0 6 7 11 15 11 12 0 15 -14 15 -65 0 -51 -3 -65 -15 -65 -12
0 -15 -20 -15 -120 0 -73 -4 -120 -10 -120 -6 0 -10 -57 -10 -150 0 -93 -4
-150 -10 -150 -6 0 -10 -55 -10 -145 0 -122 -2 -145 -15 -145 -12 0 -15 -20
-15 -120 0 -73 -4 -120 -10 -120 -6 0 -10 -32 -10 -75 0 -60 -3 -75 -15 -75
-13 0 -15 -22 -15 -135 0 -113 2 -135 15 -135 11 0 15 -12 15 -50 0 -38 -4
-50 -15 -50 -10 0 -15 11 -15 35 0 19 -4 35 -10 35 -6 0 -10 -27 -10 -60 0
-47 -3 -60 -15 -60 -8 0 -15 -4 -15 -10 0 -5 7 -10 15 -10 8 0 15 5 15 10 0 6
5 10 10 10 6 0 10 -11 10 -25 0 -14 -4 -25 -10 -25 -5 0 -10 -11 -10 -25 0
-16 -6 -25 -15 -25 -10 0 -15 -10 -15 -31 0 -30 -19 -59 -39 -59 -6 0 -11 -7
-11 -15 0 -8 -4 -15 -10 -15 -5 0 -10 -16 -10 -35 0 -19 5 -35 10 -35 15 0 12
-39 -4 -56 -8 -8 -28 -14 -45 -14 -26 0 -31 -4 -31 -25 0 -18 5 -25 20 -25 11
0 20 -7 20 -15 0 -8 7 -15 15 -15 8 0 15 -4 15 -10 0 -5 -11 -10 -25 -10 -16
0 -25 -6 -25 -15 0 -9 -9 -15 -21 -15 -32 0 -49 -25 -49 -70 0 -40 17 -70 39
-70 6 0 11 -7 11 -15 0 -8 5 -15 10 -15 6 0 10 -32 10 -75 l0 -75 -160 0 -160
0 0 65 c0 51 3 65 15 65 12 0 15 14 15 70 0 40 4 70 10 70 6 0 10 43 10 110 0
91 3 110 15 110 13 0 15 22 15 135 0 83 4 135 10 135 6 0 10 23 10 50 0 28 5
50 10 50 6 0 10 35 10 85 0 69 3 85 15 85 13 0 15 21 15 125 0 77 4 125 10
125 6 0 10 23 10 50 0 38 4 50 15 50 11 0 15 12 15 45 0 25 5 45 10 45 6 0 10
37 10 90 0 73 3 90 15 90 13 0 15 20 15 120 0 100 -2 120 -15 120 -8 0 -15 5
-15 10 0 6 7 10 15 10 8 0 15 -4 15 -10 0 -5 5 -10 10 -10 6 0 10 27 10 60 0
57 1 60 25 60 16 0 25 6 25 15 0 8 5 15 10 15 6 0 10 11 10 25 0 16 6 25 15
25 10 0 15 11 15 35 0 19 5 35 10 35 6 0 10 11 10 25 0 16 6 25 15 25 9 0 15
9 15 25 0 14 5 25 10 25 6 0 10 11 10 25 0 16 6 25 15 25 9 0 15 9 15 21 0 22
22 49 39 49 6 0 11 9 11 21 0 22 22 49 39 49 6 0 11 7 11 15 0 9 -9 15 -25 15
-16 0 -25 -6 -25 -15 0 -8 -5 -15 -11 -15 -14 0 -39 -25 -39 -39 0 -6 -5 -11
-11 -11 -17 0 -39 -27 -39 -49 0 -12 -5 -21 -11 -21 -17 0 -39 -27 -39 -49 0
-12 -6 -21 -15 -21 -9 0 -15 -9 -15 -25 0 -14 -4 -25 -10 -25 -5 0 -10 -11
-10 -25 0 -14 -4 -25 -10 -25 -6 0 -10 32 -10 75 0 43 4 75 10 75 6 0 10 11
10 25 0 14 5 25 10 25 6 0 10 30 10 70 0 56 3 70 15 70 12 0 15 18 15 100 0
60 4 100 10 100 6 0 10 30 10 70 0 56 3 70 15 70 12 0 15 14 15 65 0 37 4 65
10 65 6 0 10 27 10 60 0 47 3 60 15 60 12 0 15 15 15 75 0 43 4 75 10 75 6 0
10 30 10 70 0 56 3 70 15 70 12 0 15 17 15 96 0 94 9 124 39 124 6 0 11 21 11
50 0 28 5 50 10 50 6 0 10 27 10 60 0 33 4 60 10 60 6 0 10 23 10 50 0 38 4
50 15 50 11 0 15 11 15 40 0 22 5 40 10 40 6 0 10 75 10 205 0 130 -4 205 -10
205 -5 0 -10 -11 -10 -25z m-270 -1210 c0 -8 -7 -15 -15 -15 -11 0 -15 -12
-15 -45 0 -38 -3 -45 -20 -45 -13 0 -20 7 -20 20 0 11 5 20 10 20 6 0 10 11
10 25 0 14 5 25 10 25 6 0 10 7 10 15 0 8 7 15 15 15 8 0 15 -7 15 -15z m-30
-230 c0 -18 -5 -25 -20 -25 -11 0 -20 -7 -20 -15 0 -8 -5 -15 -11 -15 -14 0
-39 -25 -39 -39 0 -6 -7 -11 -15 -11 -8 0 -15 -9 -15 -20 0 -11 7 -20 15 -20
8 0 15 -7 15 -15 0 -9 -9 -15 -25 -15 -16 0 -25 6 -25 15 0 8 -7 15 -15 15
-10 0 -15 11 -15 35 0 24 5 35 15 35 9 0 15 9 15 25 0 14 5 25 10 25 6 0 10
11 10 25 0 24 3 25 60 25 57 0 60 -1 60 -25z m840 -270 c0 -16 -6 -25 -15 -25
-9 0 -15 9 -15 25 0 16 6 25 15 25 9 0 15 -9 15 -25z m-80 -60 c0 -19 -4 -35
-10 -35 -5 0 -10 16 -10 35 0 19 5 35 10 35 6 0 10 -16 10 -35z m50 -60 c0
-14 -4 -25 -10 -25 -5 0 -10 11 -10 25 0 14 5 25 10 25 6 0 10 -11 10 -25z
m-20 -130 c0 -16 -6 -25 -15 -25 -9 0 -15 9 -15 25 0 16 6 25 15 25 9 0 15 -9
15 -25z m-50 -70 c0 -14 -4 -25 -10 -25 -5 0 -10 11 -10 25 0 14 5 25 10 25 6
0 10 -11 10 -25z m20 -160 c0 -8 -4 -15 -10 -15 -5 0 -10 7 -10 15 0 8 5 15
10 15 6 0 10 -7 10 -15z m-1220 -50 c0 -8 -7 -15 -15 -15 -8 0 -15 7 -15 15 0
8 7 15 15 15 8 0 15 -7 15 -15z m370 -95 c0 -5 -7 -10 -15 -10 -8 0 -15 5 -15
10 0 6 7 10 15 10 8 0 15 -4 15 -10z m-50 -75 c0 -8 -7 -15 -15 -15 -8 0 -15
7 -15 15 0 8 7 15 15 15 8 0 15 -7 15 -15z m680 -60 c0 -14 -4 -25 -10 -25 -5
0 -10 11 -10 25 0 14 5 25 10 25 6 0 10 -11 10 -25z m-730 -15 c0 -5 -7 -10
-15 -10 -8 0 -15 5 -15 10 0 6 7 10 15 10 8 0 15 -4 15 -10z m70 -95 c0 -8 -4
-15 -10 -15 -5 0 -10 7 -10 15 0 8 5 15 10 15 6 0 10 -7 10 -15z m640 -40 c0
-14 -4 -25 -10 -25 -5 0 -10 11 -10 25 0 14 5 25 10 25 6 0 10 -11 10 -25z
m-810 -10 c0 -8 -4 -15 -10 -15 -5 0 -10 7 -10 15 0 8 5 15 10 15 6 0 10 -7
10 -15z m-50 -50 c0 -8 -4 -15 -10 -15 -5 0 -10 7 -10 15 0 8 5 15 10 15 6 0
10 -7 10 -15z m150 0 c0 -8 -6 -15 -14 -15 -8 0 -16 -6 -19 -12 -2 -8 -8 -9
-13 -4 -5 5 -4 11 4 13 6 3 12 11 12 19 0 8 7 14 15 14 8 0 15 -7 15 -15z
m-200 -95 c0 -5 -4 -10 -10 -10 -5 0 -10 5 -10 10 0 6 5 10 10 10 6 0 10 -4
10 -10z m150 -25 c0 -8 -4 -15 -10 -15 -5 0 -10 7 -10 15 0 8 5 15 10 15 6 0
10 -7 10 -15z m740 -75 c0 -47 -3 -60 -15 -60 -12 0 -15 13 -15 60 0 47 3 60
15 60 12 0 15 -13 15 -60z m-940 25 c0 -8 -4 -15 -10 -15 -5 0 -10 7 -10 15 0
8 5 15 10 15 6 0 10 -7 10 -15z m150 0 c0 -8 7 -15 15 -15 8 0 15 -4 15 -10 0
-15 -19 -12 -36 4 -16 17 -19 36 -4 36 6 0 10 -7 10 -15z m-170 -50 c0 -8 -7
-15 -15 -15 -8 0 -15 7 -15 15 0 8 7 15 15 15 8 0 15 -7 15 -15z m220 -25 c0
-5 -22 -10 -50 -10 -27 0 -50 5 -50 10 0 6 23 10 50 10 28 0 50 -4 50 -10z
m560 0 c0 -5 -4 -10 -10 -10 -5 0 -10 5 -10 10 0 6 5 10 10 10 6 0 10 -4 10
-10z m-680 -50 c0 -5 -7 -10 -15 -10 -8 0 -15 5 -15 10 0 6 7 10 15 10 8 0 15
-4 15 -10z m780 -20 c0 -5 7 -10 15 -10 8 0 15 -6 15 -14 0 -8 6 -17 13 -20
10 -5 10 -7 0 -12 -7 -3 -13 -12 -13 -19 0 -7 6 -15 13 -18 7 -2 8 -8 3 -13
-5 -5 -11 -4 -13 4 -3 6 -11 12 -19 12 -8 0 -14 10 -14 25 0 14 -4 25 -10 25
-5 0 -10 7 -10 15 0 9 -9 15 -25 15 -25 0 -25 -1 -25 -90 0 -53 4 -90 10 -90
6 0 10 -9 10 -20 0 -11 7 -20 15 -20 8 0 15 5 15 10 0 6 5 10 10 10 6 0 10 -9
10 -21 0 -22 -22 -49 -39 -49 -6 0 -11 -5 -11 -11 0 -14 -25 -39 -39 -39 -7 0
-11 34 -11 95 0 95 0 95 -25 95 -16 0 -25 6 -25 15 0 9 9 15 25 15 24 0 25 3
25 60 l0 60 50 0 c28 0 50 -4 50 -10z m-950 -25 c0 -8 -7 -15 -15 -15 -8 0
-15 7 -15 15 0 8 7 15 15 15 8 0 15 -7 15 -15z m1980 -10 c0 -20 -5 -25 -25
-25 -20 0 -25 5 -25 25 0 20 5 25 25 25 20 0 25 -5 25 -25z m-2010 -40 c0 -8
-4 -15 -10 -15 -5 0 -10 7 -10 15 0 8 5 15 10 15 6 0 10 -7 10 -15z m170 0 c0
-8 -4 -15 -10 -15 -5 0 -10 7 -10 15 0 8 5 15 10 15 6 0 10 -7 10 -15z m-190
-50 c0 -8 -7 -15 -15 -15 -8 0 -15 7 -15 15 0 8 7 15 15 15 8 0 15 -7 15 -15z
m170 -25 c0 -5 -7 -10 -15 -10 -8 0 -15 5 -15 10 0 6 7 10 15 10 8 0 15 -4 15
-10z m880 0 c0 -5 -4 -10 -10 -10 -5 0 -10 5 -10 10 0 6 5 10 10 10 6 0 10 -4
10 -10z m-200 -25 c0 -8 -4 -15 -10 -15 -5 0 -10 7 -10 15 0 8 5 15 10 15 6 0
10 -7 10 -15z m-20 -70 c0 -8 -4 -15 -10 -15 -5 0 -10 7 -10 15 0 8 5 15 10
15 6 0 10 -7 10 -15z m-690 -25 c0 -5 -4 -10 -10 -10 -5 0 -10 -7 -10 -15 0
-8 -7 -15 -15 -15 -8 0 -15 7 -15 15 0 8 7 15 15 15 8 0 15 5 15 10 0 6 5 10
10 10 6 0 10 -4 10 -10z m-120 -50 c0 -5 -4 -10 -10 -10 -5 0 -10 -7 -10 -15
0 -8 -7 -15 -15 -15 -8 0 -15 7 -15 15 0 8 7 15 15 15 8 0 15 5 15 10 0 6 5
10 10 10 6 0 10 -4 10 -10z m860 -25 c0 -8 -7 -15 -15 -15 -8 0 -15 7 -15 15
0 8 7 15 15 15 8 0 15 -7 15 -15z m170 -25 c0 -5 -4 -10 -10 -10 -5 0 -10 5
-10 10 0 6 5 10 10 10 6 0 10 -4 10 -10z m-1100 -50 c0 -5 -7 -10 -15 -10 -8
0 -15 5 -15 10 0 6 7 10 15 10 8 0 15 -4 15 -10z m1130 0 c0 -5 -7 -10 -15
-10 -8 0 -15 5 -15 10 0 6 7 10 15 10 8 0 15 -4 15 -10z m-1250 -25 c0 -8 -7
-15 -15 -15 -8 0 -15 7 -15 15 0 8 7 15 15 15 8 0 15 -7 15 -15z m980 0 c0 -8
-7 -15 -15 -15 -8 0 -15 7 -15 15 0 8 7 15 15 15 8 0 15 -7 15 -15z m-890 -35
c0 -11 -4 -20 -10 -20 -5 0 -10 9 -10 20 0 11 5 20 10 20 6 0 10 -9 10 -20z
m50 -60 c0 -5 -4 -10 -10 -10 -5 0 -10 5 -10 10 0 6 5 10 10 10 6 0 10 -4 10
-10z m50 -25 c0 -8 -4 -15 -10 -15 -5 0 -10 7 -10 15 0 8 5 15 10 15 6 0 10
-7 10 -15z m-320 -125 c0 -5 -4 -10 -10 -10 -5 0 -10 5 -10 10 0 6 5 10 10 10
6 0 10 -4 10 -10z m200 0 c0 -5 -7 -10 -15 -10 -8 0 -15 5 -15 10 0 6 7 10 15
10 8 0 15 -4 15 -10z m-220 -45 c0 -8 -7 -15 -15 -15 -8 0 -15 7 -15 15 0 8 7
15 15 15 8 0 15 -7 15 -15z m-30 -50 c0 -8 -4 -15 -10 -15 -5 0 -10 7 -10 15
0 8 5 15 10 15 6 0 10 -7 10 -15z m-20 -50 c0 -8 -7 -15 -15 -15 -8 0 -15 7
-15 15 0 8 7 15 15 15 8 0 15 -7 15 -15z m120 0 c0 -8 -4 -15 -10 -15 -5 0
-10 7 -10 15 0 8 5 15 10 15 6 0 10 -7 10 -15z m-150 -50 c0 -8 -4 -15 -10
-15 -5 0 -10 7 -10 15 0 8 5 15 10 15 6 0 10 -7 10 -15z m130 0 c0 -8 -7 -15
-15 -15 -8 0 -15 7 -15 15 0 8 7 15 15 15 8 0 15 -7 15 -15z m-50 -70 c0 -8
-7 -15 -15 -15 -8 0 -15 7 -15 15 0 8 7 15 15 15 8 0 15 -7 15 -15z m-50 -46
c0 -14 25 -39 39 -39 6 0 11 -7 11 -15 0 -8 -7 -15 -15 -15 -8 0 -15 5 -15 11
0 6 -6 17 -14 25 -8 8 -19 14 -25 14 -6 0 -11 7 -11 15 0 8 7 15 15 15 8 0 15
-5 15 -11z m-100 -54 c0 -8 -4 -15 -10 -15 -5 0 -10 7 -10 15 0 8 5 15 10 15
6 0 10 -7 10 -15z m150 -75 c0 -5 -7 -10 -15 -10 -8 0 -15 5 -15 10 0 6 7 10
15 10 8 0 15 -4 15 -10z m-150 -25 c0 -8 -4 -15 -10 -15 -5 0 -10 7 -10 15 0
8 5 15 10 15 6 0 10 -7 10 -15z m-200 -170 c0 -8 7 -15 15 -15 9 0 15 -9 15
-25 0 -16 -6 -25 -15 -25 -8 0 -15 7 -15 15 0 8 -4 15 -10 15 -5 0 -10 11 -10
25 0 14 5 25 10 25 6 0 10 -7 10 -15z m1820 -25 c0 -5 -16 -10 -35 -10 -19 0
-35 5 -35 10 0 6 16 10 35 10 19 0 35 -4 35 -10z m150 0 c0 -5 -11 -10 -25
-10 -14 0 -25 5 -25 10 0 6 11 10 25 10 14 0 25 -4 25 -10z m140 0 c0 -5 -4
-10 -10 -10 -5 0 -10 5 -10 10 0 6 5 10 10 10 6 0 10 -4 10 -10z"/>
<path d="M2650 4415 c0 -14 -4 -25 -10 -25 -5 0 -10 -4 -10 -10 0 -5 11 -10
25 -10 20 0 25 5 25 25 0 14 5 25 10 25 6 0 10 5 10 10 0 6 -11 10 -25 10 -20
0 -25 -5 -25 -25z"/>
<path d="M1720 4395 c0 -14 5 -25 11 -25 14 0 39 -25 39 -39 0 -6 5 -11 10
-11 6 0 10 -11 10 -25 0 -14 -4 -25 -10 -25 -5 0 -10 -11 -10 -25 0 -20 5 -25
25 -25 16 0 25 6 25 15 0 9 9 15 25 15 23 0 25 3 25 50 0 34 -4 50 -13 50 -7
0 -19 9 -27 20 -8 11 -25 20 -37 20 -14 0 -23 6 -23 15 0 9 -9 15 -25 15 -20
0 -25 -5 -25 -25z"/>
<path d="M4370 4380 c0 -5 -7 -10 -15 -10 -8 0 -15 -4 -15 -10 0 -5 23 -10 50
-10 38 0 50 -4 50 -15 0 -13 22 -15 135 -15 l135 0 0 25 c0 25 -1 25 -85 25
-50 0 -85 4 -85 10 0 6 -35 10 -85 10 -50 0 -85 -4 -85 -10z"/>
<path d="M4760 4345 c0 -23 3 -25 50 -25 38 0 50 4 50 15 0 8 -7 15 -15 15 -8
0 -15 5 -15 10 0 6 -16 10 -35 10 -31 0 -35 -3 -35 -25z"/>
<path d="M1550 4285 c0 -24 -5 -35 -15 -35 -8 0 -15 -7 -15 -15 0 -8 -4 -15
-10 -15 -15 0 -12 -39 4 -56 17 -16 56 -19 56 -4 0 6 7 10 15 10 12 0 15 15
15 75 0 73 -1 75 -25 75 -22 0 -25 -4 -25 -35z"/>
<path d="M3000 4175 c0 -16 -6 -25 -15 -25 -9 0 -15 -9 -15 -25 0 -14 -4 -25
-10 -25 -5 0 -10 -11 -10 -25 0 -16 -6 -25 -15 -25 -9 0 -15 -9 -15 -25 0 -14
-4 -25 -10 -25 -5 0 -10 -16 -10 -35 0 -24 -5 -35 -15 -35 -9 0 -15 -9 -15
-25 0 -14 -4 -25 -10 -25 -5 0 -10 -16 -10 -35 0 -24 -5 -35 -15 -35 -11 0
-15 -11 -15 -40 0 -22 -4 -40 -10 -40 -5 0 -10 -20 -10 -45 0 -33 -4 -45 -15
-45 -11 0 -15 -12 -15 -50 0 -27 -4 -50 -10 -50 -6 0 -10 -28 -10 -65 0 -63 1
-65 25 -65 23 0 25 3 25 50 0 28 5 50 10 50 6 0 10 18 10 40 0 22 5 40 11 40
17 0 39 27 39 49 0 12 5 21 11 21 17 0 39 27 39 49 0 12 6 21 15 21 8 0 15 7
15 15 0 8 5 15 10 15 6 0 10 11 10 25 0 16 6 25 15 25 9 0 15 9 15 25 0 14 5
25 10 25 6 0 10 63 10 170 0 107 -4 170 -10 170 -5 0 -10 -11 -10 -25z"/>
<path d="M7190 4189 c0 -14 25 -39 39 -39 6 0 11 -10 11 -23 0 -12 9 -29 20
-37 11 -8 20 -25 20 -37 0 -14 6 -23 15 -23 9 0 15 -9 15 -25 0 -14 5 -25 10
-25 6 0 10 -11 10 -25 0 -16 6 -25 15 -25 9 0 15 -9 15 -25 0 -14 5 -25 10
-25 6 0 10 -16 10 -35 0 -24 5 -35 15 -35 9 0 15 -9 15 -25 0 -14 5 -25 10
-25 6 0 10 -7 10 -15 0 -9 9 -15 25 -15 23 0 25 -4 25 -45 0 -41 2 -45 25 -45
23 0 25 -4 25 -40 0 -36 -2 -40 -25 -40 -20 0 -25 -5 -25 -25 0 -14 5 -25 11
-25 21 0 39 -29 39 -64 0 -20 5 -36 10 -36 6 0 10 -20 10 -45 0 -41 2 -45 25
-45 24 0 25 3 25 59 0 38 -4 61 -12 64 -8 2 -9 8 -4 13 5 5 11 4 13 -3 3 -7
11 -13 19 -13 8 0 14 -7 14 -15 0 -8 5 -15 10 -15 6 0 10 -20 10 -45 0 -33 4
-45 15 -45 8 0 15 -5 15 -11 0 -14 25 -39 39 -39 6 0 11 -7 11 -15 0 -8 -6
-15 -14 -15 -8 0 -17 -6 -20 -12 -5 -10 -7 -10 -12 0 -3 6 -17 12 -30 12 -21
0 -24 -5 -24 -35 0 -33 2 -35 35 -35 19 0 35 5 35 10 0 18 45 10 60 -10 8 -11
20 -20 27 -20 8 0 13 -14 13 -39 0 -22 6 -42 13 -45 10 -5 10 -7 0 -12 -8 -3
-13 -25 -13 -55 0 -46 2 -49 25 -49 23 0 25 -3 25 -50 0 -27 5 -50 10 -50 6 0
10 -11 10 -25 0 -14 5 -25 11 -25 14 0 39 -25 39 -39 0 -6 5 -11 11 -11 17 0
39 -27 39 -49 0 -12 5 -21 11 -21 17 0 39 -27 39 -49 0 -12 5 -21 10 -21 6 0
10 -11 10 -25 0 -18 -5 -25 -20 -25 -11 0 -20 -7 -20 -15 0 -11 12 -15 45 -15
l45 0 0 -45 c0 -41 2 -45 25 -45 26 0 35 -24 13 -34 -10 -5 -10 -7 0 -12 6 -3
12 -12 12 -20 0 -8 7 -14 15 -14 8 0 15 -4 15 -10 0 -5 11 -10 25 -10 20 0 25
-5 25 -25 0 -14 5 -25 10 -25 6 0 10 -11 10 -25 0 -14 5 -25 10 -25 6 0 10
-11 10 -25 0 -16 6 -25 15 -25 9 0 15 -9 15 -25 0 -14 5 -25 10 -25 6 0 10
-16 10 -35 0 -24 5 -35 15 -35 8 0 15 -7 15 -15 0 -8 -7 -15 -15 -15 -9 0 -15
-9 -15 -25 0 -16 6 -25 15 -25 8 0 15 7 15 15 0 8 5 15 10 15 14 0 12 -28 -2
-32 -19 -7 16 -38 41 -38 16 0 21 -6 21 -25 0 -20 5 -25 25 -25 23 0 25 -3 25
-50 0 -38 4 -50 15 -50 9 0 15 -9 15 -23 0 -12 9 -29 20 -37 11 -8 20 -20 20
-27 0 -7 5 -13 11 -13 23 0 39 -30 39 -74 0 -34 4 -46 15 -46 8 0 15 -5 15
-11 0 -14 25 -39 39 -39 6 0 11 -7 11 -15 0 -8 -5 -15 -11 -15 -11 0 -39 -24
-39 -34 0 -3 16 -6 35 -6 24 0 35 -5 35 -15 0 -8 5 -15 11 -15 23 0 39 -30 39
-74 0 -34 4 -46 15 -46 10 0 15 -11 15 -35 0 -19 5 -35 10 -35 6 0 10 -27 10
-61 0 -59 13 -89 39 -89 6 0 11 -7 11 -15 0 -11 12 -15 46 -15 49 0 74 -16 74
-49 0 -12 5 -21 11 -21 17 0 39 -27 39 -49 0 -12 5 -21 10 -21 6 0 10 -11 10
-25 0 -14 -4 -25 -10 -25 -5 0 -10 -5 -10 -11 0 -17 -27 -39 -49 -39 -12 0
-21 -6 -21 -15 0 -11 12 -15 45 -15 l45 0 0 -45 c0 -33 4 -45 15 -45 9 0 15
-9 15 -25 0 -14 5 -25 10 -25 6 0 10 -7 10 -15 0 -8 7 -15 15 -15 8 0 15 -4
15 -10 0 -5 16 -10 35 -10 31 0 35 -3 35 -25 0 -16 6 -25 15 -25 9 0 15 -9 15
-21 0 -22 22 -49 39 -49 6 0 11 -11 11 -25 0 -14 5 -25 10 -25 6 0 10 -11 10
-25 0 -20 5 -25 25 -25 16 0 25 -6 25 -15 0 -8 -5 -15 -11 -15 -14 0 -39 -25
-39 -39 0 -6 -4 -11 -10 -11 -5 0 -10 -9 -10 -20 0 -11 5 -20 10 -20 6 0 10
-5 10 -11 0 -23 30 -39 74 -39 25 0 46 5 46 10 0 6 7 10 15 10 10 0 15 11 15
35 0 24 -5 35 -15 35 -11 0 -15 11 -15 40 0 22 -4 40 -10 40 -5 0 -10 11 -10
25 0 16 -6 25 -15 25 -9 0 -15 9 -15 25 0 14 -4 25 -10 25 -5 0 -10 11 -10 25
0 16 -6 25 -15 25 -8 0 -15 9 -15 20 0 11 -4 20 -10 20 -5 0 -10 11 -10 25 0
14 -4 25 -10 25 -5 0 -10 11 -10 25 0 16 -6 25 -15 25 -9 0 -15 9 -15 25 0 14
-4 25 -10 25 -5 0 -10 11 -10 25 0 16 -6 25 -15 25 -9 0 -15 9 -15 25 0 14 -4
25 -10 25 -5 0 -10 11 -10 25 0 16 -6 25 -15 25 -9 0 -15 9 -15 25 0 14 -4 25
-10 25 -5 0 -10 11 -10 25 0 16 -6 25 -15 25 -8 0 -15 9 -15 20 0 11 -4 20
-10 20 -5 0 -10 11 -10 25 0 16 -6 25 -15 25 -9 0 -15 9 -15 25 0 14 -4 25
-10 25 -5 0 -10 11 -10 25 0 14 -4 25 -10 25 -5 0 -10 11 -10 25 0 16 -6 25
-15 25 -8 0 -15 7 -15 15 0 8 -4 15 -10 15 -5 0 -10 9 -10 20 0 11 -7 20 -15
20 -9 0 -15 9 -15 25 0 14 -4 25 -10 25 -5 0 -10 11 -10 25 0 16 -6 25 -15 25
-9 0 -15 9 -15 25 0 14 -4 25 -10 25 -5 0 -10 7 -10 15 0 8 -7 15 -15 15 -8 0
-15 9 -15 20 0 11 -4 20 -10 20 -5 0 -10 11 -10 25 0 14 -4 25 -10 25 -5 0
-10 7 -10 15 0 8 -7 15 -15 15 -9 0 -15 9 -15 25 0 14 -4 25 -10 25 -5 0 -10
11 -10 25 0 14 -5 25 -11 25 -14 0 -39 25 -39 39 0 6 -7 11 -15 11 -10 0 -15
10 -15 31 0 30 -19 59 -39 59 -6 0 -11 5 -11 11 0 14 -25 39 -39 39 -6 0 -11
11 -11 25 0 14 -4 25 -10 25 -5 0 -10 7 -10 15 0 8 -4 15 -10 15 -5 0 -10 20
-10 45 0 32 -4 45 -14 45 -8 0 -16 -6 -19 -12 -2 -8 -8 -9 -13 -4 -5 5 -4 11
4 13 14 6 17 83 2 83 -5 0 -10 11 -10 25 0 16 -6 25 -15 25 -8 0 -15 9 -15 20
0 11 -4 20 -10 20 -5 0 -10 11 -10 25 0 16 -6 25 -15 25 -9 0 -15 9 -15 25 0
14 -4 25 -10 25 -5 0 -10 11 -10 25 0 16 -6 25 -15 25 -9 0 -15 9 -15 25 0 14
-4 25 -10 25 -5 0 -10 11 -10 25 0 16 -6 25 -15 25 -9 0 -15 9 -15 25 0 14 -4
25 -10 25 -5 0 -10 11 -10 25 0 14 -4 25 -10 25 -5 0 -10 11 -10 25 0 16 -6
25 -15 25 -9 0 -15 9 -15 25 0 14 -4 25 -10 25 -5 0 -10 9 -10 20 0 11 -7 20
-15 20 -9 0 -15 9 -15 25 0 14 -4 25 -10 25 -5 0 -10 11 -10 25 0 16 -6 25
-15 25 -9 0 -15 9 -15 25 0 14 -4 25 -10 25 -5 0 -10 7 -10 15 0 8 5 15 10 15
6 0 10 -7 10 -15 0 -9 9 -15 25 -15 16 0 25 6 25 15 0 8 7 15 15 15 8 0 15 9
15 20 0 11 -7 20 -15 20 -8 0 -15 7 -15 15 0 8 -4 15 -10 15 -5 0 -10 16 -10
35 0 31 -3 35 -25 35 -24 0 -25 -3 -25 -60 0 -47 -3 -60 -15 -60 -9 0 -15 9
-15 23 0 12 -9 29 -20 37 -11 8 -20 25 -20 37 0 14 -6 23 -15 23 -9 0 -15 9
-15 25 0 14 -4 25 -10 25 -5 0 -10 11 -10 25 0 20 -5 25 -25 25 -14 0 -25 -4
-25 -10 0 -5 -7 -10 -15 -10 -8 0 -15 5 -15 10 0 6 7 10 15 10 8 0 15 6 15 14
0 8 6 16 12 18 15 5 -13 38 -31 38 -6 0 -11 11 -11 25 0 14 -4 25 -10 25 -5 0
-10 11 -10 25 0 16 -6 25 -15 25 -8 0 -15 7 -15 15 0 8 -4 15 -10 15 -5 0 -10
11 -10 25 0 16 -6 25 -15 25 -8 0 -15 9 -15 20 0 11 -4 20 -10 20 -5 0 -10 5
-10 11 0 14 -25 39 -39 39 -6 0 -11 16 -11 36 0 35 -18 64 -39 64 -6 0 -11 5
-11 11 0 14 -25 39 -39 39 -6 0 -11 9 -11 21 0 22 -22 49 -39 49 -6 0 -11 11
-11 25 0 14 -4 25 -10 25 -5 0 -10 7 -10 15 0 8 -4 15 -10 15 -5 0 -10 11 -10
25 0 16 -6 25 -15 25 -9 0 -15 9 -15 21 0 22 -22 49 -39 49 -6 0 -11 11 -11
25 0 14 -4 25 -10 25 -5 0 -10 11 -10 25 0 16 -6 25 -15 25 -9 0 -15 9 -15 21
0 22 -22 49 -39 49 -6 0 -11 9 -11 21 0 22 -22 49 -39 49 -6 0 -11 6 -11 13 0
7 -9 19 -20 27 -11 8 -20 20 -20 27 0 7 -11 13 -25 13 -14 0 -25 -5 -25 -11z
m390 -639 c0 -5 -7 -10 -15 -10 -8 0 -15 5 -15 10 0 6 7 10 15 10 8 0 15 -4
15 -10z m270 -465 c0 -8 -7 -15 -15 -15 -8 0 -15 7 -15 15 0 8 7 15 15 15 8 0
15 -7 15 -15z m70 -50 c0 -8 -4 -15 -10 -15 -5 0 -10 -11 -10 -25 0 -16 -6
-25 -15 -25 -9 0 -15 9 -15 25 0 16 6 25 15 25 8 0 15 7 15 15 0 8 5 15 10 15
6 0 10 -7 10 -15z m0 -100 c0 -8 -4 -15 -10 -15 -5 0 -10 7 -10 15 0 8 5 15
10 15 6 0 10 -7 10 -15z m100 -95 c0 -5 -4 -10 -10 -10 -5 0 -10 5 -10 10 0 6
5 10 10 10 6 0 10 -4 10 -10z m50 -75 c0 -8 -7 -15 -15 -15 -8 0 -15 7 -15 15
0 8 7 15 15 15 8 0 15 -7 15 -15z m50 -75 c0 -5 -7 -10 -15 -10 -8 0 -15 5
-15 10 0 6 7 10 15 10 8 0 15 -4 15 -10z m20 -120 c0 -5 -4 -10 -10 -10 -5 0
-10 5 -10 10 0 6 5 10 10 10 6 0 10 -4 10 -10z m0 -50 c0 -5 -4 -10 -10 -10
-5 0 -10 5 -10 10 0 6 5 10 10 10 6 0 10 -4 10 -10z m50 -70 c0 -5 7 -10 15
-10 8 0 15 -6 15 -14 0 -8 6 -16 13 -19 7 -2 8 -8 3 -13 -5 -5 -11 -4 -13 4
-3 6 -11 12 -19 12 -8 0 -14 7 -14 15 0 8 -4 15 -10 15 -5 0 -10 5 -10 10 0 6
5 10 10 10 6 0 10 -4 10 -10z m-20 -50 c0 -5 -7 -10 -15 -10 -8 0 -15 5 -15
10 0 6 7 10 15 10 8 0 15 -4 15 -10z m120 -75 c0 -8 -7 -15 -15 -15 -8 0 -15
7 -15 15 0 8 7 15 15 15 8 0 15 -7 15 -15z m70 -125 c0 -5 -4 -10 -10 -10 -5
0 -10 5 -10 10 0 6 5 10 10 10 6 0 10 -4 10 -10z m30 -45 c0 -8 -7 -15 -15
-15 -8 0 -15 7 -15 15 0 8 7 15 15 15 8 0 15 -7 15 -15z m20 -175 c0 -5 -4
-10 -10 -10 -5 0 -10 5 -10 10 0 6 5 10 10 10 6 0 10 -4 10 -10z"/>
<path d="M1670 4135 c0 -9 -9 -15 -25 -15 -21 0 -25 -5 -25 -31 0 -30 -19 -59
-39 -59 -6 0 -11 -11 -11 -25 0 -14 -4 -25 -10 -25 -6 0 -10 -27 -10 -60 0
-47 -3 -60 -15 -60 -8 0 -15 -7 -15 -15 0 -8 6 -15 14 -15 8 0 17 -6 20 -12 5
-10 7 -10 12 0 3 6 12 12 20 12 8 0 14 7 14 15 0 8 5 15 10 15 6 0 10 9 10 20
0 11 7 20 15 20 9 0 15 9 15 25 0 14 5 25 10 25 6 0 10 7 10 15 0 8 7 15 15
15 9 0 15 9 15 21 0 22 22 49 39 49 6 0 11 6 11 13 0 7 9 19 20 27 11 8 20 25
20 37 0 21 -4 23 -60 23 -47 0 -60 -3 -60 -15z"/>
<path d="M3460 4139 c0 -6 -6 -17 -14 -25 -8 -8 -19 -14 -25 -14 -6 0 -11 -4
-11 -10 0 -5 7 -10 15 -10 8 0 15 -7 15 -15 0 -8 5 -15 10 -15 6 0 10 7 10 15
0 8 5 15 11 15 17 0 39 27 39 49 0 16 -6 21 -25 21 -14 0 -25 -5 -25 -11z"/>
<path d="M1500 3749 c0 -14 -25 -39 -39 -39 -6 0 -11 -5 -11 -11 0 -14 -25
-39 -39 -39 -6 0 -11 -9 -11 -21 0 -22 -22 -49 -39 -49 -6 0 -11 -11 -11 -25
0 -14 -4 -25 -10 -25 -5 0 -10 -11 -10 -25 0 -16 -6 -25 -15 -25 -9 0 -15 -9
-15 -25 0 -14 -4 -25 -10 -25 -5 0 -10 -7 -10 -15 0 -8 -4 -15 -10 -15 -5 0
-10 -9 -10 -20 0 -11 -7 -20 -15 -20 -9 0 -15 -9 -15 -25 0 -14 -4 -25 -10
-25 -5 0 -10 -7 -10 -15 0 -8 -7 -15 -15 -15 -9 0 -15 -9 -15 -21 0 -22 -22
-49 -39 -49 -6 0 -11 -9 -11 -21 0 -22 -22 -49 -39 -49 -6 0 -11 -5 -11 -11 0
-14 -25 -39 -39 -39 -6 0 -11 -17 -11 -38 0 -26 -6 -42 -20 -52 -11 -8 -20
-20 -20 -27 0 -7 -7 -13 -15 -13 -9 0 -15 -9 -15 -25 0 -14 -4 -25 -10 -25 -5
0 -10 -9 -10 -20 0 -11 -7 -20 -15 -20 -8 0 -15 -7 -15 -15 0 -8 -4 -15 -10
-15 -5 0 -10 -11 -10 -25 0 -16 -6 -25 -15 -25 -9 0 -15 -9 -15 -21 0 -22 -22
-49 -39 -49 -6 0 -11 -11 -11 -25 0 -14 -4 -25 -10 -25 -5 0 -10 -11 -10 -25
0 -16 -6 -25 -15 -25 -9 0 -15 -9 -15 -25 0 -14 -4 -25 -10 -25 -5 0 -10 -9
-10 -21 0 -22 -22 -49 -39 -49 -6 0 -11 -11 -11 -25 0 -14 -4 -25 -10 -25 -5
0 -10 -11 -10 -25 0 -16 -6 -25 -15 -25 -9 0 -15 -9 -15 -25 0 -14 -4 -25 -10
-25 -5 0 -10 -11 -10 -25 0 -16 -6 -25 -15 -25 -9 0 -15 -9 -15 -25 0 -14 -4
-25 -10 -25 -5 0 -10 -11 -10 -25 0 -16 -6 -25 -15 -25 -8 0 -15 -9 -15 -20 0
-11 -4 -20 -10 -20 -5 0 -10 -11 -10 -25 0 -14 -4 -25 -10 -25 -5 0 -10 -11
-10 -25 0 -16 -6 -25 -15 -25 -9 0 -15 -9 -15 -25 0 -14 -4 -25 -10 -25 -5 0
-10 -11 -10 -25 0 -16 -6 -25 -15 -25 -9 0 -15 -9 -15 -25 0 -14 -4 -25 -10
-25 -5 0 -10 -11 -10 -25 0 -16 -6 -25 -15 -25 -9 0 -15 -9 -15 -25 0 -14 -4
-25 -10 -25 -5 0 -10 -11 -10 -25 0 -16 -6 -25 -15 -25 -8 0 -15 -9 -15 -20 0
-11 -4 -20 -10 -20 -5 0 -10 -11 -10 -25 0 -16 -6 -25 -15 -25 -11 0 -15 -11
-15 -40 0 -22 -4 -40 -10 -40 -5 0 -10 -16 -10 -35 0 -19 5 -35 10 -35 6 0 10
-7 10 -15 0 -11 12 -15 50 -15 38 0 50 4 50 15 0 8 5 15 11 15 17 0 39 27 39
49 0 12 -4 21 -10 21 -5 0 -10 7 -10 15 0 8 -5 15 -11 15 -14 0 -39 25 -39 39
0 6 11 11 25 11 20 0 25 5 25 25 0 14 5 25 10 25 6 0 10 9 10 20 0 11 7 20 15
20 8 0 15 7 15 15 0 8 5 15 10 15 6 0 10 11 10 25 0 16 6 25 15 25 9 0 15 9
15 25 0 21 5 25 31 25 30 0 59 19 59 39 0 6 7 11 15 11 8 0 15 9 15 20 0 11 5
20 10 20 6 0 10 23 10 50 l0 50 50 0 c38 0 50 4 50 15 0 9 -9 15 -21 15 -22 0
-49 22 -49 39 0 6 -7 11 -15 11 -8 0 -15 9 -15 20 0 11 7 20 15 20 9 0 15 9
15 25 0 14 5 25 10 25 6 0 10 7 10 15 0 8 7 15 15 15 9 0 15 9 15 21 0 33 25
49 74 49 26 0 46 5 46 11 0 14 25 39 39 39 7 0 11 24 11 60 0 33 4 60 10 60 6
0 10 18 10 40 0 29 4 40 15 40 11 0 15 12 15 45 0 25 5 45 10 45 6 0 10 7 10
15 0 8 7 15 15 15 8 0 15 5 15 10 0 6 16 10 35 10 24 0 35 5 35 15 0 8 -5 15
-11 15 -11 0 -39 25 -39 35 0 10 28 35 39 35 6 0 11 7 11 15 0 8 5 15 10 15 6
0 10 20 10 45 0 33 4 45 15 45 8 0 15 5 15 11 0 14 25 39 39 39 6 0 11 7 11
15 0 8 5 15 10 15 6 0 10 11 10 25 0 16 6 25 15 25 11 0 15 12 15 45 0 41 2
45 25 45 23 0 25 3 25 50 0 43 3 50 20 50 11 0 20 7 20 15 0 8 7 15 15 15 9 0
15 9 15 25 0 14 5 25 10 25 6 0 10 16 10 35 0 24 5 35 15 35 9 0 15 9 15 25 0
14 5 25 10 25 6 0 10 11 10 25 0 16 6 25 15 25 9 0 15 9 15 25 0 14 5 25 10
25 6 0 10 11 10 25 0 14 5 25 11 25 16 0 39 26 39 45 0 19 23 45 39 45 6 0 11
7 11 15 0 9 -9 15 -25 15 -14 0 -25 -5 -25 -11z"/>
<path d="M2680 3330 c0 -5 -7 -10 -15 -10 -9 0 -15 -9 -15 -25 0 -22 4 -25 40
-25 39 0 40 1 40 35 0 31 -3 35 -25 35 -14 0 -25 -4 -25 -10z"/>
<path d="M7260 3269 c0 -69 12 -99 39 -99 6 0 11 -9 11 -21 0 -22 22 -49 39
-49 6 0 11 -11 11 -25 0 -14 5 -25 10 -25 6 0 10 -7 10 -15 0 -8 7 -15 15 -15
9 0 15 9 15 25 0 16 -6 25 -15 25 -11 0 -15 11 -15 40 0 22 -4 40 -10 40 -5 0
-10 9 -10 20 0 11 -7 20 -15 20 -9 0 -15 9 -15 25 0 14 -4 25 -10 25 -5 0 -10
11 -10 25 0 16 -6 25 -15 25 -9 0 -15 9 -15 25 0 14 -4 25 -10 25 -6 0 -10
-30 -10 -71z"/>
<path d="M2410 3199 c0 -22 22 -49 39 -49 6 0 11 -7 11 -15 0 -8 5 -15 10 -15
6 0 10 -11 10 -25 0 -14 -4 -25 -10 -25 -5 0 -10 -11 -10 -25 0 -20 5 -25 25
-25 16 0 25 6 25 15 0 8 9 15 20 15 17 0 20 7 20 45 0 51 -32 95 -70 95 -11 0
-20 7 -20 15 0 9 -9 15 -25 15 -19 0 -25 -5 -25 -21z"/>
<path d="M2240 3085 c0 -24 -5 -35 -15 -35 -8 0 -15 -7 -15 -15 0 -8 -4 -15
-10 -15 -15 0 -12 -39 4 -56 8 -8 22 -14 31 -14 33 0 45 26 45 99 0 64 -2 71
-20 71 -16 0 -20 -7 -20 -35z"/>
<path d="M3580 3110 c0 -5 7 -10 15 -10 8 0 15 -5 15 -11 0 -6 6 -17 14 -25 8
-8 19 -14 25 -14 6 0 11 -5 11 -11 0 -6 6 -17 14 -25 8 -8 19 -14 25 -14 6 0
11 -5 11 -11 0 -6 6 -17 14 -25 8 -8 19 -14 25 -14 6 0 11 -5 11 -10 0 -6 11
-22 25 -35 13 -14 29 -25 35 -25 5 0 10 -5 10 -11 0 -17 27 -39 49 -39 12 0
21 -6 21 -15 0 -9 9 -15 25 -15 22 0 25 -4 25 -35 0 -19 -4 -35 -10 -35 -5 0
-10 -7 -10 -15 0 -8 -7 -15 -15 -15 -10 0 -15 -11 -15 -35 0 -31 3 -35 25 -35
16 0 25 6 25 15 0 8 5 15 11 15 20 0 39 29 39 59 0 17 5 31 10 31 6 0 10 23
10 50 0 47 2 50 25 50 22 0 25 4 25 35 0 24 5 35 15 35 11 0 15 12 15 50 0 38
-4 50 -15 50 -8 0 -15 7 -15 15 0 8 -4 15 -10 15 -5 0 -10 -11 -10 -25 0 -22
-4 -25 -35 -25 -19 0 -35 5 -35 10 0 6 -7 10 -15 10 -8 0 -15 5 -15 11 0 14
-25 39 -39 39 -6 0 -11 5 -11 11 0 33 -28 39 -174 39 -91 0 -146 -4 -146 -10z
m490 -150 c0 -5 -4 -10 -10 -10 -5 0 -10 5 -10 10 0 6 5 10 10 10 6 0 10 -4
10 -10z"/>
<path d="M8410 519 c0 -14 -25 -39 -39 -39 -6 0 -11 -21 -11 -50 0 -29 5 -50
11 -50 17 0 39 27 39 49 0 12 6 21 15 21 11 0 15 11 15 40 0 29 -4 40 -15 40
-8 0 -15 -5 -15 -11z"/>
<path d="M3930 290 c0 -5 16 -10 35 -10 19 0 35 5 35 10 0 6 -16 10 -35 10
-19 0 -35 -4 -35 -10z"/>
<path d="M5080 220 c0 -5 16 -10 35 -10 19 0 35 5 35 10 0 6 -16 10 -35 10
-19 0 -35 -4 -35 -10z"/>
<path d="M300 70 c0 -5 5 -10 10 -10 6 0 10 5 10 10 0 6 -4 10 -10 10 -5 0
-10 -4 -10 -10z"/>
</g>
</svg>
