<?xml version="1.0" standalone="no"?>
<!DOCTYPE svg PUBLIC "-//W3C//DTD SVG 20010904//EN"
 "http://www.w3.org/TR/2001/REC-SVG-20010904/DTD/svg10.dtd">
<svg version="1.0" xmlns="http://www.w3.org/2000/svg"
 width="1872.000000pt" height="1404.000000pt" viewBox="0 0 1872.000000 1404.000000"
 preserveAspectRatio="xMidYMid meet">

<g transform="translate(0.000000,1404.000000) scale(0.100000,-0.100000)"
fill="#000000" stroke="none">
<path d="M1741 13878 c-251 -28 -512 -132 -743 -298 -89 -63 -302 -280 -370
-375 -163 -231 -274 -495 -330 -785 l-22 -115 -4 -3195 c-2 -2287 0 -3232 8
-3325 40 -468 222 -898 514 -1213 246 -266 502 -416 841 -494 l100 -22 2325
-3 2325 -3 609 -666 c336 -365 616 -663 623 -662 8 2 284 300 614 663 l601
660 121 12 c323 32 595 148 845 360 346 293 568 705 659 1223 16 88 18 344 21
3305 2 2257 0 3244 -8 3325 -56 590 -371 1105 -857 1402 -168 103 -411 184
-616 207 -124 14 -7131 13 -7256 -1z m7356 -61 c292 -60 554 -196 767 -398
171 -162 274 -304 381 -524 94 -194 149 -384 175 -610 14 -127 14 -6385 -1
-6526 -53 -526 -283 -984 -653 -1303 -245 -212 -536 -331 -856 -352 l-98 -7
-599 -658 -598 -659 -25 29 c-14 16 -286 313 -604 660 l-579 631 -2336 3
c-2335 2 -2336 3 -2426 24 -364 85 -649 267 -902 578 -152 187 -300 499 -363
762 -58 247 -54 -19 -58 3478 -2 2256 0 3234 8 3315 59 626 415 1165 941 1426
151 76 315 123 514 147 17 2 1650 3 3630 3 3352 -2 3606 -3 3682 -19z"/>
<path d="M5174 13193 c-4 -10 -14 -36 -24 -58 -9 -22 -25 -63 -35 -92 l-19
-52 -33 49 c-18 27 -33 54 -33 59 0 14 -38 24 -66 17 -30 -8 -27 -30 3 -34 13
-2 37 -26 60 -60 21 -31 42 -60 46 -63 9 -7 -5 -40 -101 -244 -77 -163 -98
-231 -80 -253 16 -18 26 -4 43 61 8 31 34 96 59 144 56 113 126 275 166 383
19 54 40 93 57 107 16 13 24 27 20 37 -9 22 -56 21 -63 -1z"/>
<path d="M4030 13154 c0 -9 9 -18 20 -21 27 -7 34 -68 26 -212 -4 -84 -2 -123
7 -140 27 -52 32 -26 33 160 1 103 4 192 8 198 13 20 -5 31 -50 31 -34 0 -44
-4 -44 -16z"/>
<path d="M3678 13115 c-37 -21 -113 -148 -132 -221 -19 -72 -20 -105 -5 -156
27 -101 179 -84 316 33 26 23 49 48 51 55 7 29 -19 21 -70 -20 -97 -79 -200
-115 -242 -84 -48 36 -21 191 52 298 36 53 82 80 82 48 0 -7 5 -30 11 -50 19
-70 69 -38 69 43 0 52 -16 69 -63 69 -23 -1 -54 -7 -69 -15z"/>
<path d="M4770 13073 c-23 -27 -51 -52 -63 -56 -15 -6 -17 -11 -9 -19 8 -8 6
-21 -9 -50 -33 -64 -51 -269 -26 -301 26 -36 45 7 68 161 6 39 15 70 20 67 18
-12 71 28 100 73 64 101 62 172 -5 172 -28 0 -41 -8 -76 -47z m90 -3 c0 -33
-69 -150 -89 -150 -4 0 -7 21 -6 46 2 36 9 52 36 80 32 33 59 44 59 24z"/>
<path d="M4297 13104 c-16 -16 -6 -34 19 -34 19 0 25 5 22 17 -3 19 -29 29
-41 17z"/>
<path d="M4564 13044 c-16 -8 -40 -26 -55 -40 -18 -18 -36 -24 -67 -24 -45 0
-60 -23 -22 -35 11 -3 20 -10 20 -14 0 -5 -9 -68 -20 -141 -23 -149 -25 -196
-10 -205 6 -4 17 -2 24 5 21 17 49 145 49 222 0 48 3 66 10 59 19 -19 42 -12
74 22 47 50 63 79 63 114 0 43 -26 57 -66 37z m26 -47 c0 -7 -11 -29 -25 -50
-19 -27 -33 -37 -52 -37 -29 0 -26 6 31 68 32 34 46 40 46 19z"/>
<path d="M2325 12978 c-2 -7 -6 -87 -7 -178 -3 -145 -6 -170 -24 -204 l-21
-39 -17 48 c-9 27 -16 56 -16 66 0 9 -7 19 -15 23 -17 6 -40 -24 -50 -67 -4
-15 -11 -30 -17 -33 -5 -3 -6 4 -3 18 11 45 35 224 35 258 0 38 -23 80 -44 80
-29 0 -68 -46 -107 -127 -29 -58 -38 -88 -31 -95 16 -16 30 -1 63 70 30 66 55
102 71 102 12 0 9 -51 -11 -188 -20 -130 -19 -157 6 -166 20 -8 41 5 62 38
l18 27 6 -28 c8 -42 40 -78 61 -70 9 4 29 33 44 64 26 56 27 64 27 232 0 131
-3 175 -12 178 -7 3 -15 -1 -18 -9z"/>
<path d="M2712 12969 c-28 -11 -24 -33 5 -37 18 -3 19 -7 12 -45 -5 -27 -2
-69 7 -117 8 -41 14 -91 14 -111 0 -42 8 -53 27 -38 17 14 17 55 -1 146 -14
74 -8 152 15 179 25 30 -26 45 -79 23z"/>
<path d="M2840 12957 c0 -7 5 -18 12 -25 7 -7 14 -67 17 -156 6 -141 17 -185
40 -160 12 13 -4 306 -18 332 -13 24 -51 30 -51 9z"/>
<path d="M4230 12925 c0 -9 7 -18 15 -21 9 -4 14 -17 12 -37 -3 -46 25 -47 42
-2 11 32 11 39 -5 56 -21 23 -64 26 -64 4z"/>
<path d="M5779 12809 c-31 -31 -77 -142 -89 -211 -5 -34 -7 -86 -4 -117 6 -52
5 -57 -17 -68 -13 -7 -35 -13 -49 -15 -15 -2 -26 -10 -28 -22 -4 -17 1 -18 47
-14 56 6 56 5 66 -65 8 -49 -8 -111 -51 -201 -28 -59 -30 -79 -7 -74 21 4 57
73 84 162 20 68 21 83 3 184 l-6 32 96 46 c56 26 96 51 96 60 0 22 -30 17
-109 -21 -41 -20 -76 -33 -80 -30 -3 4 -5 41 -5 84 1 65 7 91 35 157 26 61 39
79 54 79 14 0 21 8 23 28 3 22 -1 27 -17 27 -12 0 -30 -9 -42 -21z"/>
<path d="M5469 12748 c-16 -18 -39 -58 -52 -88 -20 -49 -22 -72 -22 -224 l0
-169 -25 -9 c-48 -18 -42 -54 7 -41 18 4 23 1 23 -15 0 -34 -27 -163 -49 -232
-26 -81 -27 -113 -5 -108 10 2 22 21 29 48 44 161 56 211 61 270 6 65 7 67 50
94 44 28 58 56 28 56 -9 0 -28 -9 -44 -20 l-27 -19 -7 46 c-11 79 -6 216 8
272 17 60 59 131 80 131 15 0 28 24 19 34 -15 15 -47 3 -74 -26z"/>
<path d="M2471 12726 c-16 -19 -36 -119 -28 -139 9 -24 64 -22 121 4 44 19 66
42 52 56 -3 3 -28 -4 -56 -15 -27 -11 -50 -18 -50 -16 0 3 9 17 20 31 25 32
25 55 2 76 -23 21 -46 22 -61 3z m39 -40 c0 -3 -4 -8 -10 -11 -5 -3 -10 -1
-10 4 0 6 5 11 10 11 6 0 10 -2 10 -4z"/>
<path d="M3152 12634 c-39 -16 -45 -49 -7 -42 14 3 25 4 25 2 0 -2 -14 -19
-31 -39 -29 -33 -34 -65 -10 -65 19 0 81 92 81 120 0 35 -17 42 -58 24z"/>
<path d="M4317 12474 c-11 -12 -8 -36 7 -53 9 -10 15 -49 18 -108 4 -80 2 -92
-13 -96 -28 -7 -50 -52 -56 -111 -6 -62 5 -84 61 -113 48 -25 51 -13 49 208
-1 174 -4 204 -20 236 -20 38 -34 49 -46 37z m30 -361 c-1 -53 -5 -68 -17 -68
-11 0 -15 12 -15 51 1 43 16 84 31 84 2 0 3 -30 1 -67z"/>
<path d="M3705 12448 c-49 -11 -66 -25 -45 -38 8 -6 21 -8 28 -5 9 3 12 -34
12 -164 l0 -169 -32 -13 c-18 -7 -41 -13 -52 -14 -10 0 -24 -8 -30 -18 -19
-30 11 -38 66 -17 l48 18 0 -65 c0 -84 10 -103 58 -103 48 0 116 39 120 68 4
28 -9 28 -54 -3 -20 -14 -47 -25 -60 -25 -23 0 -24 3 -24 74 0 72 1 75 30 92
16 10 32 24 35 31 6 18 -23 29 -38 14 -6 -6 -15 -11 -19 -11 -4 0 -8 69 -8
154 0 124 3 156 15 166 33 27 9 41 -50 28z"/>
<path d="M5092 12363 c-22 -9 -53 -83 -59 -139 -6 -60 13 -104 46 -104 28 0
68 37 81 74 15 46 3 84 -33 106 -29 18 -29 18 -6 22 16 2 24 10 24 23 0 20
-26 29 -53 18z m28 -112 c16 -32 -17 -100 -42 -85 -12 8 -9 79 4 92 17 17 26
15 38 -7z"/>
<path d="M2682 12330 c-46 -43 -55 -78 -60 -221 l-4 -136 -44 -21 c-24 -12
-44 -29 -44 -37 0 -19 23 -19 60 0 29 15 30 15 30 -5 0 -26 -35 -111 -67 -162
-28 -46 -29 -58 -3 -58 27 0 99 143 107 211 5 42 10 52 35 65 36 18 31 40 -7
36 l-28 -3 5 118 c5 125 23 188 52 177 16 -6 40 31 31 46 -10 16 -40 11 -63
-10z"/>
<path d="M2846 12323 c-3 -4 -6 -40 -6 -82 0 -42 -7 -146 -17 -232 -14 -131
-15 -161 -4 -187 8 -18 20 -32 28 -32 12 0 14 9 8 48 -3 26 1 106 9 177 20
169 21 301 2 308 -8 3 -17 3 -20 0z"/>
<path d="M1775 12125 c-33 -14 -103 -48 -156 -75 -53 -27 -115 -52 -138 -56
-31 -5 -41 -11 -39 -23 7 -30 76 -15 181 38 l97 50 0 -240 c0 -131 0 -242 1
-246 0 -5 -41 -23 -93 -41 -94 -34 -128 -54 -128 -79 0 -17 34 -17 49 0 6 8
30 19 53 26 24 7 91 33 149 57 59 24 139 49 178 55 57 10 71 15 69 28 -5 21
-70 17 -162 -10 -37 -11 -70 -19 -72 -17 -1 2 -4 111 -5 242 -1 269 -8 246 83
270 32 8 53 19 53 27 0 23 -56 20 -120 -6z"/>
<path d="M4017 12112 c-22 -24 -37 -67 -37 -106 0 -71 75 -115 139 -82 40 21
43 51 4 42 -16 -4 -37 -9 -48 -12 -11 -2 -27 0 -35 5 -12 9 -10 16 17 43 55
57 54 128 -2 128 -12 0 -29 -8 -38 -18z m27 -63 c-24 -27 -30 -15 -9 18 12 17
20 23 23 15 2 -7 -4 -22 -14 -33z"/>
<path d="M3321 12031 c-25 -25 -47 -67 -55 -108 -9 -40 16 -93 43 -93 28 0 81
48 99 90 l15 35 14 -55 c8 -30 19 -60 24 -66 14 -17 44 -23 60 -13 11 7 8 14
-13 31 -17 16 -30 41 -38 78 -17 75 -37 107 -73 114 -46 9 -56 7 -76 -13z m69
-24 c0 -2 -7 -26 -15 -54 -17 -56 -58 -96 -69 -67 -15 38 31 124 65 124 10 0
19 -1 19 -3z"/>
<path d="M3038 11985 c-16 -9 -28 -23 -28 -33 0 -9 -6 -35 -14 -56 -9 -26 -11
-49 -5 -69 10 -37 47 -77 69 -77 47 0 99 82 100 156 0 68 -66 110 -122 79z
m80 -66 c5 -33 -14 -93 -38 -114 -20 -18 -21 -18 -35 1 -34 44 1 147 47 141
15 -3 24 -12 26 -28z"/>
<path d="M5454 11986 c-4 -10 -4 -51 0 -92 3 -41 9 -107 12 -148 l7 -74 -37
-32 c-28 -25 -36 -39 -36 -66 0 -35 28 -74 53 -74 23 0 46 33 53 78 4 26 12
42 20 42 18 0 18 36 1 43 -14 5 -27 108 -32 245 -2 43 -8 69 -18 80 -15 14
-17 14 -23 -2z m12 -398 c-3 -13 -6 -29 -6 -36 0 -7 -4 -10 -10 -7 -11 7 -14
48 -3 58 14 15 25 6 19 -15z"/>
<path d="M4575 11870 c-9 -15 -8 -137 2 -153 4 -6 9 -95 12 -197 6 -175 7
-185 26 -188 19 -3 20 2 18 120 -2 68 -8 175 -14 238 -7 63 -13 130 -13 149
-1 34 -18 52 -31 31z"/>
<path d="M5096 11655 c-13 -15 -32 -37 -42 -48 -19 -22 -44 -113 -36 -135 5
-15 32 -16 32 -1 0 23 70 160 85 165 22 9 27 1 40 -64 8 -37 16 -57 26 -57 21
0 14 103 -9 135 -27 36 -66 38 -96 5z"/>
<path d="M3170 11593 c1 -86 -13 -444 -21 -516 -8 -76 -7 -102 2 -113 18 -22
32 -3 63 84 50 140 66 144 66 17 0 -62 4 -84 14 -88 23 -9 26 2 26 84 0 91
-10 125 -41 134 -18 6 -29 1 -52 -25 l-30 -33 8 231 c7 232 7 232 -14 232 -12
0 -21 -3 -21 -7z"/>
<path d="M4790 11551 c-31 -30 -46 -71 -36 -96 8 -22 59 -19 90 6 25 19 26 20
33 2 10 -29 35 -53 55 -53 24 0 23 21 -2 43 -18 15 -26 47 -21 85 3 21 -26 42
-59 42 -21 0 -41 -9 -60 -29z m51 -29 c-12 -23 -40 -47 -46 -40 -3 3 4 17 16
31 24 31 45 37 30 9z"/>
<path d="M4143 11543 c-20 -7 -15 -31 8 -44 15 -8 24 -8 32 0 14 14 -21 51
-40 44z"/>
<path d="M4335 11509 c-51 -45 -54 -69 -15 -118 39 -49 35 -71 -14 -71 -19 0
-37 4 -41 10 -8 13 -35 1 -35 -16 0 -30 88 -46 130 -24 48 26 45 65 -8 122
-24 26 -24 28 -8 53 9 14 30 28 46 32 21 4 30 11 30 24 0 30 -44 23 -85 -12z"/>
<path d="M2964 11448 c3 -18 8 -88 12 -154 l7 -121 -49 -18 c-59 -22 -76 -36
-65 -53 6 -11 18 -9 59 6 l51 20 3 -127 c3 -104 6 -126 18 -126 12 0 15 23 18
135 l3 135 44 27 c25 15 45 34 45 43 0 20 -18 19 -56 -4 l-31 -19 -6 112 c-8
148 -14 176 -39 176 -17 0 -19 -5 -14 -32z"/>
<path d="M4127 11403 c-3 -4 -5 -47 -6 -94 -1 -65 2 -89 13 -98 8 -7 19 -11
23 -8 4 3 8 49 8 103 -1 83 -3 99 -17 102 -9 2 -18 -1 -21 -5z"/>
<path d="M1832 11278 c-14 -14 -16 -38 -3 -38 17 0 23 -85 14 -186 l-8 -99
-45 -5 c-32 -4 -46 -10 -48 -22 -3 -15 4 -18 42 -18 l46 0 -2 -91 c-2 -85 0
-93 21 -110 37 -30 89 -40 127 -24 41 17 63 52 38 62 -9 3 -19 1 -23 -4 -3 -6
-16 -15 -28 -22 -29 -15 -92 9 -94 36 -3 30 3 168 7 172 1 2 18 6 36 10 45 9
44 36 0 36 l-34 0 7 92 c5 60 3 115 -5 158 -12 64 -24 77 -48 53z"/>
<path d="M3404 11237 c-23 -20 -28 -34 -32 -85 -4 -54 -2 -63 21 -88 35 -38
82 -37 137 1 51 36 95 96 78 106 -7 5 -31 -9 -58 -35 -56 -52 -86 -70 -107
-61 -14 5 -11 11 15 38 21 22 32 46 37 78 7 46 6 47 -26 58 -40 14 -33 15 -65
-12z m56 -32 c0 -1 -5 -16 -11 -33 -14 -40 -39 -51 -39 -16 0 36 17 64 35 58
8 -4 15 -7 15 -9z"/>
<path d="M5455 11000 c-4 -6 -15 -47 -26 -91 -39 -165 -72 -178 -77 -31 -4
107 -7 119 -27 102 -9 -7 -15 -29 -15 -54 0 -23 -12 -80 -26 -127 -30 -99 -33
-121 -17 -126 11 -4 32 31 47 80 5 16 7 16 27 -4 11 -11 27 -18 36 -15 8 3 19
6 24 6 12 0 59 98 59 125 0 13 7 5 20 -22 13 -29 27 -44 45 -49 33 -8 75 10
75 32 0 13 -7 15 -34 10 -43 -8 -55 9 -70 103 -11 61 -26 85 -41 61z"/>
<path d="M2042 10980 c-17 -17 -20 -25 -12 -40 5 -10 10 -34 10 -54 0 -25 7
-40 26 -55 34 -27 58 -27 85 0 18 18 20 30 17 70 -9 86 -74 127 -126 79z m78
-39 c13 -25 13 -78 0 -86 -21 -13 -40 17 -40 61 0 48 20 61 40 25z"/>
<path d="M5721 10967 c-9 -11 -8 -21 4 -43 19 -37 19 -81 0 -118 -20 -37 -19
-46 4 -46 24 0 51 56 50 102 -1 43 -21 110 -35 115 -6 2 -16 -3 -23 -10z"/>
<path d="M4284 10962 c-7 -4 -26 -56 -44 -117 -36 -125 -54 -165 -75 -165 -13
0 -105 112 -105 129 0 16 -28 20 -40 5 -9 -10 -11 -43 -6 -111 3 -54 9 -155
12 -225 6 -119 8 -128 27 -128 19 0 20 4 13 133 -3 72 -9 161 -11 197 l-6 65
23 -30 c50 -63 67 -76 100 -73 41 4 64 42 97 162 31 110 39 98 52 -72 5 -70
12 -142 15 -160 6 -36 35 -72 59 -72 20 0 19 15 -4 48 -15 21 -21 57 -30 173
-7 99 -16 161 -29 194 -20 51 -29 60 -48 47z"/>
<path d="M4981 10851 c-23 -22 -31 -38 -31 -64 0 -19 -7 -40 -15 -47 -24 -20
-18 -40 23 -81 40 -42 66 -48 111 -25 30 16 101 90 101 105 0 28 -27 18 -64
-22 -45 -49 -92 -69 -107 -46 -5 9 3 22 27 42 41 34 64 75 64 115 0 59 -58 71
-109 23z m69 -27 c0 -22 -29 -68 -50 -82 -17 -10 -18 -8 -13 26 6 40 28 72 50
72 7 0 13 -7 13 -16z"/>
<path d="M4750 10846 c-41 -23 -72 -90 -77 -165 -5 -73 10 -110 41 -98 19 7
23 76 6 108 -8 14 -6 30 8 63 23 50 36 61 74 58 33 -3 39 22 9 38 -25 13 -30
12 -61 -4z"/>
<path d="M4526 10785 c-8 -21 1 -35 20 -35 34 0 45 -99 18 -153 -30 -58 -57
-55 -68 8 -5 24 -1 47 15 80 23 48 19 66 -9 49 -32 -20 -52 -75 -46 -124 15
-118 98 -131 146 -23 36 83 8 202 -49 211 -12 2 -23 -4 -27 -13z"/>
<path d="M6450 10734 c0 -37 7 -104 15 -150 15 -78 15 -83 -4 -115 -32 -57
-46 -132 -32 -167 19 -45 90 -69 119 -40 18 18 15 43 -19 206 -17 81 -34 187
-38 237 -5 74 -9 90 -23 93 -16 3 -18 -5 -18 -64z m70 -426 c0 -23 -23 -23
-45 -1 -18 17 -15 58 7 112 10 25 12 23 24 -34 7 -33 13 -68 14 -77z"/>
<path d="M5943 10674 c-4 -10 0 -22 10 -29 12 -9 21 -44 32 -121 8 -60 18
-121 21 -136 5 -27 -12 -39 -61 -42 -13 -1 -20 -8 -20 -21 0 -21 18 -24 67
-12 26 7 27 5 38 -50 17 -84 20 -93 35 -93 23 0 24 13 7 95 l-17 80 30 27 c23
21 27 29 18 39 -9 9 -17 9 -36 -4 l-25 -16 -12 100 c-18 148 -32 193 -58 197
-14 2 -25 -3 -29 -14z"/>
<path d="M2396 10553 c-41 -62 -48 -120 -44 -337 l3 -199 -40 -11 c-56 -16
-54 -42 3 -38 l42 3 -6 -43 c-15 -106 -26 -161 -44 -214 -15 -43 -17 -60 -9
-70 17 -20 25 -10 48 59 17 51 51 231 51 273 0 6 22 21 49 33 54 23 69 37 53
53 -7 7 -25 3 -55 -10 l-45 -20 -7 136 c-14 246 5 372 55 372 27 0 36 21 15
37 -29 21 -43 16 -69 -24z"/>
<path d="M2995 10515 c-83 -22 -126 -48 -108 -66 5 -4 40 3 80 17 94 32 182
41 224 24 37 -16 59 -60 59 -121 0 -53 -21 -96 -70 -144 l-40 -39 0 104 c0
112 -23 190 -55 190 -19 0 -19 -18 0 -63 17 -42 22 -237 5 -237 -5 0 -10 7
-10 15 0 26 -39 18 -46 -9 -9 -36 2 -46 52 -46 136 0 249 195 186 320 -41 82
-117 98 -277 55z"/>
<path d="M3505 10492 c-25 -5 -120 -103 -107 -111 5 -3 12 -39 15 -79 7 -82
13 -98 31 -83 8 7 14 41 14 92 3 115 22 145 90 139 18 -1 23 3 20 16 -4 19
-34 32 -63 26z"/>
<path d="M6203 10388 c-83 -91 -62 -198 39 -201 44 -1 90 27 81 49 -3 10 -11
13 -22 8 -9 -4 -34 -9 -56 -11 l-40 -4 31 19 c37 24 56 67 52 118 -3 35 -6 39
-33 42 -22 2 -37 -4 -52 -20z m38 -76 c-9 -17 -51 -38 -51 -25 0 9 23 48 39
67 16 18 16 18 19 -2 2 -12 -1 -30 -7 -40z"/>
<path d="M5270 10328 c0 -7 7 -22 15 -32 9 -12 15 -41 15 -71 0 -62 17 -206
31 -258 9 -35 32 -57 45 -44 3 3 -2 38 -10 79 -8 40 -19 126 -25 191 -5 65
-14 124 -21 132 -15 18 -50 20 -50 3z"/>
<path d="M5118 10316 c-50 -38 -59 -161 -18 -267 11 -29 19 -53 17 -53 -27 -8
-63 -37 -65 -54 -4 -26 14 -29 39 -6 32 29 49 11 49 -54 0 -44 -6 -71 -25
-106 -21 -39 -22 -48 -10 -52 42 -16 79 74 73 175 -4 70 -3 70 24 76 15 4 28
13 28 21 0 15 -8 17 -51 14 -24 -1 -27 5 -47 72 -25 82 -26 107 -11 161 9 32
13 36 33 31 33 -8 41 11 16 36 -23 23 -29 24 -52 6z"/>
<path d="M3692 10303 c-10 -20 -6 -43 8 -43 5 0 14 9 19 19 8 14 7 22 -4 31
-11 9 -16 7 -23 -7z"/>
<path d="M5723 10228 c-26 -29 -46 -92 -38 -117 13 -43 68 -33 105 20 l23 32
25 -42 c15 -25 31 -41 43 -41 10 0 19 4 19 9 0 17 -74 131 -85 131 -7 0 -18 7
-25 15 -18 21 -43 19 -67 -7z m52 -28 c7 -12 -44 -85 -53 -76 -7 7 29 86 39
86 4 0 11 -5 14 -10z"/>
<path d="M5513 10178 c-4 -7 -9 -24 -10 -38 -1 -14 -5 -44 -9 -68 -10 -72 29
-94 84 -47 35 29 46 63 32 99 -20 54 -77 85 -97 54z m57 -104 c-7 -12 -19 -25
-26 -28 -20 -8 -18 34 2 63 15 21 18 22 27 6 6 -12 5 -25 -3 -41z"/>
<path d="M4549 10069 c-46 -28 -89 -55 -95 -60 -6 -5 -15 -4 -21 2 -7 7 -14 5
-23 -6 -7 -8 -9 -15 -4 -15 17 0 -51 -41 -123 -75 -55 -26 -73 -39 -73 -54 0
-26 20 -38 34 -19 15 20 158 90 167 81 3 -5 14 -68 25 -141 21 -152 25 -142
-66 -168 -63 -19 -90 -38 -73 -55 15 -15 114 19 219 75 89 48 254 162 254 177
0 25 -104 -17 -125 -50 -8 -13 -144 -95 -149 -90 -7 7 -47 280 -42 287 4 6 64
46 184 119 23 14 26 33 6 40 -6 2 -48 -20 -95 -48z"/>
<path d="M2021 10081 c-16 -16 -21 -34 -21 -78 0 -100 41 -140 89 -89 28 29
39 99 20 122 -7 9 -18 26 -24 37 -14 30 -40 32 -64 8z m55 -76 c9 -22 -17 -80
-27 -63 -10 16 -12 62 -2 71 11 11 23 8 29 -8z"/>
<path d="M3107 9748 c-2 -7 0 -21 5 -31 8 -16 47 -283 48 -325 0 -7 -4 -11 -9
-8 -5 4 -27 -13 -49 -36 -49 -51 -42 -68 -73 187 -12 99 -26 184 -31 190 -5 5
-13 4 -20 -3 -11 -11 2 -142 39 -403 5 -35 4 -36 -44 -53 -26 -10 -54 -19 -60
-22 -7 -2 -13 -8 -13 -14 0 -20 29 -22 77 -6 25 9 47 15 48 13 0 -1 7 -24 13
-52 13 -51 36 -85 48 -72 4 4 0 37 -9 73 l-16 67 47 48 c25 26 50 45 54 43 4
-3 8 -45 8 -95 0 -79 2 -89 18 -89 12 0 26 20 46 65 30 69 46 82 46 38 0 -47
20 -103 36 -103 13 0 15 10 9 68 -4 37 -12 75 -17 85 -13 25 -53 21 -76 -8
l-20 -25 -7 62 c-24 226 -47 375 -60 395 -17 26 -31 29 -38 11z"/>
<path d="M5426 9751 c-4 -6 0 -34 8 -63 8 -29 17 -92 20 -140 l6 -87 -52 -19
c-29 -11 -54 -25 -56 -31 -7 -20 28 -24 67 -9 l38 15 6 -77 c6 -95 22 -131 62
-142 53 -14 125 22 111 57 -5 13 -11 12 -44 -5 -67 -35 -81 -19 -89 106 l-6
80 57 30 c30 16 58 35 61 42 9 24 -25 24 -70 -1 -25 -14 -45 -25 -45 -24 -1 1
-5 45 -9 97 -13 132 -42 209 -65 171z"/>
<path d="M7207 9562 c-25 -28 -21 -42 28 -107 25 -33 55 -76 65 -96 19 -36 19
-37 1 -32 -26 7 -71 -55 -78 -106 -15 -111 106 -122 137 -13 24 86 10 129 -82
255 -38 54 -47 72 -38 82 12 14 6 35 -9 35 -4 0 -15 -8 -24 -18z m114 -343
c-17 -57 -61 -65 -61 -11 0 28 22 68 50 89 12 10 16 7 18 -15 2 -15 -1 -43 -7
-63z"/>
<path d="M3706 9518 c-10 -6 -24 -24 -32 -42 l-13 -31 -1 28 c0 21 -5 27 -21
27 -20 0 -21 -3 -14 -67 5 -38 9 -81 9 -98 1 -20 6 -30 16 -30 15 0 27 29 53
130 l13 50 15 -59 c18 -76 37 -88 87 -60 20 12 41 29 46 37 18 28 -4 32 -44 9
-36 -20 -39 -20 -43 -4 -3 9 -10 38 -17 64 -13 50 -26 62 -54 46z"/>
<path d="M5755 9466 c-35 -32 -38 -37 -32 -77 7 -53 30 -72 77 -65 41 6 90 55
90 89 0 22 -24 65 -44 79 -23 16 -54 7 -91 -26z m86 -30 c8 -17 8 -29 0 -45
-12 -22 -53 -37 -70 -26 -14 8 -14 45 -1 45 6 0 16 11 22 25 14 32 35 32 49 1z"/>
<path d="M2235 9450 c-16 -18 -17 -25 -5 -77 7 -31 20 -80 29 -108 l17 -51
-24 -18 c-33 -25 -62 -92 -62 -146 0 -61 10 -73 59 -73 112 0 118 62 36 341
-22 74 -25 95 -15 107 13 15 7 45 -8 45 -5 0 -17 -9 -27 -20z m59 -317 c12
-74 8 -103 -16 -112 -34 -12 -48 -3 -48 32 0 32 36 117 50 117 4 0 10 -17 14
-37z"/>
<path d="M3406 9408 c-10 -14 -16 -44 -16 -75 0 -29 -4 -53 -10 -53 -5 0 -10
-7 -10 -15 0 -8 8 -15 19 -15 10 0 24 -6 30 -14 19 -22 66 -29 94 -14 40 21
97 76 97 93 0 24 -24 18 -54 -14 -40 -41 -83 -58 -101 -40 -12 12 -11 22 12
67 22 44 24 57 15 77 -15 32 -55 33 -76 3z m35 -45 c-8 -15 -10 -15 -11 -2 0
17 10 32 18 25 2 -3 -1 -13 -7 -23z"/>
<path d="M7457 9316 c-7 -18 1 -26 25 -26 11 0 18 7 18 20 0 23 -35 28 -43 6z"/>
<path d="M6567 9264 c-13 -13 -7 -44 7 -44 16 0 42 -73 81 -228 14 -57 33
-120 41 -141 21 -52 84 -80 84 -37 0 7 -10 18 -23 23 -19 9 -28 28 -46 100
-48 187 -73 269 -90 298 -17 30 -41 42 -54 29z"/>
<path d="M7065 9175 c-19 -18 -25 -35 -25 -69 0 -54 8 -76 26 -76 10 0 14 14
14 54 0 88 33 96 59 14 12 -36 35 -55 46 -38 10 16 -17 89 -41 115 -29 31 -48
31 -79 0z"/>
<path d="M8220 9182 c0 -10 4 -22 9 -27 6 -6 33 -81 61 -168 47 -144 67 -183
87 -163 6 5 -69 246 -105 339 -15 40 -52 53 -52 19z"/>
<path d="M4866 9133 c-3 -16 -8 -48 -12 -73 -3 -25 -10 -55 -15 -68 -8 -22
-11 -21 -52 30 -41 50 -77 73 -77 49 0 -11 56 -90 92 -129 l21 -23 -22 -107
c-31 -160 -27 -232 15 -232 9 0 11 16 7 58 -5 57 4 116 52 332 39 175 40 190
17 190 -14 0 -22 -8 -26 -27z"/>
<path d="M2029 9106 c-13 -13 -29 -22 -36 -19 -21 8 -35 -47 -30 -111 5 -54
20 -82 38 -70 5 2 11 26 15 52 8 62 40 135 56 130 8 -3 14 -29 16 -72 2 -57 6
-67 20 -64 24 5 30 120 7 154 -20 31 -56 31 -86 0z"/>
<path d="M1810 9097 c-84 -42 -71 -223 14 -201 15 3 30 13 33 20 8 23 18 16
31 -20 15 -41 36 -60 58 -52 14 5 13 10 -4 38 -19 31 -45 108 -47 135 0 6 -4
15 -8 19 -4 4 -7 17 -7 29 0 22 -17 45 -34 45 -6 0 -22 -6 -36 -13z m42 -77
c-4 -42 -22 -82 -39 -87 -19 -7 -27 45 -14 89 10 32 16 39 34 36 19 -3 21 -8
19 -38z"/>
<path d="M6850 9051 c-27 -26 -31 -37 -28 -73 3 -38 6 -43 28 -46 17 -2 34 6
49 22 l24 25 34 -29 c37 -33 41 -34 63 -20 12 7 7 16 -25 44 -22 19 -48 38
-57 41 -9 3 -20 14 -23 25 -13 40 -33 44 -65 11z m40 -45 c0 -7 -7 -19 -15
-26 -12 -10 -15 -9 -15 7 0 11 3 23 7 26 11 12 23 8 23 -7z"/>
<path d="M8560 9008 c-6 -40 -13 -78 -15 -85 -6 -19 -81 15 -94 43 -12 27 -29
31 -37 9 -10 -26 25 -66 77 -87 40 -17 48 -24 44 -42 -3 -11 -12 -78 -20 -148
-22 -188 -20 -248 11 -248 11 0 14 16 14 63 0 60 39 386 59 491 10 54 6 76
-14 76 -9 0 -17 -26 -25 -72z"/>
<path d="M4345 9036 c-26 -19 -24 -95 4 -175 11 -34 21 -68 21 -75 0 -25 -21
-29 -43 -8 -52 48 -106 45 -108 -6 -1 -32 -3 -26 -19 51 -8 42 -18 62 -36 74
-24 15 -26 15 -54 -12 -31 -30 -74 -120 -65 -135 14 -22 32 -7 58 51 42 91 63
67 66 -73 1 -79 7 -98 31 -98 20 0 44 45 54 103 8 41 12 44 35 23 32 -29 74
-45 92 -36 26 14 33 77 14 130 -29 82 -36 127 -23 155 15 33 0 51 -27 31z"/>
<path d="M4526 8995 c-22 -22 -40 -89 -32 -120 13 -51 72 -45 102 10 10 19 20
35 22 35 1 0 14 -7 27 -16 30 -20 79 -15 83 9 3 13 -3 17 -24 17 -30 0 -92 34
-112 62 -16 22 -45 23 -66 3z m40 -84 c-29 -55 -49 -27 -26 35 10 25 12 26 26
12 14 -14 14 -19 0 -47z"/>
<path d="M6110 8964 c-58 -58 -133 -114 -168 -123 -15 -4 -28 -15 -30 -24 -6
-29 49 -20 103 15 68 45 179 154 171 167 -13 20 -31 12 -76 -35z"/>
<path d="M6386 8899 c-14 -17 -26 -36 -26 -43 0 -15 49 -85 73 -105 26 -21 21
-30 -28 -52 -40 -18 -62 -49 -35 -49 20 0 9 -18 -14 -24 -13 -3 -48 -22 -77
-42 -49 -32 -54 -34 -66 -19 -6 10 -19 49 -28 89 -15 67 -67 190 -85 201 -4 3
-13 -1 -19 -9 -8 -10 -5 -25 15 -61 14 -27 36 -88 49 -135 12 -48 28 -97 35
-109 15 -29 -4 -52 -78 -94 -47 -26 -52 -32 -39 -44 13 -13 19 -12 53 5 22 11
72 49 113 85 40 36 98 77 128 92 45 22 52 29 42 41 -6 8 -10 15 -8 17 2 1 20
11 39 21 61 33 70 45 59 74 -6 14 -28 45 -49 69 -22 23 -40 45 -40 47 0 14 35
36 50 31 23 -7 35 11 20 30 -20 24 -56 17 -84 -16z"/>
<path d="M8028 8850 c-27 -21 -41 -54 -53 -123 -8 -52 31 -107 76 -107 51 0
179 75 179 106 0 21 -12 18 -84 -26 -86 -52 -151 -55 -95 -4 31 28 71 112 67
142 -2 22 -9 28 -34 30 -19 2 -40 -5 -56 -18z m52 -25 c0 -3 -12 -29 -27 -58
-19 -37 -28 -47 -31 -34 -5 26 5 63 24 81 15 16 34 21 34 11z"/>
<path d="M5473 8844 c-3 -8 4 -25 16 -37 11 -13 29 -56 40 -97 63 -243 91
-348 99 -375 17 -54 52 -115 67 -115 21 0 19 24 -6 71 -11 22 -46 141 -78 263
-58 221 -70 255 -99 289 -19 21 -31 22 -39 1z"/>
<path d="M2853 8788 c4 -18 22 -98 40 -178 l34 -145 -26 -16 c-45 -28 -76 -68
-63 -81 8 -8 20 -3 48 22 44 39 47 35 58 -72 8 -69 29 -106 46 -78 5 8 7 17 5
20 -8 13 -26 171 -20 180 3 5 15 6 29 0 13 -4 29 -4 37 1 21 13 -11 41 -49 43
l-29 1 -33 145 c-40 175 -45 190 -66 190 -13 0 -15 -6 -11 -32z"/>
<path d="M3031 8806 c-11 -13 -7 -44 18 -169 17 -85 33 -197 37 -250 4 -54 12
-101 18 -106 23 -19 37 7 46 89 7 60 15 89 29 103 19 19 19 19 35 -5 9 -13 20
-48 26 -77 12 -62 16 -71 37 -71 12 0 14 9 8 53 -18 137 -86 195 -143 122
l-19 -24 -33 167 c-18 92 -36 171 -40 175 -4 4 -13 1 -19 -7z"/>
<path d="M7834 8715 c-7 -19 -14 -40 -14 -46 0 -7 -15 5 -33 26 -29 33 -35 37
-54 26 -12 -6 -25 -20 -28 -31 -3 -11 -12 -20 -20 -20 -19 0 -24 -20 -13 -50
5 -14 12 -50 16 -80 5 -41 11 -56 25 -58 15 -3 17 6 18 75 1 97 9 132 26 111
7 -7 16 -26 22 -41 6 -15 17 -27 25 -27 19 0 56 47 57 74 0 17 3 16 14 -10 18
-40 39 -56 67 -52 33 4 37 38 5 38 -21 0 -28 8 -42 50 -21 62 -48 68 -71 15z"/>
<path d="M3383 8595 c-25 -18 -44 -69 -45 -123 -1 -96 83 -165 162 -132 35 15
103 87 95 100 -10 16 -24 11 -48 -16 -26 -30 -68 -54 -96 -54 -10 0 -31 14
-45 31 l-26 30 33 27 c42 35 47 42 47 73 0 25 -33 79 -49 79 -3 0 -16 -7 -28
-15z m37 -64 c0 -10 -9 -26 -20 -36 -19 -18 -20 -17 -20 4 0 29 19 63 31 56 5
-4 9 -14 9 -24z"/>
<path d="M6960 8561 c0 -11 15 -58 34 -103 19 -46 37 -99 41 -119 l7 -36 -66
-29 c-36 -15 -68 -34 -71 -41 -9 -25 24 -25 81 1 31 14 60 26 63 26 4 0 13
-23 20 -50 7 -28 21 -60 31 -73 30 -37 34 0 9 83 l-22 72 32 25 c31 24 39 47
22 57 -5 3 -20 -4 -35 -15 -20 -15 -27 -17 -31 -7 -44 129 -86 224 -99 226
-11 2 -16 -4 -16 -17z"/>
<path d="M2220 8524 c-12 -14 -11 -18 7 -32 24 -19 28 -41 43 -219 13 -158 51
-276 79 -248 7 7 4 31 -10 75 -12 38 -26 130 -34 222 -7 87 -20 170 -27 185
-16 33 -40 40 -58 17z"/>
<path d="M7439 8504 c-21 -26 -25 -149 -5 -179 24 -36 87 -35 148 4 53 33 64
49 50 63 -8 8 -25 1 -58 -21 -43 -28 -104 -42 -104 -23 0 4 11 24 24 43 14 20
28 48 32 63 12 51 -54 89 -87 50z m44 -54 c-7 -25 -23 -37 -23 -16 0 23 11 46
20 41 5 -3 6 -14 3 -25z"/>
<path d="M4565 8474 c-22 -22 -19 -48 4 -41 24 6 30 -7 80 -181 41 -143 41
-147 -17 -158 -23 -5 -32 -12 -32 -27 0 -17 5 -19 33 -13 75 14 69 18 97 -79
18 -64 31 -91 43 -93 23 -5 22 19 -8 122 -14 47 -25 89 -25 92 0 3 16 12 35
20 43 18 49 49 8 42 -16 -3 -35 -8 -44 -12 -13 -6 -21 10 -42 81 -14 48 -31
108 -38 133 -15 59 -44 116 -63 123 -9 4 -22 -1 -31 -9z"/>
<path d="M2100 8428 c0 -13 9 -68 19 -123 11 -55 23 -128 27 -162 7 -67 26
-105 43 -88 7 7 3 51 -10 135 -31 202 -44 255 -62 258 -12 3 -17 -3 -17 -20z"/>
<path d="M7275 8443 c-53 -8 -57 -18 -53 -118 3 -98 18 -136 44 -114 10 8 11
16 4 29 -6 10 -10 50 -10 89 0 77 -4 71 63 76 15 1 31 5 35 9 8 9 -26 37 -42
35 -6 -1 -24 -4 -41 -6z"/>
<path d="M5326 8375 c-37 -37 -31 -141 9 -181 37 -37 86 -33 135 12 22 20 40
43 40 50 0 24 -31 15 -60 -16 -19 -20 -38 -30 -57 -30 l-28 0 22 18 c41 32 52
110 21 150 -14 17 -63 15 -82 -3z m59 -44 c7 -25 -12 -74 -28 -68 -15 5 -21
31 -13 63 8 28 32 32 41 5z"/>
<path d="M3913 8351 c-52 -9 -89 -41 -115 -100 -42 -93 -21 -162 85 -278 180
-197 216 -274 165 -350 -19 -27 -29 -33 -59 -33 -51 0 -113 50 -140 113 -10
23 -9 31 6 47 10 11 15 26 11 35 -8 23 -40 3 -56 -35 -11 -26 -10 -36 5 -69
33 -74 109 -131 175 -131 38 0 51 5 72 28 36 39 48 65 48 109 -1 69 -53 153
-196 313 -37 41 -75 94 -85 116 -18 39 -18 45 -3 94 25 85 80 124 117 83 8
-10 25 -45 36 -78 22 -63 52 -102 70 -91 26 17 2 117 -39 161 -10 11 -20 31
-22 45 -3 28 -14 31 -75 21z"/>
<path d="M4894 8285 c-9 -24 22 -53 38 -37 9 9 10 17 2 29 -15 24 -33 27 -40
8z"/>
<path d="M1881 8259 c-23 -25 -51 -101 -51 -139 0 -67 65 -85 111 -31 l27 32
6 -35 c7 -38 44 -72 60 -56 6 6 5 14 -1 22 -6 7 -18 38 -27 68 -9 30 -25 66
-36 80 -17 21 -21 23 -30 10 -5 -8 -10 -25 -10 -37 0 -35 -22 -73 -42 -73 -24
0 -24 42 2 99 19 41 22 43 54 37 23 -5 37 -2 45 8 19 23 6 33 -43 34 -35 2
-50 -3 -65 -19z"/>
<path d="M5109 8233 c-50 -54 -69 -164 -33 -194 21 -17 24 -9 28 65 2 57 7 71
29 93 l26 27 27 -62 c26 -60 50 -84 60 -58 3 7 -10 44 -28 82 -39 82 -66 94
-109 47z"/>
<path d="M6757 8096 c-23 -34 -23 -35 -55 -19 -18 9 -36 13 -39 9 -10 -10 10
-39 34 -51 20 -11 20 -11 2 -45 -10 -19 -18 -45 -19 -57 0 -42 28 -24 54 33
25 55 27 56 59 50 17 -4 52 -10 76 -13 38 -5 43 -4 39 13 -2 14 -19 22 -66 32
-60 13 -62 14 -47 35 8 12 15 27 15 34 0 25 -29 13 -53 -21z"/>
<path d="M4937 8078 c-2 -7 2 -28 9 -46 7 -18 13 -39 11 -45 -1 -7 7 -12 18
-12 16 0 20 6 19 33 -3 52 -44 104 -57 70z"/>
<path d="M6419 8008 c-17 -33 -20 -52 -15 -92 8 -73 33 -101 87 -100 39 1 48
6 86 50 24 27 42 55 41 63 -6 29 -27 21 -59 -24 -32 -45 -67 -64 -89 -50 -8 5
-5 14 9 29 34 36 43 81 24 127 -22 55 -55 54 -84 -3z m52 -61 c-6 -14 -15 -28
-20 -32 -15 -8 -14 40 0 67 10 18 13 19 20 5 5 -9 5 -26 0 -40z"/>
<path d="M7597 7998 c-28 -10 -66 -69 -68 -105 0 -12 -4 -8 -11 10 -10 29 -46
35 -39 6 2 -8 6 -51 8 -96 5 -70 9 -83 23 -83 14 0 23 19 39 83 12 45 29 98
38 117 l17 35 7 -62 c9 -76 13 -83 44 -83 27 0 95 54 95 76 0 22 -34 16 -60
-11 -12 -13 -27 -22 -31 -19 -5 3 -9 31 -9 63 0 68 -12 83 -53 69z"/>
<path d="M3117 7973 c-3 -5 6 -49 18 -99 13 -50 31 -155 40 -234 9 -78 20
-153 25 -165 18 -49 44 -39 54 20 5 22 14 55 21 73 12 27 19 32 49 32 38 0 43
-9 62 -113 8 -47 38 -87 53 -72 8 8 7 22 -3 50 -7 22 -19 62 -25 90 -15 64
-35 85 -78 85 -44 0 -70 -14 -92 -51 l-18 -30 -7 78 c-7 76 -35 231 -56 306
-10 33 -32 49 -43 30z"/>
<path d="M4486 7958 c-9 -12 -16 -32 -17 -43 -1 -14 -4 -10 -11 13 -11 31 -33
43 -40 21 -2 -6 1 -52 7 -103 8 -71 14 -91 27 -94 18 -3 29 25 48 121 6 31 15
55 19 52 5 -2 18 -32 30 -65 23 -63 56 -95 85 -84 23 9 20 33 -7 43 -16 6 -31
28 -46 67 -35 93 -65 115 -95 72z"/>
<path d="M2958 7938 c-2 -6 6 -48 19 -92 13 -45 31 -125 40 -180 17 -108 16
-110 -39 -122 -33 -8 -55 -31 -42 -44 9 -9 41 -4 87 15 11 5 17 3 17 -6 0 -28
50 -119 65 -119 20 0 19 23 -5 70 -28 54 -25 76 13 109 25 23 29 32 20 42 -9
9 -17 8 -37 -4 -28 -19 -25 -26 -46 103 -14 83 -49 211 -62 228 -13 15 -25 16
-30 0z"/>
<path d="M4233 7894 c-22 -34 -29 -135 -13 -174 16 -40 56 -70 90 -70 36 0 94
40 98 68 4 29 -13 28 -50 -3 -35 -30 -59 -32 -81 -7 -15 16 -15 19 2 29 22 14
51 73 51 106 0 31 -36 77 -60 77 -11 0 -27 -12 -37 -26z m50 -64 c0 -18 -8
-40 -17 -48 -15 -15 -16 -14 -16 13 0 44 11 76 24 72 6 -2 10 -19 9 -37z"/>
<path d="M7331 7856 c-55 -31 -69 -116 -25 -159 34 -34 75 -42 113 -22 17 8
31 20 31 26 0 16 -29 22 -45 9 -16 -13 -65 -6 -65 10 0 6 4 10 10 10 32 0 54
122 24 134 -19 7 -14 8 -43 -8z m8 -78 c-7 -13 -14 -18 -16 -11 -3 7 1 22 8
35 7 13 14 18 16 11 3 -7 -1 -22 -8 -35z"/>
<path d="M5844 7816 c-31 -31 -34 -39 -34 -94 0 -50 4 -66 26 -91 30 -36 77
-52 116 -38 27 9 128 110 128 127 0 28 -29 16 -79 -34 -59 -59 -90 -69 -126
-43 -17 13 -17 15 5 30 55 38 79 126 44 161 -23 24 -42 20 -80 -18z m56 -35
c0 -18 -10 -42 -25 -58 l-24 -28 -1 42 c0 32 5 45 22 57 29 20 28 21 28 -13z"/>
<path d="M7192 7818 c-6 -7 -18 -44 -28 -81 -9 -37 -20 -67 -24 -67 -4 0 -15
20 -24 45 -17 43 -37 57 -51 35 -4 -6 7 -39 24 -75 38 -81 63 -87 91 -22 39
90 48 208 12 165z"/>
<path d="M5641 7726 c-32 -34 -40 -111 -16 -171 12 -32 22 -45 36 -45 23 0 24
24 4 60 -33 58 -12 132 40 142 32 5 24 33 -10 36 -22 2 -37 -4 -54 -22z"/>
<path d="M2187 7728 c-6 -17 26 -97 68 -175 41 -75 65 -152 65 -210 0 -42 -1
-43 -33 -43 -43 0 -80 39 -181 192 -76 116 -104 145 -132 134 -25 -10 -15 -69
27 -167 32 -74 43 -116 54 -201 14 -115 18 -128 41 -128 12 0 15 8 10 38 -3
20 -8 64 -12 97 -8 84 -20 128 -60 219 -19 43 -33 80 -31 83 2 2 43 -55 90
-126 106 -157 131 -181 196 -181 26 0 52 5 59 12 15 15 15 97 1 158 -6 25 -33
89 -60 144 -36 70 -49 105 -45 122 5 20 1 26 -19 34 -33 12 -32 13 -38 -2z"/>
<path d="M6842 7645 c-63 -52 -92 -163 -54 -198 45 -41 143 -25 215 34 66 55
40 83 -28 29 -45 -36 -103 -55 -139 -46 -35 9 -33 20 8 34 47 17 68 44 73 97
9 74 -22 95 -75 50z m27 -81 c-7 -8 -21 -20 -31 -25 -28 -15 -23 14 10 52 26
32 27 32 30 10 2 -12 -2 -29 -9 -37z"/>
<path d="M8056 7588 c8 -93 33 -188 49 -188 21 0 23 21 9 70 -8 25 -14 68 -14
95 0 49 -20 95 -41 95 -5 0 -7 -29 -3 -72z"/>
<path d="M7794 7613 c3 -16 11 -84 17 -152 11 -132 22 -175 42 -168 13 5 13 0
-2 181 -11 133 -21 166 -48 166 -12 0 -14 -7 -9 -27z"/>
<path d="M5421 7594 c-40 -51 -36 -138 9 -179 29 -27 53 -15 81 42 l25 53 13
-35 c8 -24 19 -35 32 -35 25 0 25 2 -13 93 -29 69 -36 78 -56 74 -12 -2 -25 0
-28 4 -10 17 -43 9 -63 -17z m69 -76 c0 -10 -7 -33 -17 -51 l-16 -32 -13 30
c-17 38 -17 58 -2 91 l12 26 18 -22 c10 -12 18 -31 18 -42z"/>
<path d="M2727 7568 c-24 -19 -37 -62 -37 -122 0 -68 17 -118 39 -114 16 4 17
8 5 108 -7 56 9 100 35 100 24 0 35 26 15 34 -24 9 -39 7 -57 -6z"/>
<path d="M2496 7521 c-35 -38 -31 -181 5 -204 40 -25 120 33 118 87 -1 42 -8
58 -47 100 -37 41 -52 44 -76 17z m84 -113 c0 -35 -46 -70 -61 -47 -13 21 -11
103 4 118 10 10 16 6 34 -16 13 -15 23 -40 23 -55z"/>
<path d="M4511 7496 c-9 -11 -9 -16 2 -23 8 -5 19 -42 27 -93 15 -98 75 -327
91 -347 6 -7 18 -13 25 -13 15 0 19 31 5 46 -12 13 -69 236 -81 319 -17 115
-20 125 -40 125 -9 0 -23 -6 -29 -14z"/>
<path d="M7506 7418 c9 -139 13 -167 29 -197 16 -32 45 -42 45 -17 0 7 -7 30
-15 49 -9 23 -15 68 -15 121 0 97 -5 116 -30 116 -17 0 -18 -7 -14 -72z"/>
<path d="M4830 7408 c-38 -52 -38 -71 3 -99 61 -44 77 -90 39 -119 -44 -35
-73 -20 -87 42 -8 39 -35 26 -35 -17 0 -75 68 -107 138 -65 63 39 60 111 -7
171 -39 35 -40 36 -23 60 9 13 23 29 31 35 16 12 7 34 -15 34 -7 0 -27 -19
-44 -42z"/>
<path d="M6374 7369 c-3 -6 -9 -40 -12 -75 -3 -43 -9 -64 -18 -64 -16 0 -44
39 -44 61 0 20 -29 34 -43 20 -5 -5 -6 -19 -2 -31 9 -29 64 -90 81 -90 10 0
12 -23 7 -119 -7 -134 -1 -171 26 -171 17 0 18 7 13 72 -3 39 0 123 7 187 6
64 14 140 17 169 4 42 3 52 -10 52 -8 0 -18 -5 -22 -11z"/>
<path d="M5760 7316 c0 -14 4 -27 9 -31 5 -3 17 -38 26 -78 9 -39 18 -80 21
-89 4 -12 0 -18 -12 -18 -9 0 -32 -9 -50 -21 -31 -19 -34 -19 -34 -3 0 34 -43
175 -59 194 -24 29 -48 12 -30 -21 23 -42 59 -202 49 -214 -5 -6 -28 -20 -50
-31 -22 -10 -40 -25 -40 -32 0 -24 31 -24 68 0 l37 25 20 -61 c14 -43 26 -62
39 -65 21 -3 20 11 -8 101 l-15 48 41 24 c23 14 45 23 49 20 4 -2 10 -27 14
-55 7 -51 36 -95 55 -84 6 4 10 32 10 63 0 104 21 134 40 60 6 -24 13 -51 16
-60 3 -10 15 -18 26 -18 22 0 22 -1 -3 92 -19 72 -79 95 -103 38 l-12 -30 -12
62 c-6 34 -21 95 -33 135 -17 57 -26 73 -40 73 -13 0 -19 -7 -19 -24z"/>
<path d="M3585 7308 c-3 -8 -1 -27 5 -42 5 -15 15 -105 21 -199 18 -274 41
-379 87 -385 25 -4 29 13 8 37 -23 28 -36 108 -51 315 -8 111 -20 220 -27 241
-14 41 -34 56 -43 33z"/>
<path d="M8180 7295 c-14 -16 -5 -35 16 -35 15 0 20 35 5 44 -5 3 -14 -1 -21
-9z"/>
<path d="M6067 7242 c-42 -46 -39 -159 3 -182 45 -24 140 10 140 51 0 24 -15
24 -47 -1 -26 -20 -73 -28 -73 -12 0 5 10 17 21 28 12 10 28 34 36 52 12 28
12 37 1 50 -29 37 -56 42 -81 14z m44 -50 c-5 -9 -16 -26 -24 -37 -14 -19 -15
-18 -10 10 3 17 10 36 15 42 15 18 30 5 19 -15z"/>
<path d="M4332 7140 c-33 -14 -47 -57 -27 -86 17 -26 35 -30 67 -13 17 9 26 5
59 -27 29 -28 42 -35 50 -27 9 9 4 22 -20 51 -17 22 -31 45 -31 51 0 16 -46
61 -62 60 -7 0 -23 -4 -36 -9z m41 -37 c9 -8 -25 -33 -36 -26 -4 3 -3 11 4 19
13 15 22 18 32 7z"/>
<path d="M7940 7100 c0 -23 25 -27 33 -6 7 16 -1 26 -20 26 -7 0 -13 -9 -13
-20z"/>
<path d="M4048 7078 c-57 -49 -76 -140 -38 -178 29 -29 78 -25 132 9 52 33 64
49 51 62 -7 7 -28 -1 -60 -21 -63 -39 -97 -38 -101 5 -4 43 29 91 67 98 31 6
45 37 17 37 -8 0 -20 2 -28 5 -7 3 -25 -5 -40 -17z"/>
<path d="M2507 7043 c-12 -11 -7 -46 8 -63 14 -16 21 -63 53 -374 5 -48 12
-72 24 -79 26 -17 45 6 70 84 31 97 49 92 79 -24 13 -52 19 -60 37 -48 27 16
-27 173 -61 179 -45 9 -66 -7 -83 -63 -11 -33 -21 -50 -25 -43 -3 7 -10 60
-14 118 -15 224 -51 351 -88 313z"/>
<path d="M7033 6984 c-21 -47 -24 -63 -17 -92 12 -49 52 -76 97 -68 45 8 127
71 127 96 0 28 -22 25 -54 -9 -34 -35 -79 -56 -102 -47 -15 6 -15 9 3 29 12
12 28 37 38 56 16 32 16 35 -3 60 -10 14 -29 27 -41 29 -18 3 -26 -7 -48 -54z
m57 -3 c0 -10 -9 -29 -20 -42 l-21 -24 16 39 c8 21 15 40 15 42 0 2 2 4 5 4 3
0 5 -9 5 -19z"/>
<path d="M2360 6991 c-36 -10 -126 -50 -200 -90 -74 -39 -156 -79 -182 -87
-50 -17 -66 -38 -46 -61 10 -13 13 -13 23 0 5 8 21 17 35 22 14 4 60 24 102
46 42 21 81 39 85 39 8 0 32 -110 69 -315 21 -123 22 -125 45 -125 18 0 20 4
14 28 -4 15 -11 52 -15 82 -5 30 -18 100 -29 154 -12 55 -25 124 -30 153 l-8
54 49 25 c26 13 83 33 126 43 54 13 78 23 80 35 4 21 -31 20 -118 -3z"/>
<path d="M3843 6985 c-17 -14 -34 -39 -38 -56 -19 -83 72 -138 125 -75 11 15
11 25 0 69 -15 58 -30 87 -45 87 -5 0 -24 -11 -42 -25z m47 -61 c16 -40 12
-54 -14 -54 -27 0 -39 21 -30 56 8 32 32 31 44 -2z"/>
<path d="M6779 6907 c-45 -35 -56 -129 -22 -175 36 -49 92 -39 158 28 35 36
40 60 11 60 -8 0 -20 -10 -29 -23 -8 -12 -31 -31 -51 -42 -33 -18 -37 -18 -53
-3 -17 18 -20 77 -5 104 5 9 19 21 32 27 12 7 22 17 22 22 -2 15 -45 17 -63 2z"/>
<path d="M7635 6910 c-10 -16 16 -43 28 -31 11 11 2 41 -12 41 -5 0 -13 -5
-16 -10z"/>
<path d="M6583 6884 c-8 -21 13 -42 28 -27 13 13 5 43 -11 43 -6 0 -13 -7 -17
-16z"/>
<path d="M2876 6821 c-9 -10 -22 -48 -28 -85 -6 -36 -15 -66 -19 -66 -20 0 -7
-30 15 -36 14 -3 32 -14 42 -25 11 -12 30 -19 55 -19 43 0 149 43 149 60 0 20
-27 21 -74 0 -57 -24 -89 -25 -106 -5 -7 8 -8 15 -3 15 20 0 63 76 63 111 0
61 -57 91 -94 50z m54 -47 c0 -24 -37 -90 -46 -81 -3 2 1 27 7 56 11 55 39 73
39 25z"/>
<path d="M6582 6731 c-10 -6 -10 -18 -1 -57 18 -78 27 -96 47 -92 9 2 15 11
13 19 -2 8 -9 38 -16 67 -14 60 -24 75 -43 63z"/>
<path d="M6405 6681 c-3 -5 0 -40 7 -78 18 -108 1 -129 -56 -67 -21 23 -36 32
-40 25 -11 -18 3 -48 35 -76 34 -28 70 -32 89 -10 17 21 23 84 12 132 -6 27
-6 45 0 51 6 6 7 15 4 21 -9 13 -43 15 -51 2z"/>
<path d="M3895 6640 c-3 -5 7 -43 24 -83 16 -41 45 -136 65 -213 43 -163 53
-191 72 -198 19 -7 28 17 15 42 -6 10 -28 88 -50 173 -22 85 -51 179 -65 209
-14 30 -26 61 -26 68 0 14 -26 16 -35 2z"/>
<path d="M4905 6620 c-4 -7 -3 -16 3 -22 14 -14 47 -6 47 12 0 18 -40 26 -50
10z"/>
<path d="M4744 6535 c-3 -8 -3 -19 1 -25 10 -16 45 7 39 25 -8 19 -33 19 -40
0z"/>
<path d="M6132 6497 c-43 -45 -34 -165 14 -184 24 -9 35 17 17 44 -16 24 -21
92 -9 112 5 7 22 9 47 5 32 -5 39 -4 39 10 0 17 -37 36 -69 36 -10 0 -27 -10
-39 -23z"/>
<path d="M3616 6501 c-4 -5 3 -30 14 -56 34 -79 80 -215 80 -236 0 -11 -13
-31 -29 -45 -35 -29 -47 -72 -31 -117 25 -77 108 -106 120 -42 10 51 -16 217
-50 311 -17 49 -37 108 -44 132 -15 51 -45 78 -60 53z m114 -436 l-1 -60 -24
28 c-29 33 -32 63 -9 96 23 32 34 12 34 -64z"/>
<path d="M4556 6425 c-3 -9 1 -18 10 -22 19 -7 39 11 30 26 -10 16 -33 13 -40
-4z"/>
<path d="M4304 6422 c-6 -4 -14 -32 -17 -64 -11 -87 -14 -92 -47 -65 -75 59
-73 58 -90 41 -14 -14 -13 -17 8 -32 70 -50 103 -86 98 -106 -3 -12 -14 -85
-26 -163 -15 -104 -17 -148 -10 -168 16 -43 35 -25 37 36 2 65 27 239 54 368
26 129 24 174 -7 153z"/>
<path d="M5892 6374 c-25 -17 -52 -64 -52 -90 0 -33 42 -105 69 -119 16 -8 39
-11 52 -8 33 9 99 51 99 63 0 21 -30 21 -57 2 -49 -34 -70 -36 -89 -7 -16 25
-16 27 3 48 33 36 44 81 27 106 -18 25 -23 26 -52 5z m13 -54 c-9 -16 -18 -30
-21 -30 -2 0 2 14 11 30 9 17 18 30 21 30 2 0 -2 -13 -11 -30z"/>
<path d="M5638 6253 c-53 -33 -33 -101 43 -149 33 -21 39 -29 39 -59 0 -22 -8
-43 -21 -56 -26 -26 -63 -22 -67 9 -4 27 -28 29 -37 2 -15 -48 48 -84 106 -60
36 15 59 56 59 105 0 49 -13 70 -60 96 -57 32 -65 84 -12 84 10 0 17 8 17 20
0 26 -32 30 -67 8z"/>
<path d="M2566 6145 c-65 -70 -59 -187 14 -306 47 -77 48 -91 3 -122 -21 -14
-50 -31 -65 -36 -16 -6 -28 -18 -28 -27 0 -24 55 -11 109 27 l44 31 -7 -114
c-12 -198 -12 -192 5 -196 14 -2 19 14 29 95 7 54 11 130 9 168 -3 59 -1 72
15 86 24 19 13 41 -17 34 -19 -5 -28 5 -70 88 -52 104 -59 155 -29 217 12 25
25 36 45 38 29 4 37 26 11 36 -28 11 -45 6 -68 -19z"/>
<path d="M4872 6150 c-89 -83 -120 -330 -58 -465 54 -118 157 -126 255 -20 50
54 59 86 38 130 -16 33 -16 34 18 69 18 20 38 36 44 36 18 0 12 29 -8 39 -16
9 -25 3 -56 -34 -25 -31 -44 -45 -61 -45 -14 0 -24 -6 -24 -15 0 -8 -11 -22
-25 -31 -14 -9 -25 -20 -25 -25 0 -20 31 -20 58 0 l30 21 12 -29 c15 -36 6
-53 -54 -109 -56 -51 -92 -55 -136 -14 -78 71 -78 313 0 440 32 52 68 36 79
-36 5 -28 12 -38 28 -40 27 -4 39 31 24 68 -30 73 -95 101 -139 60z"/>
<path d="M3390 6045 c-21 -23 -24 -23 -36 -7 -10 13 -15 14 -25 5 -18 -18 10
-168 31 -168 11 0 16 15 20 51 6 54 34 108 53 101 6 -2 16 -32 22 -67 11 -67
33 -96 56 -73 9 9 9 15 0 27 -6 7 -16 40 -21 71 -5 31 -15 63 -21 71 -18 22
-53 17 -79 -11z"/>
<path d="M3003 6043 c-18 -7 -16 -50 2 -57 17 -6 39 29 31 50 -6 14 -12 16
-33 7z"/>
<path d="M4560 5968 c-39 -27 -114 -86 -187 -148 -28 -23 -30 -40 -4 -40 25 0
41 -21 48 -64 9 -57 28 -65 66 -28 31 30 38 32 103 32 89 0 109 -13 108 -69
-2 -51 -41 -113 -83 -131 -39 -16 -98 -6 -103 18 -2 11 -14 17 -36 18 -28 1
-33 -1 -30 -20 5 -34 82 -68 142 -63 43 4 55 10 92 49 75 79 82 188 14 223
-39 20 -179 21 -206 0 -25 -19 -34 -19 -34 3 0 10 -6 27 -14 38 -14 19 -11 24
54 77 37 30 87 67 109 81 42 27 55 56 24 56 -10 0 -38 -15 -63 -32z"/>
<path d="M3167 5979 c-23 -13 -56 -84 -57 -119 0 -37 34 -86 68 -98 22 -8 37
-6 65 7 41 18 88 76 80 97 -8 21 -20 17 -43 -16 -12 -17 -34 -37 -49 -45 -25
-12 -31 -12 -47 0 -18 15 -18 16 7 38 52 43 63 93 29 127 -23 23 -28 24 -53 9z
m33 -53 c0 -15 -40 -69 -47 -63 -2 3 3 21 11 41 15 36 36 49 36 22z"/>
<path d="M2843 5885 c-17 -7 -36 -22 -42 -34 -26 -48 -1 -199 39 -236 18 -16
20 -16 26 -1 4 9 -3 43 -15 75 -24 67 -27 133 -7 150 8 7 31 15 53 18 41 7 59
23 40 35 -18 12 -58 9 -94 -7z"/>
<path d="M3020 5818 c0 -37 24 -78 45 -78 22 0 28 20 12 38 -8 9 -17 28 -19
42 -2 14 -11 26 -20 28 -14 3 -18 -4 -18 -30z"/>
<path d="M3188 5212 c-42 -30 -44 -34 -53 -109 -6 -49 -5 -55 23 -82 33 -33
70 -46 106 -37 79 20 165 172 104 184 -13 2 -18 -3 -18 -18 0 -31 -25 -74 -60
-104 -35 -29 -54 -32 -90 -12 l-24 14 36 21 c73 44 95 172 29 171 -9 -1 -33
-13 -53 -28z m47 -49 c-7 -29 -32 -63 -47 -63 -18 0 -7 53 15 71 31 26 40 23
32 -8z"/>
<path d="M2265 5189 c-4 -5 5 -27 19 -47 19 -27 33 -75 54 -183 35 -173 55
-224 92 -224 24 0 25 3 22 47 -4 57 11 88 43 88 30 0 45 -26 45 -77 0 -44 12
-67 31 -61 17 6 13 102 -6 139 -33 63 -123 48 -149 -25 -3 -10 -8 -17 -11 -15
-2 3 -13 55 -24 118 -28 155 -38 185 -67 221 -27 32 -39 37 -49 19z"/>
<path d="M3004 5115 c-10 -15 -14 -36 -11 -53 3 -15 2 -45 -2 -67 l-6 -40 -34
43 c-33 40 -71 56 -71 30 0 -7 22 -37 48 -67 39 -44 52 -52 69 -47 28 9 34 30
35 114 1 37 5 72 10 79 10 13 3 33 -12 33 -5 0 -17 -11 -26 -25z"/>
<path d="M2750 4983 c-54 -7 -67 -14 -78 -38 -15 -32 -15 -90 -2 -116 7 -12
21 -19 40 -19 27 0 46 16 76 66 10 16 12 15 29 -14 21 -34 43 -48 57 -34 5 5
-6 32 -27 63 -19 30 -38 61 -40 70 -7 20 -21 26 -55 22z m4 -51 c7 -12 -26
-75 -41 -80 -14 -4 -18 43 -7 72 6 17 39 22 48 8z"/>
<path d="M14764 13488 c-15 -13 -42 -30 -58 -39 -16 -8 -36 -25 -44 -37 -13
-19 -12 -22 2 -28 11 -4 26 2 40 15 12 11 26 21 30 21 4 0 21 9 37 21 37 26
49 18 49 -34 0 -34 -11 -57 -67 -140 -38 -54 -80 -105 -94 -112 -51 -27 -81
-105 -40 -105 19 0 81 54 81 70 0 5 7 7 15 4 8 -4 15 -15 15 -26 0 -67 69 -81
126 -24 32 32 44 69 25 80 -4 3 -22 -12 -40 -34 -39 -49 -71 -54 -71 -11 0 18
-8 34 -21 42 -20 14 -20 16 35 92 77 107 79 112 74 175 -4 42 -10 60 -28 74
-28 23 -31 23 -66 -4z"/>
<path d="M14529 13490 c-9 -5 -16 -24 -17 -47 -2 -51 -26 -140 -63 -231 -16
-42 -29 -85 -27 -96 5 -38 29 -22 49 34 57 159 73 216 91 324 4 22 -11 29 -33
16z"/>
<path d="M15438 13456 c-72 -38 -91 -63 -64 -85 16 -13 46 -4 46 14 0 18 22
34 58 41 30 6 32 5 31 -22 0 -29 -12 -49 -85 -146 -48 -62 -108 -118 -128
-118 -17 0 -76 -54 -76 -69 0 -20 55 -12 92 14 l37 25 18 -28 c10 -15 23 -36
29 -47 17 -31 65 -31 103 0 52 44 34 77 -19 35 -36 -28 -45 -25 -74 26 l-26
46 30 36 c16 21 46 57 66 81 95 118 100 211 12 211 -13 0 -35 -6 -50 -14z"/>
<path d="M15842 13445 c-48 -21 -133 -112 -169 -180 -23 -45 -33 -79 -38 -137
-7 -77 -6 -78 17 -78 13 0 29 -9 36 -20 17 -28 50 -25 105 10 51 32 67 66 49
105 -15 32 -70 49 -118 36 -21 -6 -40 -8 -43 -5 -11 10 52 118 97 166 49 53
108 86 124 70 13 -13 58 -2 58 14 0 17 -8 21 -50 28 -21 4 -48 0 -68 -9z m-37
-316 c13 -13 -5 -40 -44 -63 -37 -21 -55 -12 -66 35 -6 23 -2 28 22 37 30 11
71 7 88 -9z"/>
<path d="M17370 13428 c0 -36 -37 -119 -94 -213 -27 -45 -36 -69 -34 -95 4
-48 31 -47 39 2 5 32 60 136 110 210 12 18 19 45 19 78 0 43 -3 50 -20 50 -16
0 -20 -7 -20 -32z"/>
<path d="M17114 13365 c-51 -47 -63 -54 -90 -49 -24 4 -39 -1 -74 -28 -60 -45
-84 -89 -84 -152 0 -47 -5 -57 -73 -150 -75 -102 -86 -126 -55 -125 10 0 44
38 83 92 55 79 69 91 90 89 92 -13 158 14 199 81 25 41 25 73 0 122 l-20 39
28 29 c15 16 37 33 50 38 22 9 32 52 13 63 -5 3 -35 -19 -67 -49z m-104 -101
c0 -9 -103 -135 -106 -131 -2 2 1 19 7 39 12 45 99 125 99 92z m70 -43 c5 -11
10 -29 10 -40 0 -25 -44 -77 -82 -97 -30 -16 -78 -12 -78 6 0 13 119 150 130
150 5 0 14 -9 20 -19z"/>
<path d="M17680 13374 c-57 -45 -73 -75 -68 -128 4 -39 1 -44 -49 -91 -49 -47
-53 -54 -53 -97 0 -78 60 -108 146 -72 94 38 169 158 135 213 -6 10 -2 24 14
45 28 38 40 98 25 126 -7 13 -21 20 -40 20 -17 0 -30 5 -30 10 0 20 -36 8 -80
-26z m113 -58 c-9 -46 -39 -75 -73 -69 -16 2 -38 -1 -50 -7 -18 -9 -20 -8 -20
15 0 58 54 104 114 97 33 -4 35 -6 29 -36z m-35 -153 c5 -35 -60 -116 -110
-137 -64 -26 -98 -17 -98 28 0 27 9 42 45 75 48 44 76 53 68 22 -5 -21 7 -34
23 -23 5 4 18 20 27 35 20 31 40 31 45 0z"/>
<path d="M16605 13378 c-71 -37 -100 -78 -55 -78 11 0 20 4 20 10 0 9 83 50
101 50 5 0 9 -10 9 -22 0 -26 -173 -194 -209 -203 -61 -16 -123 -95 -91 -115
18 -11 33 -2 92 50 42 36 49 39 54 23 15 -49 26 -65 56 -83 24 -15 42 -19 67
-15 41 8 81 32 81 51 0 21 -20 27 -38 11 -49 -44 -114 -19 -127 49 -6 36 -4
39 74 118 66 66 81 87 81 112 0 34 -26 64 -56 64 -10 -1 -37 -10 -59 -22z"/>
<path d="M15085 13066 c-15 -11 -17 -18 -9 -26 17 -17 49 -8 49 14 0 25 -16
30 -40 12z"/>
<path d="M16030 12995 c0 -21 30 -31 40 -14 11 17 3 29 -21 29 -10 0 -19 -7
-19 -15z"/>
<path d="M15715 5784 c-326 -25 -586 -67 -918 -149 -342 -85 -631 -181 -854
-282 -252 -114 -373 -192 -478 -305 -207 -223 -277 -440 -207 -640 31 -88 130
-247 191 -308 132 -131 535 -380 615 -380 19 0 36 -5 38 -11 5 -14 184 -55
298 -68 47 -6 176 -13 288 -17 223 -8 226 -9 238 -70 9 -50 -13 -180 -41 -242
-30 -65 -123 -160 -189 -192 -71 -34 -59 -50 54 -72 119 -24 190 -19 300 21
111 41 206 98 287 174 95 88 123 136 123 209 0 32 1 58 3 58 2 0 34 -15 73
-34 101 -50 264 -104 368 -123 144 -26 380 -22 616 10 107 14 285 35 395 46
456 46 695 72 785 87 147 24 408 92 475 123 76 35 335 226 335 246 0 8 -6 15
-13 15 -7 0 -76 -47 -154 -104 -162 -118 -214 -142 -408 -190 -223 -54 -268
-60 -970 -131 -88 -9 -270 -30 -405 -48 -290 -37 -507 -41 -653 -13 -113 22
-269 75 -373 127 -81 41 -134 49 -125 19 14 -44 12 -130 -3 -159 -24 -45 -121
-140 -189 -185 -147 -96 -297 -138 -418 -116 l-71 12 28 19 c58 38 135 124
164 183 62 127 62 340 0 356 -14 4 -117 10 -230 14 -253 8 -340 18 -504 58
-101 24 -155 44 -250 92 -135 68 -372 230 -454 310 -56 54 -145 194 -183 286
-33 82 -32 220 3 317 50 141 207 332 348 427 143 96 458 237 690 309 552 171
926 248 1355 278 442 31 1013 -42 1825 -231 351 -82 630 -162 740 -212 125
-56 375 -229 435 -300 l25 -30 0 25 c0 43 -9 54 -108 130 -199 152 -297 205
-497 270 -458 147 -1239 309 -1795 372 -131 15 -503 27 -605 19z"/>
<path d="M15642 4863 c-20 -8 -133 -163 -127 -174 14 -22 38 -4 87 66 29 41
58 75 66 75 7 0 12 8 10 17 -3 18 -16 24 -36 16z"/>
<path d="M14583 4819 c-29 -5 -103 -24 -165 -43 -119 -35 -265 -70 -358 -83
-38 -6 -55 -13 -55 -23 0 -24 43 -23 176 4 68 14 126 23 128 20 3 -2 0 -21 -6
-42 -6 -20 -28 -95 -48 -167 -43 -148 -50 -207 -22 -213 13 -3 17 3 17 25 0
28 53 225 84 312 20 55 20 78 1 89 -11 6 24 20 119 47 132 38 161 40 137 12
-11 -14 -6 -47 8 -47 8 0 -43 -234 -76 -357 -16 -59 -18 -75 -7 -84 9 -8 27 9
75 70 81 105 95 107 75 11 -6 -30 -10 -63 -8 -72 4 -19 31 -25 33 -8 1 6 2 13
3 18 21 82 23 147 5 168 -18 22 -36 17 -79 -22 -22 -20 -40 -33 -40 -29 0 4
16 77 36 163 22 99 33 169 29 189 -5 29 -3 32 22 35 17 2 28 9 28 18 0 18 -40
22 -112 9z"/>
<path d="M18701 4795 c-19 -41 -27 -190 -11 -200 24 -15 31 14 28 120 -3 102
-4 107 -17 80z"/>
<path d="M15173 4769 c-7 -7 -9 -25 -6 -40 5 -27 -30 -194 -48 -230 -5 -9 -22
-19 -39 -22 -39 -8 -41 -37 -2 -37 27 0 27 0 24 -61 -3 -43 0 -64 9 -70 21
-13 29 0 29 45 0 87 7 102 58 118 29 8 48 21 50 31 4 19 -22 23 -61 8 l-25
-10 25 92 c16 59 23 106 20 131 -6 45 -18 61 -34 45z"/>
<path d="M17105 4590 c-4 -6 -22 -17 -41 -25 -39 -16 -42 -32 -14 -92 l19 -43
-22 -15 c-25 -17 -53 -20 -62 -5 -9 15 -45 12 -45 -4 0 -18 43 -46 72 -46 31
0 85 34 93 59 3 12 -3 37 -15 62 -18 34 -19 43 -8 50 8 5 15 2 20 -11 18 -49
56 0 42 55 -6 25 -28 33 -39 15z"/>
<path d="M15550 4572 c0 -4 -10 -12 -22 -17 -31 -14 -34 -42 -8 -77 28 -39 20
-88 -15 -88 -42 0 -55 10 -49 36 7 26 -13 33 -34 12 -18 -18 -15 -36 13 -63
30 -31 93 -34 119 -6 28 31 32 86 7 117 -20 25 -20 27 -4 40 21 16 63 18 63 4
0 -13 27 -13 35 1 13 20 -26 49 -67 49 -21 0 -38 -3 -38 -8z"/>
<path d="M16124 4504 c-56 -28 -104 -79 -104 -111 0 -42 32 -56 86 -37 21 8
40 14 42 14 1 0 1 -13 0 -29 -2 -34 17 -61 43 -61 22 0 26 28 5 36 -11 4 -12
13 -5 37 5 18 9 47 9 64 0 18 5 33 10 33 16 0 12 37 -6 54 -19 20 -40 20 -80
0z m39 -44 c-11 -40 -103 -95 -103 -61 0 10 67 65 90 74 8 3 16 6 17 6 0 1 -1
-8 -4 -19z"/>
<path d="M16323 4503 c-3 -10 -14 -40 -25 -66 -22 -59 -23 -81 -2 -102 21 -21
60 -12 95 21 31 30 37 30 41 2 2 -18 11 -24 35 -26 62 -6 145 99 129 164 -9
36 -42 28 -38 -9 3 -34 -21 -82 -54 -103 -30 -20 -40 -12 -47 39 -3 21 -8 41
-11 44 -3 4 -30 -20 -60 -53 -30 -32 -57 -56 -61 -52 -4 4 2 34 14 66 11 33
21 66 21 76 0 21 -29 21 -37 -1z"/>
<path d="M14852 4475 c-40 -34 -57 -76 -42 -105 10 -19 18 -22 60 -18 44 5 48
3 48 -19 0 -26 20 -55 33 -47 5 3 9 39 9 80 0 57 -4 76 -15 80 -8 4 -15 12
-15 20 0 11 -29 34 -44 34 -2 0 -18 -11 -34 -25z m56 -34 c21 -13 -18 -54 -47
-49 l-23 3 22 28 c23 29 28 31 48 18z"/>
<path d="M16686 4450 c-20 -22 -36 -47 -36 -56 0 -29 43 -94 67 -100 22 -6
147 30 171 49 17 13 15 27 -4 27 -9 0 -47 -10 -86 -21 -54 -17 -72 -19 -81
-10 -9 10 -8 15 3 24 26 20 70 83 70 99 0 17 -20 28 -50 28 -10 0 -34 -18 -54
-40z m42 -22 c-8 -12 -20 -24 -27 -26 -7 -2 -3 7 10 22 28 32 37 34 17 4z"/>
<path d="M17260 4467 c-53 -42 -75 -110 -50 -156 15 -30 65 -46 99 -32 52 22
65 81 30 137 -11 19 -17 34 -14 34 4 0 2 7 -5 15 -15 18 -39 19 -60 2z m56
-86 c10 -20 -9 -65 -29 -69 -47 -9 -62 49 -26 100 l21 29 14 -23 c7 -13 16
-29 20 -37z"/>
<path d="M17490 4454 c-6 -14 -10 -35 -10 -47 -1 -12 -7 -33 -15 -47 -20 -34
-18 -50 4 -50 11 0 23 12 31 29 6 16 22 39 36 52 l24 22 0 -25 c0 -14 7 -29
16 -32 15 -6 88 37 113 68 18 21 41 20 41 -2 0 -9 -11 -34 -25 -54 -14 -20
-25 -46 -25 -57 0 -24 41 -54 67 -49 25 5 30 38 5 38 -31 0 -31 9 -1 66 29 56
29 78 0 101 -27 21 -56 14 -98 -22 -23 -19 -44 -35 -47 -35 -3 0 -6 11 -6 25
0 19 -5 25 -23 25 -13 0 -28 -5 -34 -11 -8 -8 -13 -5 -18 10 -9 28 -23 26 -35
-5z"/>
<path d="M17963 4457 c-35 -17 -45 -30 -62 -74 l-20 -53 61 -60 c44 -44 68
-60 87 -60 33 0 76 42 68 64 -9 22 -24 20 -39 -4 -19 -30 -39 -24 -86 25 l-44
45 50 0 c50 0 61 7 90 57 17 31 15 47 -6 66 -23 21 -46 20 -99 -6z m64 -47
c-9 -25 -17 -30 -44 -30 -43 0 -43 22 0 42 51 24 57 23 44 -12z"/>
<path d="M13260 3170 c0 -13 -7 -20 -20 -20 -15 0 -20 -7 -20 -25 0 -20 -5
-25 -25 -25 -18 0 -25 -5 -25 -20 0 -19 -7 -20 -110 -20 l-110 0 0 -45 0 -45
45 0 c38 0 45 -3 45 -20 0 -18 -7 -20 -65 -20 -63 0 -65 -1 -65 -25 0 -23 -4
-25 -45 -25 l-45 0 0 -110 c0 -103 1 -110 20 -110 13 0 20 -7 20 -20 0 -17 7
-20 45 -20 l45 0 0 -45 c0 -38 -3 -45 -20 -45 -17 0 -20 -7 -20 -45 0 -41 -2
-45 -25 -45 -23 0 -25 -4 -25 -45 0 -38 -3 -45 -20 -45 -18 0 -20 -7 -20 -85
0 -78 -2 -85 -20 -85 -19 0 -20 -7 -20 -245 0 -238 1 -245 20 -245 17 0 20 -7
20 -45 0 -38 3 -45 20 -45 13 0 20 -7 20 -20 0 -17 7 -20 45 -20 38 0 45 -3
45 -20 0 -19 7 -20 110 -20 103 0 110 1 110 20 0 17 7 20 45 20 38 0 45 3 45
20 0 15 7 20 25 20 23 0 25 4 25 45 0 38 3 45 20 45 15 0 20 7 20 25 0 18 5
25 20 25 13 0 20 7 20 20 0 15 7 20 25 20 23 0 25 4 25 45 0 38 3 45 20 45 17
0 20 7 20 45 0 41 2 45 25 45 23 0 25 4 25 45 0 38 3 45 20 45 17 0 20 7 20
40 0 33 3 40 20 40 15 0 20 7 20 25 0 20 5 25 25 25 18 0 25 5 25 20 0 13 7
20 20 20 15 0 20 7 20 25 0 20 5 25 25 25 20 0 25 -5 25 -25 0 -18 5 -25 20
-25 13 0 20 -7 20 -20 0 -15 7 -20 25 -20 25 0 25 1 25 85 l0 85 -45 0 c-38 0
-45 -3 -45 -20 0 -18 -7 -20 -70 -20 -63 0 -70 -2 -70 -20 0 -13 -7 -20 -20
-20 -15 0 -20 -7 -20 -25 0 -18 -5 -25 -20 -25 -17 0 -20 -7 -20 -45 0 -41 -2
-45 -25 -45 -22 0 -25 -4 -25 -40 0 -33 -3 -40 -20 -40 -17 0 -20 -7 -20 -45
0 -41 -2 -45 -25 -45 -23 0 -25 -4 -25 -45 0 -38 -3 -45 -20 -45 -17 0 -20 -7
-20 -45 0 -38 -3 -45 -20 -45 -13 0 -20 -7 -20 -20 0 -15 -7 -20 -25 -20 -20
0 -25 -5 -25 -25 0 -18 -5 -25 -20 -25 -13 0 -20 -7 -20 -20 0 -17 -7 -20 -45
-20 -41 0 -45 -2 -45 -25 0 -25 -1 -25 -90 -25 -89 0 -90 0 -90 25 0 18 -5 25
-20 25 -13 0 -20 7 -20 20 0 15 -7 20 -25 20 l-25 0 0 110 c0 103 -1 110 -20
110 -18 0 -20 7 -20 70 0 63 2 70 20 70 17 0 20 7 20 40 0 36 3 40 25 40 24 0
25 2 25 70 0 63 2 70 20 70 18 0 20 7 20 65 0 63 1 65 25 65 24 0 25 2 25 65
l0 65 45 0 c38 0 45 3 45 20 0 17 7 20 40 20 36 0 40 3 40 25 0 20 5 25 25 25
24 0 25 2 25 65 0 63 -1 65 -25 65 -23 0 -25 4 -25 45 0 38 -3 45 -20 45 -17
0 -20 7 -20 45 0 38 3 45 20 45 13 0 20 7 20 20 0 15 7 20 25 20 23 0 25 4 25
45 0 38 3 45 20 45 13 0 20 7 20 20 0 17 7 20 45 20 41 0 45 2 45 25 0 23 4
25 45 25 41 0 45 -2 45 -25 0 -18 5 -25 20 -25 13 0 20 -7 20 -20 0 -15 7 -20
25 -20 l25 0 0 -110 0 -110 -25 0 c-20 0 -25 -5 -25 -25 0 -18 -5 -25 -20 -25
-13 0 -20 -7 -20 -20 0 -15 -7 -20 -25 -20 -18 0 -25 -5 -25 -20 0 -13 -7 -20
-20 -20 -19 0 -20 -7 -20 -90 0 -83 1 -90 20 -90 19 0 20 -7 20 -110 0 -103
-1 -110 -20 -110 -17 0 -20 -7 -20 -45 0 -38 -3 -45 -20 -45 -17 0 -20 -7 -20
-45 0 -41 -2 -45 -25 -45 -18 0 -25 -5 -25 -20 0 -13 -7 -20 -20 -20 -13 0
-20 -7 -20 -20 0 -18 -7 -20 -65 -20 -58 0 -65 2 -65 20 0 15 -7 20 -25 20
-23 0 -25 4 -25 45 0 41 2 45 25 45 23 0 25 4 25 45 0 38 3 45 20 45 18 0 20
7 20 65 0 58 2 65 20 65 13 0 20 7 20 20 0 17 -7 20 -40 20 -33 0 -40 -3 -40
-20 0 -15 -7 -20 -25 -20 -24 0 -25 -2 -25 -65 0 -58 -2 -65 -20 -65 -19 0
-20 -7 -20 -135 l0 -135 45 0 c38 0 45 -3 45 -20 0 -18 7 -20 65 -20 58 0 65
2 65 20 0 17 7 20 45 20 l45 0 0 45 c0 38 3 45 20 45 13 0 20 7 20 20 0 13 7
20 20 20 17 0 20 7 20 45 0 41 2 45 25 45 24 0 25 2 25 65 0 58 2 65 20 65 17
0 20 7 20 45 l0 45 90 0 c89 0 90 0 90 25 0 23 4 25 45 25 l45 0 0 40 c0 33 3
40 20 40 17 0 20 7 20 45 0 38 -3 45 -20 45 -15 0 -20 7 -20 25 0 23 4 25 45
25 38 0 45 3 45 20 0 15 -7 20 -25 20 -23 0 -25 4 -25 45 0 38 -3 45 -20 45
-13 0 -20 7 -20 20 0 15 -7 20 -25 20 -23 0 -25 -4 -25 -45 0 -41 2 -45 25
-45 23 0 25 -4 25 -40 0 -36 -2 -40 -25 -40 -18 0 -25 5 -25 20 0 13 -7 20
-20 20 -13 0 -20 7 -20 20 0 15 -7 20 -25 20 l-25 0 0 135 c0 128 -1 135 -20
135 -17 0 -20 7 -20 45 0 38 -3 45 -20 45 -13 0 -20 7 -20 20 0 19 -7 20 -135
20 -128 0 -135 -1 -135 -20z m-220 -355 c0 -20 5 -25 25 -25 18 0 25 -5 25
-20 0 -13 7 -20 20 -20 18 0 20 -7 20 -65 0 -58 -2 -65 -20 -65 -13 0 -20 7
-20 20 0 15 -7 20 -25 20 -20 0 -25 5 -25 25 0 20 5 25 25 25 18 0 25 5 25 20
0 15 -7 20 -25 20 -18 0 -25 5 -25 20 0 17 -7 20 -45 20 l-45 0 0 -40 c0 -36
3 -40 25 -40 20 0 25 -5 25 -25 0 -20 -5 -25 -25 -25 -20 0 -25 5 -25 25 0 23
-4 25 -45 25 -38 0 -45 3 -45 20 0 15 7 20 25 20 23 0 25 4 25 45 l0 45 65 0
c63 0 65 -1 65 -25z m570 -130 c0 -20 5 -25 25 -25 18 0 25 -5 25 -20 0 -13 7
-20 20 -20 15 0 20 -7 20 -25 0 -18 -5 -25 -20 -25 -13 0 -20 -7 -20 -20 0
-17 -7 -20 -45 -20 -38 0 -45 3 -45 20 0 13 7 20 20 20 17 0 20 7 20 45 l0 45
-65 0 -65 0 0 -45 c0 -38 -3 -45 -20 -45 -18 0 -20 7 -20 70 l0 70 85 0 c84 0
85 0 85 -25z"/>
<path d="M5675 2865 c-156 -22 -264 -55 -406 -125 -342 -169 -599 -486 -693
-856 -23 -90 -23 -601 0 -682 48 -170 114 -309 212 -445 64 -89 189 -219 257
-268 25 -18 45 -36 45 -41 0 -16 27 -37 46 -36 11 1 38 -11 62 -26 44 -28 158
-80 247 -112 44 -17 89 -19 389 -22 l339 -3 81 27 c100 33 193 74 260 116 28
17 59 31 69 30 9 0 17 6 17 14 0 8 4 14 8 14 11 0 121 98 191 170 167 171 290
405 343 653 31 145 31 399 0 544 -56 258 -181 490 -367 676 -47 47 -85 90 -85
96 0 6 -11 11 -25 11 -14 0 -25 4 -25 8 0 13 -156 110 -233 146 -40 18 -97 41
-126 51 -30 9 -62 26 -73 37 -15 15 -23 17 -33 8 -9 -8 -25 -8 -52 -1 -118 30
-300 37 -448 16z m322 -45 c43 -6 99 -15 125 -21 45 -10 47 -12 46 -45 -1 -36
-12 -44 -25 -20 -9 17 -110 66 -135 66 -26 0 -43 -70 -43 -177 l0 -93 -45 0
-45 0 -24 65 c-12 36 -29 72 -36 79 -8 7 -15 31 -17 52 -3 35 -8 41 -45 59
-23 11 -42 23 -43 27 -1 18 175 22 287 8z m-340 -24 c-10 -25 -26 -128 -32
-211 -11 -132 -52 -160 -90 -62 -13 33 -29 56 -45 64 -33 16 -50 41 -50 73 0
41 -22 64 -53 56 -18 -4 -33 -21 -51 -59 -26 -53 -66 -218 -66 -269 0 -23 -4
-28 -25 -28 -25 0 -25 1 -25 88 0 48 3 117 6 153 l7 67 86 40 c109 50 134 60
218 82 87 23 127 25 120 6z m738 -92 c52 -23 186 -107 236 -147 12 -9 17 -34
20 -97 l4 -85 -27 -3 c-24 -3 -28 1 -42 50 -16 56 -67 161 -93 189 -18 21 -61
30 -70 15 -4 -6 -8 -60 -10 -121 -1 -60 -5 -115 -8 -122 -3 -9 -25 -13 -63
-13 -56 0 -62 2 -98 40 -22 22 -42 52 -45 67 -11 47 -10 133 3 219 l12 82 60
-23 c34 -13 88 -36 121 -51z m-1209 -72 c-3 -5 -6 -69 -7 -143 l-1 -134 -84
-79 c-194 -181 -287 -362 -330 -641 -37 -246 8 -481 146 -760 33 -66 86 -156
120 -200 49 -65 60 -87 60 -118 l0 -38 -28 19 c-100 72 -269 279 -338 413
-170 337 -188 740 -46 1085 86 211 238 405 425 546 77 56 94 67 83 50z m1610
-232 c170 -191 279 -434 313 -699 43 -328 -54 -680 -257 -945 -49 -64 -200
-216 -214 -216 -4 0 -8 14 -8 31 0 25 14 43 82 107 189 178 294 388 328 655
29 235 -8 436 -126 685 -53 113 -119 221 -181 298 -30 37 -33 47 -33 108 0 64
1 67 19 54 11 -8 45 -43 77 -78z m-406 -80 c0 -5 -7 -10 -15 -10 -8 0 -15 5
-15 10 0 6 7 10 15 10 8 0 15 -4 15 -10z m305 -32 c44 -52 130 -189 179 -286
45 -89 97 -230 87 -236 -4 -3 -61 4 -126 14 -66 10 -159 21 -208 25 -48 4 -89
11 -92 15 -3 4 10 86 29 181 18 96 37 206 41 244 4 39 9 73 12 78 11 18 45 3
78 -35z m-1439 15 c-10 -26 -8 -212 3 -271 11 -55 24 -86 48 -113 11 -14 12
-25 2 -63 -6 -25 -15 -46 -20 -46 -18 0 -251 -31 -347 -47 -56 -9 -104 -14
-107 -11 -17 16 82 243 142 325 93 127 216 243 260 243 19 0 24 -4 19 -17z
m504 -334 c0 -45 -25 -77 -70 -85 -45 -9 -72 -46 -78 -103 -4 -48 -3 -51 24
-62 39 -14 56 -2 74 53 20 61 36 78 75 78 29 0 33 -4 37 -31 9 -61 -9 -129
-47 -175 -38 -46 -69 -60 -107 -49 -34 11 -144 91 -152 111 -4 9 -1 43 5 74 9
44 8 67 -1 95 -11 33 -10 39 10 60 37 39 192 93 223 78 4 -2 7 -22 7 -44z
m532 -10 c26 -19 57 -42 71 -52 38 -28 80 -112 72 -146 -10 -45 -109 -149
-155 -161 -45 -12 -64 -6 -109 35 -39 35 -121 141 -121 155 0 14 61 50 85 50
11 0 43 -24 72 -52 61 -60 81 -59 97 5 12 45 1 59 -73 97 -31 15 -69 40 -85
55 -29 27 -29 28 -10 42 32 24 104 12 156 -28z m373 -204 c127 -15 248 -31
292 -40 30 -7 45 -83 45 -230 0 -132 -7 -172 -30 -179 -31 -8 -424 -57 -428
-52 -1 0 5 42 13 91 17 99 13 135 -36 372 -8 40 -6 53 8 53 3 0 65 -7 136 -15z
m-1375 1 c0 -2 -11 -86 -24 -187 -14 -101 -28 -216 -31 -255 l-7 -70 -76 8
c-42 4 -136 15 -208 24 l-132 16 -5 37 c-16 103 -18 183 -7 256 7 44 16 87 21
96 9 17 116 38 319 64 117 14 150 17 150 11z m665 -156 c10 -11 22 -45 27 -76
5 -31 16 -70 24 -86 43 -84 -87 -122 -167 -50 -35 31 -35 34 -4 97 14 28 25
55 25 61 0 15 55 74 67 74 6 0 18 -9 28 -20z m1020 -372 c-37 -175 -138 -353
-283 -495 l-83 -83 -257 1 -257 1 75 19 c163 41 275 127 304 230 8 30 24 109
37 176 l22 122 41 5 c261 32 381 48 385 52 14 14 22 0 16 -28z m-1930 -13 c88
-10 165 -18 171 -20 7 -2 11 -45 12 -127 0 -92 4 -134 17 -166 37 -92 169
-170 362 -216 59 -14 119 -27 133 -29 14 -1 -119 -6 -295 -10 l-320 -8 -23 28
c-105 126 -248 412 -269 537 -6 39 -6 39 23 33 16 -3 101 -13 189 -22z m1212
-7 c18 -15 16 -65 -4 -100 -10 -16 -40 -43 -68 -61 l-50 -32 -140 3 c-187 3
-396 20 -442 35 -43 14 -65 55 -46 85 12 19 72 21 374 11 225 -8 239 -6 278
48 29 39 33 42 58 32 15 -5 33 -15 40 -21z m-591 -625 c-15 -52 -45 -184 -51
-224 -11 -75 -12 -76 -107 -50 -84 22 -247 95 -325 144 -42 27 -43 28 -43 82
l0 55 183 2 c100 2 220 5 265 6 78 3 83 2 78 -15z m328 9 c11 -18 56 -206 62
-258 7 -52 6 -53 -22 -61 -44 -12 -361 -10 -374 3 -11 11 -6 46 31 203 31 130
19 121 169 121 71 0 131 -4 134 -8z m586 -46 l0 -54 -62 -40 c-83 -51 -230
-117 -320 -142 -40 -11 -76 -20 -80 -20 -5 0 -8 13 -8 29 0 16 -13 82 -30 146
-16 64 -30 121 -30 126 0 5 108 9 265 9 l265 0 0 -54z"/>
<path d="M5881 1516 c-18 -21 -9 -66 14 -82 43 -28 99 32 69 75 -18 24 -65 28
-83 7z"/>
</g>
</svg>
