<?xml version="1.0" standalone="no"?>
<!DOCTYPE svg PUBLIC "-//W3C//DTD SVG 20010904//EN"
 "http://www.w3.org/TR/2001/REC-SVG-20010904/DTD/svg10.dtd">
<svg version="1.0" xmlns="http://www.w3.org/2000/svg"
 width="1872.000000pt" height="628.000000pt" viewBox="0 0 1872.000000 628.000000"
 preserveAspectRatio="xMidYMid meet">

<g transform="translate(0.000000,628.000000) scale(0.100000,-0.100000)"
fill="#000000" stroke="none">
<path d="M8180 5883 c-1853 -51 -3531 -378 -4575 -893 -333 -165 -542 -306
-731 -494 -118 -118 -196 -225 -250 -340 -179 -389 -20 -791 456 -1153 392
-297 1032 -573 1797 -773 l122 -32 117 -475 c65 -261 123 -477 129 -479 6 -3
508 131 1115 296 661 181 1112 299 1124 295 47 -13 547 -35 941 -41 2489 -39
4803 439 5838 1203 120 89 316 282 376 371 336 497 137 1001 -572 1448 -133
84 -504 268 -683 338 -1074 421 -2466 666 -4119 726 -240 9 -824 10 -1085 3z
m1355 -63 c1463 -79 2674 -291 3627 -636 587 -212 1004 -449 1283 -729 213
-212 300 -392 300 -620 0 -158 -43 -284 -148 -440 -60 -88 -246 -271 -371
-363 -1016 -750 -3326 -1225 -5781 -1189 -452 7 -825 22 -924 38 l-65 10
-1088 -297 c-599 -163 -1091 -294 -1093 -292 -3 2 -58 218 -122 479 l-118 474
-40 2 c-55 2 -398 99 -648 183 -288 97 -476 174 -722 295 -333 165 -529 298
-716 484 -297 297 -378 595 -245 902 51 119 119 212 251 344 395 394 1150 738
2171 986 897 218 1858 337 3099 383 175 7 1162 -3 1350 -14z"/>
<path d="M4570 4380 l0 -220 30 0 30 0 0 109 0 109 31 27 c39 32 78 30 96 -5
8 -15 13 -66 13 -132 l0 -108 25 0 25 0 0 131 0 131 -29 29 c-37 36 -84 39
-132 6 l-34 -23 3 83 3 83 -30 0 -31 0 0 -220z"/>
<path d="M6060 4563 c0 -21 3 -55 6 -75 6 -34 10 -38 35 -38 l29 0 0 75 0 75
-35 0 c-34 0 -35 -1 -35 -37z"/>
<path d="M8070 4380 l0 -220 30 0 30 0 0 109 0 109 31 27 c39 32 78 30 96 -5
8 -15 13 -66 13 -132 l0 -108 25 0 25 0 0 131 0 131 -29 29 c-37 36 -84 39
-132 6 l-34 -23 3 83 3 83 -30 0 -31 0 0 -220z"/>
<path d="M8780 4575 c0 -23 3 -25 50 -25 l50 0 0 -170 0 -170 -55 0 c-52 0
-55 -1 -55 -25 l0 -25 130 0 130 0 0 25 c0 23 -3 25 -50 25 l-50 0 0 195 0
195 -75 0 c-73 0 -75 -1 -75 -25z"/>
<path d="M11060 4540 l0 -60 -46 0 c-54 0 -107 -23 -128 -55 -49 -75 -41 -202
15 -250 48 -39 114 -30 157 23 10 14 12 12 12 -11 0 -22 5 -27 25 -27 l25 0 0
220 0 220 -30 0 -30 0 0 -60z m-16 -116 c13 -5 16 -22 16 -84 0 -77 -1 -78
-35 -109 -42 -36 -65 -39 -91 -10 -15 17 -19 36 -19 91 0 64 2 72 28 94 27 23
68 31 101 18z"/>
<path d="M4200 4545 c0 -24 3 -25 60 -25 l60 0 0 -180 0 -180 30 0 30 0 0 180
0 180 60 0 c57 0 60 1 60 25 l0 25 -150 0 -150 0 0 -25z"/>
<path d="M10248 4563 c-14 -3 -18 -15 -18 -49 l0 -44 -45 0 c-41 0 -45 -2 -45
-25 0 -23 4 -25 45 -25 l45 0 0 -104 c0 -94 2 -108 23 -131 25 -29 82 -42 141
-31 30 6 36 11 36 32 0 23 -2 24 -40 18 -88 -14 -110 14 -110 142 l0 74 75 0
c73 0 75 1 75 25 0 24 -2 25 -75 25 l-75 0 0 50 c0 28 -3 49 -7 49 -5 -1 -16
-3 -25 -6z"/>
<path d="M5000 4473 c-23 -9 -60 -45 -76 -75 -8 -15 -14 -55 -14 -90 0 -109
50 -158 162 -158 77 0 98 8 98 35 0 22 -3 23 -54 18 -30 -3 -66 -3 -80 1 -36
9 -66 41 -66 71 l0 25 111 0 112 0 -6 45 c-9 65 -33 104 -72 121 -34 14 -87
17 -115 7z m98 -60 c11 -10 23 -28 27 -40 6 -23 5 -23 -74 -23 -91 0 -101 11
-56 55 29 30 74 33 103 8z"/>
<path d="M5376 4455 c-37 -25 -38 -25 -43 -5 -3 13 -14 20 -29 20 l-24 0 0
-155 0 -155 30 0 30 0 0 101 0 101 34 34 c52 52 106 43 106 -18 0 -25 4 -28
31 -28 31 0 32 0 26 42 -11 83 -88 113 -161 63z"/>
<path d="M5700 4473 c-23 -9 -60 -45 -76 -75 -8 -15 -14 -55 -14 -90 0 -109
50 -158 162 -158 77 0 98 8 98 35 0 22 -3 23 -54 18 -30 -3 -66 -3 -80 1 -36
9 -66 41 -66 71 l0 25 111 0 112 0 -6 45 c-9 65 -33 104 -72 121 -34 14 -87
17 -115 7z m98 -60 c11 -10 23 -28 27 -40 6 -23 5 -23 -74 -23 -91 0 -101 11
-56 55 29 30 74 33 103 8z"/>
<path d="M6384 4464 c-32 -15 -54 -50 -54 -83 0 -32 33 -60 105 -88 74 -30 93
-55 59 -80 -21 -15 -85 -17 -132 -4 -30 9 -32 8 -32 -14 0 -13 5 -27 10 -30
22 -14 119 -17 154 -5 104 34 100 137 -6 170 -70 22 -98 39 -98 60 0 30 36 43
102 37 55 -5 58 -4 58 18 0 15 -7 25 -22 29 -41 11 -112 6 -144 -10z"/>
<path d="M7070 4471 c-18 -5 -26 -15 -28 -35 -3 -25 -1 -28 15 -21 34 14 110
17 132 6 14 -8 21 -21 21 -41 0 -29 -1 -30 -50 -30 -93 0 -150 -41 -150 -108
0 -24 9 -42 30 -64 28 -28 35 -30 81 -26 27 3 57 12 67 22 23 20 32 20 32 1 0
-9 9 -15 25 -15 l25 0 0 126 c0 69 -5 134 -10 145 -23 42 -114 61 -190 40z
m140 -201 c0 -52 -88 -91 -124 -54 -39 39 1 84 74 84 49 0 50 -1 50 -30z"/>
<path d="M8469 4457 c-46 -30 -69 -80 -69 -147 0 -100 55 -160 146 -160 85 0
144 70 144 170 0 32 -7 69 -18 90 -33 68 -137 92 -203 47z m136 -53 c43 -46
35 -154 -14 -191 -17 -13 -60 -17 -86 -7 -39 15 -59 121 -34 178 23 50 96 61
134 20z"/>
<path d="M9200 4473 c-23 -9 -60 -45 -76 -75 -8 -15 -14 -55 -14 -90 0 -109
50 -158 162 -158 77 0 98 8 98 35 0 22 -3 23 -54 18 -30 -3 -66 -3 -80 1 -36
9 -66 41 -66 71 l0 25 111 0 112 0 -6 45 c-9 65 -33 104 -72 121 -34 14 -87
17 -115 7z m98 -60 c11 -10 23 -28 27 -40 6 -23 5 -23 -74 -23 -91 0 -101 11
-56 55 29 30 74 33 103 8z"/>
<path d="M9884 4464 c-32 -15 -54 -50 -54 -83 0 -32 33 -60 105 -88 74 -30 93
-55 59 -80 -21 -15 -85 -17 -132 -4 -30 9 -32 8 -32 -14 0 -13 5 -27 10 -30
22 -14 119 -17 154 -5 104 34 100 137 -6 170 -70 22 -98 39 -98 60 0 30 36 43
102 37 55 -5 58 -4 58 18 0 15 -7 25 -22 29 -41 11 -112 6 -144 -10z"/>
<path d="M11969 4457 c-46 -30 -69 -80 -69 -147 0 -100 55 -160 146 -160 85 0
144 70 144 170 0 32 -7 69 -18 90 -33 68 -137 92 -203 47z m136 -53 c43 -46
35 -154 -14 -191 -17 -13 -60 -17 -86 -7 -39 15 -59 121 -34 178 23 50 96 61
134 20z"/>
<path d="M12356 4455 c-34 -23 -36 -23 -36 -5 0 15 -7 20 -25 20 l-25 0 0
-155 0 -155 30 0 30 0 0 109 0 109 31 27 c39 32 78 30 96 -5 8 -15 13 -66 13
-132 l0 -108 25 0 25 0 0 125 c0 69 -5 135 -11 148 -23 51 -95 61 -153 22z"/>
<path d="M7683 4448 c3 -13 13 -83 23 -156 l18 -133 35 3 c33 3 35 5 59 77
l25 75 27 -75 c26 -71 29 -74 62 -77 l35 -3 21 148 c12 81 22 152 22 156 0 5
-12 7 -27 5 -28 -3 -28 -4 -40 -108 -7 -58 -14 -112 -16 -120 -2 -8 -15 22
-31 68 -24 70 -31 82 -50 82 -19 0 -26 -11 -46 -75 -13 -41 -26 -75 -30 -75
-4 0 -13 52 -20 115 l-12 115 -30 0 c-26 0 -29 -3 -25 -22z"/>
<path d="M10520 4339 l0 -131 30 -30 c28 -27 36 -30 76 -25 28 3 55 13 70 28
l24 22 0 -21 c0 -17 6 -22 25 -22 l25 0 0 155 0 155 -25 0 -25 0 0 -104 0
-104 -35 -31 c-40 -34 -66 -39 -89 -15 -13 12 -16 40 -16 135 l0 119 -30 0
-30 0 0 -131z"/>
<path d="M11193 4458 c3 -7 31 -75 62 -152 36 -88 54 -147 51 -161 -9 -35 -55
-75 -87 -75 -24 0 -29 -4 -29 -25 0 -21 5 -25 31 -25 46 0 94 27 122 68 13 20
54 114 90 207 61 159 65 170 46 173 -37 6 -45 -5 -83 -115 -21 -59 -41 -111
-45 -115 -4 -5 -27 46 -51 112 l-45 120 -34 0 c-22 0 -32 -4 -28 -12z"/>
<path d="M7109 3839 c-16 -30 3 -69 34 -69 29 0 47 17 47 45 0 45 -60 63 -81
24z"/>
<path d="M10180 3825 c0 -23 3 -25 50 -25 l50 0 0 -170 0 -170 -55 0 c-52 0
-55 -1 -55 -25 l0 -25 130 0 130 0 0 25 c0 23 -3 25 -50 25 l-50 0 0 195 0
195 -75 0 c-73 0 -75 -1 -75 -25z"/>
<path d="M4550 3795 c0 -24 3 -25 60 -25 l60 0 0 -180 0 -180 30 0 30 0 0 180
0 180 60 0 c57 0 60 1 60 25 l0 25 -150 0 -150 0 0 -25z"/>
<path d="M5698 3813 c-14 -3 -18 -15 -18 -49 l0 -44 -45 0 c-41 0 -45 -2 -45
-25 0 -23 4 -25 45 -25 l45 0 0 -104 c0 -94 2 -108 23 -131 25 -29 82 -42 141
-31 30 6 36 11 36 32 0 23 -2 24 -40 18 -88 -14 -110 14 -110 142 l0 74 75 0
c73 0 75 1 75 25 0 24 -2 25 -75 25 l-75 0 0 50 c0 28 -3 49 -7 49 -5 -1 -16
-3 -25 -6z"/>
<path d="M6300 3615 l0 -205 68 0 c89 0 139 15 178 54 40 40 58 103 51 183
-10 124 -70 173 -214 173 l-83 0 0 -205z m174 141 c26 -11 38 -25 51 -60 21
-54 16 -143 -10 -183 -20 -30 -72 -53 -120 -53 l-35 0 0 155 0 155 40 0 c22 0
56 -6 74 -14z"/>
<path d="M8750 3615 l0 -205 68 0 c89 0 139 15 178 54 40 40 58 103 51 183
-10 124 -70 173 -214 173 l-83 0 0 -205z m174 141 c26 -11 38 -25 51 -60 21
-54 16 -143 -10 -183 -20 -30 -72 -53 -120 -53 l-35 0 0 155 0 155 40 0 c22 0
56 -6 74 -14z"/>
<path d="M12348 3813 c-14 -3 -18 -15 -18 -49 l0 -44 -45 0 c-41 0 -45 -2 -45
-25 0 -23 4 -25 45 -25 l45 0 0 -104 c0 -94 2 -108 23 -131 25 -29 82 -42 141
-31 30 6 36 11 36 32 0 23 -2 24 -40 18 -88 -14 -110 14 -110 142 l0 74 75 0
c73 0 75 1 75 25 0 24 -2 25 -75 25 l-75 0 0 50 c0 28 -3 49 -7 49 -5 -1 -16
-3 -25 -6z"/>
<path d="M12793 3698 c4 -62 7 -137 7 -165 0 -49 2 -53 23 -53 23 0 24 4 30
98 4 53 7 127 7 165 l0 67 -37 0 -36 0 6 -112z"/>
<path d="M5000 3723 c-23 -9 -60 -45 -76 -75 -8 -15 -14 -55 -14 -90 0 -109
50 -158 162 -158 77 0 98 8 98 35 0 22 -3 23 -54 18 -30 -3 -66 -3 -80 1 -36
9 -66 41 -66 71 l0 25 111 0 112 0 -6 45 c-9 65 -33 104 -72 121 -34 14 -87
17 -115 7z m98 -60 c11 -10 23 -28 27 -40 6 -23 5 -23 -74 -23 -91 0 -101 11
-56 55 29 30 74 33 103 8z"/>
<path d="M5334 3714 c-32 -15 -54 -50 -54 -83 0 -32 33 -60 105 -88 74 -30 93
-55 59 -80 -21 -15 -85 -17 -132 -4 -30 9 -32 8 -32 -14 0 -13 5 -27 10 -30
22 -14 119 -17 154 -5 104 34 100 137 -6 170 -70 22 -98 39 -98 60 0 30 36 43
102 37 55 -5 58 -4 58 18 0 15 -7 25 -22 29 -41 11 -112 6 -144 -10z"/>
<path d="M6776 3705 c-37 -25 -38 -25 -43 -5 -3 13 -14 20 -29 20 l-24 0 0
-155 0 -155 30 0 30 0 0 101 0 101 34 34 c52 52 106 43 106 -18 0 -25 4 -28
31 -28 31 0 32 0 26 42 -11 83 -88 113 -161 63z"/>
<path d="M7800 3723 c-23 -9 -60 -45 -76 -75 -8 -15 -14 -55 -14 -90 0 -109
50 -158 162 -158 77 0 98 8 98 35 0 22 -3 23 -54 18 -30 -3 -66 -3 -80 1 -36
9 -66 41 -66 71 l0 25 111 0 112 0 -6 45 c-9 65 -33 104 -72 121 -34 14 -87
17 -115 7z m98 -60 c11 -10 23 -28 27 -40 6 -23 5 -23 -74 -23 -91 0 -101 11
-56 55 29 30 74 33 103 8z"/>
<path d="M8156 3705 c-34 -23 -36 -23 -36 -5 0 15 -7 20 -25 20 l-25 0 0 -155
0 -155 30 0 30 0 0 109 0 109 31 27 c39 32 78 30 96 -5 8 -15 13 -66 13 -132
l0 -108 25 0 25 0 0 125 c0 69 -5 135 -11 148 -23 51 -95 61 -153 22z"/>
<path d="M9200 3723 c-23 -9 -60 -45 -76 -75 -8 -15 -14 -55 -14 -90 0 -109
50 -158 162 -158 77 0 98 8 98 35 0 22 -3 23 -54 18 -30 -3 -66 -3 -80 1 -36
9 -66 41 -66 71 l0 25 111 0 112 0 -6 45 c-9 65 -33 104 -72 121 -34 14 -87
17 -115 7z m98 -60 c11 -10 23 -28 27 -40 6 -23 5 -23 -74 -23 -91 0 -101 11
-56 55 29 30 74 33 103 8z"/>
<path d="M9900 3723 c-23 -9 -60 -45 -76 -75 -8 -15 -14 -55 -14 -90 0 -109
50 -158 162 -158 77 0 98 8 98 35 0 22 -3 23 -54 18 -30 -3 -66 -3 -80 1 -36
9 -66 41 -66 71 l0 25 111 0 112 0 -6 45 c-9 65 -33 104 -72 121 -34 14 -87
17 -115 7z m98 -60 c11 -10 23 -28 27 -40 6 -23 5 -23 -74 -23 -91 0 -101 11
-56 55 29 30 74 33 103 8z"/>
<path d="M10569 3707 c-46 -30 -69 -80 -69 -147 0 -100 55 -160 146 -160 85 0
144 70 144 170 0 32 -7 69 -18 90 -33 68 -137 92 -203 47z m136 -53 c43 -46
35 -154 -14 -191 -17 -13 -60 -17 -86 -7 -39 15 -59 121 -34 178 23 50 96 61
134 20z"/>
<path d="M10956 3705 c-34 -23 -36 -23 -36 -5 0 15 -7 20 -25 20 l-25 0 0
-220 0 -220 30 0 30 0 0 63 0 62 47 -3 c101 -6 158 56 158 173 -1 135 -83 195
-179 130z m100 -46 c15 -17 19 -36 19 -91 0 -64 -2 -72 -28 -94 -27 -23 -68
-31 -101 -18 -13 5 -16 23 -16 89 0 82 0 84 33 109 39 31 68 33 93 5z"/>
<path d="M11265 3704 c-24 -26 -25 -26 -25 -5 0 14 -6 21 -20 21 -19 0 -20 -7
-20 -155 l0 -155 25 0 25 0 0 103 c0 85 3 108 20 135 36 58 45 38 48 -106 l3
-132 24 0 c25 0 25 1 25 95 0 77 4 104 21 136 34 67 44 47 47 -99 l3 -132 31
0 31 0 -5 140 c-4 117 -7 143 -23 160 -26 29 -59 25 -89 -11 -21 -25 -26 -27
-26 -12 0 48 -57 58 -95 17z"/>
<path d="M11650 3723 c-23 -9 -60 -45 -76 -75 -8 -15 -14 -55 -14 -90 0 -109
50 -158 162 -158 77 0 98 8 98 35 0 22 -3 23 -54 18 -30 -3 -66 -3 -80 1 -36
9 -66 41 -66 71 l0 25 111 0 112 0 -6 45 c-9 65 -33 104 -72 121 -34 14 -87
17 -115 7z m98 -60 c11 -10 23 -28 27 -40 6 -23 5 -23 -74 -23 -91 0 -101 11
-56 55 29 30 74 33 103 8z"/>
<path d="M12006 3705 c-34 -23 -36 -23 -36 -5 0 15 -7 20 -25 20 l-25 0 0
-155 0 -155 30 0 30 0 0 109 0 109 31 27 c39 32 78 30 96 -5 8 -15 13 -66 13
-132 l0 -108 25 0 25 0 0 125 c0 69 -5 135 -11 148 -23 51 -95 61 -153 22z"/>
<path d="M7030 3695 c0 -23 3 -25 50 -25 l50 0 0 -105 0 -105 -55 0 c-52 0
-55 -1 -55 -25 l0 -25 130 0 130 0 0 25 c0 23 -3 25 -50 25 l-50 0 0 130 0
130 -75 0 c-73 0 -75 -1 -75 -25z"/>
<path d="M7343 3708 c3 -7 30 -77 62 -155 l57 -143 33 0 34 0 59 153 c55 140
58 152 40 155 -11 2 -25 1 -32 -1 -7 -3 -32 -60 -56 -128 l-44 -122 -45 126
-46 127 -34 0 c-22 0 -32 -4 -28 -12z"/>
<path d="M9443 3708 c3 -7 30 -77 62 -155 l57 -143 33 0 34 0 59 153 c55 140
58 152 40 155 -11 2 -25 1 -32 -1 -7 -3 -32 -60 -56 -128 l-44 -122 -45 126
-46 127 -34 0 c-22 0 -32 -4 -28 -12z"/>
<path d="M12788 3415 c-8 -19 -8 -28 2 -40 32 -38 94 1 70 45 -16 29 -58 26
-72 -5z"/>
<path d="M1795 3305 c-156 -22 -264 -55 -406 -125 -342 -169 -599 -486 -693
-856 -23 -90 -23 -601 0 -682 48 -170 114 -309 212 -445 64 -89 189 -219 257
-268 25 -18 45 -36 45 -41 0 -16 27 -37 46 -36 11 1 38 -11 62 -26 44 -28 158
-80 247 -112 44 -17 89 -19 389 -22 l339 -3 81 27 c100 33 193 74 260 116 28
17 59 31 69 30 9 0 17 6 17 14 0 8 4 14 8 14 11 0 121 98 191 170 167 171 290
405 343 653 31 145 31 399 0 544 -56 258 -181 490 -367 676 -47 47 -85 90 -85
96 0 6 -11 11 -25 11 -14 0 -25 4 -25 8 0 13 -156 110 -233 146 -40 18 -97 41
-126 51 -30 9 -62 26 -73 37 -15 15 -23 17 -33 8 -9 -8 -25 -8 -52 -1 -118 30
-300 37 -448 16z m322 -45 c43 -6 99 -15 125 -21 45 -10 47 -12 46 -45 -1 -36
-12 -44 -25 -20 -9 17 -110 66 -135 66 -26 0 -43 -70 -43 -177 l0 -93 -45 0
-45 0 -24 65 c-12 36 -29 72 -36 79 -8 7 -15 31 -17 52 -3 35 -8 41 -45 59
-23 11 -42 23 -43 27 -1 18 175 22 287 8z m-340 -24 c-10 -25 -26 -128 -32
-211 -11 -132 -52 -160 -90 -62 -13 33 -29 56 -45 64 -33 16 -50 41 -50 73 0
41 -22 64 -53 56 -18 -4 -33 -21 -51 -59 -26 -53 -66 -218 -66 -269 0 -23 -4
-28 -25 -28 -25 0 -25 1 -25 88 0 48 3 117 6 153 l7 67 86 40 c109 50 134 60
218 82 87 23 127 25 120 6z m738 -92 c52 -23 186 -107 236 -147 12 -9 17 -34
20 -97 l4 -85 -27 -3 c-24 -3 -28 1 -42 50 -16 56 -67 161 -93 189 -18 21 -61
30 -70 15 -4 -6 -8 -60 -10 -121 -1 -60 -5 -115 -8 -122 -3 -9 -25 -13 -63
-13 -56 0 -62 2 -98 40 -22 22 -42 52 -45 67 -11 47 -10 133 3 219 l12 82 60
-23 c34 -13 88 -36 121 -51z m-1209 -72 c-3 -5 -6 -69 -7 -143 l-1 -134 -84
-79 c-194 -181 -287 -362 -330 -641 -37 -246 8 -481 146 -760 33 -66 86 -156
120 -200 49 -65 60 -87 60 -118 l0 -38 -28 19 c-100 72 -269 279 -338 413
-170 337 -188 740 -46 1085 86 211 238 405 425 546 77 56 94 67 83 50z m1610
-232 c170 -191 279 -434 313 -699 43 -328 -54 -680 -257 -945 -49 -64 -200
-216 -214 -216 -4 0 -8 14 -8 31 0 25 14 43 82 107 189 178 294 388 328 655
29 235 -8 436 -126 685 -53 113 -119 221 -181 298 -30 37 -33 47 -33 108 0 64
1 67 19 54 11 -8 45 -43 77 -78z m-406 -80 c0 -5 -7 -10 -15 -10 -8 0 -15 5
-15 10 0 6 7 10 15 10 8 0 15 -4 15 -10z m305 -32 c44 -52 130 -189 179 -286
45 -89 97 -230 87 -236 -4 -3 -61 4 -126 14 -66 10 -159 21 -208 25 -48 4 -89
11 -92 15 -3 4 10 86 29 181 18 96 37 206 41 244 4 39 9 73 12 78 11 18 45 3
78 -35z m-1439 15 c-10 -26 -8 -212 3 -271 11 -55 24 -86 48 -113 11 -14 12
-25 2 -63 -6 -25 -15 -46 -20 -46 -18 0 -251 -31 -347 -47 -56 -9 -104 -14
-107 -11 -17 16 82 243 142 325 93 127 216 243 260 243 19 0 24 -4 19 -17z
m504 -334 c0 -45 -25 -77 -70 -85 -45 -9 -72 -46 -78 -103 -4 -48 -3 -51 24
-62 39 -14 56 -2 74 53 20 61 36 78 75 78 29 0 33 -4 37 -31 9 -61 -9 -129
-47 -175 -38 -46 -69 -60 -107 -49 -34 11 -144 91 -152 111 -4 9 -1 43 5 74 9
44 8 67 -1 95 -11 33 -10 39 10 60 37 39 192 93 223 78 4 -2 7 -22 7 -44z
m532 -10 c26 -19 57 -42 71 -52 38 -28 80 -112 72 -146 -10 -45 -109 -149
-155 -161 -45 -12 -64 -6 -109 35 -39 35 -121 141 -121 155 0 14 61 50 85 50
11 0 43 -24 72 -52 61 -60 81 -59 97 5 12 45 1 59 -73 97 -31 15 -69 40 -85
55 -29 27 -29 28 -10 42 32 24 104 12 156 -28z m373 -204 c127 -15 248 -31
292 -40 30 -7 45 -83 45 -230 0 -132 -7 -172 -30 -179 -31 -8 -424 -57 -428
-52 -1 0 5 42 13 91 17 99 13 135 -36 372 -8 40 -6 53 8 53 3 0 65 -7 136 -15z
m-1375 1 c0 -2 -11 -86 -24 -187 -14 -101 -28 -216 -31 -255 l-7 -70 -76 8
c-42 4 -136 15 -208 24 l-132 16 -5 37 c-16 103 -18 183 -7 256 7 44 16 87 21
96 9 17 116 38 319 64 117 14 150 17 150 11z m665 -156 c10 -11 22 -45 27 -76
5 -31 16 -70 24 -86 43 -84 -87 -122 -167 -50 -35 31 -35 34 -4 97 14 28 25
55 25 61 0 15 55 74 67 74 6 0 18 -9 28 -20z m1020 -372 c-37 -175 -138 -353
-283 -495 l-83 -83 -257 1 -257 1 75 19 c163 41 275 127 304 230 8 30 24 109
37 176 l22 122 41 5 c261 32 381 48 385 52 14 14 22 0 16 -28z m-1930 -13 c88
-10 165 -18 171 -20 7 -2 11 -45 12 -127 0 -92 4 -134 17 -166 37 -92 169
-170 362 -216 59 -14 119 -27 133 -29 14 -1 -119 -6 -295 -10 l-320 -8 -23 28
c-105 126 -248 412 -269 537 -6 39 -6 39 23 33 16 -3 101 -13 189 -22z m1212
-7 c18 -15 16 -65 -4 -100 -10 -16 -40 -43 -68 -61 l-50 -32 -140 3 c-187 3
-396 20 -442 35 -43 14 -65 55 -46 85 12 19 72 21 374 11 225 -8 239 -6 278
48 29 39 33 42 58 32 15 -5 33 -15 40 -21z m-591 -625 c-15 -52 -45 -184 -51
-224 -11 -75 -12 -76 -107 -50 -84 22 -247 95 -325 144 -42 27 -43 28 -43 82
l0 55 183 2 c100 2 220 5 265 6 78 3 83 2 78 -15z m328 9 c11 -18 56 -206 62
-258 7 -52 6 -53 -22 -61 -44 -12 -361 -10 -374 3 -11 11 -6 46 31 203 31 130
19 121 169 121 71 0 131 -4 134 -8z m586 -46 l0 -54 -62 -40 c-83 -51 -230
-117 -320 -142 -40 -11 -76 -20 -80 -20 -5 0 -8 13 -8 29 0 16 -13 82 -30 146
-16 64 -30 121 -30 126 0 5 108 9 265 9 l265 0 0 -54z"/>
<path d="M2001 1956 c-18 -21 -9 -66 14 -82 43 -28 99 32 69 75 -18 24 -65 28
-83 7z"/>
</g>
</svg>
