<?xml version="1.0" standalone="no"?>
<!DOCTYPE svg PUBLIC "-//W3C//DTD SVG 20010904//EN"
 "http://www.w3.org/TR/2001/REC-SVG-20010904/DTD/svg10.dtd">
<svg version="1.0" xmlns="http://www.w3.org/2000/svg"
 width="1872.000000pt" height="544.000000pt" viewBox="0 0 1872.000000 544.000000"
 preserveAspectRatio="xMidYMid meet">

<g transform="translate(0.000000,544.000000) scale(0.100000,-0.100000)"
fill="#000000" stroke="none">
<path d="M7475 4903 c-3 -10 -1 -19 4 -21 6 -2 11 -11 11 -20 0 -28 -64 -176
-100 -231 -52 -83 -50 -150 7 -172 46 -17 103 40 118 119 6 30 3 39 -15 54
-14 11 -31 16 -45 12 l-22 -5 27 58 c44 92 62 154 55 190 -6 35 -29 44 -40 16z
m10 -293 c10 -16 -13 -85 -35 -105 -17 -15 -24 -16 -45 -7 -45 21 -26 74 40
110 25 14 32 15 40 2z"/>
<path d="M2463 4890 c-13 -5 -23 -16 -23 -25 0 -8 -5 -15 -11 -15 -5 0 -7 6
-3 13 4 6 -13 -6 -38 -28 -37 -33 -47 -48 -53 -85 -4 -25 -17 -79 -30 -120
-35 -115 -40 -150 -22 -150 10 0 18 13 23 35 7 37 24 48 24 16 0 -11 10 -27
22 -35 39 -27 67 -20 119 33 58 57 64 93 23 134 l-26 27 30 28 c54 51 61 146
12 172 -21 11 -18 11 -47 0z m51 -53 c8 -31 -23 -89 -61 -112 -18 -11 -32 -24
-33 -30 0 -5 16 -23 35 -38 20 -16 35 -37 35 -48 0 -23 -50 -74 -82 -85 -28
-8 -51 17 -50 55 1 37 -15 41 -24 6 -4 -14 -8 -24 -11 -21 -2 2 5 35 16 74 12
38 21 81 21 95 0 20 4 25 16 20 13 -5 15 -2 10 15 -6 17 3 29 44 61 53 42 74
44 84 8z"/>
<path d="M9840 4872 c-79 -39 -192 -154 -230 -233 -35 -75 -38 -124 -10 -179
27 -53 69 -74 150 -74 56 0 74 5 123 33 31 18 71 46 88 63 26 27 30 37 26 66
-5 25 -3 32 7 29 7 -3 19 -2 26 3 21 13 -28 33 -69 27 -119 -17 -131 -20 -131
-33 0 -8 6 -14 14 -14 8 0 16 -6 19 -14 4 -10 18 -12 51 -9 26 3 46 1 46 -4 0
-14 -37 -45 -100 -84 -115 -70 -240 -27 -240 83 0 48 50 144 109 210 45 50
128 106 181 123 26 8 32 -20 15 -62 -19 -44 -19 -63 -2 -63 36 0 59 130 27
150 -23 15 -41 12 -100 -18z"/>
<path d="M11829 4819 c-24 -29 -62 -73 -85 -98 -22 -25 -92 -107 -154 -181
-62 -74 -119 -136 -126 -138 -20 -5 -17 -22 4 -22 25 0 42 17 189 191 70 83
141 165 156 183 l28 31 -6 -35 c-3 -19 -15 -69 -27 -112 -23 -84 -29 -88 -120
-88 -27 0 -38 -4 -35 -12 2 -9 24 -13 60 -13 32 0 57 0 57 -1 0 -2 -37 -85
-48 -107 -2 -5 6 -7 18 -5 18 2 27 15 42 57 10 30 22 57 27 60 4 3 8 13 8 21
0 8 10 49 21 90 37 130 53 213 43 223 -5 5 -27 -13 -52 -44z"/>
<path d="M15358 4848 c-6 -13 -21 -41 -33 -63 -19 -36 -26 -41 -67 -45 -75 -9
-112 -58 -106 -140 2 -27 -2 -53 -9 -61 -26 -32 -82 -159 -77 -173 9 -24 21
-19 29 12 3 15 22 55 41 89 l34 61 40 -5 c52 -7 124 20 150 57 30 42 26 93 -8
122 l-28 23 33 58 c18 33 33 65 33 73 0 21 -18 17 -32 -8z m-114 -144 c17 -6
13 -13 -43 -84 l-21 -25 0 25 c0 22 33 90 44 90 2 0 11 -3 20 -6z m100 -57
c12 -32 -11 -62 -61 -83 -38 -16 -83 -18 -83 -4 0 5 21 37 46 69 39 51 49 58
68 52 11 -5 25 -20 30 -34z"/>
<path d="M2970 4839 c0 -5 10 -9 21 -9 16 0 19 -3 12 -12 -6 -7 -13 -32 -16
-56 -5 -40 -55 -220 -65 -232 -2 -3 -10 3 -17 14 -15 19 -35 14 -35 -9 0 -34
85 -48 156 -25 84 27 128 93 122 184 -4 69 -32 118 -77 135 -39 14 -101 21
-101 10z m117 -64 c34 -34 35 -37 31 -101 -4 -61 -7 -69 -40 -100 -32 -29
-101 -54 -114 -42 -2 3 9 53 26 110 16 58 30 116 30 130 0 49 20 50 67 3z"/>
<path d="M17437 4843 c-4 -3 -7 -14 -7 -24 0 -9 -4 -19 -8 -21 -4 -1 -24 -34
-44 -73 -20 -38 -46 -89 -59 -112 -19 -33 -21 -45 -12 -54 7 -7 14 -11 15 -8
2 2 32 60 67 129 36 69 68 128 73 131 5 3 6 13 2 22 -6 18 -16 21 -27 10z"/>
<path d="M2707 4834 c-11 -11 -8 -26 4 -18 6 3 28 -2 49 -11 111 -50 75 -220
-52 -251 -36 -8 -37 10 -3 110 14 41 25 84 25 95 0 23 -18 29 -24 9 -19 -69
-52 -165 -59 -173 -4 -6 -5 -2 -1 9 5 14 3 17 -7 14 -8 -3 -15 -11 -17 -19 -4
-21 28 -94 36 -83 4 5 23 9 43 10 55 1 107 39 135 98 28 59 30 95 9 136 -22
43 -118 94 -138 74z"/>
<path d="M4060 4833 c-25 -5 -64 -31 -108 -72 -15 -15 -20 -29 -16 -45 3 -14
-8 -56 -32 -112 -82 -198 -92 -234 -65 -234 4 0 13 17 19 38 18 59 80 196 91
200 20 7 82 -28 93 -52 9 -20 8 -38 -2 -80 -13 -53 -8 -80 12 -74 14 5 38 83
38 123 0 37 -7 49 -48 79 l-32 24 47 11 c64 17 123 75 123 123 0 19 -6 41 -12
50 -14 17 -69 28 -108 21z m64 -33 c31 -11 34 -44 10 -79 -22 -30 -89 -61
-136 -61 l-37 0 6 38 c5 40 58 97 97 105 11 2 24 5 28 6 4 0 18 -3 32 -9z"/>
<path d="M5894 4800 c-83 -63 -164 -190 -164 -257 0 -71 71 -133 153 -133 40
0 167 48 167 63 0 5 -8 7 -17 4 -71 -22 -132 -37 -156 -37 -59 0 -117 50 -117
100 0 84 149 270 216 270 l23 0 -34 -71 c-49 -102 -33 -129 36 -60 36 36 39
43 39 94 0 48 -3 55 -22 61 -47 12 -74 5 -124 -34z m116 -54 c0 -8 -9 -24 -20
-37 l-20 -24 17 38 c18 40 23 45 23 23z"/>
<path d="M12128 4835 c-3 -3 -3 -27 -1 -53 6 -59 -33 -183 -76 -246 -34 -49
-105 -106 -133 -106 -30 0 -21 43 16 79 30 29 40 33 70 28 26 -4 36 -2 36 8 0
16 -22 25 -60 25 -51 0 -118 -85 -108 -136 14 -73 131 -18 214 101 63 89 97
210 80 279 -6 24 -25 34 -38 21z"/>
<path d="M15514 4766 c-100 -99 -149 -207 -112 -244 20 -20 92 -15 122 9 37
29 33 73 -7 77 -16 2 -39 -4 -52 -12 -36 -24 -38 -20 -14 27 30 59 150 181
161 165 6 -10 12 -8 23 6 24 31 18 46 -16 46 -25 0 -45 -14 -105 -74z m-8
-211 c-11 -8 -29 -15 -40 -15 -19 0 -19 2 4 14 35 20 61 20 36 1z"/>
<path d="M16314 4811 c-61 -37 -95 -113 -57 -128 9 -3 33 -2 53 4 l37 10 -38
-85 c-38 -81 -49 -132 -30 -132 5 0 15 17 21 38 7 20 40 90 73 154 60 115 61
117 43 137 -24 26 -62 27 -102 2z m74 -32 c-3 -24 -91 -79 -104 -66 -4 4 10
25 31 47 44 45 78 53 73 19z"/>
<path d="M17270 4780 c-38 -45 -80 -66 -80 -40 0 19 -49 10 -78 -15 -56 -47
-76 -119 -48 -174 13 -25 12 -31 -14 -76 -15 -26 -35 -52 -44 -57 -21 -12 -20
-29 2 -25 29 4 40 15 69 67 26 47 30 50 60 44 23 -4 46 1 79 16 78 38 107 118
63 174 l-20 26 35 43 c35 43 45 67 27 67 -5 0 -28 -22 -51 -50z m-76 -84 c-3
-16 -89 -136 -98 -136 -14 0 -1 97 17 124 13 19 24 24 49 22 18 -1 32 -6 32
-10z m70 -38 c13 -38 -8 -81 -53 -106 -41 -23 -66 -28 -75 -13 -8 12 94 153
108 148 6 -2 15 -15 20 -29z"/>
<path d="M13110 4807 c0 -17 -51 -65 -112 -106 -46 -30 -63 -61 -35 -61 23 0
102 56 134 95 35 42 48 85 27 85 -8 0 -14 -6 -14 -13z"/>
<path d="M17668 4813 c-1 -5 -29 -25 -60 -45 -31 -20 -59 -46 -63 -57 -3 -11
-22 -30 -42 -42 -58 -36 -80 -112 -43 -149 28 -28 67 -25 137 10 71 36 97 68
90 114 -3 23 2 39 19 59 29 35 30 52 4 74 -11 10 -20 23 -20 30 0 14 -16 18
-22 6z m27 -63 c4 -6 -8 -25 -26 -43 -21 -20 -34 -27 -37 -19 -2 6 -18 12 -35
12 l-32 0 25 20 c21 17 65 36 92 39 4 1 10 -4 13 -9z m-42 -109 c15 -2 6 -28
-15 -49 -28 -26 -105 -61 -134 -62 -40 0 -41 53 -3 96 17 19 63 23 152 15z"/>
<path d="M16045 4769 c-19 -17 -35 -40 -35 -50 0 -27 7 -24 45 17 36 38 58 41
63 8 4 -28 -84 -117 -142 -144 -48 -23 -106 -80 -106 -105 0 -23 13 -18 79 30
l61 45 0 -39 c0 -23 8 -48 18 -61 15 -19 25 -22 54 -16 40 7 91 43 83 57 -4 5
-19 2 -36 -7 -51 -26 -72 -16 -82 39 l-8 48 56 61 c58 65 69 102 39 132 -23
24 -49 19 -89 -15z"/>
<path d="M16863 4787 c-37 -14 -73 -42 -73 -57 0 -16 18 -12 48 10 38 28 92
38 92 16 0 -9 -4 -16 -8 -16 -5 0 -14 -11 -20 -25 -17 -37 -92 -115 -111 -115
-30 0 -113 -59 -109 -78 5 -28 35 -25 88 7 l50 31 0 -33 c0 -38 24 -77 48 -77
25 0 92 48 92 65 0 19 -9 19 -30 0 -9 -8 -27 -16 -40 -17 -23 -3 -25 1 -30 45
-6 44 -3 50 37 100 93 112 76 184 -34 144z"/>
<path d="M10858 4715 c-15 -14 -30 -25 -33 -25 -7 0 -82 -58 -130 -101 -16
-14 -38 -29 -47 -32 -15 -5 -15 2 7 60 14 36 25 72 25 79 0 27 -25 14 -36 -18
-6 -18 -28 -84 -48 -146 -35 -103 -40 -152 -17 -138 5 3 14 28 21 55 9 37 15
48 26 44 10 -4 17 2 21 16 7 26 63 29 88 4 17 -16 17 -27 -1 -105 -9 -41 14
-35 32 7 21 52 18 92 -11 120 -13 14 -29 25 -34 25 -6 0 -8 7 -4 15 3 9 8 14
10 11 3 -3 39 23 81 56 42 33 82 62 89 65 17 7 17 33 0 33 -7 0 -24 -11 -39
-25z"/>
<path d="M10485 4670 c-10 -11 -16 -23 -12 -26 7 -7 57 25 57 37 0 16 -26 9
-45 -11z"/>
<path d="M3476 4661 c-16 -3 -31 -11 -33 -18 -3 -9 16 -11 71 -10 49 1 76 6
76 13 0 23 -50 29 -114 15z"/>
<path d="M8856 4651 c-16 -6 -20 -19 -22 -78 -1 -39 -6 -79 -12 -88 -12 -22
-4 -55 13 -55 7 0 15 7 19 15 3 8 12 15 19 15 8 0 38 13 67 29 30 16 57 28 61
25 12 -7 30 23 23 40 -3 9 -15 16 -25 16 -11 0 -42 20 -68 45 -26 25 -50 45
-52 44 -2 0 -13 -4 -23 -8z m11 -133 c-3 -7 -5 -2 -5 12 0 14 2 19 5 13 2 -7
2 -19 0 -25z"/>
<path d="M7655 4609 c-40 -35 -65 -77 -65 -109 0 -47 71 -76 121 -50 32 18 22
25 -33 25 -46 0 -53 3 -56 21 -3 18 1 20 28 16 22 -3 40 3 66 23 30 23 35 32
32 63 -3 32 -7 37 -30 40 -18 2 -37 -7 -63 -29z m65 -24 c0 -29 -39 -58 -72
-53 -22 3 -22 5 14 41 42 43 58 47 58 12z"/>
<path d="M4288 4604 c-31 -16 -36 -45 -13 -84 22 -38 18 -65 -10 -78 -21 -10
-25 -9 -25 3 0 21 -17 19 -30 -4 -14 -26 13 -54 44 -45 66 20 83 62 50 126
-16 30 -15 32 7 49 17 13 26 14 31 6 5 -9 10 -9 19 0 9 9 9 16 -1 28 -16 19
-37 19 -72 -1z"/>
<path d="M6243 4573 c-47 -58 -79 -89 -115 -108 -16 -9 -28 -20 -28 -25 0 -18
33 -10 67 16 18 14 33 20 33 15 0 -20 41 -11 76 15 l35 27 -7 -41 c-5 -34 -3
-43 10 -48 22 -9 47 13 28 25 -10 6 -10 18 -2 56 16 70 1 76 -56 27 -27 -23
-50 -39 -52 -37 -3 2 12 23 32 46 34 40 47 79 27 79 -5 0 -27 -21 -48 -47z"/>
<path d="M6772 4567 c-29 -30 -71 -64 -92 -78 -39 -24 -53 -49 -27 -49 7 0 32
14 55 31 27 19 40 25 36 15 -15 -38 43 -60 82 -31 25 19 31 19 37 -5 8 -33 22
-23 35 25 21 79 15 82 -54 30 -80 -61 -90 -44 -27 51 18 28 33 54 33 58 0 19
-32 0 -78 -47z"/>
<path d="M12484 4605 c-4 -9 -4 -18 -2 -21 9 -8 39 8 35 19 -6 18 -27 20 -33
2z"/>
<path d="M7938 4596 c-15 -8 -29 -11 -33 -8 -7 8 -36 -33 -59 -86 -28 -63 -7
-77 27 -19 40 67 83 100 124 94 27 -5 33 -2 33 12 0 22 -55 27 -92 7z"/>
<path d="M4674 4565 c-18 -20 -34 -41 -34 -46 0 -5 -7 -9 -15 -9 -22 0 -19 -9
12 -37 20 -19 33 -23 55 -19 15 3 42 9 58 12 17 4 30 10 30 15 0 12 -47 12
-54 0 -6 -10 -56 -2 -56 9 0 4 13 13 29 20 44 18 68 47 55 68 -19 29 -44 25
-80 -13z m50 -10 c-4 -9 -15 -20 -26 -26 -17 -9 -18 -8 -9 9 9 17 17 24 38 31
1 1 0 -6 -3 -14z"/>
<path d="M4527 4579 c-9 -6 -16 -13 -14 -17 2 -4 -7 -17 -20 -29 -13 -12 -23
-18 -23 -13 0 6 -4 10 -10 10 -5 0 -14 -19 -20 -42 -22 -83 -33 -114 -63 -175
-30 -60 -32 -83 -6 -68 6 4 27 41 46 81 25 56 38 74 54 74 25 0 115 83 127
118 19 56 -20 90 -71 61z m45 -45 c-5 -25 -37 -59 -79 -84 -40 -24 -42 -11 -6
46 38 59 93 84 85 38z"/>
<path d="M4902 4561 c-44 -32 -57 -59 -48 -97 9 -33 47 -40 104 -19 57 22 76
35 64 47 -5 5 -31 0 -62 -12 -88 -35 -109 -6 -38 54 23 20 48 36 55 36 7 0 13
5 13 10 0 20 -48 9 -88 -19z"/>
<path d="M6489 4570 c-75 -40 -113 -118 -72 -151 20 -17 98 -18 115 -1 10 10
4 12 -28 12 -40 0 -64 13 -64 37 0 16 81 94 92 87 16 -10 30 7 17 22 -14 17
-16 17 -60 -6z"/>
<path d="M10907 4537 c-54 -50 -59 -76 -22 -112 36 -37 67 -32 120 18 51 49
58 84 25 117 -32 32 -70 25 -123 -23z m103 -32 c0 -15 -12 -33 -33 -49 -41
-31 -49 -32 -72 -6 -16 18 -17 21 -1 45 9 13 29 27 44 31 15 3 32 7 37 9 17 4
25 -5 25 -30z"/>
<path d="M12185 4566 c-66 -17 -38 -31 43 -22 l57 6 -29 -25 c-17 -13 -41 -27
-55 -30 -107 -26 -87 -104 22 -87 60 9 57 27 -5 27 -25 0 -49 3 -52 6 -4 4 18
16 48 28 61 25 99 61 94 88 -4 23 -53 27 -123 9z"/>
<path d="M12998 4569 c-24 -14 -23 -26 7 -65 34 -44 33 -79 -3 -92 -38 -13
-76 2 -69 28 4 17 2 18 -14 9 -56 -29 17 -87 86 -68 56 16 71 69 35 124 -11
17 -20 34 -20 39 0 5 27 6 60 3 60 -5 70 -1 48 21 -15 15 -106 15 -130 1z"/>
<path d="M7010 4560 c0 -5 5 -10 10 -10 6 0 10 5 10 10 0 6 -4 10 -10 10 -5 0
-10 -4 -10 -10z"/>
<path d="M8590 4559 c0 -20 144 -37 199 -22 69 18 41 28 -79 29 -66 0 -120 -3
-120 -7z"/>
<path d="M12599 4553 c-32 -19 -59 -63 -59 -93 0 -58 112 -93 165 -52 23 18
23 18 -29 14 -63 -5 -96 9 -96 42 0 44 72 87 86 51 8 -21 24 -19 24 3 0 22
-30 52 -51 52 -8 0 -26 -8 -40 -17z"/>
<path d="M7130 4519 c-26 -19 -41 -25 -37 -16 3 9 -1 21 -8 27 -11 9 -22 8
-47 -8 -18 -11 -37 -20 -41 -19 -9 2 -57 -80 -57 -99 0 -22 8 -17 66 44 44 45
52 51 40 26 -9 -19 -11 -35 -6 -45 7 -11 19 -4 57 34 27 26 52 47 56 47 4 0 4
-18 1 -40 -5 -32 -3 -41 10 -46 23 -9 27 -2 17 32 -6 21 -4 33 5 42 18 16 18
52 1 52 -8 0 -33 -14 -57 -31z"/>
<path d="M10122 4525 c-55 -46 -67 -126 -22 -140 29 -9 81 24 105 68 18 33 18
38 4 52 -9 9 -23 13 -32 9 -21 -8 -22 -24 -2 -24 19 0 19 -10 -3 -36 -26 -33
-61 -48 -68 -30 -8 20 12 56 48 87 25 21 28 27 15 32 -10 4 -28 -4 -45 -18z"/>
<path d="M15640 4524 c0 -33 33 -30 38 4 3 17 -2 22 -17 22 -16 0 -21 -6 -21
-26z"/>
<path d="M7000 4524 c0 -8 5 -12 10 -9 6 3 10 10 10 16 0 5 -4 9 -10 9 -5 0
-10 -7 -10 -16z"/>
<path d="M10397 4472 c-13 -133 -90 -292 -143 -292 -14 0 -38 55 -30 69 4 5 2
12 -4 16 -14 9 -24 -44 -14 -73 48 -135 201 59 220 279 4 56 3 69 -9 69 -10 0
-16 -19 -20 -68z"/>
<path d="M16413 4514 c-24 -27 -27 -36 -16 -47 10 -11 62 44 56 59 -7 20 -15
17 -40 -12z"/>
<path d="M12409 4475 c-9 -25 -13 -48 -8 -51 9 -5 39 58 39 82 0 28 -16 13
-31 -31z"/>
<path d="M5280 4480 c-7 -4 -9 -13 -5 -19 10 -17 -20 -57 -65 -87 -41 -27 -53
-54 -24 -54 32 0 93 55 114 102 11 26 20 49 20 51 0 10 -27 15 -40 7z"/>
<path d="M2872 4334 c-29 -20 -28 -42 8 -121 17 -36 37 -88 44 -114 14 -46 13
-50 -11 -99 -14 -28 -34 -55 -45 -61 -30 -16 -66 -2 -84 34 -18 34 -23 122
-11 170 6 21 5 28 -5 25 -7 -3 -20 -31 -30 -64 -16 -54 -16 -64 -3 -111 28
-96 112 -134 167 -75 81 87 81 135 -5 333 -19 43 -9 59 38 59 21 0 40 -9 55
-25 13 -14 27 -25 32 -25 17 0 7 42 -17 65 -29 30 -97 34 -133 9z"/>
<path d="M3995 4338 c-36 -19 -76 -62 -96 -101 -35 -67 -118 -280 -119 -304 0
-2 4 -3 8 -3 5 0 17 18 28 40 19 39 20 40 71 40 28 0 55 5 58 10 4 6 -15 10
-48 10 l-55 0 44 108 c35 84 53 115 85 145 47 42 59 46 59 16 0 -11 5 -17 10
-14 16 10 12 52 -6 59 -19 7 -15 8 -39 -6z"/>
<path d="M9587 4300 c-16 -28 -26 -50 -23 -50 3 0 -3 -9 -14 -20 -12 -12 -18
-25 -15 -30 4 -6 1 -10 -6 -10 -17 0 -88 -67 -81 -76 4 -4 2 -4 -5 0 -9 5 -12
36 -11 101 2 94 -7 125 -31 110 -19 -11 -49 -78 -90 -203 -43 -130 -66 -181
-88 -198 -13 -9 -13 -12 1 -23 13 -11 20 -6 46 36 26 40 60 128 60 154 0 21
63 168 70 164 5 -3 6 -30 3 -59 -13 -128 21 -138 118 -37 l67 69 -36 -111
c-38 -115 -48 -207 -24 -214 8 -3 12 8 12 35 0 21 23 112 50 201 28 89 50 173
50 187 0 39 -23 28 -53 -26z"/>
<path d="M8371 4322 c-23 -43 -71 -188 -66 -200 2 -7 1 -11 -4 -8 -9 6 -63
-130 -75 -189 -7 -33 6 -61 23 -51 8 5 8 13 1 27 -6 10 -7 19 -2 19 4 0 14 24
21 53 8 28 18 57 23 64 5 7 7 17 3 23 -3 5 -2 10 3 10 6 0 18 26 27 58 9 31
28 90 42 130 24 69 27 106 4 64z"/>
<path d="M2349 4318 c-1 -7 -1 -17 0 -22 1 -4 -5 -30 -14 -57 -17 -51 -17
-100 0 -106 6 -1 11 11 12 28 1 18 12 58 23 91 11 33 18 63 15 69 -9 13 -35
11 -36 -3z"/>
<path d="M8880 4291 c-22 -32 -37 -111 -21 -111 11 0 54 117 49 132 -2 6 -15
-3 -28 -21z"/>
<path d="M5975 4298 c-2 -7 -20 -65 -39 -128 -20 -63 -45 -128 -56 -145 -23
-36 -31 -49 -53 -92 -17 -36 -7 -53 20 -32 8 7 30 12 48 10 34 -2 74 12 87 33
4 6 8 23 8 38 0 32 -29 45 -61 27 -20 -10 -21 -9 -14 7 28 68 85 245 85 267 0
20 -19 32 -25 15z m-27 -345 c-9 -8 -28 -13 -44 -11 l-29 3 40 22 c41 22 60
14 33 -14z"/>
<path d="M8803 4296 c3 -8 3 -16 -2 -18 -16 -7 -52 -91 -43 -100 6 -6 19 12
36 47 28 62 32 85 15 85 -6 0 -9 -6 -6 -14z"/>
<path d="M2399 4253 c-27 -62 -31 -156 -7 -161 12 -2 15 2 11 18 -6 24 16 138
28 146 13 7 11 44 -1 44 -6 0 -20 -21 -31 -47z"/>
<path d="M4763 4262 c-1 -15 -22 -70 -47 -123 -41 -85 -50 -97 -76 -103 -36
-7 -40 -26 -6 -26 l24 0 -21 -55 c-19 -53 -19 -74 1 -61 5 3 20 33 32 66 19
51 26 60 48 60 35 0 102 21 102 33 0 6 -13 7 -32 2 -36 -8 -68 -9 -75 -2 -2 3
14 42 37 88 40 83 52 149 28 149 -7 0 -14 -12 -15 -28z"/>
<path d="M11625 4276 c-54 -19 -102 -55 -118 -88 -9 -18 -13 -36 -10 -42 8
-12 63 56 56 69 -4 5 -3 7 2 3 4 -4 23 2 41 13 37 23 79 22 79 -1 1 -26 -92
-150 -113 -150 -5 0 -17 -8 -26 -19 -9 -10 -34 -21 -56 -25 -74 -12 -185 -125
-153 -157 12 -12 58 14 145 81 l27 21 -6 -37 c-5 -29 -2 -40 12 -50 24 -18 67
-18 110 0 35 15 51 45 18 31 -10 -3 -40 -9 -67 -12 l-48 -6 7 54 c7 50 12 58
77 118 38 36 66 71 64 78 -3 7 0 13 7 13 7 0 19 16 26 35 21 60 -13 93 -74 71z
m-186 -302 c-27 -29 -58 -48 -66 -41 -5 5 74 67 85 67 3 0 -5 -12 -19 -26z"/>
<path d="M12350 4235 c-33 -34 -35 -34 -92 -29 -48 4 -65 1 -93 -16 -79 -49
-114 -123 -90 -193 l14 -40 -75 -85 c-70 -80 -87 -113 -64 -127 6 -3 10 0 10
7 0 23 153 189 164 178 18 -18 94 -12 116 10 11 11 20 17 20 13 0 -11 51 40
81 81 33 45 37 90 12 126 -16 23 -16 24 25 61 47 41 51 49 24 49 -10 0 -33
-16 -52 -35z m-65 -65 c7 -11 -164 -192 -175 -185 -4 3 -10 17 -13 32 -12 63
65 162 116 149 12 -3 29 -1 37 4 19 12 27 12 35 0z m51 -47 c15 -59 -92 -173
-162 -173 -19 0 -34 3 -34 8 0 4 38 45 85 92 47 46 85 88 85 92 0 20 20 5 26
-19z"/>
<path d="M12627 4253 c-20 -65 -82 -223 -116 -296 -23 -48 -41 -94 -41 -102 0
-29 19 -15 38 28 11 23 33 71 50 107 41 90 92 231 92 258 0 26 -15 29 -23 5z"/>
<path d="M15625 4239 c-22 -11 -57 -36 -78 -57 -39 -38 -107 -161 -107 -193 0
-16 -8 -19 -57 -19 -32 0 -68 -3 -80 -6 -45 -12 -22 -24 47 -24 55 0 70 -3 70
-15 0 -22 -72 -183 -104 -234 -15 -24 -36 -46 -47 -48 -10 -3 -19 -9 -19 -13
0 -14 36 -18 52 -6 26 19 83 124 124 228 l38 96 57 4 c55 3 58 2 53 -18 -3
-12 -1 -25 5 -28 6 -4 20 15 34 46 26 57 76 108 108 108 10 0 19 4 19 9 0 15
-35 19 -63 7 -25 -11 -87 -80 -87 -97 0 -8 -109 -1 -119 7 -12 11 74 157 111
189 52 44 115 66 129 44 8 -12 10 -12 18 1 14 20 -5 40 -38 40 -14 -1 -44 -10
-66 -21z"/>
<path d="M11979 4224 c-22 -22 -30 -24 -47 -15 -43 23 -77 13 -132 -36 -63
-56 -80 -93 -80 -169 0 -55 -1 -57 -66 -127 -36 -40 -73 -86 -81 -104 -10 -19
-21 -29 -29 -26 -8 3 -14 1 -14 -5 0 -26 33 -20 58 10 118 142 145 169 161
162 68 -29 136 -9 197 59 37 41 44 56 44 91 0 22 -4 57 -10 76 -9 30 -7 37 15
60 44 46 29 69 -16 24z m-53 -45 c4 -6 -29 -46 -74 -93 -53 -52 -79 -85 -74
-93 5 -9 33 13 87 67 85 86 95 87 95 13 0 -51 -40 -103 -102 -133 -47 -23 -99
-12 -91 19 3 11 0 22 -6 25 -18 11 -13 78 9 113 38 64 136 115 156 82z"/>
<path d="M13512 4177 c-6 -7 -13 -28 -17 -48 l-7 -36 -79 -9 c-53 -6 -80 -6
-83 1 -4 12 -38 -5 -44 -23 -2 -8 25 -10 104 -7 l107 5 -6 -49 c-10 -84 31
-74 149 37 61 57 66 65 51 79 -8 9 -36 17 -64 18 -72 4 -73 4 -73 19 0 19 -26
28 -38 13z m37 -166 c-13 -11 -26 -17 -29 -14 -6 6 30 33 43 33 5 0 -1 -9 -14
-19z"/>
<path d="M10490 4160 c0 -5 5 -10 10 -10 6 0 10 5 10 10 0 6 -4 10 -10 10 -5
0 -10 -4 -10 -10z"/>
<path d="M4070 4142 c0 -4 5 -13 12 -20 16 -16 28 -15 28 2 0 8 -7 17 -16 20
-21 8 -24 8 -24 -2z"/>
<path d="M3757 4124 c-8 -8 1 -24 14 -24 5 0 9 7 9 15 0 15 -12 20 -23 9z"/>
<path d="M4915 4121 c-6 -11 9 -23 19 -14 9 9 7 23 -3 23 -6 0 -12 -4 -16 -9z"/>
<path d="M14112 4121 c-7 -4 -12 -12 -10 -17 4 -17 -25 -88 -53 -128 -29 -39
-37 -66 -20 -66 5 0 29 28 54 63 50 70 94 114 103 104 8 -7 -18 -49 -48 -79
-14 -14 -17 -23 -10 -30 8 -8 21 -2 45 19 37 32 125 79 133 70 3 -3 0 -15 -6
-27 -6 -11 -10 -31 -8 -43 3 -20 6 -19 26 13 12 19 22 47 22 63 0 22 -4 27
-24 27 -30 0 -57 -10 -52 -19 2 -3 -7 -6 -20 -6 -18 0 -24 5 -24 23 0 17 -6
22 -27 22 -14 0 -35 -8 -46 -17 -19 -18 -20 -17 -13 10 7 28 1 33 -22 18z"/>
<path d="M3115 4098 c-37 -28 -46 -40 -40 -55 2 -7 -2 -13 -9 -13 -16 0 -52
-72 -65 -130 -5 -22 -7 -40 -5 -40 3 0 -2 -13 -11 -30 -19 -36 -19 -70 -1 -70
13 0 86 148 86 174 0 8 9 12 24 9 47 -9 117 80 107 137 -3 17 -29 40 -45 40
-6 0 -24 -10 -41 -22z m54 -56 c-13 -34 -48 -72 -67 -72 -24 0 -7 71 24 98 34
30 58 15 43 -26z"/>
<path d="M8064 4112 c-11 -1 -41 -21 -65 -42 -24 -22 -45 -40 -46 -40 -2 0 -1
11 3 24 6 27 -6 39 -30 30 -11 -4 -14 -13 -11 -25 8 -23 -19 -114 -62 -212
-19 -43 -32 -86 -28 -95 9 -24 22 -4 65 99 l39 94 41 -3 c48 -4 118 26 139 60
44 70 23 122 -45 110z m35 -59 c-15 -41 -38 -62 -80 -74 -47 -15 -69 -7 -62
21 3 11 7 19 10 17 2 -3 19 11 37 29 26 26 42 34 70 34 35 0 35 -1 25 -27z"/>
<path d="M6950 4102 c-45 -16 -100 -81 -100 -118 0 -27 38 -62 77 -70 39 -8
133 22 133 42 0 12 -4 12 -20 4 -38 -21 -108 -23 -135 -6 -38 25 -33 46 9 39
57 -9 99 55 64 99 -7 9 -20 13 -28 10z m10 -45 c0 -19 -21 -37 -44 -37 -18 0
-18 1 4 25 26 28 40 32 40 12z"/>
<path d="M7183 4064 c5 -48 5 -50 -34 -77 -38 -27 -50 -47 -29 -47 6 0 10 3
10 8 0 11 64 45 67 35 2 -4 12 -23 24 -42 15 -24 23 -31 31 -23 7 7 8 16 2 24
-6 7 -15 25 -22 41 -11 26 -10 28 23 44 19 9 35 20 35 25 0 11 -7 10 -41 -7
-32 -17 -35 -14 -41 34 -2 14 -9 27 -17 29 -11 4 -13 -5 -8 -44z"/>
<path d="M14692 4078 c-10 -18 -31 -54 -46 -80 -15 -27 -30 -48 -33 -48 -3 0
-3 25 1 55 5 43 3 55 -8 55 -28 0 -38 -146 -9 -157 20 -8 50 27 93 108 16 31
37 62 45 69 8 7 12 16 9 21 -11 18 -33 8 -52 -23z"/>
<path d="M14788 4084 c-24 -17 -44 -43 -54 -70 -15 -41 -15 -45 0 -69 25 -38
59 -48 125 -35 81 16 92 20 85 31 -3 5 -9 7 -13 5 -17 -11 -122 -15 -144 -7
-43 16 -45 77 -3 83 12 2 21 10 21 21 0 21 29 41 48 34 7 -3 1 -9 -12 -14 -17
-7 -21 -12 -12 -17 17 -11 63 22 59 42 -5 28 -58 26 -100 -4z"/>
<path d="M3282 4083 c-20 -8 -42 -59 -42 -96 0 -72 69 -104 134 -62 37 25 22
36 -25 20 -49 -18 -79 -6 -79 30 0 19 5 25 21 25 33 0 59 19 59 43 0 38 -29
56 -68 40z m43 -43 c0 -9 -11 -16 -28 -18 -26 -3 -27 -2 -15 18 14 23 43 23
43 0z"/>
<path d="M7405 4065 c-45 -44 -26 -93 30 -79 19 5 23 2 23 -21 0 -15 7 -34 15
-43 15 -14 16 -12 15 32 0 35 6 56 22 78 12 16 20 30 18 31 -1 1 -13 8 -25 15
-35 19 -72 14 -98 -13z m85 -9 c0 -5 -65 -46 -74 -46 -13 0 -5 30 12 39 17 10
62 15 62 7z"/>
<path d="M8419 4067 c-39 -26 -59 -60 -59 -103 0 -41 18 -61 61 -67 76 -11
194 38 168 69 -15 18 -29 18 -29 0 0 -27 -126 -52 -159 -32 -21 13 -12 44 15
50 61 16 85 47 68 90 -8 22 -25 20 -65 -7z m51 -22 c0 -16 -60 -48 -70 -38 -5
5 50 53 63 53 4 0 7 -7 7 -15z"/>
<path d="M9744 4071 c-37 -22 -48 -37 -39 -51 9 -15 84 40 85 63 0 12 -13 8
-46 -12z"/>
<path d="M3513 4068 c-29 -14 -56 -73 -49 -104 8 -32 46 -49 82 -37 15 5 30
15 32 21 3 9 -3 10 -22 3 -19 -8 -30 -6 -47 8 -29 23 -18 59 22 73 19 6 29 16
27 26 -4 20 -18 23 -45 10z"/>
<path d="M4200 4069 c-41 -17 -60 -40 -60 -76 0 -45 33 -61 90 -44 55 16 51
33 -7 29 -38 -2 -48 0 -51 13 -4 22 23 47 56 55 46 10 53 14 47 24 -8 12 -42
12 -75 -1z"/>
<path d="M4413 4066 c-34 -15 -53 -42 -53 -76 0 -27 24 -35 66 -22 24 7 36 7
41 0 3 -7 1 -8 -5 -4 -16 10 -15 -17 0 -32 20 -20 23 -14 25 38 0 28 -3 50 -8
50 -4 0 -24 -8 -44 -17 -19 -9 -38 -14 -41 -10 -12 11 26 45 58 52 16 4 27 12
25 18 -5 18 -28 18 -64 3z"/>
<path d="M7610 4064 c0 -9 -14 -41 -31 -71 -23 -39 -28 -58 -21 -65 8 -8 16
-6 29 8 10 11 33 33 51 49 31 28 34 29 46 12 13 -16 15 -16 40 4 35 28 56 19
56 -25 0 -21 6 -36 15 -40 23 -9 20 66 -4 95 -19 24 -20 24 -50 6 -27 -16 -31
-16 -31 -3 0 25 -19 19 -66 -20 -50 -40 -52 -39 -24 15 18 36 18 51 -2 51 -4
0 -8 -7 -8 -16z"/>
<path d="M9960 4069 c0 -9 -18 -44 -40 -78 -22 -34 -40 -66 -40 -71 0 -25 33
-5 76 45 26 30 54 55 61 55 17 0 17 0 -7 -60 -22 -56 -25 -80 -10 -80 10 0 42
68 53 112 6 21 2 33 -15 50 l-22 22 -39 -45 -40 -44 22 44 c16 31 20 46 12 54
-8 8 -11 7 -11 -4z"/>
<path d="M10728 4065 c-81 -44 -93 -193 -12 -156 14 6 28 11 31 11 6 0 -5
-112 -13 -133 -2 -7 -22 -12 -45 -13 -22 -1 -50 -7 -62 -13 -32 -17 -77 -95
-84 -146 -22 -161 101 -120 178 60 20 47 27 55 44 49 36 -12 95 -16 95 -8 0 5
-21 16 -48 25 -54 17 -52 10 -34 149 24 182 24 190 -1 190 -12 -1 -34 -7 -49
-15z m35 -52 c-6 -43 -25 -69 -54 -76 -31 -8 -24 37 12 78 40 45 49 44 42 -2z
m-50 -270 c8 -12 -55 -133 -84 -164 -15 -16 -35 -29 -44 -29 -16 0 -17 7 -12
58 4 31 12 69 19 83 17 37 107 75 121 52z"/>
<path d="M5015 4050 c-65 -28 -97 -79 -75 -120 14 -26 55 -26 97 0 42 25 55
52 47 94 -8 43 -19 48 -69 26z m40 -41 c8 -25 -16 -55 -52 -64 -54 -13 -51 39
5 69 36 20 40 20 47 -5z"/>
<path d="M5154 4033 c-9 -21 -25 -48 -36 -60 -13 -13 -18 -29 -14 -39 5 -14
12 -11 41 19 18 19 47 44 63 56 l29 20 -5 -47 c-6 -64 9 -77 72 -61 26 6 51
20 56 29 9 17 7 17 -43 4 -28 -7 -54 -14 -55 -14 -2 0 -2 26 0 58 3 52 1 57
-17 56 -11 -1 -28 -5 -37 -9 -13 -5 -18 -3 -18 9 0 29 -21 17 -36 -21z"/>
<path d="M14434 4051 c-37 -23 -74 -72 -74 -98 0 -45 53 -57 107 -23 46 28 58
55 39 85 -9 14 -16 31 -16 40 0 20 -18 19 -56 -4z m50 -57 c6 -16 -48 -54 -76
-54 -23 0 -23 15 2 50 15 21 26 26 44 23 14 -3 27 -11 30 -19z"/>
<path d="M16044 4060 c-12 -5 -25 -13 -28 -19 -4 -6 -13 -8 -21 -5 -10 4 -21
-7 -34 -38 -10 -24 -26 -49 -35 -57 -9 -7 -16 -20 -16 -27 0 -28 30 -13 58 29
17 23 42 53 57 67 l28 25 -7 -34 c-6 -32 6 -61 24 -61 5 0 31 18 59 40 l51 40
0 -39 c0 -50 24 -67 67 -49 l28 12 -34 4 -33 3 6 60 c9 74 -2 76 -75 14 -29
-25 -56 -45 -60 -45 -4 0 -3 16 2 35 14 51 5 62 -37 45z"/>
<path d="M10159 4013 c-29 -27 -50 -40 -46 -30 16 42 19 67 8 67 -6 0 -11 -6
-11 -12 0 -7 -11 -39 -24 -70 -13 -32 -21 -60 -18 -63 3 -3 39 27 79 67 79 79
88 76 57 -16 -12 -33 -13 -51 -6 -58 14 -14 43 52 49 115 5 42 3 47 -15 47
-11 0 -44 -21 -73 -47z"/>
<path d="M10575 4048 c-11 -6 -34 -25 -52 -42 -18 -17 -38 -31 -45 -31 -7 0
-14 -10 -16 -22 -5 -35 13 -28 60 23 43 46 76 70 85 60 3 -2 -7 -30 -21 -62
-27 -59 -33 -94 -16 -94 6 0 13 8 17 18 3 9 17 42 30 71 18 39 23 59 16 70
-13 21 -33 24 -58 9z"/>
<path d="M15806 4028 c-47 -39 -71 -90 -56 -118 15 -29 65 -26 96 5 22 22 25
32 22 82 -2 31 -8 58 -13 60 -6 2 -28 -11 -49 -29z m34 -47 c0 -34 -25 -64
-49 -59 -21 5 -15 36 12 66 28 30 37 28 37 -7z"/>
<path d="M9766 4015 c-46 -32 -50 -33 -62 -17 -12 15 -15 15 -24 2 -14 -21
-12 -36 5 -50 12 -10 22 -8 55 14 22 14 40 25 40 24 0 -2 -4 -18 -9 -36 -11
-37 -5 -62 14 -62 9 0 13 11 13 29 -1 16 9 49 21 73 11 24 21 47 21 51 0 16
-28 5 -74 -28z"/>
<path d="M10377 4021 c-19 -32 -27 -84 -13 -89 9 -3 46 81 46 106 0 21 -15 13
-33 -17z"/>
<path d="M6105 4008 c4 -18 11 -39 15 -47 5 -10 -14 -42 -60 -100 -91 -117
-103 -136 -95 -161 9 -28 21 -25 28 8 4 15 51 85 107 156 55 71 100 132 100
136 0 5 3 15 6 24 11 28 -14 17 -33 -14 -9 -16 -20 -30 -24 -30 -4 0 -10 14
-14 30 -4 17 -13 30 -22 30 -11 0 -13 -7 -8 -32z"/>
<path d="M3670 3994 c-12 -32 -13 -51 -1 -58 5 -3 14 6 19 22 5 15 13 35 17
45 5 12 2 17 -9 17 -9 0 -21 -12 -26 -26z"/>
<path d="M4000 3991 c0 -11 5 -23 10 -26 6 -4 10 5 10 19 0 14 -4 26 -10 26
-5 0 -10 -9 -10 -19z"/>
<path d="M4839 3973 c-5 -16 -12 -34 -14 -40 -2 -7 0 -13 5 -13 5 0 17 16 25
36 18 43 18 44 5 44 -6 0 -15 -12 -21 -27z"/>
<path d="M2599 3900 c-3 -21 1 -10 -82 -202 -23 -54 -46 -98 -52 -98 -5 0 -11
-24 -13 -53 -1 -28 -3 -61 -5 -72 -5 -41 18 -25 30 21 7 27 16 55 19 64 4 8 9
24 11 35 2 11 26 69 54 129 52 111 72 186 50 186 -6 0 -12 -4 -12 -10z"/>
<path d="M4826 3838 c-3 -18 -24 -64 -46 -103 -22 -38 -53 -96 -68 -128 -25
-54 -29 -58 -54 -53 -32 6 -39 -13 -8 -21 24 -6 24 -1 0 -74 -23 -68 -19 -96
13 -104 26 -7 97 20 97 36 0 7 -7 8 -17 4 -36 -13 -71 -17 -77 -7 -3 5 4 36
15 69 l20 61 50 6 c56 8 67 26 14 24 -19 -1 -38 2 -41 5 -4 3 11 37 32 74 63
112 82 156 89 201 8 50 -10 59 -19 10z"/>
<path d="M6346 3723 c-27 -82 -64 -178 -82 -215 -19 -37 -34 -72 -34 -78 0
-20 29 -9 72 26 l43 37 5 -29 c7 -41 23 -36 32 10 12 56 -3 67 -52 38 l-39
-22 16 37 c25 59 113 316 113 330 0 7 -6 13 -13 13 -7 0 -33 -62 -61 -147z"/>
<path d="M5799 3838 c-3 -50 -83 -310 -102 -330 -40 -44 -62 -138 -31 -138 8
0 14 5 14 10 0 6 15 10 34 10 51 0 85 16 128 60 43 44 48 67 16 79 -28 10 -68
-1 -108 -29 l-30 -21 19 43 c26 63 80 248 83 287 2 20 -2 36 -9 38 -7 3 -13
-1 -14 -9z m25 -370 c-25 -27 -67 -48 -96 -48 -22 0 -21 2 12 33 58 55 131 68
84 15z"/>
<path d="M3821 3773 c-13 -47 -14 -80 -2 -87 9 -6 31 67 31 103 0 34 -18 24
-29 -16z"/>
<path d="M2231 3778 c-4 -13 -18 -49 -30 -81 -23 -63 -27 -102 -11 -112 6 -4
10 6 10 24 0 16 14 65 30 108 34 89 33 83 20 83 -6 0 -14 -10 -19 -22z"/>
<path d="M3221 3724 c-45 -67 -53 -85 -50 -110 0 -3 -8 -13 -18 -22 -13 -12
-19 -35 -21 -77 -4 -75 10 -97 63 -99 32 -1 40 3 43 19 3 16 1 18 -9 8 -38
-38 -75 4 -64 73 l6 44 69 0 c39 0 72 5 76 11 4 7 -7 10 -32 9 -22 -1 -53 1
-71 5 -28 6 -31 10 -22 26 5 11 7 23 4 28 -3 5 -1 11 3 13 16 6 92 115 92 131
0 32 -18 17 -69 -59z"/>
<path d="M3880 3750 c-21 -42 -26 -95 -10 -105 6 -4 10 9 10 32 0 21 9 53 20
71 23 37 24 42 10 42 -5 0 -19 -18 -30 -40z"/>
<path d="M2110 3738 c-24 -54 -26 -98 -4 -98 9 0 14 6 11 13 -2 6 6 35 19 64
12 28 20 54 16 57 -13 13 -24 4 -42 -36z"/>
<path d="M7080 3611 c0 -5 5 -13 10 -16 6 -3 10 -2 10 4 0 5 -4 13 -10 16 -5
3 -10 2 -10 -4z"/>
<path d="M2958 3596 c-29 -14 -36 -67 -13 -102 9 -14 13 -29 10 -34 -11 -17
-42 -11 -57 12 l-15 22 -5 -22 c-13 -48 57 -70 103 -33 l22 18 -21 35 c-32 51
-29 77 8 85 17 3 30 9 30 13 0 14 -38 18 -62 6z"/>
<path d="M2709 3551 c-49 -49 -54 -98 -12 -130 25 -21 53 -22 116 -4 34 9 7
20 -33 13 -47 -9 -80 9 -80 45 0 18 4 22 19 18 27 -7 81 24 81 46 0 62 -37 67
-91 12z m51 -26 c-7 -8 -22 -15 -34 -15 -19 1 -19 3 9 27 29 26 49 17 25 -12z"/>
<path d="M2520 3567 c0 -11 14 -14 63 -11 76 3 77 3 52 13 -11 4 -41 9 -67 10
-36 1 -48 -2 -48 -12z"/>
<path d="M3485 3573 c-35 -9 -37 -20 -11 -46 27 -27 34 -70 16 -97 -9 -13 -12
-12 -25 4 -8 11 -15 27 -15 35 0 13 -3 13 -17 -2 -16 -16 -16 -18 3 -44 28
-38 58 -41 79 -9 17 26 17 81 1 118 -6 12 -2 17 16 20 13 2 22 8 21 13 -3 11
-38 16 -68 8z"/>
<path d="M5994 3562 c-29 -23 -56 -79 -50 -100 11 -35 63 -55 122 -47 63 8 86
28 28 25 -63 -4 -80 -1 -105 19 l-24 19 28 -5 c55 -11 104 72 58 97 -26 13
-32 13 -57 -8z m31 -52 c-18 -20 -45 -27 -45 -12 0 5 10 18 21 31 15 16 24 20
32 12 7 -7 5 -17 -8 -31z"/>
<path d="M7422 3553 c-41 -17 -63 -37 -91 -83 -21 -36 -28 -80 -12 -80 5 0 21
25 36 55 31 65 83 99 124 84 29 -11 38 -5 22 15 -18 21 -43 24 -79 9z"/>
<path d="M6536 3500 c-37 -41 -39 -65 -5 -75 10 -3 27 -1 38 4 29 16 41 13 41
-7 0 -10 5 -23 12 -30 9 -9 9 -12 -1 -12 -11 0 -11 -3 -1 -15 22 -27 29 -16
23 38 -7 67 -14 74 -63 60 -46 -12 -50 -6 -16 26 22 21 25 21 40 5 24 -23 32
-10 12 21 -23 34 -38 32 -80 -15z"/>
<path d="M4890 3508 c-39 -60 -34 -88 16 -88 40 0 77 31 67 57 -18 53 -59 67
-83 31z m51 -51 c-5 -5 -18 -7 -30 -5 -21 3 -21 4 -5 27 16 23 18 23 31 5 7
-10 9 -22 4 -27z"/>
<path d="M6837 3484 c-17 -26 -37 -54 -44 -62 -9 -14 -12 -6 -18 41 -4 31 -11
57 -16 57 -13 0 -11 -42 3 -95 16 -59 31 -56 80 15 21 30 45 60 53 66 8 6 12
14 8 17 -15 16 -36 4 -66 -39z"/>
<path d="M7175 3500 c-3 -6 1 -13 9 -16 10 -4 16 -19 16 -40 0 -29 -5 -37 -34
-51 -43 -20 -70 -12 -61 19 10 33 35 57 51 51 16 -6 19 12 4 22 -17 11 -51
-16 -66 -50 -23 -55 -2 -80 56 -68 40 7 90 67 82 96 -10 42 -42 62 -57 37z"/>
<path d="M6972 3453 c-11 -26 -18 -52 -15 -57 4 -5 17 14 30 44 26 60 26 60
14 60 -5 0 -18 -21 -29 -47z"/>
<path d="M2465 3439 c-11 -16 14 -38 57 -50 43 -11 76 -6 43 7 -11 4 -37 18
-57 31 -23 14 -39 19 -43 12z"/>
<path d="M12623 3302 c-72 -148 -71 -146 -118 -133 -21 5 -42 8 -47 5 -14 -9
12 -34 37 -34 32 0 35 -8 19 -52 -21 -61 -18 -115 7 -128 24 -13 38 -5 21 12
-17 17 -15 65 4 115 16 40 19 43 55 43 20 0 44 3 53 6 23 9 20 27 -3 19 -11
-3 -30 -3 -44 0 l-25 7 40 71 c42 78 78 154 78 168 0 5 -6 9 -12 9 -7 0 -36
-49 -65 -108z"/>
<path d="M15222 3383 c-5 -10 -12 -34 -15 -53 -3 -19 -23 -74 -45 -122 l-40
-87 -53 -3 c-69 -4 -81 -28 -14 -28 l47 0 -27 -47 c-15 -27 -38 -67 -51 -90
-24 -43 -19 -66 8 -35 20 23 98 153 98 164 0 5 11 6 25 2 15 -4 25 -2 25 5 0
6 3 10 8 10 18 -3 33 2 28 9 -3 5 -19 7 -35 4 l-31 -4 44 98 c44 100 67 194
47 194 -6 0 -14 -8 -19 -17z"/>
<path d="M15778 3363 c-37 -9 -16 -18 45 -19 84 -2 170 -28 210 -63 65 -59 30
-161 -80 -235 -54 -36 -138 -76 -159 -76 -2 0 -3 10 -1 21 4 35 -18 32 -31 -5
-14 -37 -37 -46 -118 -46 -34 0 -42 3 -38 15 7 18 -7 20 -24 3 -19 -19 -14
-32 15 -45 81 -38 292 25 396 118 69 61 99 116 100 180 1 77 -33 112 -142 145
-44 13 -136 17 -173 7z"/>
<path d="M11454 3318 c-40 -43 -176 -213 -248 -310 -31 -43 -61 -78 -66 -78
-16 0 -12 -17 5 -24 11 -4 30 14 63 56 78 103 85 108 142 108 27 0 50 -4 50
-8 0 -4 -13 -46 -29 -92 -29 -81 -31 -121 -5 -86 22 30 102 271 120 360 20
103 12 121 -32 74z m0 -80 c-4 -24 -15 -65 -24 -93 -15 -43 -21 -50 -50 -56
-22 -5 -38 -3 -46 6 -11 11 -2 28 54 99 37 47 68 85 70 86 1 0 -1 -19 -4 -42z"/>
<path d="M14515 3330 c-307 -20 -355 -25 -355 -40 0 -14 20 -16 104 -8 111 10
394 29 433 28 17 0 35 5 39 11 5 9 1 10 -14 7 -12 -4 -25 -2 -28 3 -6 10 -11
10 -179 -1z"/>
<path d="M5297 3313 c-3 -5 -23 -70 -46 -146 -52 -173 -76 -226 -121 -261
l-35 -28 -3 27 c-4 29 29 92 59 113 23 16 25 32 3 32 -21 0 -76 -60 -70 -76 3
-7 -2 -15 -10 -18 -18 -7 -19 -80 0 -95 28 -23 87 20 135 100 31 53 62 149 55
172 -4 11 -2 17 3 14 6 -4 19 26 30 66 11 40 23 80 28 90 5 12 3 17 -8 17 -9
0 -18 -3 -20 -7z"/>
<path d="M7100 3287 c0 -40 -34 -154 -53 -179 -7 -9 -28 -20 -47 -25 -45 -12
-54 -37 -11 -31 26 4 31 2 25 -11 -18 -45 -22 -70 -11 -75 7 -2 2 -5 -10 -5
-13 -1 -23 -5 -23 -11 0 -5 9 -6 23 -1 14 5 28 25 41 60 l19 51 48 0 c59 0 65
15 10 24 l-40 6 24 53 c33 71 42 148 21 166 -14 12 -16 9 -16 -22z"/>
<path d="M15851 3190 c-44 -93 -60 -137 -55 -152 6 -21 7 -21 20 3 7 13 11 32
7 43 -3 10 -1 16 4 13 9 -5 113 192 113 213 0 6 -6 10 -13 10 -8 0 -42 -58
-76 -130z"/>
<path d="M4731 3205 c-38 -73 -60 -105 -74 -107 -24 -4 -35 -28 -13 -28 12 0
10 -12 -11 -69 -31 -84 -26 -114 18 -130 24 -8 43 -8 73 1 52 14 68 28 34 28
-15 0 -28 -5 -30 -12 -3 -7 -9 -8 -19 -3 -14 9 -18 10 -50 13 -18 2 -31 35
-19 49 4 4 17 34 30 66 l22 57 44 0 c23 0 46 5 49 10 3 6 15 10 26 10 10 0 19
4 19 9 0 5 -27 7 -61 4 l-61 -6 52 96 c46 86 54 117 32 117 -4 0 -31 -47 -61
-105z"/>
<path d="M4346 3288 c-2 -7 -7 -35 -9 -63 -5 -47 -46 -167 -88 -261 -19 -41
-25 -94 -11 -94 4 0 33 68 66 151 59 152 81 258 57 273 -6 4 -13 1 -15 -6z"/>
<path d="M2523 3279 c-18 -3 -39 -12 -47 -18 -8 -7 -25 -9 -39 -6 -21 6 -25 2
-31 -22 -4 -15 -18 -50 -31 -78 -34 -73 -67 -197 -55 -209 14 -14 18 -6 35 58
8 31 26 78 39 104 13 26 27 62 31 80 4 18 13 32 21 32 8 0 27 6 42 14 15 8 38
16 52 17 46 7 35 -27 -29 -92 -34 -33 -61 -64 -61 -68 0 -4 15 -13 34 -19 47
-17 86 -50 86 -72 0 -31 -47 -77 -90 -88 -34 -8 -44 -7 -66 10 -19 16 -24 27
-20 44 8 30 -8 31 -20 2 -24 -57 17 -102 89 -100 36 1 48 8 90 51 56 59 62 94
20 133 -16 14 -38 31 -51 38 l-23 11 45 49 c83 88 73 149 -21 129z"/>
<path d="M14408 3157 c-50 -105 -108 -247 -108 -262 0 -3 6 -5 13 -5 8 0 30
41 50 93 21 51 60 137 87 191 28 54 50 100 50 102 0 2 -8 4 -17 4 -13 -1 -35
-36 -75 -123z"/>
<path d="M3133 3236 c-18 -8 -33 -22 -33 -31 0 -16 16 -21 22 -6 2 6 26 13 54
17 45 5 55 3 73 -15 19 -19 21 -29 16 -69 -17 -124 -123 -252 -210 -252 l-25
0 26 53 c36 69 73 181 69 204 -2 10 -4 24 -4 31 -1 6 -6 12 -12 12 -6 0 -9
-10 -8 -22 1 -13 -1 -30 -4 -38 -3 -8 -15 -45 -28 -82 -12 -38 -28 -68 -35
-68 -19 0 -54 -54 -54 -83 0 -41 23 -52 81 -39 130 30 228 158 233 302 1 38
-4 54 -20 71 -28 27 -97 34 -141 15z"/>
<path d="M9572 3218 c-11 -18 -30 -58 -42 -88 -52 -132 -62 -155 -86 -201 -43
-86 -11 -94 63 -16 28 28 60 61 72 71 l21 19 -20 -47 c-22 -49 -23 -87 -2 -94
7 -2 12 7 12 25 0 15 9 48 21 72 19 44 19 71 0 71 -5 0 -37 -25 -70 -56 -64
-59 -73 -58 -42 4 10 20 35 80 56 132 21 52 45 100 53 106 15 11 9 34 -8 34
-5 0 -17 -15 -28 -32z"/>
<path d="M2792 3229 c-29 -9 -33 -13 -28 -34 4 -17 -9 -64 -39 -143 -48 -126
-57 -168 -31 -142 19 19 106 241 106 269 0 25 35 36 87 28 43 -7 53 -20 53
-70 0 -92 -131 -241 -165 -187 -10 16 -25 11 -25 -8 0 -26 20 -42 54 -42 64 0
166 148 166 241 0 67 -21 89 -90 94 -30 2 -70 0 -88 -6z"/>
<path d="M16400 3160 c0 -11 5 -20 10 -20 6 0 10 9 10 20 0 11 -4 20 -10 20
-5 0 -10 -9 -10 -20z"/>
<path d="M3889 3137 c-56 -42 -80 -85 -82 -144 -2 -37 2 -48 13 -48 11 0 15
11 16 40 1 54 27 100 74 131 30 20 47 25 70 21 32 -7 38 1 18 21 -21 21 -65
13 -109 -21z"/>
<path d="M16168 3131 c-43 -27 -98 -100 -98 -129 0 -24 28 -11 40 18 18 44 96
113 120 105 22 -7 38 14 19 26 -22 14 -32 11 -81 -20z"/>
<path d="M7310 3140 c0 -5 5 -10 10 -10 6 0 10 5 10 10 0 6 -4 10 -10 10 -5 0
-10 -4 -10 -10z"/>
<path d="M8795 3124 c-12 -12 -15 -27 -10 -54 16 -93 8 -118 -48 -146 -40 -21
-57 -12 -53 29 2 19 6 39 10 46 5 7 5 15 2 18 -8 8 -37 -17 -34 -31 1 -6 -1
-21 -6 -33 -4 -12 -2 -31 4 -43 23 -43 86 -32 139 24 23 25 26 43 18 146 -2
30 32 40 56 16 21 -21 27 -20 27 4 0 38 -74 55 -105 24z"/>
<path d="M12218 3098 c-22 -24 -59 -81 -82 -128 -76 -151 -111 -283 -56 -210
21 28 104 227 103 250 -1 24 43 76 76 90 72 30 83 -49 15 -112 -42 -39 -71
-50 -60 -23 7 19 -1 19 -20 1 -20 -21 -7 -46 25 -46 18 0 40 13 68 43 71 73
82 121 37 156 -39 31 -61 26 -106 -21z"/>
<path d="M13399 3110 c-49 -26 -62 -45 -61 -87 3 -68 62 -120 118 -104 54 16
144 65 144 79 0 16 -20 11 -102 -28 -63 -30 -90 -29 -113 3 -17 24 -20 51 -5
42 14 -9 86 13 105 31 20 21 19 40 -5 64 -24 24 -35 24 -81 0z m59 -45 c-7 -7
-32 -17 -55 -23 -41 -9 -42 -9 -32 10 15 27 70 50 87 36 11 -9 11 -13 0 -23z"/>
<path d="M14828 3113 c-25 -6 -22 -32 7 -75 32 -47 32 -54 -6 -67 -42 -14 -49
-14 -49 4 0 22 -18 18 -25 -6 -16 -50 66 -63 114 -18 26 25 26 46 1 84 -27 40
-26 43 15 51 20 3 34 11 32 18 -4 12 -60 18 -89 9z"/>
<path d="M4048 3101 c-23 -8 -55 -52 -63 -84 -11 -42 2 -73 34 -87 33 -13 111
-5 111 12 0 6 -14 8 -36 4 -25 -5 -43 -2 -60 9 -29 19 -33 55 -5 55 10 0 32 5
50 11 26 9 32 16 29 37 -4 29 -36 53 -60 43z m32 -45 c0 -15 -21 -26 -47 -26
-14 0 -14 3 2 20 21 23 45 26 45 6z"/>
<path d="M7930 3092 c-49 -24 -51 -58 -9 -117 25 -34 30 -48 21 -57 -15 -15
-67 6 -56 23 4 7 1 10 -7 7 -8 -3 -15 -14 -17 -25 -2 -15 5 -23 29 -32 79 -27
111 22 60 94 -17 24 -31 50 -31 58 0 8 18 22 40 32 22 10 40 22 40 27 0 13
-33 9 -70 -10z"/>
<path d="M10422 3099 c-46 -14 -49 -32 -13 -91 40 -63 38 -83 -9 -83 -26 0
-35 4 -34 16 2 25 -26 18 -32 -8 -13 -49 61 -70 110 -32 33 26 33 59 1 107
-14 20 -25 42 -25 48 0 13 32 24 72 24 33 0 58 9 58 21 0 12 -85 10 -128 -2z"/>
<path d="M13797 3104 c-4 -4 -7 -11 -7 -15 0 -12 160 -6 163 6 2 11 -145 20
-156 9z"/>
<path d="M16526 3103 c-3 -4 -6 -13 -6 -21 0 -8 -14 -43 -31 -78 -35 -75 -54
-76 -46 -3 5 37 3 49 -7 49 -17 0 -26 -22 -26 -60 0 -45 17 -80 39 -80 22 0
76 76 86 121 6 27 10 30 35 24 37 -8 106 11 114 31 4 11 1 14 -12 10 -57 -17
-93 -17 -116 -3 -13 9 -26 13 -30 10z"/>
<path d="M6057 3082 c-9 -10 -26 -39 -37 -64 -14 -32 -25 -45 -35 -42 -10 4
-16 -3 -20 -23 -25 -108 -39 -157 -67 -221 -22 -49 -28 -76 -22 -82 20 -20
121 179 112 220 -2 10 10 16 39 20 50 7 75 28 103 84 22 47 26 96 8 114 -18
18 -63 15 -81 -6z m60 -48 c-3 -20 -13 -47 -22 -61 -17 -25 -61 -50 -71 -40
-4 3 7 35 24 72 24 51 36 65 53 65 19 0 21 -4 16 -36z"/>
<path d="M12902 3087 c-15 -19 -52 -100 -52 -114 0 -24 18 -14 47 26 34 47 80
78 95 63 7 -7 7 -27 -2 -62 -19 -81 7 -81 30 0 12 42 12 61 1 78 -11 17 -107
25 -119 9z"/>
<path d="M13190 3093 c-74 -27 -100 -55 -100 -108 0 -25 23 -43 50 -40 8 1 27
3 43 3 15 1 27 7 27 12 0 13 -43 13 -57 -1 -7 -7 -15 0 -26 22 -15 31 -14 33
8 51 31 24 72 39 90 32 18 -7 20 7 3 24 -13 13 -15 13 -38 5z"/>
<path d="M17048 3079 c-16 -11 -28 -27 -28 -34 0 -7 -7 -15 -15 -19 -18 -6
-20 15 -3 32 12 12 5 28 -9 19 -15 -10 -68 -116 -60 -123 14 -14 61 22 90 69
33 51 48 57 23 8 -38 -73 1 -116 64 -70 32 24 26 38 -9 20 -45 -25 -54 -3 -21
51 38 62 21 86 -32 47z"/>
<path d="M6262 3061 c-31 -31 -62 -106 -62 -149 0 -41 22 -19 40 42 21 67 53
106 88 106 32 0 23 24 -10 28 -18 2 -35 -6 -56 -27z"/>
<path d="M6774 3071 c-42 -19 -78 -57 -90 -93 -10 -34 35 -71 88 -72 51 0 118
12 118 22 0 4 -33 7 -73 7 -92 0 -114 13 -92 56 17 32 80 68 108 61 20 -4 22
9 5 26 -15 15 -15 15 -64 -7z"/>
<path d="M7650 3053 c-43 -42 -64 -86 -55 -114 10 -31 115 -49 115 -19 0 4
-20 11 -45 14 -25 4 -45 11 -45 16 0 19 13 40 21 34 5 -3 34 6 64 20 56 25 69
48 43 74 -22 22 -58 13 -98 -25z m84 -1 c5 -9 -83 -56 -91 -49 -6 7 57 57 72
57 8 0 16 -4 19 -8z"/>
<path d="M10114 3074 c-47 -23 -76 -58 -77 -95 -2 -27 3 -36 26 -47 24 -12 35
-12 72 1 25 8 49 10 57 6 7 -5 20 -8 28 -8 12 0 12 2 -2 12 -15 10 -14 14 13
44 27 31 38 63 22 63 -4 0 -20 -12 -35 -27 l-28 -27 0 37 c0 26 -6 39 -19 47
-24 12 -20 13 -57 -6z m56 -63 c9 -34 2 -41 -63 -56 -59 -14 -59 40 1 80 40
27 48 24 62 -24z"/>
<path d="M12703 3070 c-36 -21 -57 -55 -49 -76 6 -16 52 -19 61 -4 3 5 15 15
27 21 18 10 19 8 13 -11 -5 -15 -2 -26 6 -31 11 -7 11 -9 1 -9 -7 0 -10 -4 -7
-10 11 -18 38 -12 31 7 -4 9 1 39 11 65 15 43 15 50 3 58 -24 15 -63 11 -97
-10z m52 -22 c-16 -6 -38 -17 -47 -26 -11 -9 -18 -10 -18 -4 0 17 42 42 70 41
24 -1 24 -1 -5 -11z"/>
<path d="M16770 3081 c-49 -10 -75 -29 -94 -69 -31 -64 4 -97 89 -85 65 8 66
23 3 23 -47 0 -78 12 -78 30 0 3 19 5 43 5 55 1 101 24 105 53 3 22 -13 53
-27 51 -3 -1 -22 -4 -41 -8z m50 -42 c0 -14 -63 -39 -97 -39 l-27 0 21 21 c20
20 80 40 96 32 4 -2 7 -9 7 -14z"/>
<path d="M9033 3049 c-76 -85 -127 -131 -155 -142 -18 -6 -25 -27 -10 -27 4 0
23 11 42 24 31 21 36 22 46 8 10 -13 18 -11 64 17 37 23 51 28 46 16 -7 -19 3
-65 14 -65 4 0 10 15 13 33 3 17 9 44 12 59 4 15 4 36 0 45 -6 16 -9 15 -28
-8 -23 -27 -77 -64 -77 -53 0 4 15 25 33 48 44 54 49 64 38 70 -5 4 -22 -8
-38 -25z"/>
<path d="M9274 3061 c-47 -28 -94 -94 -94 -130 0 -25 6 -34 27 -42 31 -12 55
-9 60 8 3 7 -8 13 -24 15 -17 2 -29 10 -31 20 -5 25 44 84 89 110 22 12 39 25
39 30 0 14 -34 9 -66 -11z"/>
<path d="M11970 3069 c-31 -12 -110 -89 -110 -106 0 -29 39 -53 86 -53 25 0
43 4 40 8 -3 5 8 6 25 4 17 -3 29 0 29 7 0 7 -23 11 -62 11 -99 0 -123 32 -32
43 26 2 50 11 55 18 5 8 9 10 9 5 0 -5 7 -3 15 4 21 17 19 47 -4 60 -23 12
-19 12 -51 -1z m50 -36 c0 -11 -77 -42 -84 -35 -12 11 28 42 56 42 15 0 28 -3
28 -7z"/>
<path d="M14634 3061 c-62 -38 -85 -109 -46 -144 26 -23 102 -19 102 5 0 6
-11 7 -25 4 -14 -4 -34 -2 -45 4 -22 12 -27 40 -7 40 7 0 32 12 55 28 34 21
42 32 40 52 -4 32 -33 37 -74 11z m21 -36 c-16 -14 -34 -25 -40 -25 -5 1 4 12
20 25 17 14 35 25 40 25 6 -1 -3 -12 -20 -25z"/>
<path d="M4478 3062 c-34 -4 -68 -50 -68 -91 0 -39 21 -49 55 -27 31 20 33 20
37 -4 5 -35 23 -24 20 11 -5 49 -17 56 -52 31 -28 -21 -30 -21 -30 -4 0 10 6
25 13 34 15 19 55 30 63 17 8 -14 24 -11 24 6 0 19 -28 32 -62 27z"/>
<path d="M7393 3050 c-65 -43 -85 -116 -42 -152 34 -29 149 -20 149 11 0 5
-30 8 -67 8 l-68 -2 2 35 c2 47 53 94 95 88 22 -4 28 -1 26 11 -5 24 -58 24
-95 1z"/>
<path d="M11712 3053 c-41 -20 -76 -67 -69 -93 3 -11 0 -20 -5 -20 -6 0 -3 -9
6 -19 11 -12 31 -19 52 -19 42 0 45 14 4 23 -41 9 -45 20 -21 58 20 33 57 57
86 57 20 0 19 16 -1 24 -19 7 -13 9 -52 -11z"/>
<path d="M11528 3037 c-42 -33 -76 -86 -71 -106 6 -23 39 -38 76 -33 32 4 26
22 -7 22 -13 0 -29 6 -35 14 -9 10 0 23 39 60 27 25 58 46 70 46 11 0 20 5 20
10 0 19 -65 10 -92 -13z"/>
<path d="M4942 3037 c-33 -19 -72 -81 -72 -115 0 -35 27 -62 63 -62 32 0 36
17 6 22 -30 4 -43 29 -35 63 5 20 10 25 15 16 16 -26 86 32 79 66 -4 22 -26
26 -56 10z m28 -20 c0 -2 -10 -12 -22 -23 l-23 -19 19 23 c18 21 26 27 26 19z"/>
<path d="M6446 3019 c-37 -29 -57 -70 -45 -92 13 -22 19 -22 81 8 47 23 54 24
64 10 20 -27 36 -18 29 18 -12 54 -19 58 -51 29 -10 -10 -39 -26 -63 -36 -43
-16 -44 -16 -30 0 27 34 49 54 60 54 13 0 7 22 -7 27 -6 2 -23 -6 -38 -18z"/>
<path d="M7202 3028 c-8 -10 -42 -111 -42 -125 0 -2 4 -3 9 -3 10 0 45 71 55
113 7 28 -4 36 -22 15z"/>
<path d="M15263 3027 c-11 -18 15 -28 67 -25 35 2 55 8 58 17 3 8 1 11 -4 9
-5 -3 -33 -2 -62 2 -30 3 -55 3 -59 -3z"/>
<path d="M16273 3028 c-17 -22 -22 -47 -12 -54 14 -8 26 5 34 39 7 28 -5 37
-22 15z"/>
<path d="M9322 2919 c-59 -17 -175 -159 -243 -297 -49 -100 -52 -103 -82 -100
-39 4 -46 -16 -9 -28 l29 -9 -28 -69 c-43 -107 -18 -99 35 10 24 50 26 52 75
59 63 9 68 28 6 23 -27 -2 -45 1 -45 7 0 27 108 211 160 272 59 70 149 130
157 106 7 -20 31 -3 26 18 -6 21 -28 23 -81 8z"/>
<path d="M11724 2865 c-9 -14 -17 -39 -18 -55 -1 -15 -3 -27 -4 -25 -2 2 -31
-49 -63 -113 -33 -64 -69 -125 -81 -135 -11 -10 -18 -20 -15 -23 3 -4 -3 -24
-14 -46 -36 -70 -5 -116 70 -103 80 13 159 121 119 162 -13 13 -22 13 -52 3
-20 -6 -36 -15 -36 -18 0 -8 -52 -34 -57 -28 -2 1 23 47 54 102 50 86 133 272
133 296 0 17 -20 7 -36 -17z m-24 -362 c0 -4 -5 -22 -12 -40 -20 -54 -138
-100 -138 -54 0 14 21 33 68 60 67 41 82 47 82 34z"/>
<path d="M14526 2788 c-3 -13 -22 -46 -43 -73 -50 -66 -168 -299 -159 -313 11
-18 33 -3 39 26 6 31 107 220 143 270 13 17 24 35 23 38 0 4 4 10 9 13 6 3 14
19 17 34 5 20 4 27 -8 27 -8 0 -17 -10 -21 -22z"/>
<path d="M10147 2783 c-4 -3 -7 -13 -7 -22 0 -9 -27 -71 -60 -138 -51 -107
-62 -123 -83 -123 -40 0 -87 -12 -87 -22 0 -5 22 -6 51 -2 l51 7 -21 -42 c-12
-22 -19 -41 -16 -41 4 0 -1 -10 -9 -22 -9 -12 -16 -38 -16 -56 0 -31 2 -34 23
-28 12 4 34 9 49 12 15 4 29 12 32 19 6 16 -21 29 -29 15 -4 -6 -15 -10 -26
-10 -24 0 -21 17 17 92 13 26 23 53 22 60 -2 6 8 12 22 13 60 3 70 6 70 16 0
7 -12 9 -36 4 -20 -3 -34 -3 -32 2 91 182 125 273 101 273 -5 0 -13 -3 -16 -7z"/>
<path d="M2456 2773 c-22 -4 -26 -7 -15 -14 9 -6 1 -8 -25 -6 -22 1 -41 -3
-43 -9 -3 -8 10 -10 43 -6 l47 5 -6 -40 c-7 -43 -92 -321 -101 -330 -12 -12
-36 8 -36 31 0 37 -17 41 -22 5 -9 -62 52 -95 135 -74 62 16 92 39 138 106 77
110 101 229 58 283 -12 15 -24 25 -26 22 -3 -3 -12 1 -20 9 -8 8 -27 15 -43
15 -16 0 -34 2 -42 3 -7 2 -26 2 -42 0z m92 -33 c13 0 34 -11 47 -25 66 -65
-13 -264 -127 -323 -76 -39 -81 -31 -47 73 44 134 71 246 65 268 -4 15 -1 18
17 13 12 -3 32 -6 45 -6z"/>
<path d="M4946 2685 l-38 -84 -46 -3 c-58 -4 -70 -28 -14 -28 l40 0 -24 -75
c-29 -90 -30 -122 -5 -154 21 -27 90 -39 135 -22 40 16 28 22 -44 24 -88 3
-98 28 -57 147 l22 65 65 3 c36 1 72 5 80 8 24 10 -17 22 -72 23 -35 1 -48 5
-48 15 0 8 5 18 10 21 6 3 10 17 10 31 0 14 4 23 9 20 11 -7 21 17 27 62 7 53
-9 37 -50 -53z"/>
<path d="M13245 2750 c-3 -5 -16 -9 -28 -9 -12 1 -60 -3 -107 -10 -46 -6 -105
-11 -130 -11 -45 -1 -45 -1 -80 -62 -19 -34 -61 -101 -92 -150 -62 -96 -72
-128 -37 -128 15 0 19 4 15 16 -4 10 12 44 41 91 l48 74 45 -6 c106 -14 222
-17 216 -6 -4 6 -24 11 -44 11 -20 1 -68 7 -107 14 -38 8 -76 11 -85 8 -12 -5
-11 0 4 23 10 15 27 43 38 61 19 32 19 32 101 32 83 1 199 21 259 45 l33 13
-42 2 c-23 1 -45 -3 -48 -8z"/>
<path d="M3482 2703 c2 -18 -16 -81 -32 -118 -33 -76 -58 -185 -41 -185 7 0 9
-9 5 -25 -3 -14 -2 -25 4 -25 5 0 12 26 15 58 3 31 21 111 41 178 41 139 41
134 22 134 -8 0 -14 -8 -14 -17z"/>
<path d="M9345 2619 c-4 -6 -5 -13 -2 -16 7 -7 27 6 27 18 0 12 -17 12 -25 -2z"/>
<path d="M10305 2601 c-6 -11 33 -36 42 -27 7 7 -16 36 -28 36 -4 0 -10 -4
-14 -9z"/>
<path d="M7102 2586 c-30 -16 -54 -52 -97 -144 -29 -62 -36 -85 -27 -94 9 -9
22 10 53 78 22 49 52 101 67 116 24 26 27 27 50 12 28 -19 38 -13 23 14 -13
25 -42 32 -69 18z"/>
<path d="M14500 2529 c-41 -52 -50 -91 -30 -129 11 -21 71 -37 92 -24 7 5 20
9 28 11 29 4 99 35 110 48 21 25 1 35 -33 16 -18 -10 -54 -27 -80 -36 -59 -22
-97 -10 -97 30 0 22 4 25 38 25 47 0 82 24 82 55 0 24 -33 55 -57 55 -7 0 -31
-23 -53 -51z m88 -7 c2 -16 -3 -23 -22 -28 -13 -3 -32 -4 -40 -2 -13 2 -12 8
10 31 29 31 47 31 52 -1z"/>
<path d="M2738 2543 c-37 -40 -48 -66 -48 -112 0 -73 30 -87 138 -65 43 9 22
21 -28 16 -59 -5 -80 8 -80 49 0 23 4 29 23 29 23 1 41 12 70 47 15 17 16 25
7 42 -15 29 -51 26 -82 -6z m35 -35 c-18 -18 -36 -29 -39 -25 -10 10 36 57 55
57 11 0 6 -10 -16 -32z"/>
<path d="M4057 2563 c-4 -3 -7 -13 -7 -21 0 -7 -16 -46 -35 -85 -44 -89 -32
-111 19 -36 34 50 36 52 30 22 -8 -41 -2 -41 39 -3 35 33 84 56 94 46 4 -4 1
-26 -6 -49 -16 -54 -19 -89 -6 -94 11 -3 45 103 45 143 0 25 -2 26 -40 21 -21
-3 -53 -15 -70 -27 l-30 -21 0 21 c0 16 -4 20 -15 16 -18 -6 -18 -2 -6 42 9
30 3 41 -12 25z"/>
<path d="M5925 2546 c-55 -26 -83 -52 -82 -78 0 -25 20 -22 32 4 10 22 64 54
100 60 17 3 21 -4 25 -46 6 -55 23 -72 63 -62 35 8 87 54 87 76 0 29 -11 50
-26 50 -10 0 -12 -8 -8 -29 5 -26 2 -33 -27 -50 -50 -31 -59 -27 -59 23 0 35
-5 48 -22 60 -28 20 -23 20 -83 -8z"/>
<path d="M8860 2560 c0 -5 5 -10 10 -10 6 0 10 5 10 10 0 6 -4 10 -10 10 -5 0
-10 -4 -10 -10z"/>
<path d="M14144 2551 c-29 -18 -78 -74 -102 -116 -20 -35 -13 4 8 45 24 47 12
52 -23 11 -16 -19 -26 -47 -30 -81 -6 -53 -55 -170 -83 -201 -22 -25 2 -36 28
-12 23 21 58 85 58 107 0 29 33 84 46 79 8 -3 25 -2 39 1 31 8 97 65 89 77 -3
5 0 9 6 9 5 0 18 16 27 35 13 28 14 37 3 50 -16 20 -28 19 -66 -4z m46 -19 c0
-18 -64 -94 -91 -107 -43 -23 -52 -19 -32 16 34 58 123 124 123 91z"/>
<path d="M3033 2548 c-5 -7 -24 -44 -43 -82 -37 -74 -48 -72 -49 12 -1 23 -5
42 -11 42 -16 0 -12 -123 4 -145 14 -19 15 -19 33 -2 11 9 35 49 54 88 26 54
38 69 52 65 23 -6 22 11 -2 24 -25 13 -27 13 -38 -2z"/>
<path d="M3173 2538 c-27 -30 -53 -82 -53 -106 0 -11 9 -31 20 -44 19 -25 50
-29 103 -12 29 9 9 23 -22 14 -35 -10 -71 11 -71 41 0 14 13 25 46 39 42 19
46 22 39 47 -6 25 -21 42 -36 43 -3 0 -15 -10 -26 -22z m47 -27 c0 -4 -12 -13
-26 -19 -26 -12 -26 -7 -1 25 9 13 27 9 27 -6z"/>
<path d="M3843 2534 c-18 -14 -40 -24 -49 -22 -12 2 -24 -16 -46 -67 -54 -131
-85 -225 -76 -231 14 -9 22 3 54 83 26 66 32 73 55 71 41 -3 73 25 109 95 48
92 24 128 -47 71z m26 -49 c-29 -57 -66 -96 -85 -88 -18 7 -18 8 2 49 15 31
92 99 102 90 2 -3 -6 -26 -19 -51z"/>
<path d="M13240 2540 c0 -11 6 -20 13 -20 15 0 40 -47 32 -60 -3 -5 -21 -14
-41 -20 -25 -9 -34 -16 -29 -27 4 -13 3 -14 -10 -3 -12 10 -18 10 -30 0 -44
-37 11 -33 82 5 l42 23 6 -28 c7 -30 31 -57 41 -47 4 3 -1 24 -9 46 l-16 39
32 13 c38 15 78 49 72 60 -3 4 -26 -4 -52 -19 -44 -24 -47 -25 -57 -8 -38 64
-76 87 -76 46z"/>
<path d="M7902 2538 c-14 -14 -15 -57 -3 -110 10 -43 -3 -54 -45 -38 -23 9
-26 15 -20 40 3 17 2 30 -2 30 -15 0 -32 -24 -32 -45 0 -48 84 -81 118 -47 17
17 18 26 11 63 -4 24 -8 55 -9 68 0 23 2 24 55 17 58 -7 72 3 30 22 -34 15
-88 15 -103 0z"/>
<path d="M8163 2535 c-17 -7 -33 -22 -36 -32 -4 -16 -5 -16 -6 0 -1 22 -31 23
-31 1 0 -10 -20 -54 -45 -100 -49 -89 -54 -104 -28 -83 15 13 15 12 5 -7 -6
-12 -18 -24 -26 -27 -17 -7 -86 -137 -86 -162 0 -43 50 11 107 115 34 63 41
70 69 70 52 0 129 71 152 139 16 46 15 67 -4 85 -19 19 -29 19 -71 1z m53 -26
c13 -22 -20 -90 -62 -129 -46 -42 -93 -55 -79 -22 5 9 9 27 10 40 2 30 39 79
78 103 37 22 43 23 53 8z"/>
<path d="M11799 2548 c-1 -5 -8 -64 -13 -120 -5 -54 -9 -62 -100 -174 -53 -64
-96 -126 -96 -137 0 -19 1 -19 23 4 42 43 231 284 261 332 17 26 34 47 38 47
4 0 8 7 8 15 0 32 -32 12 -66 -41 -20 -31 -38 -54 -40 -51 -3 2 0 25 7 51 12
47 8 76 -11 76 -5 0 -10 -1 -11 -2z"/>
<path d="M3592 2519 c-38 -40 -35 -128 5 -130 53 -4 70 11 79 67 5 35 3 45
-15 63 -26 26 -45 27 -69 0z m56 -34 c21 -46 -18 -106 -45 -69 -14 20 -10 58
9 81 15 19 23 16 36 -12z"/>
<path d="M4385 2509 c-19 -17 -35 -39 -35 -49 0 -11 -4 -21 -10 -25 -16 -10
10 -53 39 -65 21 -8 35 -7 64 5 21 9 35 20 32 25 -4 7 -13 6 -25 0 -26 -14
-56 -12 -69 4 -10 12 -2 21 43 50 57 36 72 68 40 80 -28 11 -43 6 -79 -25z
m53 -18 c-13 -22 -58 -46 -58 -32 0 11 49 51 61 51 5 0 4 -9 -3 -19z"/>
<path d="M6815 2496 c-41 -44 -49 -82 -24 -107 35 -35 109 -17 135 32 47 91
-40 149 -111 75z m75 -11 c0 -8 5 -15 10 -15 17 0 11 -22 -12 -47 -21 -23 -71
-32 -82 -15 -7 11 20 62 42 78 23 18 42 17 42 -1z"/>
<path d="M10710 2504 c-30 -14 -66 -35 -79 -47 l-24 -22 12 22 c13 26 14 43 2
43 -5 0 -14 -15 -20 -33 -7 -19 -23 -44 -36 -55 -22 -20 -34 -52 -19 -52 3 0
31 20 62 43 54 42 94 67 106 67 3 0 -3 -15 -14 -32 -24 -39 -26 -71 -5 -88 12
-10 16 -9 21 5 4 9 10 12 13 7 7 -12 51 3 51 17 0 7 -8 7 -23 2 -13 -5 -29 -6
-36 -1 -15 9 3 49 44 99 23 27 27 51 7 51 -4 0 -32 -12 -62 -26z"/>
<path d="M8341 2494 c-33 -27 -56 -92 -46 -125 11 -34 47 -50 99 -43 66 9 68
24 2 24 -44 0 -57 4 -66 19 -15 29 -12 41 10 41 30 0 100 38 100 54 0 14 -45
56 -61 56 -4 0 -21 -12 -38 -26z m69 -34 c0 -11 -57 -33 -72 -28 -8 3 -3 14
15 32 23 23 31 25 42 16 8 -7 15 -16 15 -20z"/>
<path d="M10453 2503 c-2 -10 -21 -31 -43 -47 -49 -37 -68 -70 -50 -91 15 -19
37 -19 70 0 20 11 21 14 7 15 -11 0 -15 5 -11 11 4 7 -1 7 -16 -1 -37 -20 -33
-5 10 34 49 44 67 47 44 6 -10 -16 -15 -32 -11 -36 26 -27 69 65 48 105 -14
25 -41 28 -48 4z"/>
<path d="M13489 2497 c-70 -47 -60 -123 14 -100 29 9 36 8 46 -8 15 -25 34
-24 26 0 -3 12 3 30 20 49 26 32 32 52 14 52 -6 0 -17 7 -25 15 -22 21 -56 19
-95 -8z m78 -24 c5 -14 -31 -39 -69 -48 -36 -9 -36 8 -1 41 27 25 63 29 70 7z"/>
<path d="M4593 2494 c-21 -9 -39 -28 -53 -56 -23 -48 -24 -51 -9 -46 6 2 9 6
7 9 -3 5 76 79 85 79 3 0 -3 -21 -14 -46 -19 -42 -20 -74 -2 -74 8 0 53 119
53 139 0 15 -28 12 -67 -5z"/>
<path d="M9409 2481 c-16 -16 -29 -40 -29 -53 0 -35 29 -71 51 -65 11 3 19 1
19 -4 0 -5 9 -9 20 -9 30 0 24 16 -12 31 -53 21 -61 46 -28 79 27 27 38 25 46
-5 7 -30 24 -33 24 -4 0 32 -19 59 -41 59 -11 0 -34 -13 -50 -29z"/>
<path d="M13755 2496 c-11 -8 -25 -12 -32 -9 -7 3 -13 0 -13 -6 0 -5 -14 -26
-31 -46 -45 -51 -25 -66 27 -20 37 33 39 34 48 15 8 -19 11 -18 57 16 50 36
53 36 61 -10 4 -25 31 -41 54 -32 18 8 18 9 -3 17 -15 5 -23 17 -23 32 0 40
-20 48 -66 28 l-41 -19 5 24 c5 28 -13 32 -43 10z"/>
<path d="M9259 2488 c-1 -7 -1 -19 0 -27 2 -7 -2 -10 -8 -6 -7 3 -11 -2 -11
-14 0 -12 0 -23 0 -26 0 -3 3 -5 7 -6 11 -1 32 81 22 87 -5 3 -10 -1 -10 -8z"/>
<path d="M8582 2482 c-34 -10 -92 -71 -92 -98 0 -33 27 -56 63 -52 17 2 32 9
35 16 2 7 -2 10 -11 6 -20 -7 -57 13 -57 30 0 22 78 86 105 86 14 0 25 5 25
10 0 11 -32 12 -68 2z"/>
<path d="M10211 2433 c-33 -49 -37 -78 -11 -78 9 0 15 10 16 23 1 13 11 33 23
46 21 23 29 56 12 56 -5 0 -23 -21 -40 -47z"/>
<path d="M9651 2444 c-12 -15 -21 -30 -21 -35 0 -15 35 -27 55 -18 31 12 38
10 31 -7 -7 -19 1 -54 13 -54 9 0 31 82 25 92 -3 5 -11 8 -18 8 -8 0 -16 9
-19 20 -7 28 -42 25 -66 -6z m54 -14 c3 -5 -3 -10 -15 -10 -12 0 -18 5 -15 10
3 6 10 10 15 10 5 0 12 -4 15 -10z"/>
<path d="M8771 2427 c-30 -36 -46 -118 -20 -102 9 6 49 92 49 106 0 13 -16 11
-29 -4z"/>
<path d="M12915 2383 c-165 -20 -185 -24 -185 -34 0 -13 70 -11 200 6 126 17
150 22 150 35 0 10 -40 9 -165 -7z"/>
<path d="M15196 2056 c-110 -55 -198 -182 -316 -461 -23 -55 -43 -104 -44
-110 -1 -5 -10 -24 -19 -42 -19 -37 -21 -47 -7 -38 6 3 10 1 10 -4 0 -6 -6
-11 -13 -11 -14 0 -43 -68 -33 -77 3 -4 7 -4 9 -2 8 10 85 176 91 195 5 18 17
23 61 29 30 3 55 11 55 17 0 7 -16 8 -45 4 -35 -6 -45 -4 -45 7 0 7 34 82 75
166 80 160 120 211 224 283 35 25 45 28 52 17 8 -12 11 -12 19 1 13 20 8 44
-10 47 -8 2 -37 -8 -64 -21z"/>
<path d="M15324 1949 c-108 -41 -183 -138 -260 -333 -40 -100 -47 -108 -106
-120 -20 -5 -28 -12 -28 -28 0 -17 3 -19 12 -10 7 7 22 12 35 12 22 0 22 -1
-12 -72 -65 -136 -31 -121 42 17 26 51 42 71 57 73 45 3 65 12 63 30 -1 17
-37 29 -37 13 0 -5 -8 -11 -18 -13 -16 -4 -12 11 25 101 52 125 61 139 126
208 65 68 149 117 189 109 30 -6 36 2 16 22 -17 17 -44 14 -104 -9z"/>
<path d="M8712 1838 c-31 -38 -93 -136 -148 -236 -114 -205 -125 -361 -24
-361 25 0 25 0 -8 27 -25 21 -32 35 -32 63 0 29 26 137 33 140 1 0 25 2 52 5
61 6 75 11 75 23 0 5 -25 8 -55 7 -34 -1 -55 2 -55 9 0 13 126 227 143 240 14
12 47 72 47 86 0 13 -16 11 -28 -3z"/>
<path d="M15874 1833 c-3 -10 -41 -91 -84 -180 l-79 -161 -58 -7 c-59 -8 -83
-19 -83 -39 0 -8 2 -8 8 0 4 6 33 14 66 18 l58 6 -22 -37 c-67 -111 -93 -173
-72 -173 4 0 34 48 67 105 57 99 62 105 98 111 44 8 51 28 7 22 -16 -3 -30 -3
-30 -1 0 2 11 26 25 53 14 27 25 56 25 65 0 8 4 15 8 15 9 0 52 86 54 105 0 6
9 21 19 34 21 26 25 66 9 76 -6 3 -13 -2 -16 -12z"/>
<path d="M12010 1766 c-125 -82 -230 -230 -232 -325 0 -45 -22 -70 -99 -114
-21 -12 -39 -25 -39 -29 0 -12 28 -10 35 2 3 6 14 10 23 10 10 0 34 14 54 30
35 29 37 29 43 10 10 -31 95 -68 95 -40 0 5 -6 10 -14 10 -8 0 -26 14 -40 31
l-26 30 89 73 c100 84 159 164 191 261 22 66 21 95 -2 95 -7 -1 -42 -20 -78
-44z m50 -46 c-34 -85 -56 -123 -102 -170 -58 -59 -148 -134 -149 -123 -7 48
40 147 105 220 32 37 146 123 162 123 2 0 -5 -23 -16 -50z"/>
<path d="M6703 1747 c-23 -54 -86 -225 -98 -265 -6 -19 -11 -21 -46 -16 -26 4
-39 3 -39 -5 0 -6 8 -11 18 -11 42 -1 45 -14 21 -88 -22 -68 -22 -91 -1 -78 5
3 20 38 33 77 l23 71 34 -6 c23 -3 32 -1 29 7 -2 7 -16 13 -30 15 -28 3 -33
11 -19 27 16 19 112 291 112 317 0 23 -18 1 -37 -45z"/>
<path d="M9307 1657 c-87 -182 -81 -171 -103 -175 -32 -6 -41 -22 -16 -29 17
-4 21 -10 16 -22 -25 -59 -54 -145 -54 -162 0 -38 24 -13 41 42 9 30 26 75 37
100 19 45 22 46 73 53 76 10 83 20 17 26 l-58 5 70 143 c39 78 70 147 70 152
0 6 -6 10 -12 10 -7 0 -44 -64 -81 -143z"/>
<path d="M8014 1757 c-30 -45 -41 -88 -48 -192 -9 -120 -19 -152 -66 -202 -44
-48 -70 -55 -70 -20 0 28 56 107 76 107 8 0 14 5 14 10 0 12 -20 13 -35 2 -38
-27 -75 -86 -75 -118 0 -62 60 -58 121 8 43 48 56 90 65 214 6 97 18 147 39
168 17 17 23 48 10 52 -5 2 -20 -11 -31 -29z"/>
<path d="M3063 1765 c-17 -8 -52 -33 -77 -58 -26 -25 -46 -38 -46 -30 0 32
-25 3 -33 -38 -5 -24 -24 -99 -43 -165 -38 -135 -40 -148 -21 -141 7 3 19 -4
25 -14 15 -24 77 -26 130 -3 70 29 140 111 148 172 5 48 -19 77 -74 87 l-39 6
28 30 c30 33 69 106 69 132 0 27 -31 37 -67 22z m32 -36 c-4 -13 -2 -25 5 -29
9 -6 7 -10 -7 -14 -11 -4 -25 -16 -32 -29 -6 -12 -28 -33 -47 -46 -41 -29 -36
-37 38 -62 61 -20 74 -35 64 -72 -16 -65 -117 -137 -192 -137 l-33 0 4 68 c4
82 28 161 63 216 14 23 26 43 25 46 -1 5 106 80 114 80 3 0 1 -10 -2 -21z"/>
<path d="M6052 1738 c0 -37 -38 -133 -108 -276 -42 -85 -64 -142 -62 -159 4
-37 28 -42 28 -6 0 16 27 83 60 148 33 66 67 145 76 175 8 30 20 65 26 76 12
25 8 56 -8 61 -7 2 -12 -6 -12 -19z"/>
<path d="M2401 1707 c-6 -16 -11 -49 -11 -74 l0 -45 -37 27 c-21 16 -44 35
-51 43 -9 12 -15 13 -23 5 -12 -12 12 -40 77 -91 l29 -23 -72 5 c-40 3 -73 1
-73 -3 0 -15 51 -31 95 -31 55 0 58 -15 14 -72 -30 -38 -34 -63 -6 -39 8 6 21
9 30 5 16 -6 20 2 32 65 7 31 8 32 18 15 16 -31 49 -64 64 -64 17 0 6 24 -30
62 -28 30 -20 38 39 38 24 0 34 5 34 15 0 10 -11 15 -35 15 -40 0 -42 5 -15
40 11 14 20 34 20 45 0 13 -11 3 -35 -33 -41 -60 -55 -66 -50 -19 11 89 12
116 4 128 -6 10 -11 6 -18 -14z"/>
<path d="M2520 1688 c0 -19 2 -20 10 -8 13 19 13 30 0 30 -5 0 -10 -10 -10
-22z"/>
<path d="M11260 1608 c-89 -157 -140 -265 -140 -297 0 -45 17 -38 30 12 6 23
49 111 96 195 46 84 84 157 84 162 0 5 -4 11 -9 15 -5 3 -33 -36 -61 -87z"/>
<path d="M11144 1663 c-4 -10 -35 -76 -71 -148 -61 -123 -89 -215 -65 -215 6
0 18 24 28 53 9 28 25 69 36 90 10 20 15 37 11 37 -5 0 -3 4 3 8 17 11 84 148
84 172 0 25 -18 27 -26 3z"/>
<path d="M10960 1600 c0 -5 7 -10 16 -10 8 0 12 5 9 10 -3 6 -10 10 -16 10 -5
0 -9 -4 -9 -10z"/>
<path d="M13814 1580 c-30 -12 -73 -66 -100 -128 -28 -64 -28 -62 -10 -62 8 0
30 30 48 67 39 80 75 111 107 94 16 -9 21 -9 21 2 0 16 -20 37 -34 36 -6 0
-20 -4 -32 -9z"/>
<path d="M3735 1569 c-10 -15 3 -25 16 -12 7 7 7 13 1 17 -6 3 -14 1 -17 -5z"/>
<path d="M15945 1569 c-4 -6 -5 -13 -2 -16 7 -7 27 6 27 18 0 12 -17 12 -25
-2z"/>
<path d="M16186 1570 c-43 -13 -65 -38 -102 -114 -56 -115 -67 -118 -89 -24
-13 59 -31 63 -28 6 2 -44 21 -87 45 -102 25 -15 54 16 95 102 44 91 62 104
157 111 5 1 3 8 -4 16 -14 17 -31 18 -74 5z"/>
<path d="M13407 1536 c-43 -23 -45 -24 -50 -5 -6 24 -41 25 -65 2 -24 -23 -51
-31 -33 -9 9 11 9 16 0 22 -20 12 -119 -122 -119 -162 0 -23 10 -17 70 44 31
31 71 65 89 76 l33 18 -13 -23 c-6 -13 -16 -27 -22 -30 -5 -4 -6 -12 -3 -18 5
-8 16 -5 36 9 15 11 33 20 39 20 6 0 11 5 11 10 0 6 3 9 8 8 4 -1 22 6 40 16
l34 17 -26 -43 c-23 -40 -29 -83 -11 -83 5 0 13 13 18 30 6 16 23 47 39 69 15
21 28 43 28 48 0 16 -58 7 -103 -16z"/>
<path d="M14604 1541 c-38 -23 -80 -76 -89 -112 -13 -53 57 -99 126 -84 43 10
35 26 -9 19 -31 -5 -42 -2 -67 22 l-29 27 54 26 c63 30 95 68 85 100 -8 26
-31 27 -71 2z m40 -25 c-7 -19 -74 -70 -81 -62 -7 7 61 76 76 76 6 0 8 -7 5
-14z"/>
<path d="M10533 1516 c-47 -23 -71 -40 -69 -50 4 -25 15 -31 29 -13 14 19 108
67 131 67 15 0 15 -3 1 -30 -8 -16 -40 -57 -70 -91 -50 -56 -60 -79 -34 -79 5
0 20 10 34 22 13 11 42 32 64 44 l39 24 6 -35 c8 -42 21 -51 51 -35 22 12 85
115 85 139 0 22 -27 10 -39 -16 -7 -16 -24 -48 -38 -72 -26 -45 -43 -43 -43 6
0 31 -15 36 -49 19 l-29 -16 34 51 c37 55 40 69 22 87 -19 19 -49 14 -125 -22z"/>
<path d="M13960 1516 c-67 -49 -100 -92 -100 -129 0 -38 7 -50 38 -66 27 -14
106 -5 126 14 7 7 21 14 31 16 10 2 17 9 16 14 -2 6 -8 8 -14 6 -7 -2 -38 -11
-71 -19 -68 -18 -91 -10 -91 33 0 25 5 29 47 40 25 6 58 19 73 29 22 14 26 23
23 54 -4 48 -22 50 -78 8z m56 -31 c-5 -15 -22 -23 -74 -40 -22 -6 -22 -5 -10
14 7 12 17 21 21 21 5 0 21 9 35 21 27 21 40 13 28 -16z"/>
<path d="M14760 1542 c0 -5 7 -13 16 -16 25 -9 64 -7 64 4 0 6 -8 10 -17 10
-10 0 -28 3 -40 6 -13 4 -23 2 -23 -4z"/>
<path d="M16329 1525 c-69 -22 -109 -71 -109 -135 0 -65 27 -86 98 -77 68 8
158 49 165 76 5 20 -7 31 -15 13 -5 -13 -133 -62 -161 -62 -47 0 -57 9 -57 54
0 51 24 78 89 101 56 19 58 19 64 -7 8 -30 -9 -47 -55 -54 -21 -4 -41 -11 -45
-17 -9 -15 77 1 105 19 19 13 23 22 20 57 -3 37 -6 42 -28 44 -14 1 -46 -4
-71 -12z"/>
<path d="M4085 1518 c-17 -9 -54 -46 -84 -84 -10 -13 -1 -67 18 -102 12 -23
59 -41 70 -26 3 5 17 9 30 9 13 0 26 6 29 14 3 9 0 11 -8 6 -21 -13 -71 -7
-91 11 -31 28 -23 50 24 68 24 9 56 29 71 45 24 25 26 32 17 50 -13 23 -44 27
-76 9z m34 -44 c-32 -35 -79 -59 -79 -42 0 20 12 34 45 51 47 25 62 21 34 -9z"/>
<path d="M12047 1495 c-46 -35 -87 -90 -87 -117 0 -23 39 -68 58 -68 31 0 93
21 87 29 -2 5 -25 6 -49 4 -38 -5 -46 -2 -56 18 -10 18 -10 24 0 27 7 3 35 16
63 31 57 30 91 69 81 94 -10 27 -47 20 -97 -18z m34 -35 c-43 -40 -61 -49 -61
-31 0 11 80 71 94 71 6 -1 -9 -19 -33 -40z"/>
<path d="M12489 1501 c-33 -32 -99 -136 -99 -157 0 -21 20 -27 28 -7 18 45 76
135 95 148 12 8 33 15 47 15 24 1 24 1 6 15 -28 21 -42 19 -77 -14z"/>
<path d="M3852 1489 c-23 -17 -40 -34 -37 -38 2 -4 -3 -8 -11 -8 -11 0 -14 7
-10 23 4 13 2 25 -3 28 -5 3 -14 -16 -21 -43 -6 -27 -18 -58 -25 -68 -8 -10
-15 -24 -15 -32 0 -8 28 16 61 53 34 37 74 73 89 81 l27 14 -7 -37 c-4 -20
-13 -56 -20 -80 -10 -32 -10 -46 -2 -54 8 -8 12 -8 16 3 2 8 12 35 21 60 20
54 17 123 -5 127 -8 1 -34 -11 -58 -29z"/>
<path d="M4491 1507 c-46 -23 -47 -39 -8 -110 36 -64 36 -65 15 -71 -27 -6
-68 3 -68 15 0 5 -9 9 -20 9 -29 0 -25 -24 6 -41 27 -14 104 -17 124 -4 17 11
11 39 -18 86 -42 66 -44 77 -21 90 21 11 47 9 82 -6 24 -10 23 21 -2 35 -26
13 -61 13 -90 -3z"/>
<path d="M9690 1509 c-48 -20 -102 -86 -120 -149 -14 -49 7 -45 34 8 36 72 69
107 115 122 22 7 38 17 35 21 -7 11 -32 10 -64 -2z"/>
<path d="M15240 1511 c-56 -23 -110 -91 -110 -139 0 -20 42 -72 58 -72 22 0
102 33 102 42 0 6 -8 7 -17 3 -43 -17 -80 -17 -96 0 -20 20 -23 46 -3 39 21
-8 101 58 104 87 3 29 -16 50 -38 40z m-14 -78 c-34 -29 -66 -33 -45 -5 7 9
25 27 39 39 22 18 25 19 29 5 2 -9 -9 -26 -23 -39z"/>
<path d="M3242 1458 c-38 -52 -79 -93 -132 -131 l-25 -18 35 6 c19 3 46 16 60
30 18 17 32 23 48 19 13 -4 33 1 47 10 l25 16 0 -34 c0 -19 5 -38 10 -41 14
-9 51 4 44 16 -3 5 -10 7 -15 4 -9 -6 -13 34 -9 83 2 28 -17 28 -47 0 -34 -32
-38 -15 -7 31 19 30 24 45 17 52 -8 8 -23 -5 -51 -43z"/>
<path d="M4282 1494 c-28 -19 -28 -53 -1 -105 32 -63 4 -94 -42 -48 -13 13
-27 18 -37 14 -14 -5 -12 -11 16 -36 18 -16 41 -29 52 -29 24 0 60 34 60 55 0
9 -9 33 -20 55 -11 22 -20 46 -20 54 0 21 49 33 61 15 6 -11 11 -11 20 -2 9 9
9 16 -1 28 -16 19 -59 19 -88 -1z"/>
<path d="M12267 1466 c-49 -45 -57 -65 -32 -86 14 -12 29 -11 69 6 14 5 17 4
12 -4 -9 -15 2 -52 15 -52 5 0 9 9 9 20 0 12 9 40 20 62 11 23 20 43 20 45 0
10 -40 0 -51 -13 -13 -15 -62 -44 -76 -44 -4 0 13 20 37 45 29 30 41 48 34 55
-6 6 -26 -5 -57 -34z"/>
<path d="M13571 1475 c-72 -83 -33 -150 56 -95 33 20 46 49 39 85 -3 11 -5 26
-5 33 -1 6 -14 12 -30 12 -21 0 -38 -10 -60 -35z m67 -28 c3 -22 -3 -30 -32
-44 -42 -19 -52 -14 -36 19 32 61 63 72 68 25z"/>
<path d="M8962 1487 c-21 -10 -22 -16 -20 -86 3 -65 1 -76 -14 -79 -24 -5 -46
42 -29 62 16 19 -2 29 -24 12 -41 -30 -8 -106 46 -106 45 0 63 37 55 111 -7
58 -6 60 13 54 16 -5 21 -2 21 13 0 25 -18 32 -48 19z"/>
<path d="M12664 1471 c-71 -53 -124 -110 -124 -133 0 -19 23 -4 83 57 36 36
70 65 75 65 6 0 6 -14 0 -40 -8 -30 -7 -44 2 -55 20 -24 27 -18 29 23 1 20 3
53 4 72 3 46 -18 49 -69 11z"/>
<path d="M15415 1482 c-69 -44 -88 -99 -45 -134 28 -23 69 -23 115 -1 38 18
49 39 13 26 -13 -4 -43 -8 -68 -8 -41 0 -45 2 -48 25 -4 32 32 67 76 76 25 5
32 3 32 -10 0 -9 5 -16 11 -16 6 0 9 12 7 28 -2 22 -9 28 -33 30 -16 1 -43 -6
-60 -16z"/>
<path d="M3495 1476 c-19 -14 -19 -15 -2 -50 32 -68 14 -115 -38 -102 -18 5
-25 2 -25 -8 0 -32 72 -35 94 -4 20 29 20 87 0 116 -14 21 -14 23 10 34 15 6
26 15 26 20 0 13 -44 9 -65 -6z"/>
<path d="M6065 1480 c-8 -13 4 -130 15 -151 6 -11 -1 -31 -27 -69 -19 -29 -49
-81 -65 -116 -24 -52 -28 -67 -18 -79 13 -16 33 -10 27 8 -9 28 99 214 195
335 28 35 48 65 46 68 -12 11 -41 -12 -86 -72 l-50 -64 -8 62 c-4 35 -7 69 -5
76 2 14 -15 16 -24 2z"/>
<path d="M7467 1449 c-58 -50 -84 -94 -66 -115 15 -18 45 -18 56 -1 4 8 18 16
31 19 12 4 20 2 16 -3 -7 -12 5 -49 17 -49 5 0 9 10 9 21 0 12 10 37 21 56 30
49 12 65 -32 29 -34 -29 -89 -60 -95 -54 -2 2 21 28 51 58 l55 54 25 -24 c14
-13 28 -21 31 -17 10 10 -36 67 -54 67 -9 0 -38 -19 -65 -41z"/>
<path d="M7704 1477 c-47 -27 -114 -99 -114 -121 0 -18 28 0 69 44 60 64 75
65 54 5 -15 -46 -13 -75 7 -75 5 0 9 3 8 8 -2 4 6 33 16 65 14 46 16 61 6 72
-15 18 -19 18 -46 2z"/>
<path d="M9137 1483 c-12 -11 -8 -23 8 -23 8 0 15 7 15 15 0 16 -12 20 -23 8z"/>
<path d="M5546 1473 c-4 -4 -11 -8 -16 -8 -39 0 -157 -144 -131 -160 6 -3 17
7 25 23 8 16 38 50 67 76 77 69 100 59 59 -26 -39 -81 -15 -97 25 -17 31 61
31 112 0 117 -12 2 -24 -1 -29 -5z"/>
<path d="M5698 1472 c-28 -11 -68 -73 -68 -104 0 -38 33 -52 74 -31 24 12 30
13 38 1 7 -10 11 -10 14 -1 3 7 17 29 30 49 19 27 22 40 14 48 -8 8 -14 7 -23
-5 -19 -25 -99 -79 -108 -73 -27 16 25 91 67 96 13 2 25 8 25 13 0 12 -40 17
-63 7z"/>
<path d="M6330 1464 c0 -9 14 -32 30 -51 36 -40 35 -39 10 -80 -21 -35 -70
-48 -70 -18 0 22 -17 18 -23 -4 -6 -25 10 -41 43 -41 33 0 66 24 86 62 15 29
15 32 -17 76 -21 29 -29 47 -21 50 21 7 13 22 -13 22 -16 0 -25 -6 -25 -16z"/>
<path d="M6851 1469 c-47 -19 -52 -27 -36 -66 21 -49 19 -60 -12 -68 -21 -5
-31 -1 -44 17 -16 21 -18 21 -24 5 -17 -42 32 -69 85 -47 35 15 48 50 31 86
-15 34 -15 34 19 46 17 5 29 15 27 21 -5 15 -18 17 -46 6z"/>
<path d="M9392 1447 c-18 -18 -32 -38 -32 -44 0 -7 -8 -17 -17 -23 -13 -8 -14
-13 -5 -16 6 -3 12 -11 12 -18 0 -21 45 -56 72 -56 14 0 31 7 38 15 10 12 7
14 -17 14 -48 0 -59 4 -60 21 -1 10 17 24 48 38 57 26 75 63 43 87 -29 22 -47
18 -82 -18z m67 -11 c9 -10 6 -17 -11 -28 -26 -17 -68 -29 -68 -20 0 8 52 62
61 62 3 0 12 -6 18 -14z"/>
<path d="M9844 1461 c-40 -24 -45 -38 -28 -80 8 -18 11 -37 8 -42 -9 -15 -34
-10 -34 7 0 20 -24 13 -28 -9 -4 -20 33 -40 63 -33 30 8 37 39 19 82 l-15 35
51 22 c28 13 48 26 44 30 -13 13 -48 7 -80 -12z"/>
<path d="M5237 1438 c-75 -65 -100 -132 -53 -144 26 -6 58 7 91 37 20 18 20
17 20 -13 0 -17 6 -33 13 -35 7 -3 12 5 12 22 0 14 7 40 16 56 14 27 14 32 0
42 -8 7 -16 23 -18 37 -4 37 -37 36 -81 -2z m36 -72 c-90 -72 -112 -56 -36 25
l47 51 8 -28 c6 -22 2 -31 -19 -48z"/>
<path d="M8740 1464 c0 -5 -12 -10 -27 -11 -33 -1 -103 -72 -103 -103 0 -30
53 -80 84 -80 31 0 76 17 76 29 0 4 -20 6 -45 3 -35 -3 -50 0 -65 13 -23 21
-27 50 -6 42 15 -6 126 44 143 65 7 8 9 19 5 25 -9 14 -62 28 -62 17z m30 -32
c0 -7 -103 -62 -116 -62 -12 0 21 33 51 52 31 19 65 24 65 10z"/>
<path d="M10861 1457 c-16 -20 -42 -98 -35 -108 8 -14 24 -11 24 4 0 8 11 36
25 63 14 27 25 50 25 52 0 8 -29 0 -39 -11z"/>
<path d="M6690 1432 c0 -11 39 -12 45 -1 4 5 -5 9 -19 9 -14 0 -26 -4 -26 -8z"/>
<path d="M15826 1398 c-24 -60 -28 -88 -12 -88 9 0 20 17 27 43 7 23 16 46 21
52 13 14 10 25 -8 25 -8 0 -21 -15 -28 -32z"/>
<path d="M3656 1412 c-9 -15 -19 -92 -12 -92 7 0 19 30 30 73 6 25 -6 38 -18
19z"/>
<path d="M8568 1258 c9 -9 15 -9 24 0 9 9 7 12 -12 12 -19 0 -21 -3 -12 -12z"/>
<path d="M5102 1244 c-5 -11 -20 -66 -32 -124 -13 -58 -33 -127 -45 -155 -39
-86 -105 -159 -126 -138 -12 12 10 79 38 109 18 20 27 23 42 14 26 -14 31 -13
31 5 0 9 -11 20 -25 27 -35 16 -71 -11 -102 -78 -28 -61 -25 -99 7 -109 22 -7
83 22 84 40 0 6 13 22 29 38 15 15 37 48 48 75 30 69 81 294 70 305 -6 6 -13
2 -19 -9z"/>
<path d="M4313 1212 c-16 -22 -48 -96 -73 -165 -40 -111 -48 -127 -67 -127
-13 0 -23 -4 -23 -10 0 -5 9 -10 20 -10 18 0 18 -2 4 -42 -9 -28 -11 -45 -4
-52 12 -12 14 -10 32 44 l15 45 54 1 c74 2 76 3 59 14 -8 5 -34 10 -57 10 -24
0 -43 4 -43 8 0 17 83 229 102 260 20 33 34 43 25 17 -4 -8 -2 -17 2 -20 10
-6 21 18 21 46 0 33 -38 22 -67 -19z"/>
<path d="M6688 1049 c-10 -5 -15 -16 -12 -24 8 -19 24 -19 24 0 0 8 5 15 10
15 6 0 10 5 10 10 0 12 -10 12 -32 -1z"/>
<path d="M2325 1021 c-47 -30 -80 -70 -68 -82 7 -7 24 2 54 30 27 25 45 36 47
28 1 -8 -13 -51 -33 -96 -50 -119 -46 -139 15 -76 19 19 37 35 41 35 4 0 10
-16 13 -35 10 -49 35 -60 77 -32 45 30 69 80 69 145 0 73 -23 65 -30 -9 -5
-54 -21 -88 -56 -124 -17 -16 -18 -16 -31 1 -7 10 -13 28 -13 40 0 34 -22 46
-49 27 -22 -15 -23 -15 -12 6 7 12 9 26 5 32 -3 6 2 16 12 23 11 9 17 27 18
57 1 51 -14 59 -59 30z"/>
<path d="M5190 1025 c-17 -21 -9 -26 29 -19 25 5 29 9 20 20 -15 18 -34 18
-49 -1z"/>
<path d="M2971 973 c-35 -74 -82 -144 -92 -137 -5 3 -9 33 -9 67 0 69 -8 107
-21 107 -5 0 -9 -38 -9 -84 0 -72 3 -87 19 -98 18 -13 14 -20 -65 -127 -46
-62 -82 -117 -78 -122 3 -5 0 -9 -5 -9 -6 0 -11 -7 -11 -15 0 -30 19 -14 64
53 26 37 78 110 116 162 38 52 67 97 64 101 -2 4 -1 9 4 11 14 6 54 82 59 111
7 42 -11 32 -36 -20z"/>
<path d="M3169 1002 c-1 -9 -2 -49 -3 -89 0 -39 -4 -74 -7 -77 -12 -13 -61 14
-55 29 6 18 1 19 -25 5 -40 -22 -10 -61 59 -75 30 -6 33 -4 48 30 8 21 15 61
14 89 -1 28 -1 55 -1 59 1 5 17 -1 36 -13 48 -30 61 -21 28 17 -33 37 -92 53
-94 25z"/>
<path d="M6422 977 c-34 -18 -48 -34 -68 -77 -18 -40 -22 -56 -13 -64 8 -8 13
-8 16 0 13 37 68 108 94 122 17 9 38 22 47 29 31 23 -29 14 -76 -10z"/>
<path d="M6011 971 c-12 -12 -35 -53 -52 -91 -46 -102 -79 -91 -79 26 0 23 -5
34 -14 34 -22 0 -24 -10 -12 -79 8 -45 17 -68 31 -76 36 -23 63 -2 100 79 37
81 49 94 70 76 24 -20 19 13 -4 34 -18 17 -20 17 -40 -3z"/>
<path d="M6755 972 c-38 -23 -95 -88 -95 -107 0 -24 13 -17 35 18 19 30 88 77
99 67 2 -3 1 -24 -3 -47 -7 -38 1 -75 13 -62 14 14 25 111 16 130 -13 24 -27
24 -65 1z"/>
<path d="M5659 967 c-41 -31 -24 -120 25 -133 32 -8 77 14 93 45 19 40 -18 97
-54 84 -17 -6 -17 -23 0 -23 7 0 18 -9 25 -20 10 -17 9 -23 -9 -41 -28 -28
-60 -21 -72 15 -9 26 -7 32 17 51 14 11 26 24 26 28 0 11 -34 7 -51 -6z"/>
<path d="M6171 954 c-56 -47 -59 -145 -6 -180 27 -17 105 -11 105 8 0 6 -12 8
-31 4 -40 -8 -64 6 -78 44 -9 28 -8 32 12 39 33 13 87 60 87 77 0 13 -29 34
-49 34 -5 0 -23 -12 -40 -26z m57 -16 c-6 -17 -56 -53 -64 -45 -8 7 41 57 56
57 7 0 10 -5 8 -12z"/>
<path d="M2674 962 c-36 -6 -87 -70 -88 -111 -1 -32 2 -36 25 -39 18 -2 39 8
70 34 l43 36 9 -31 c11 -44 22 -38 25 14 2 52 -11 65 -41 37 -25 -22 -88 -62
-99 -62 -16 0 -7 27 20 60 21 25 36 33 60 33 18 0 32 4 32 8 0 13 -33 25 -56
21z"/>
<path d="M5304 955 c-51 -23 -61 -42 -41 -77 22 -38 14 -47 -23 -26 -45 26
-59 -9 -16 -37 22 -15 27 -15 55 0 35 17 38 34 16 69 -16 23 -15 24 24 42 66
31 51 58 -15 29z"/>
<path d="M5433 946 c-75 -63 -67 -172 10 -152 15 3 27 11 27 17 0 6 -7 9 -15
5 -26 -9 -45 5 -45 34 0 30 40 80 65 80 10 0 15 7 13 17 -5 26 -23 26 -55 -1z"/>
<path d="M6931 920 c-37 -29 -51 -47 -51 -65 0 -22 5 -25 33 -25 19 0 56 11
83 25 27 14 49 25 49 25 4 0 -19 -180 -25 -196 -8 -20 -14 -21 -72 -17 -55 4
-68 2 -98 -19 -40 -27 -80 -82 -80 -110 0 -10 7 -34 15 -53 18 -44 56 -61 97
-44 41 17 103 80 124 128 10 22 21 41 25 41 3 0 23 -7 42 -15 70 -29 80 -11
15 25 -24 13 -44 24 -45 25 -2 1 2 16 7 34 5 19 12 70 15 115 3 44 8 96 12
115 5 28 3 33 -10 28 -9 -3 -18 0 -21 9 -10 27 -62 16 -115 -26z m91 -5 c1
-11 -70 -55 -89 -55 -20 0 -5 23 30 48 32 22 57 26 59 7z m-20 -294 c7 -9 8
-13 4 -9 -5 5 -17 -9 -26 -30 -25 -55 -90 -117 -122 -117 -43 1 -61 23 -55 69
7 53 49 94 107 104 53 10 75 6 92 -17z"/>
<path d="M3999 938 c-51 -42 -63 -99 -24 -124 23 -15 27 -15 62 3 20 10 46 30
57 46 l20 27 -21 28 c-23 30 -69 40 -94 20z m55 -24 c22 -9 20 -40 -4 -57 -11
-8 -18 -16 -15 -18 2 -3 -8 -5 -23 -4 -34 0 -39 23 -12 58 23 28 29 31 54 21z"/>
<path d="M6578 903 c-3 -16 -9 -36 -13 -45 -4 -11 -3 -18 4 -18 13 0 31 41 31
71 0 29 -17 23 -22 -8z"/>
<path d="M5080 870 c-19 -59 2 -76 24 -20 15 39 14 60 -3 60 -4 0 -14 -18 -21
-40z"/>
</g>
</svg>
